# https://github.com/mikedh/trimesh
v -0.01429999 0.01749090 0.01209998
v 0.01770001 0.01749090 0.01209998
v 0.01770001 0.01749090 0.00009999
v -0.01429999 0.01749090 0.00009999
v 0.01770001 -0.01750910 0.01209998
v -0.01429999 -0.01750910 0.01209998
v -0.01429999 -0.01750910 0.00009999
v 0.01770001 -0.01750910 0.00009999
v 0.02470001 -0.01750910 0.00009999
v 0.02470001 -0.01750910 0.01209998
v 0.02470001 0.01749090 0.01209998
v 0.02470001 0.01749090 0.00009999
v 0.01770001 -0.01900910 0.01209998
v -0.01429999 -0.01900910 0.01209998
v -0.01429999 -0.01750910 0.07110000
v -0.01429999 -0.01900910 0.07110000
v 0.01770001 -0.01900910 0.07110000
v 0.02470001 -0.01900910 0.01209998
v 0.02470001 -0.01750910 0.07110000
v 0.01770001 -0.01750910 0.07110000
v 0.02470001 -0.01900910 0.07110000
v -0.01429999 0.01749090 0.07110000
v -0.01429999 0.01899090 0.07110000
v -0.01429999 0.01899090 0.01209998
v 0.01770001 0.01899090 0.01209998
v 0.01770001 0.01899090 0.07110000
v 0.01770001 0.01749090 0.07110000
v 0.02470001 0.01749090 0.07110000
v 0.02470001 0.01899090 0.07110000
v 0.02470001 0.01899090 0.01209998
v 0.02620001 -0.01900910 0.01209998
v 0.02620001 -0.01900910 0.07110000
v 0.02620001 -0.01750910 0.07110000
v 0.02620001 -0.01750910 0.01209998
v 0.02620001 0.01899090 0.07110000
v 0.02620001 0.01899090 0.01209998
v 0.02620001 0.01749090 0.01209998
v 0.02620001 0.01749090 0.07110000
v 0.01770001 -0.01900910 0.08159998
v -0.01429999 -0.01900910 0.08159998
v -0.01429999 -0.01750910 0.08159998
v 0.01770001 -0.01750910 0.08159998
v -0.01429999 0.01899090 0.08159998
v 0.01770001 0.01899090 0.08159998
v 0.01770001 0.01749090 0.08159998
v -0.01429999 0.01749090 0.08159998
v -0.01429999 -0.01900910 0.08309999
v -0.01429999 -0.01750910 0.08309999
v 0.01770001 -0.01750910 0.08309999
v 0.01770001 -0.01900910 0.08309999
v 0.01770001 0.01899090 0.08309999
v 0.01770001 0.01749090 0.08309999
v -0.01429999 0.01749090 0.08309999
v -0.01429999 0.01899090 0.08309999
v 0.01770001 0.02399090 0.08309999
v -0.01429999 0.02399090 0.08309999
v -0.01429999 0.02399090 0.08159998
v 0.01770001 0.02399090 0.08159998
v -0.01429999 -0.02400910 0.08309999
v 0.01770001 -0.02400910 0.08309999
v 0.01770001 -0.02400910 0.08159998
v -0.01429999 -0.02400910 0.08159998
v 0.02620001 -0.00000910 0.01209998
v 0.02620001 -0.00000910 0.07110000
v 0.02470001 -0.00000910 0.07110000
v 0.02470001 -0.00000910 0.01209998
v 0.02470001 -0.00000910 0.00009999
v 0.01770001 -0.00000910 0.00009999
v -0.01429999 -0.00000910 0.00009999
v 0.00770101 0.05573690 0.06631398
v 0.00770101 0.05223690 0.06631398
v 0.00655301 0.05223690 0.06654298
v 0.00655301 0.05573690 0.06654298
v 0.00557901 0.05223690 0.06719300
v 0.00557901 0.05573690 0.06719300
v 0.00492901 0.05223690 0.06816599
v 0.00492901 0.05573690 0.06816599
v 0.00470101 0.05223690 0.06931400
v 0.00470101 0.05573690 0.06931400
v 0.00492901 0.05223690 0.07046199
v 0.00492901 0.05573690 0.07046199
v 0.00557901 0.05223690 0.07143599
v 0.00557901 0.05573690 0.07143599
v 0.00655301 0.05223690 0.07208598
v 0.00655301 0.05573690 0.07208598
v 0.00770101 0.05223690 0.07231399
v 0.00770101 0.05573690 0.07231399
v 0.00884901 0.05223690 0.07208598
v 0.00884901 0.05573690 0.07208598
v 0.00982201 0.05223690 0.07143599
v 0.00982201 0.05573690 0.07143599
v 0.01047201 0.05223690 0.07046199
v 0.01047201 0.05573690 0.07046199
v 0.01070101 0.05223690 0.06931400
v 0.01070101 0.05573690 0.06931400
v 0.01047201 0.05223690 0.06816599
v 0.01047201 0.05573690 0.06816599
v 0.00982201 0.05223690 0.06719300
v 0.00982201 0.05573690 0.06719300
v 0.00884901 0.05223690 0.06654298
v 0.00884901 0.05573690 0.06654298
v 0.00770101 0.05573690 0.06931400
v 0.00770101 0.05223690 0.06931400
v -0.00829899 0.05223690 0.06931400
v -0.00829899 0.01973690 0.06931400
v -0.00708099 0.01973690 0.07543698
v -0.00708099 0.05223690 0.07543698
v -0.00361299 0.01973690 0.08062798
v -0.00361299 0.05223690 0.08062798
v 0.01901401 0.05223690 0.08062798
v 0.01901401 0.01973690 0.08062798
v 0.02248301 0.01973690 0.07543698
v 0.02248301 0.05223690 0.07543698
v 0.02370101 0.01973690 0.06931400
v 0.02370101 0.05223690 0.06931400
v 0.00770101 0.01973690 0.06931400
v -0.00829899 0.01973690 0.05981401
v -0.00829899 0.05223690 0.05981401
v 0.00770101 0.01973690 0.05981401
v 0.00770101 0.05223690 0.05981401
v 0.02370101 0.01973690 0.05981401
v 0.02370101 0.05223690 0.05981401
v -0.00829899 0.01973690 0.03831398
v -0.00829899 0.05223690 0.03831398
v 0.00770101 0.01973690 0.03831398
v 0.00770101 0.05223690 0.03831398
v 0.02370101 0.01973690 0.03831398
v 0.02370101 0.05223690 0.03831398
v 0.00770101 -0.05276310 0.06631398
v 0.00655301 -0.05276310 0.06654298
v 0.00770101 -0.05276310 0.06931400
v 0.00557901 -0.05276310 0.06719300
v 0.00492901 -0.05276310 0.06816599
v 0.00470101 -0.05276310 0.06931400
v 0.00492901 -0.05276310 0.07046199
v 0.00557901 -0.05276310 0.07143599
v 0.00655301 -0.05276310 0.07208598
v 0.00770101 -0.05276310 0.07231399
v 0.00884901 -0.05276310 0.07208598
v 0.00982201 -0.05276310 0.07143599
v 0.01047201 -0.05276310 0.07046199
v 0.01070101 -0.05276310 0.06931400
v 0.01047201 -0.05276310 0.06816599
v 0.00982201 -0.05276310 0.06719300
v 0.00884901 -0.05276310 0.06654298
v 0.00655301 -0.05626310 0.06654298
v 0.00770101 -0.05626310 0.06631398
v 0.00770101 -0.05626310 0.06931400
v 0.00557901 -0.05626310 0.06719300
v 0.00492901 -0.05626310 0.06816599
v 0.00470101 -0.05626310 0.06931400
v 0.00492901 -0.05626310 0.07046199
v 0.00557901 -0.05626310 0.07143599
v 0.00655301 -0.05626310 0.07208598
v 0.00770101 -0.05626310 0.07231399
v 0.00884901 -0.05626310 0.07208598
v 0.00982201 -0.05626310 0.07143599
v 0.01047201 -0.05626310 0.07046199
v 0.01070101 -0.05626310 0.06931400
v 0.01047201 -0.05626310 0.06816599
v 0.00982201 -0.05626310 0.06719300
v 0.00884901 -0.05626310 0.06654298
v 0.02370101 -0.05276310 0.06931400
v 0.02370101 -0.02026310 0.06931400
v 0.02248301 -0.02026310 0.07543698
v 0.02248301 -0.05276310 0.07543698
v 0.01901401 -0.02026310 0.08062798
v 0.01901401 -0.05276310 0.08062798
v -0.00361299 -0.05276310 0.08062798
v -0.00361299 -0.02026310 0.08062798
v -0.00708099 -0.02026310 0.07543698
v -0.00708099 -0.05276310 0.07543698
v -0.00829899 -0.02026310 0.06931400
v -0.00829899 -0.05276310 0.06931400
v 0.00770101 -0.02026310 0.06931400
v 0.02370101 -0.02026310 0.05981401
v 0.02370101 -0.05276310 0.05981401
v 0.00770101 -0.02026310 0.05981401
v 0.00770101 -0.05276310 0.05981401
v -0.00829899 -0.02026310 0.05981401
v -0.00829899 -0.05276310 0.05981401
v 0.02370101 -0.02026310 0.03831398
v 0.02370101 -0.05276310 0.03831398
v 0.00770101 -0.02026310 0.03831398
v 0.00770101 -0.05276310 0.03831398
v -0.00829899 -0.02026310 0.03831398
v -0.00829899 -0.05276310 0.03831398
f 1 2 3
f 1 3 4
f 5 6 7
f 5 7 8
f 5 8 9
f 5 9 10
f 3 2 11
f 3 11 12
f 6 5 13
f 6 13 14
f 15 6 14
f 15 14 16
f 14 13 17
f 14 17 16
f 5 10 18
f 5 18 13
f 19 20 17
f 19 17 21
f 17 13 18
f 17 18 21
f 1 22 23
f 1 23 24
f 2 1 24
f 2 24 25
f 25 24 23
f 25 23 26
f 27 28 29
f 27 29 26
f 11 2 25
f 11 25 30
f 25 26 29
f 25 29 30
f 21 18 31
f 21 31 32
f 19 21 32
f 19 32 33
f 18 10 34
f 18 34 31
f 34 33 32
f 34 32 31
f 30 29 35
f 30 35 36
f 11 30 36
f 11 36 37
f 29 28 38
f 29 38 35
f 38 37 36
f 38 36 35
f 16 17 39
f 16 39 40
f 15 16 40
f 15 40 41
f 20 15 41
f 20 41 42
f 17 20 42
f 17 42 39
f 26 23 43
f 26 43 44
f 27 26 44
f 27 44 45
f 22 27 45
f 22 45 46
f 23 22 46
f 23 46 43
f 41 40 47
f 41 47 48
f 42 41 48
f 42 48 49
f 39 42 49
f 39 49 50
f 49 48 47
f 49 47 50
f 45 44 51
f 45 51 52
f 46 45 52
f 46 52 53
f 43 46 53
f 43 53 54
f 53 52 51
f 53 51 54
f 54 51 55
f 54 55 56
f 43 54 56
f 43 56 57
f 44 43 57
f 44 57 58
f 51 44 58
f 51 58 55
f 58 57 56
f 58 56 55
f 50 47 59
f 50 59 60
f 39 50 60
f 39 60 61
f 40 39 61
f 40 61 62
f 47 40 62
f 47 62 59
f 62 61 60
f 62 60 59
f 22 1 2
f 22 2 27
f 27 2 11
f 27 11 28
f 20 5 6
f 20 6 15
f 19 10 5
f 19 5 20
f 63 37 38
f 63 38 64
f 33 34 63
f 33 63 64
f 65 19 33
f 65 33 64
f 38 28 65
f 38 65 64
f 66 11 37
f 66 37 63
f 34 10 66
f 34 66 63
f 66 10 19
f 66 19 65
f 28 11 66
f 28 66 65
f 67 12 11
f 67 11 66
f 10 9 67
f 10 67 66
f 68 3 12
f 68 12 67
f 9 8 68
f 9 68 67
f 69 4 3
f 69 3 68
f 8 7 69
f 8 69 68
f 68 3 4
f 68 4 69
f 7 8 68
f 7 68 69
f 70 71 72
f 70 72 73
f 73 72 74
f 73 74 75
f 75 74 76
f 75 76 77
f 77 76 78
f 77 78 79
f 79 78 80
f 79 80 81
f 81 80 82
f 81 82 83
f 83 82 84
f 83 84 85
f 85 84 86
f 85 86 87
f 87 86 88
f 87 88 89
f 89 88 90
f 89 90 91
f 91 90 92
f 91 92 93
f 93 92 94
f 93 94 95
f 95 94 96
f 95 96 97
f 97 96 98
f 97 98 99
f 99 98 100
f 99 100 101
f 101 100 71
f 101 71 70
f 70 73 102
f 73 75 102
f 75 77 102
f 77 79 102
f 79 81 102
f 81 83 102
f 83 85 102
f 85 87 102
f 87 89 102
f 89 91 102
f 91 93 102
f 93 95 102
f 95 97 102
f 97 99 102
f 99 101 102
f 101 70 102
f 72 71 103
f 74 72 103
f 76 74 103
f 78 76 103
f 80 78 103
f 82 80 103
f 84 82 103
f 86 84 103
f 88 86 103
f 90 88 103
f 92 90 103
f 94 92 103
f 96 94 103
f 98 96 103
f 100 98 103
f 71 100 103
f 104 105 106
f 104 106 107
f 107 106 108
f 107 108 109
f 110 111 112
f 110 112 113
f 113 112 114
f 113 114 115
f 104 107 103
f 107 109 103
f 110 113 103
f 113 115 103
f 106 105 116
f 108 106 116
f 112 111 116
f 114 112 116
f 117 105 104
f 117 104 118
f 119 116 105
f 119 105 117
f 118 104 103
f 118 103 120
f 121 114 116
f 121 116 119
f 122 115 114
f 122 114 121
f 120 103 115
f 120 115 122
f 123 117 118
f 123 118 124
f 125 119 117
f 125 117 123
f 124 118 120
f 124 120 126
f 124 126 125
f 124 125 123
f 127 121 119
f 127 119 125
f 128 122 121
f 128 121 127
f 126 120 122
f 126 122 128
f 126 128 127
f 126 127 125
f 109 108 111
f 109 111 110
f 103 109 110
f 111 108 116
f 129 130 131
f 130 132 131
f 132 133 131
f 133 134 131
f 134 135 131
f 135 136 131
f 136 137 131
f 137 138 131
f 138 139 131
f 139 140 131
f 140 141 131
f 141 142 131
f 142 143 131
f 143 144 131
f 144 145 131
f 145 129 131
f 146 147 148
f 149 146 148
f 150 149 148
f 151 150 148
f 152 151 148
f 153 152 148
f 154 153 148
f 155 154 148
f 156 155 148
f 157 156 148
f 158 157 148
f 159 158 148
f 160 159 148
f 161 160 148
f 162 161 148
f 147 162 148
f 129 147 146
f 129 146 130
f 130 146 149
f 130 149 132
f 132 149 150
f 132 150 133
f 133 150 151
f 133 151 134
f 134 151 152
f 134 152 135
f 135 152 153
f 135 153 136
f 136 153 154
f 136 154 137
f 137 154 155
f 137 155 138
f 138 155 156
f 138 156 139
f 139 156 157
f 139 157 140
f 140 157 158
f 140 158 141
f 141 158 159
f 141 159 142
f 142 159 160
f 142 160 143
f 143 160 161
f 143 161 144
f 144 161 162
f 144 162 145
f 145 162 147
f 145 147 129
f 163 164 165
f 163 165 166
f 166 165 167
f 166 167 168
f 169 170 171
f 169 171 172
f 172 171 173
f 172 173 174
f 163 166 131
f 166 168 131
f 169 172 131
f 172 174 131
f 165 164 175
f 167 165 175
f 171 170 175
f 173 171 175
f 176 164 163
f 176 163 177
f 178 175 164
f 178 164 176
f 177 163 131
f 177 131 179
f 180 173 175
f 180 175 178
f 181 174 173
f 181 173 180
f 179 131 174
f 179 174 181
f 182 176 177
f 182 177 183
f 184 178 176
f 184 176 182
f 183 177 179
f 183 179 185
f 183 185 184
f 183 184 182
f 186 180 178
f 186 178 184
f 187 181 180
f 187 180 186
f 185 179 181
f 185 181 187
f 185 187 186
f 185 186 184
f 168 167 170
f 168 170 169
f 131 168 169
f 170 167 175

