# https://github.com/mikedh/trimesh

o Visualization Toolkit generated SLA File
v -0.01493683 0.04793887 -0.00866132
v -0.02787910 -0.04490106 -0.00866132
v -0.02787910 0.04447100 -0.00866132
v -0.01493684 -0.04836893 -0.00866132
v -0.04301933 -0.04085324 0.00446172
v -0.04301933 0.04042318 0.00446172
v -0.00081251 -0.05217471 0.06790837
v -0.00423675 0.05082711 0.06790838
v -0.00423676 -0.05125719 0.06790837
v -0.00081250 0.05174463 0.06790838
v -0.00079205 -0.05278018 -0.00034382
v -0.01193645 -0.04919405 -0.00094382
v -0.00079217 -0.05218016 -0.00094382
v -0.01251602 -0.04963875 -0.00034382
v -0.00021250 -0.05233547 -0.00034382
v -0.00021250 0.05190540 0.06730837
v -0.00021250 -0.05233548 0.06730837
v -0.00021250 0.05190540 -0.00034382
v -0.00481630 -0.05170190 0.06730837
v -0.00079205 -0.05278019 0.06730837
v -0.01251602 -0.04963875 -0.00534894
v -0.01193515 -0.04918917 -0.00559736
v -0.01193645 0.04876399 -0.00094382
v -0.01193515 0.04875910 -0.00559736
v -0.00423675 0.05082711 0.07630949
v -0.00423676 -0.05125719 0.07630949
v -0.02766852 -0.04557865 -0.00806132
v -0.00483675 -0.05107525 0.07690949
v -0.00481630 -0.05170190 0.07630949
v -0.04243978 -0.04162071 0.00474191
v -0.00481630 0.05127182 0.07630949
v -0.00483675 0.05064517 0.07690950
v -0.00481630 0.05127182 0.06730837
v -0.02782627 0.04510632 0.07630949
v -0.04243978 0.04119065 0.06006689
v -0.04243978 0.04119065 0.00474191
v -0.01517442 0.04849638 -0.00806132
v -0.02766852 0.04514859 -0.00806132
v -0.01251601 0.04920869 -0.00534894
v -0.01251601 0.04920869 -0.00034382
v -0.00079205 0.05235012 -0.00034382
v -0.00079205 0.05235011 0.06730837
v -0.04301933 0.04042578 0.06030303
v -0.02807846 0.04442919 0.07690950
v -0.02782627 -0.04553640 0.07630949
v -0.02807846 -0.04485925 0.07690949
v -0.04243978 -0.04162071 0.06006689
v -0.04301933 -0.04085586 0.06030303
v -0.00079217 0.05175009 -0.00094382
v -0.00080232 -0.00021503 -0.00094382
v -0.01517442 -0.04892644 -0.00806132
f 1 2 3
f 2 1 4
f 3 5 6
f 5 3 2
f 7 8 9
f 8 7 10
f 11 12 13
f 12 11 14
f 15 16 17
f 16 15 18
f 7 19 20
f 19 7 9
f 15 20 11
f 20 15 17
f 12 21 22
f 14 21 12
f 22 23 12
f 23 22 24
f 9 25 26
f 25 9 8
f 5 2 27
f 26 28 29
f 17 10 7
f 10 17 16
f 30 5 27
f 25 31 32
f 31 8 33
f 8 31 25
f 15 11 13
f 34 33 35
f 33 34 31
f 36 37 38
f 37 36 39
f 39 36 40
f 40 36 41
f 41 36 42
f 42 36 35
f 42 35 33
f 39 24 37
f 24 1 37
f 36 43 35
f 36 6 43
f 31 34 32
f 32 34 44
f 16 42 10
f 29 28 45
f 28 46 45
f 46 47 45
f 47 46 48
f 38 1 3
f 1 38 37
f 43 5 48
f 5 43 6
f 44 35 43
f 35 44 34
f 49 12 23
f 12 49 50
f 13 12 50
f 36 38 6
f 40 23 39
f 40 49 23
f 49 40 41
f 23 24 39
f 9 29 19
f 29 9 26
f 18 49 41
f 25 28 26
f 28 25 32
f 4 27 2
f 27 4 51
f 22 51 4
f 17 7 20
f 20 14 11
f 14 20 30
f 30 20 47
f 47 20 19
f 47 19 45
f 45 19 29
f 21 27 51
f 27 21 30
f 30 21 14
f 21 51 22
f 44 48 46
f 48 44 43
f 4 24 22
f 24 4 1
f 5 47 48
f 28 44 46
f 44 28 32
f 5 30 47
f 8 42 33
f 42 8 10
f 41 16 18
f 16 41 42
f 18 13 50
f 18 50 49
f 18 15 13
f 6 38 3

