# https://github.com/mikedh/trimesh
v -0.00002270 -0.02000000 0.06700000
v -0.00002270 -0.02000000 0.06009999
v -0.00002270 -0.01899464 0.06009999
v -0.00002270 -0.01899464 0.07310003
v -0.00002270 -0.02791004 0.06700000
v -0.00002270 -0.03799464 0.08609998
v -0.00002270 -0.03799464 0.06700000
v -0.00002270 0.00980785 0.06095091
v -0.00002270 0.00989166 0.06009999
v -0.00002270 0.01900536 0.06009999
v -0.00002270 0.01900536 0.07310003
v -0.00002270 0.00766844 0.06534317
v -0.00002270 0.00831470 0.06455570
v -0.00002270 0.00923879 0.06282683
v -0.00002270 0.00707107 0.06607107
v -0.00002270 0.00000536 0.07310003
v -0.00002270 0.00000536 0.06899947
v -0.00002270 0.00195090 0.06880786
v -0.00002270 0.00555570 0.06731470
v -0.00002270 0.00382683 0.06823879
v -0.00002270 -0.02000000 0.04700000
v -0.00002270 -0.03013465 0.04700000
v -0.00002270 -0.02599464 0.04009998
v -0.00002270 0.00000536 0.04009998
v -0.00002270 -0.02000000 0.05062912
v -0.00002270 -0.01000000 0.05900000
v -0.00002270 -0.00989166 0.06009999
v -0.00002270 0.00000536 0.04900053
v -0.00002270 0.00000000 0.04900000
v -0.00002270 -0.00195090 0.04919215
v -0.00002270 -0.00980785 0.05704910
v -0.00002270 -0.00923879 0.05517317
v -0.00002270 -0.00382683 0.04976121
v -0.00002270 -0.00555570 0.05068531
v -0.00002270 -0.00831470 0.05344430
v -0.00002270 -0.00707107 0.05192893
v -0.00002270 0.00195090 0.04919215
v -0.00002270 0.02600536 0.04009998
v -0.00002270 0.00841465 0.05363130
v -0.00002270 0.00831470 0.05344430
v -0.00002270 0.00707107 0.05192893
v -0.00002270 0.00382683 0.04976121
v -0.00002270 0.00555570 0.05068531
v -0.00002270 0.03014537 0.04700000
v -0.00002270 0.02359035 0.04700000
v -0.00002270 0.02000000 0.05725815
v -0.00002270 0.02000000 0.06009999
v -0.00002270 0.02000000 0.04700000
v -0.00002270 0.01000000 0.05900000
v -0.00002270 0.00980785 0.05704910
v -0.00002270 0.00923879 0.05517317
v -0.00152270 0.02000000 0.06700000
v -0.00152270 0.02000000 0.06009999
v -0.00152270 0.01900536 0.06009999
v -0.00152270 0.01900536 0.07310003
v -0.00152270 0.02792075 0.06700000
v -0.00152270 0.03800536 0.08609998
v -0.00152270 0.03800536 0.06700000
v -0.00152270 -0.00980785 0.06095091
v -0.00152270 -0.00989166 0.06009999
v -0.00152270 -0.01899464 0.06009999
v -0.00152270 -0.01899464 0.07310003
v -0.00152270 -0.00766459 0.06534787
v -0.00152270 -0.00831470 0.06455570
v -0.00152270 -0.00923879 0.06282683
v -0.00152270 0.00000536 0.07310003
v -0.00152270 0.00000536 0.06899947
v -0.00152270 0.00000000 0.06900000
v -0.00152270 -0.00707107 0.06607107
v -0.00152270 -0.00555570 0.06731470
v -0.00152270 -0.00195090 0.06880786
v -0.00152270 -0.00382683 0.06823879
v -0.00152270 0.02000000 0.04700000
v -0.00152270 0.03014537 0.04700000
v -0.00152270 0.02600536 0.04009998
v -0.00152270 0.00000536 0.04009998
v -0.00152270 0.02000000 0.05062348
v -0.00152270 0.01000000 0.05900000
v -0.00152270 0.00989166 0.06009999
v -0.00152270 0.00000536 0.04900053
v -0.00152270 0.00195090 0.04919215
v -0.00152270 0.00382683 0.04976121
v -0.00152270 0.00980785 0.05704910
v -0.00152270 0.00923879 0.05517317
v -0.00152270 0.00555570 0.05068531
v -0.00152270 0.00707107 0.05192893
v -0.00152270 0.00831470 0.05344430
v -0.00152270 0.00000000 0.04900000
v -0.00152270 -0.02599464 0.04009998
v -0.00152270 -0.00841153 0.05362546
v -0.00152270 -0.00831470 0.05344430
v -0.00152270 -0.00707107 0.05192893
v -0.00152270 -0.00195090 0.04919215
v -0.00152270 -0.00555570 0.05068531
v -0.00152270 -0.00382683 0.04976121
v -0.00152270 -0.02000000 0.05722754
v -0.00152270 -0.02000000 0.06009999
v -0.00152270 -0.02357964 0.04700000
v -0.00152270 -0.03013465 0.04700000
v -0.00152270 -0.02000000 0.04700000
v -0.00152270 -0.01000000 0.05900000
v -0.00152270 -0.00980785 0.05704910
v -0.00152270 -0.00923879 0.05517317
v -0.00002270 0.00000000 0.06900000
v -0.00002270 -0.00980785 0.06095091
v -0.00002270 -0.00923879 0.06282683
v -0.00002270 -0.00195090 0.06880786
v -0.00002270 -0.00382683 0.06823879
v -0.00002270 -0.00831470 0.06455570
v -0.00002270 -0.00707107 0.06607107
v -0.00002270 -0.00555570 0.06731470
v -0.00002270 0.02000000 0.06700000
v -0.00002270 0.02404767 0.06700000
v -0.00002270 0.03800536 0.08609998
v -0.00002270 0.02000000 0.06146108
v -0.00002270 0.03800536 0.06700000
v -0.00002270 -0.01899464 0.08609998
v -0.00002270 0.01900536 0.08609998
v -0.00152270 0.01900536 0.08609998
v -0.00152270 -0.01899464 0.08609998
v -0.00152270 -0.03799464 0.08609998
v -0.00152270 0.00195090 0.06880786
v -0.00152270 0.00980785 0.06095091
v -0.00152270 0.00923879 0.06282683
v -0.00152270 0.00382683 0.06823879
v -0.00152270 0.00555570 0.06731470
v -0.00152270 0.00831470 0.06455570
v -0.00152270 0.00707107 0.06607107
v -0.00002270 0.04950536 0.08609998
v -0.00152270 0.04950536 0.08609998
v -0.00152270 0.04000000 0.06700000
v -0.00152270 0.04000000 0.06460962
v -0.00152270 0.04950536 0.06009999
v -0.00152270 0.04000000 0.06009999
v -0.00002270 0.04000000 0.06700000
v -0.00002270 0.04000000 0.06009999
v -0.00002270 0.04950536 0.06009999
v -0.00152270 0.04000000 0.05201032
v -0.00152270 0.03411288 0.04700000
v -0.00152270 0.04000000 0.04700000
v -0.00152270 0.04950536 0.04009998
v -0.00002270 0.04950536 0.04009998
v -0.00002270 0.04000000 0.04700000
v -0.00002270 0.04000000 0.05663104
v -0.00152270 -0.04949464 0.08609998
v -0.00002270 -0.04949464 0.08609998
v -0.00002270 -0.04000000 0.06700000
v -0.00002270 -0.04000000 0.06463384
v -0.00002270 -0.04949464 0.06009999
v -0.00002270 -0.04000000 0.06009999
v -0.00152270 -0.04000000 0.06700000
v -0.00152270 -0.04000000 0.06009999
v -0.00152270 -0.04949464 0.06009999
v -0.00152270 -0.03799464 0.06700000
v -0.00002270 -0.04000000 0.05201944
v -0.00002270 -0.03410216 0.04700000
v -0.00002270 -0.04000000 0.04700000
v -0.00002270 -0.04949464 0.04009998
v -0.00152270 -0.04949464 0.04009998
v -0.00152270 -0.04000000 0.04700000
v -0.00152270 -0.04000000 0.05661241
v -0.00002270 -0.01699464 0.02410000
v -0.00002270 0.00000536 0.02410000
v -0.00152270 0.00000536 0.02410000
v -0.00152270 -0.01699464 0.02410000
v -0.00002270 0.01700536 0.02410000
v -0.00152270 0.01700536 0.02410000
v -0.00152270 -0.01699464 0.00009999
v -0.00152270 0.00000536 0.00009999
v -0.00002270 0.00000536 0.00009999
v -0.00002270 -0.01699464 0.00009999
v -0.00152270 0.01700536 0.00009999
v -0.00002270 0.01700536 0.00009999
v -0.00152270 0.00000536 0.01209998
v -0.00152270 0.01700536 0.01209998
v -0.00002270 0.01700536 0.01209998
v -0.00152270 -0.01699464 0.01209998
v -0.00002270 0.00000536 0.01209998
v -0.00002270 -0.01699464 0.01209998
v -0.00152270 -0.02000000 0.06700000
v -0.00152270 -0.02403696 0.06700000
v -0.00152270 -0.02000000 0.06147574
f 1 2 3
f 4 5 1
f 3 4 1
f 5 4 6
f 5 6 7
f 8 9 10
f 10 11 12
f 10 12 13
f 14 8 10
f 10 13 14
f 15 12 11
f 11 16 17
f 11 17 18
f 19 15 11
f 11 18 20
f 11 20 19
f 21 22 23
f 24 25 21
f 21 23 24
f 26 27 3
f 24 28 29
f 24 29 30
f 31 26 3
f 32 31 3
f 24 30 33
f 24 33 34
f 35 32 3
f 24 34 36
f 36 35 3
f 3 24 36
f 25 24 3
f 25 3 2
f 37 28 24
f 38 39 40
f 38 40 41
f 37 24 38
f 42 37 38
f 38 41 43
f 38 43 42
f 38 44 45
f 10 46 47
f 48 46 10
f 10 9 49
f 10 49 50
f 38 45 48
f 48 10 50
f 51 39 38
f 48 50 51
f 48 51 38
f 52 53 54
f 55 56 52
f 52 54 55
f 55 57 58
f 55 58 56
f 59 60 61
f 61 62 63
f 61 63 64
f 65 59 61
f 61 64 65
f 62 66 67
f 62 67 68
f 69 63 62
f 70 69 62
f 62 68 71
f 72 70 62
f 62 71 72
f 73 74 75
f 76 77 73
f 73 75 76
f 78 79 54
f 76 80 81
f 76 81 82
f 83 78 54
f 84 83 54
f 76 82 85
f 76 85 86
f 87 84 54
f 76 86 87
f 54 76 87
f 54 53 77
f 54 77 76
f 88 80 76
f 89 90 91
f 89 91 92
f 88 76 89
f 93 88 89
f 89 92 94
f 95 93 89
f 89 94 95
f 61 96 97
f 98 89 99
f 100 96 61
f 61 60 101
f 61 101 102
f 89 98 100
f 100 61 102
f 103 90 89
f 100 102 103
f 100 103 89
f 4 3 16
f 104 17 16
f 3 27 105
f 3 105 106
f 107 104 16
f 108 107 16
f 3 106 109
f 3 109 110
f 111 108 16
f 3 110 111
f 16 3 111
f 112 113 114
f 11 10 115
f 112 114 11
f 112 11 115
f 116 114 113
f 10 47 115
f 6 4 117
f 55 11 118
f 55 118 119
f 120 62 121
f 66 55 54
f 122 67 66
f 54 79 123
f 54 123 124
f 125 122 66
f 126 125 66
f 54 124 127
f 128 126 66
f 54 127 128
f 66 54 128
f 118 11 114
f 57 55 119
f 57 114 129
f 57 129 130
f 131 58 57
f 130 132 131
f 131 57 130
f 132 130 133
f 132 133 134
f 135 136 137
f 114 116 135
f 135 137 114
f 114 137 129
f 137 133 130
f 137 130 129
f 134 133 138
f 139 75 74
f 140 138 133
f 141 75 139
f 140 133 141
f 140 141 139
f 38 75 141
f 38 141 142
f 143 44 38
f 142 144 143
f 143 38 142
f 142 137 136
f 142 136 144
f 142 141 133
f 142 133 137
f 6 121 145
f 6 145 146
f 147 7 6
f 146 148 147
f 147 6 146
f 146 149 150
f 146 150 148
f 151 152 153
f 121 154 151
f 151 153 121
f 145 121 153
f 153 149 146
f 153 146 145
f 150 149 155
f 23 22 156
f 157 155 149
f 158 23 156
f 157 149 158
f 158 156 157
f 89 23 158
f 89 158 159
f 160 99 89
f 159 161 160
f 89 159 160
f 153 152 161
f 153 161 159
f 159 158 149
f 159 149 153
f 24 23 162
f 24 162 163
f 89 76 164
f 89 164 165
f 23 89 165
f 23 165 162
f 38 24 163
f 38 163 166
f 75 38 166
f 75 166 167
f 76 75 167
f 76 167 164
f 168 169 170
f 168 170 171
f 169 172 173
f 169 173 170
f 174 164 167
f 174 167 175
f 172 169 174
f 172 174 175
f 176 173 172
f 176 172 175
f 167 166 176
f 167 176 175
f 177 165 164
f 177 164 174
f 169 168 177
f 169 177 174
f 178 170 173
f 178 173 176
f 166 163 178
f 166 178 176
f 179 162 165
f 179 165 177
f 168 171 179
f 168 179 177
f 179 171 170
f 179 170 178
f 163 162 179
f 163 179 178
f 16 11 55
f 16 55 66
f 118 114 57
f 118 57 119
f 180 181 121
f 62 61 182
f 180 121 62
f 62 182 180
f 61 97 182
f 154 121 181
f 62 55 11
f 62 11 4
f 4 62 120
f 4 120 117
f 120 121 6
f 120 6 117
f 46 48 73
f 77 53 52
f 46 73 77
f 47 46 77
f 77 52 112
f 115 47 77
f 77 112 115
f 136 135 131
f 132 134 138
f 136 131 132
f 140 143 144
f 144 136 132
f 132 138 140
f 132 140 144
f 74 73 48
f 74 48 45
f 143 140 139
f 139 74 45
f 44 143 139
f 45 44 139
f 113 112 52
f 56 58 131
f 113 52 56
f 131 135 116
f 116 113 56
f 56 131 116
f 155 157 160
f 161 152 151
f 155 160 161
f 150 155 161
f 161 151 147
f 148 150 161
f 148 161 147
f 100 21 25
f 2 1 180
f 100 25 2
f 182 97 96
f 96 100 2
f 2 180 182
f 2 182 96
f 22 21 100
f 22 100 98
f 160 157 156
f 156 22 98
f 99 160 156
f 156 98 99
f 181 180 1
f 181 1 5
f 147 151 154
f 154 181 5
f 7 147 154
f 5 7 154
f 50 49 78
f 50 78 83
f 51 50 83
f 51 83 84
f 87 40 39
f 39 51 84
f 39 84 87
f 41 40 87
f 41 87 86
f 43 41 86
f 43 86 85
f 42 43 85
f 42 85 82
f 37 42 82
f 37 82 81
f 80 88 29
f 28 37 81
f 80 29 28
f 80 28 81
f 30 29 88
f 30 88 93
f 33 30 93
f 33 93 95
f 34 33 95
f 34 95 94
f 36 34 94
f 36 94 92
f 91 35 36
f 91 36 92
f 103 32 35
f 35 91 90
f 35 90 103
f 102 31 32
f 102 32 103
f 101 26 31
f 101 31 102
f 27 26 101
f 101 60 59
f 59 105 27
f 27 101 59
f 65 106 105
f 65 105 59
f 64 109 106
f 64 106 65
f 63 69 110
f 110 109 64
f 63 110 64
f 70 111 110
f 70 110 69
f 72 108 111
f 72 111 70
f 71 107 108
f 71 108 72
f 68 104 107
f 68 107 71
f 17 104 68
f 67 122 18
f 17 68 67
f 17 67 18
f 18 122 125
f 18 125 20
f 20 125 126
f 20 126 19
f 19 126 128
f 19 128 15
f 127 13 12
f 12 15 128
f 12 128 127
f 14 13 127
f 14 127 124
f 8 14 124
f 8 124 123
f 78 49 9
f 9 8 123
f 123 79 78
f 9 123 78

