# https://github.com/mikedh/trimesh

o Visualization Toolkit generated SLA File
v -0.00156841 0.04000001 -0.00019998
v -0.00006841 0.04000001 -0.00019998
v -0.00156841 0.03983306 0.00161963
v -0.00081841 0.03978015 0.00188535
v -0.00156841 0.03929789 0.00348096
v -0.00081841 0.03907284 0.00400522
v -0.00156841 0.03836996 0.00527211
v -0.00081841 0.03785565 0.00598781
v -0.00156841 0.03707108 0.00687107
v -0.00081841 0.03618781 0.00765564
v -0.00156841 0.03547210 0.00816997
v -0.00081841 0.03420521 0.00887283
v -0.00156841 0.03368095 0.00909790
v -0.00081841 0.03208536 0.00958016
v -0.00156841 0.03181963 0.00963306
v -0.00081841 0.03000000 0.00980001
v -0.00156841 0.03000000 0.00980001
v -0.00156841 0.02818037 0.00963306
v -0.00081841 0.02791465 0.00958016
v -0.00156841 0.02631906 0.00909790
v -0.00081841 0.02631906 0.00909790
v -0.00081841 0.02477483 0.00832628
v -0.00006841 0.02631906 0.00909790
v -0.00006841 0.02452791 0.00816997
v -0.00006841 0.03983306 0.00161963
v -0.00006841 0.03929789 0.00348096
v -0.00006841 0.03836996 0.00527211
v -0.00006841 0.03707108 0.00687107
v -0.00006841 0.03547210 0.00816997
v -0.00006841 0.03368095 0.00909790
v -0.00006841 0.03181963 0.00963306
v -0.00006841 0.03000000 0.00980001
v -0.00006841 0.02818037 0.00963306
v -0.00081841 0.02335936 0.00727677
v -0.00006841 0.02292893 0.00687107
v -0.00081841 0.02214436 0.00598781
v -0.00006841 0.02163005 0.00527211
v -0.00081841 0.02118451 0.00452091
v -0.00006841 0.02070212 0.00348096
v -0.00081841 0.02050943 0.00295105
v -0.00006841 0.02016695 0.00161963
v -0.00081841 0.02012161 0.00135481
v -0.00006841 0.02000000 -0.00019998
v -0.00156841 0.02000000 -0.00019998
v -0.00156841 0.02016695 0.00161963
v -0.00156841 0.02070212 0.00348096
v -0.00156841 0.02163005 0.00527211
v -0.00156841 0.02292893 0.00687107
v -0.00156841 0.02452791 0.00816997
v -0.00156841 -0.02000000 -0.00019998
v -0.00006841 -0.02000000 -0.00019998
v -0.00156841 -0.02016694 0.00161963
v -0.00081841 -0.02021985 0.00188535
v -0.00156841 -0.02070212 0.00348096
v -0.00081841 -0.02092717 0.00400522
v -0.00156841 -0.02163004 0.00527211
v -0.00081841 -0.02214436 0.00598781
v -0.00156841 -0.02292893 0.00687107
v -0.00081841 -0.02381220 0.00765564
v -0.00156841 -0.02452790 0.00816997
v -0.00081841 -0.02579480 0.00887283
v -0.00156841 -0.02631905 0.00909790
v -0.00081841 -0.02791465 0.00958016
v -0.00156841 -0.02818037 0.00963306
v -0.00081841 -0.03000000 0.00980001
v -0.00156841 -0.03000000 0.00980001
v -0.00156841 -0.03181963 0.00963306
v -0.00081841 -0.03208535 0.00958016
v -0.00156841 -0.03368095 0.00909790
v -0.00081841 -0.03368095 0.00909790
v -0.00081841 -0.03522517 0.00832628
v -0.00006841 -0.03368095 0.00909790
v -0.00006841 -0.03547210 0.00816997
v -0.00006841 -0.02016694 0.00161963
v -0.00006841 -0.02070212 0.00348096
v -0.00006841 -0.02163004 0.00527211
v -0.00006841 -0.02292893 0.00687107
v -0.00006841 -0.02452790 0.00816997
v -0.00006841 -0.02631905 0.00909790
v -0.00006841 -0.02818037 0.00963306
v -0.00006841 -0.03000000 0.00980001
v -0.00006841 -0.03181963 0.00963306
v -0.00081841 -0.03664064 0.00727677
v -0.00006841 -0.03707107 0.00687107
v -0.00081841 -0.03785564 0.00598781
v -0.00006841 -0.03836995 0.00527211
v -0.00081841 -0.03881549 0.00452091
v -0.00006841 -0.03929788 0.00348096
v -0.00081841 -0.03949057 0.00295105
v -0.00006841 -0.03983305 0.00161963
v -0.00081841 -0.03987839 0.00135481
v -0.00006841 -0.04000000 -0.00019998
v -0.00156841 -0.04000000 -0.00019998
v -0.00156841 -0.03983305 0.00161963
v -0.00156841 -0.03929788 0.00348096
v -0.00156841 -0.03836995 0.00527211
v -0.00156841 -0.03707107 0.00687107
v -0.00156841 -0.03547210 0.00816997
v -0.00156841 -0.00640000 -0.04669999
v -0.00006841 -0.00640000 -0.04669999
v -0.00156841 -0.00641836 -0.04649984
v -0.00081841 -0.00642418 -0.04647060
v -0.00156841 -0.00647723 -0.04629510
v -0.00081841 -0.00650199 -0.04623743
v -0.00156841 -0.00657930 -0.04609806
v -0.00081841 -0.00663588 -0.04601934
v -0.00156841 -0.00672218 -0.04592218
v -0.00081841 -0.00681934 -0.04583587
v -0.00156841 -0.00689807 -0.04577931
v -0.00081841 -0.00703743 -0.04570199
v -0.00156841 -0.00709509 -0.04567724
v -0.00081841 -0.00727061 -0.04562419
v -0.00156841 -0.00729984 -0.04561836
v -0.00081841 -0.00750000 -0.04560000
v -0.00156841 -0.00750000 -0.04560000
v -0.00156841 -0.00770016 -0.04561836
v -0.00081841 -0.00772939 -0.04562419
v -0.00156841 -0.00790490 -0.04567724
v -0.00081841 -0.00790490 -0.04567724
v -0.00081841 -0.00807477 -0.04576211
v -0.00006841 -0.00790490 -0.04567724
v -0.00006841 -0.00810193 -0.04577931
v -0.00006841 -0.00641836 -0.04649984
v -0.00006841 -0.00647723 -0.04629510
v -0.00006841 -0.00657930 -0.04609806
v -0.00006841 -0.00672218 -0.04592218
v -0.00006841 -0.00689807 -0.04577931
v -0.00006841 -0.00709509 -0.04567724
v -0.00006841 -0.00729984 -0.04561836
v -0.00006841 -0.00750000 -0.04560000
v -0.00006841 -0.00770016 -0.04561836
v -0.00081841 -0.00823047 -0.04587755
v -0.00006841 -0.00827782 -0.04592218
v -0.00081841 -0.00836412 -0.04601934
v -0.00006841 -0.00842069 -0.04609806
v -0.00081841 -0.00846970 -0.04618070
v -0.00006841 -0.00852277 -0.04629510
v -0.00081841 -0.00854396 -0.04635339
v -0.00006841 -0.00858163 -0.04649984
v -0.00081841 -0.00858662 -0.04652897
v -0.00006841 -0.00860000 -0.04669999
v -0.00156841 -0.00860000 -0.04669999
v -0.00156841 -0.00858163 -0.04649984
v -0.00156841 -0.00852277 -0.04629510
v -0.00156841 -0.00842069 -0.04609806
v -0.00156841 -0.00827782 -0.04592218
v -0.00156841 -0.00810193 -0.04577931
v -0.00156841 0.00860000 -0.04669999
v -0.00006841 0.00860000 -0.04669999
v -0.00156841 0.00858164 -0.04649984
v -0.00081841 0.00857582 -0.04647060
v -0.00156841 0.00852277 -0.04629510
v -0.00081841 0.00849801 -0.04623743
v -0.00156841 0.00842070 -0.04609806
v -0.00081841 0.00836412 -0.04601934
v -0.00156841 0.00827782 -0.04592218
v -0.00081841 0.00818066 -0.04583587
v -0.00156841 0.00810193 -0.04577931
v -0.00081841 0.00796257 -0.04570199
v -0.00156841 0.00790491 -0.04567724
v -0.00081841 0.00772939 -0.04562419
v -0.00156841 0.00770016 -0.04561836
v -0.00081841 0.00750000 -0.04560000
v -0.00156841 0.00750000 -0.04560000
v -0.00156841 0.00729984 -0.04561836
v -0.00081841 0.00727061 -0.04562419
v -0.00156841 0.00709510 -0.04567724
v -0.00081841 0.00709510 -0.04567724
v -0.00081841 0.00692523 -0.04576211
v -0.00006841 0.00709510 -0.04567724
v -0.00006841 0.00689807 -0.04577931
v -0.00006841 0.00858164 -0.04649984
v -0.00006841 0.00852277 -0.04629510
v -0.00006841 0.00842070 -0.04609806
v -0.00006841 0.00827782 -0.04592218
v -0.00006841 0.00810193 -0.04577931
v -0.00006841 0.00790491 -0.04567724
v -0.00006841 0.00770016 -0.04561836
v -0.00006841 0.00750000 -0.04560000
v -0.00006841 0.00729984 -0.04561836
v -0.00081841 0.00676953 -0.04587755
v -0.00006841 0.00672219 -0.04592218
v -0.00081841 0.00663588 -0.04601934
v -0.00006841 0.00657931 -0.04609806
v -0.00081841 0.00653030 -0.04618070
v -0.00006841 0.00647724 -0.04629510
v -0.00081841 0.00645604 -0.04635339
v -0.00006841 0.00641837 -0.04649984
v -0.00081841 0.00641338 -0.04652897
v -0.00006841 0.00640000 -0.04669999
v -0.00156841 0.00640000 -0.04669999
v -0.00156841 0.00641837 -0.04649984
v -0.00156841 0.00647724 -0.04629510
v -0.00156841 0.00657931 -0.04609806
v -0.00156841 0.00672219 -0.04592218
v -0.00156841 0.00689807 -0.04577931
v -0.00156842 0.03100000 0.01930001
v -0.00006841 0.03100000 0.01930001
v -0.00156842 0.03098331 0.01948198
v -0.00081841 0.03097802 0.01950853
v -0.00156842 0.03092979 0.01966809
v -0.00081841 0.03090729 0.01972052
v -0.00156842 0.03083700 0.01984721
v -0.00081841 0.03078557 0.01991879
v -0.00156842 0.03070711 0.02000710
v -0.00081841 0.03061878 0.02008557
v -0.00156842 0.03054721 0.02013700
v -0.00081841 0.03042052 0.02020728
v -0.00156842 0.03036810 0.02022978
v -0.00081841 0.03020854 0.02027803
v -0.00156842 0.03018197 0.02028330
v -0.00081841 0.03000000 0.02029999
v -0.00156842 0.03000000 0.02029999
v -0.00156842 0.02981804 0.02028330
v -0.00081841 0.02979147 0.02027803
v -0.00156842 0.02963191 0.02022978
v -0.00081841 0.02963191 0.02022978
v -0.00081841 0.02947749 0.02015265
v -0.00006841 0.02963191 0.02022978
v -0.00006841 0.02945280 0.02013700
v -0.00006841 0.03098331 0.01948198
v -0.00006841 0.03092979 0.01966809
v -0.00006841 0.03083700 0.01984721
v -0.00006841 0.03070711 0.02000710
v -0.00006841 0.03054721 0.02013700
v -0.00006841 0.03036810 0.02022978
v -0.00006841 0.03018197 0.02028330
v -0.00006841 0.03000000 0.02029999
v -0.00006841 0.02981804 0.02028330
v -0.00081841 0.02933594 0.02004769
v -0.00006841 0.02929290 0.02000710
v -0.00081841 0.02921444 0.01991879
v -0.00006841 0.02916301 0.01984721
v -0.00081841 0.02911845 0.01977210
v -0.00006841 0.02907022 0.01966809
v -0.00081841 0.02905095 0.01961511
v -0.00006841 0.02901670 0.01948198
v -0.00081841 0.02901216 0.01945549
v -0.00006841 0.02900000 0.01930001
v -0.00156842 0.02900000 0.01930001
v -0.00156842 0.02901670 0.01948198
v -0.00156842 0.02907022 0.01966809
v -0.00156842 0.02916301 0.01984721
v -0.00156842 0.02929290 0.02000710
v -0.00156842 0.02945280 0.02013700
v -0.00156841 -0.02900000 -0.01970000
v -0.00006841 -0.02900000 -0.01970000
v -0.00156841 -0.02901670 -0.01951803
v -0.00081841 -0.02902199 -0.01949147
v -0.00156841 -0.02907021 -0.01933191
v -0.00081841 -0.02909272 -0.01927949
v -0.00156841 -0.02916300 -0.01915280
v -0.00081841 -0.02921444 -0.01908121
v -0.00156841 -0.02929289 -0.01899288
v -0.00081841 -0.02938122 -0.01891444
v -0.00156841 -0.02945279 -0.01886300
v -0.00081841 -0.02957948 -0.01879273
v -0.00156841 -0.02963191 -0.01877020
v -0.00081841 -0.02979147 -0.01872198
v -0.00156841 -0.02981804 -0.01871670
v -0.00081841 -0.03000000 -0.01869998
v -0.00156841 -0.03000000 -0.01869998
v -0.00156841 -0.03018196 -0.01871670
v -0.00081841 -0.03020854 -0.01872198
v -0.00156841 -0.03036810 -0.01877020
v -0.00081841 -0.03036810 -0.01877020
v -0.00081841 -0.03052252 -0.01884735
v -0.00006841 -0.03036810 -0.01877020
v -0.00006841 -0.03054721 -0.01886300
v -0.00006841 -0.02901670 -0.01951803
v -0.00006841 -0.02907021 -0.01933191
v -0.00006841 -0.02916300 -0.01915280
v -0.00006841 -0.02929289 -0.01899288
v -0.00006841 -0.02945279 -0.01886300
v -0.00006841 -0.02963191 -0.01877020
v -0.00006841 -0.02981804 -0.01871670
v -0.00006841 -0.03000000 -0.01869998
v -0.00006841 -0.03018196 -0.01871670
v -0.00081841 -0.03066407 -0.01895232
v -0.00006841 -0.03070711 -0.01899288
v -0.00081841 -0.03078556 -0.01908121
v -0.00006841 -0.03083700 -0.01915280
v -0.00081841 -0.03088155 -0.01922790
v -0.00006841 -0.03092979 -0.01933191
v -0.00081841 -0.03094906 -0.01938490
v -0.00006841 -0.03098330 -0.01951803
v -0.00081841 -0.03098784 -0.01954452
v -0.00006841 -0.03100000 -0.01970000
v -0.00156841 -0.03100000 -0.01970000
v -0.00156841 -0.03098330 -0.01951803
v -0.00156841 -0.03092979 -0.01933191
v -0.00156841 -0.03083700 -0.01915280
v -0.00156841 -0.03070711 -0.01899288
v -0.00156841 -0.03054721 -0.01886300
v -0.00156842 -0.02900000 0.01930001
v -0.00006841 -0.02900000 0.01930001
v -0.00156842 -0.02901670 0.01948198
v -0.00081841 -0.02902199 0.01950853
v -0.00156842 -0.02907021 0.01966809
v -0.00081841 -0.02909272 0.01972052
v -0.00156842 -0.02916300 0.01984721
v -0.00081841 -0.02921444 0.01991879
v -0.00156842 -0.02929289 0.02000710
v -0.00081841 -0.02938122 0.02008557
v -0.00156842 -0.02945279 0.02013700
v -0.00081841 -0.02957948 0.02020728
v -0.00156842 -0.02963191 0.02022978
v -0.00081841 -0.02979147 0.02027803
v -0.00156842 -0.02981804 0.02028330
v -0.00081841 -0.03000000 0.02029999
v -0.00156842 -0.03000000 0.02029999
v -0.00156842 -0.03018196 0.02028330
v -0.00081841 -0.03020854 0.02027803
v -0.00156842 -0.03036810 0.02022978
v -0.00081841 -0.03036810 0.02022978
v -0.00081841 -0.03052252 0.02015265
v -0.00006841 -0.03036810 0.02022978
v -0.00006841 -0.03054721 0.02013700
v -0.00006841 -0.02901670 0.01948198
v -0.00006841 -0.02907021 0.01966809
v -0.00006841 -0.02916300 0.01984721
v -0.00006841 -0.02929289 0.02000710
v -0.00006841 -0.02945279 0.02013700
v -0.00006841 -0.02963191 0.02022978
v -0.00006841 -0.02981804 0.02028330
v -0.00006841 -0.03000000 0.02029999
v -0.00006841 -0.03018196 0.02028330
v -0.00081841 -0.03066407 0.02004769
v -0.00006841 -0.03070711 0.02000710
v -0.00081841 -0.03078556 0.01991879
v -0.00006841 -0.03083700 0.01984721
v -0.00081841 -0.03088155 0.01977210
v -0.00006841 -0.03092979 0.01966809
v -0.00081841 -0.03094906 0.01961511
v -0.00006841 -0.03098330 0.01948198
v -0.00081841 -0.03098784 0.01945549
v -0.00006841 -0.03100000 0.01930001
v -0.00156842 -0.03100000 0.01930001
v -0.00156842 -0.03098330 0.01948198
v -0.00156842 -0.03092979 0.01966809
v -0.00156842 -0.03083700 0.01984721
v -0.00156842 -0.03070711 0.02000710
v -0.00156842 -0.03054721 0.02013700
v -0.00156841 0.03100000 -0.01970000
v -0.00006841 0.03100000 -0.01970000
v -0.00156841 0.03098331 -0.01951803
v -0.00081841 0.03097802 -0.01949147
v -0.00156841 0.03092979 -0.01933191
v -0.00081841 0.03090729 -0.01927949
v -0.00156841 0.03083700 -0.01915280
v -0.00081841 0.03078557 -0.01908121
v -0.00156841 0.03070711 -0.01899288
v -0.00081841 0.03061878 -0.01891444
v -0.00156841 0.03054721 -0.01886300
v -0.00081841 0.03042052 -0.01879273
v -0.00156841 0.03036810 -0.01877020
v -0.00081841 0.03020854 -0.01872198
v -0.00156841 0.03018197 -0.01871670
v -0.00081841 0.03000000 -0.01869998
v -0.00156841 0.03000000 -0.01869998
v -0.00156841 0.02981804 -0.01871670
v -0.00081841 0.02979147 -0.01872198
v -0.00156841 0.02963191 -0.01877020
v -0.00081841 0.02963191 -0.01877020
v -0.00081841 0.02947749 -0.01884735
v -0.00006841 0.02963191 -0.01877020
v -0.00006841 0.02945280 -0.01886300
v -0.00006841 0.03098331 -0.01951803
v -0.00006841 0.03092979 -0.01933191
v -0.00006841 0.03083700 -0.01915280
v -0.00006841 0.03070711 -0.01899288
v -0.00006841 0.03054721 -0.01886300
v -0.00006841 0.03036810 -0.01877020
v -0.00006841 0.03018197 -0.01871670
v -0.00006841 0.03000000 -0.01869998
v -0.00006841 0.02981804 -0.01871670
v -0.00081841 0.02933594 -0.01895232
v -0.00006841 0.02929290 -0.01899288
v -0.00081841 0.02921444 -0.01908121
v -0.00006841 0.02916301 -0.01915280
v -0.00081841 0.02911845 -0.01922790
v -0.00006841 0.02907022 -0.01933191
v -0.00081841 0.02905095 -0.01938490
v -0.00006841 0.02901670 -0.01951803
v -0.00081841 0.02901216 -0.01954452
v -0.00006841 0.02900000 -0.01970000
v -0.00156841 0.02900000 -0.01970000
v -0.00156841 0.02901670 -0.01951803
v -0.00156841 0.02907022 -0.01933191
v -0.00156841 0.02916301 -0.01915280
v -0.00156841 0.02929290 -0.01899288
v -0.00156841 0.02945280 -0.01886300
v -0.00156842 0.04710001 0.01980000
v -0.00006841 0.04710001 0.01980000
v -0.00156842 0.04708165 0.02000018
v -0.00081841 0.04707582 0.02002939
v -0.00156842 0.04702277 0.02020492
v -0.00081841 0.04699802 0.02026256
v -0.00156842 0.04692070 0.02040192
v -0.00081841 0.04686413 0.02048066
v -0.00156842 0.04677782 0.02057781
v -0.00081841 0.04668067 0.02066412
v -0.00156842 0.04660194 0.02072068
v -0.00081841 0.04646258 0.02079802
v -0.00156842 0.04640491 0.02082279
v -0.00081841 0.04622939 0.02087583
v -0.00156842 0.04620017 0.02088165
v -0.00081841 0.04600001 0.02090000
v -0.00156842 0.04600001 0.02090000
v -0.00156842 0.04579985 0.02088165
v -0.00081841 0.04577062 0.02087583
v -0.00156842 0.04559511 0.02082279
v -0.00081841 0.04559511 0.02082279
v -0.00081841 0.04542524 0.02073791
v -0.00006841 0.04559511 0.02082279
v -0.00006841 0.04539808 0.02072068
v -0.00006841 0.04708165 0.02000018
v -0.00006841 0.04702277 0.02020492
v -0.00006841 0.04692070 0.02040192
v -0.00006841 0.04677782 0.02057781
v -0.00006841 0.04660194 0.02072068
v -0.00006841 0.04640491 0.02082279
v -0.00006841 0.04620017 0.02088165
v -0.00006841 0.04600001 0.02090000
v -0.00006841 0.04579985 0.02088165
v -0.00081841 0.04526953 0.02062245
v -0.00006841 0.04522219 0.02057781
v -0.00081841 0.04513589 0.02048066
v -0.00006841 0.04507931 0.02040192
v -0.00081841 0.04503030 0.02031931
v -0.00006841 0.04497724 0.02020492
v -0.00081841 0.04495604 0.02014663
v -0.00006841 0.04491837 0.02000018
v -0.00081841 0.04491339 0.01997104
v -0.00006841 0.04490000 0.01980000
v -0.00156842 0.04490000 0.01980000
v -0.00156842 0.04491837 0.02000018
v -0.00156842 0.04497724 0.02020492
v -0.00156842 0.04507931 0.02040192
v -0.00156842 0.04522219 0.02057781
v -0.00156842 0.04539808 0.02072068
v -0.00156841 -0.04490000 -0.00419999
v -0.00006841 -0.04490000 -0.00419999
v -0.00156841 -0.04491837 -0.00399984
v -0.00081841 -0.04492418 -0.00397060
v -0.00156841 -0.04497723 -0.00379510
v -0.00081841 -0.04500199 -0.00373743
v -0.00156841 -0.04507930 -0.00359807
v -0.00081841 -0.04513588 -0.00351933
v -0.00156841 -0.04522218 -0.00342218
v -0.00081841 -0.04531934 -0.00333587
v -0.00156841 -0.04539807 -0.00327931
v -0.00081841 -0.04553743 -0.00320200
v -0.00156841 -0.04559510 -0.00317723
v -0.00081841 -0.04577061 -0.00312419
v -0.00156841 -0.04579984 -0.00311837
v -0.00081841 -0.04600000 -0.00309999
v -0.00156841 -0.04600000 -0.00309999
v -0.00156841 -0.04620016 -0.00311837
v -0.00081841 -0.04622938 -0.00312419
v -0.00156841 -0.04640491 -0.00317723
v -0.00081841 -0.04640491 -0.00317723
v -0.00081841 -0.04657477 -0.00326211
v -0.00006841 -0.04640491 -0.00317723
v -0.00006841 -0.04660193 -0.00327931
v -0.00006841 -0.04491837 -0.00399984
v -0.00006841 -0.04497723 -0.00379510
v -0.00006841 -0.04507930 -0.00359807
v -0.00006841 -0.04522218 -0.00342218
v -0.00006841 -0.04539807 -0.00327931
v -0.00006841 -0.04559510 -0.00317723
v -0.00006841 -0.04579984 -0.00311837
v -0.00006841 -0.04600000 -0.00309999
v -0.00006841 -0.04620016 -0.00311837
v -0.00081841 -0.04673047 -0.00337757
v -0.00006841 -0.04677781 -0.00342218
v -0.00081841 -0.04686412 -0.00351933
v -0.00006841 -0.04692069 -0.00359807
v -0.00081841 -0.04696970 -0.00368068
v -0.00006841 -0.04702277 -0.00379510
v -0.00081841 -0.04704396 -0.00385339
v -0.00006841 -0.04708164 -0.00399984
v -0.00081841 -0.04708663 -0.00402895
v -0.00006841 -0.04710000 -0.00419999
v -0.00156841 -0.04710000 -0.00419999
v -0.00156841 -0.04708164 -0.00399984
v -0.00156841 -0.04702277 -0.00379510
v -0.00156841 -0.04692069 -0.00359807
v -0.00156841 -0.04677781 -0.00342218
v -0.00156841 -0.04660193 -0.00327931
v -0.00156842 -0.04490000 0.01980000
v -0.00006841 -0.04490000 0.01980000
v -0.00156842 -0.04491837 0.02000018
v -0.00081841 -0.04492418 0.02002939
v -0.00156842 -0.04497723 0.02020492
v -0.00081841 -0.04500199 0.02026256
v -0.00156842 -0.04507930 0.02040192
v -0.00081841 -0.04513588 0.02048066
v -0.00156842 -0.04522218 0.02057781
v -0.00081841 -0.04531934 0.02066412
v -0.00156842 -0.04539807 0.02072068
v -0.00081841 -0.04553743 0.02079802
v -0.00156842 -0.04559510 0.02082279
v -0.00081841 -0.04577061 0.02087583
v -0.00156842 -0.04579984 0.02088165
v -0.00081841 -0.04600000 0.02090000
v -0.00156842 -0.04600000 0.02090000
v -0.00156842 -0.04620016 0.02088165
v -0.00081841 -0.04622938 0.02087583
v -0.00156842 -0.04640491 0.02082279
v -0.00081841 -0.04640491 0.02082279
v -0.00081841 -0.04657477 0.02073791
v -0.00006841 -0.04640491 0.02082279
v -0.00006841 -0.04660193 0.02072068
v -0.00006841 -0.04491837 0.02000018
v -0.00006841 -0.04497723 0.02020492
v -0.00006841 -0.04507930 0.02040192
v -0.00006841 -0.04522218 0.02057781
v -0.00006841 -0.04539807 0.02072068
v -0.00006841 -0.04559510 0.02082279
v -0.00006841 -0.04579984 0.02088165
v -0.00006841 -0.04600000 0.02090000
v -0.00006841 -0.04620016 0.02088165
v -0.00081841 -0.04673047 0.02062245
v -0.00006841 -0.04677781 0.02057781
v -0.00081841 -0.04686412 0.02048066
v -0.00006841 -0.04692069 0.02040192
v -0.00081841 -0.04696970 0.02031931
v -0.00006841 -0.04702277 0.02020492
v -0.00081841 -0.04704396 0.02014663
v -0.00006841 -0.04708164 0.02000018
v -0.00081841 -0.04708663 0.01997104
v -0.00006841 -0.04710000 0.01980000
v -0.00156842 -0.04710000 0.01980000
v -0.00156842 -0.04708164 0.02000018
v -0.00156842 -0.04702277 0.02020492
v -0.00156842 -0.04692069 0.02040192
v -0.00156842 -0.04677781 0.02057781
v -0.00156842 -0.04660193 0.02072068
v -0.00156841 0.04710001 -0.00419999
v -0.00006841 0.04710001 -0.00419999
v -0.00156841 0.04708165 -0.00399984
v -0.00081841 0.04707582 -0.00397060
v -0.00156841 0.04702277 -0.00379510
v -0.00081841 0.04699802 -0.00373743
v -0.00156841 0.04692070 -0.00359807
v -0.00081841 0.04686413 -0.00351933
v -0.00156841 0.04677782 -0.00342218
v -0.00081841 0.04668067 -0.00333587
v -0.00156841 0.04660194 -0.00327931
v -0.00081841 0.04646258 -0.00320200
v -0.00156841 0.04640491 -0.00317723
v -0.00081841 0.04622939 -0.00312419
v -0.00156841 0.04620017 -0.00311837
v -0.00081841 0.04600001 -0.00309999
v -0.00156841 0.04600001 -0.00309999
v -0.00156841 0.04579985 -0.00311837
v -0.00081841 0.04577062 -0.00312419
v -0.00156841 0.04559511 -0.00317723
v -0.00081841 0.04559511 -0.00317723
v -0.00081841 0.04542524 -0.00326211
v -0.00006841 0.04559511 -0.00317723
v -0.00006841 0.04539808 -0.00327931
v -0.00006841 0.04708165 -0.00399984
v -0.00006841 0.04702277 -0.00379510
v -0.00006841 0.04692070 -0.00359807
v -0.00006841 0.04677782 -0.00342218
v -0.00006841 0.04660194 -0.00327931
v -0.00006841 0.04640491 -0.00317723
v -0.00006841 0.04620017 -0.00311837
v -0.00006841 0.04600001 -0.00309999
v -0.00006841 0.04579985 -0.00311837
v -0.00081841 0.04526953 -0.00337757
v -0.00006841 0.04522219 -0.00342218
v -0.00081841 0.04513589 -0.00351933
v -0.00006841 0.04507931 -0.00359807
v -0.00081841 0.04503030 -0.00368068
v -0.00006841 0.04497724 -0.00379510
v -0.00081841 0.04495604 -0.00385339
v -0.00006841 0.04491837 -0.00399984
v -0.00081841 0.04491339 -0.00402895
v -0.00006841 0.04490000 -0.00419999
v -0.00156841 0.04490000 -0.00419999
v -0.00156841 0.04491837 -0.00399984
v -0.00156841 0.04497724 -0.00379510
v -0.00156841 0.04507931 -0.00359807
v -0.00156841 0.04522219 -0.00342218
v -0.00156841 0.04539808 -0.00327931
v -0.00006841 0.04708165 -0.00440017
v -0.00081841 0.04708663 -0.00437103
v -0.00156841 0.04708165 -0.00440017
v -0.00081841 0.04704397 -0.00454662
v -0.00156841 0.04702277 -0.00460491
v -0.00081841 0.04696971 -0.00471930
v -0.00156841 0.04692070 -0.00480194
v -0.00081841 0.04686413 -0.00488065
v -0.00156841 0.04677782 -0.00497780
v -0.00081841 0.04673048 -0.00502244
v -0.00156841 0.04660194 -0.00512070
v -0.00081841 0.04657478 -0.00513790
v -0.00156841 0.04640491 -0.00522278
v -0.00081841 0.04640491 -0.00522278
v -0.00081841 0.04622939 -0.00527582
v -0.00006841 0.04640491 -0.00522278
v -0.00006841 0.04620017 -0.00528164
v -0.00081841 0.04600001 -0.00529999
v -0.00006841 0.04600001 -0.00529999
v -0.00006841 0.04579985 -0.00528164
v -0.00081841 0.04577062 -0.00527582
v -0.00006841 0.04559511 -0.00522278
v -0.00081841 0.04553743 -0.00519801
v -0.00006841 0.04539808 -0.00512070
v -0.00081841 0.04531935 -0.00506411
v -0.00006841 0.04522219 -0.00497780
v -0.00081841 0.04513589 -0.00488065
v -0.00006841 0.04507931 -0.00480194
v -0.00081841 0.04500199 -0.00466258
v -0.00006841 0.04497724 -0.00460491
v -0.00081841 0.04492419 -0.00442938
v -0.00006841 0.04491837 -0.00440017
v -0.00156841 0.04491837 -0.00440017
v -0.00156841 0.04620017 -0.00528164
v -0.00156841 0.04600001 -0.00529999
v -0.00156841 0.04579985 -0.00528164
v -0.00156841 0.04559511 -0.00522278
v -0.00156841 0.04539808 -0.00512070
v -0.00156841 0.04522219 -0.00497780
v -0.00156841 0.04507931 -0.00480194
v -0.00156841 0.04497724 -0.00460491
v -0.00006841 0.04660194 -0.00512070
v -0.00006841 0.04677782 -0.00497780
v -0.00006841 0.04692070 -0.00480194
v -0.00006841 0.04702277 -0.00460491
v -0.00006841 -0.04491837 0.01959985
v -0.00081841 -0.04491338 0.01962896
v -0.00156842 -0.04491837 0.01959985
v -0.00081841 -0.04495604 0.01945340
v -0.00156842 -0.04497723 0.01939511
v -0.00081841 -0.04503029 0.01928069
v -0.00156842 -0.04507930 0.01919808
v -0.00081841 -0.04513588 0.01911934
v -0.00156842 -0.04522218 0.01902219
v -0.00081841 -0.04526953 0.01897758
v -0.00156842 -0.04539807 0.01887932
v -0.00081841 -0.04542523 0.01886212
v -0.00156842 -0.04559510 0.01877724
v -0.00081841 -0.04559510 0.01877724
v -0.00081841 -0.04577061 0.01872420
v -0.00006841 -0.04559510 0.01877724
v -0.00006841 -0.04579984 0.01871838
v -0.00081841 -0.04600000 0.01870000
v -0.00006841 -0.04600000 0.01870000
v -0.00006841 -0.04620016 0.01871838
v -0.00081841 -0.04622938 0.01872420
v -0.00006841 -0.04640491 0.01877724
v -0.00081841 -0.04646257 0.01880201
v -0.00006841 -0.04660193 0.01887932
v -0.00081841 -0.04668066 0.01893588
v -0.00006841 -0.04677781 0.01902219
v -0.00081841 -0.04686412 0.01911934
v -0.00006841 -0.04692069 0.01919808
v -0.00081841 -0.04699801 0.01933744
v -0.00006841 -0.04702277 0.01939511
v -0.00081841 -0.04707582 0.01957061
v -0.00006841 -0.04708164 0.01959985
v -0.00156842 -0.04708164 0.01959985
v -0.00156842 -0.04579984 0.01871838
v -0.00156842 -0.04600000 0.01870000
v -0.00156842 -0.04620016 0.01871838
v -0.00156842 -0.04640491 0.01877724
v -0.00156842 -0.04660193 0.01887932
v -0.00156842 -0.04677781 0.01902219
v -0.00156842 -0.04692069 0.01919808
v -0.00156842 -0.04702277 0.01939511
v -0.00006841 -0.04539807 0.01887932
v -0.00006841 -0.04522218 0.01902219
v -0.00006841 -0.04507930 0.01919808
v -0.00006841 -0.04497723 0.01939511
v -0.00006841 -0.04491837 -0.00440017
v -0.00081841 -0.04491338 -0.00437103
v -0.00156841 -0.04491837 -0.00440017
v -0.00081841 -0.04495604 -0.00454662
v -0.00156841 -0.04497723 -0.00460491
v -0.00081841 -0.04503029 -0.00471930
v -0.00156841 -0.04507930 -0.00480194
v -0.00081841 -0.04513588 -0.00488065
v -0.00156841 -0.04522218 -0.00497780
v -0.00081841 -0.04526953 -0.00502244
v -0.00156841 -0.04539807 -0.00512070
v -0.00081841 -0.04542523 -0.00513790
v -0.00156841 -0.04559510 -0.00522278
v -0.00081841 -0.04559510 -0.00522278
v -0.00081841 -0.04577061 -0.00527582
v -0.00006841 -0.04559510 -0.00522278
v -0.00006841 -0.04579984 -0.00528164
v -0.00081841 -0.04600000 -0.00529999
v -0.00006841 -0.04600000 -0.00529999
v -0.00006841 -0.04620016 -0.00528164
v -0.00081841 -0.04622938 -0.00527582
v -0.00006841 -0.04640491 -0.00522278
v -0.00081841 -0.04646257 -0.00519801
v -0.00006841 -0.04660193 -0.00512070
v -0.00081841 -0.04668066 -0.00506411
v -0.00006841 -0.04677781 -0.00497780
v -0.00081841 -0.04686412 -0.00488065
v -0.00006841 -0.04692069 -0.00480194
v -0.00081841 -0.04699801 -0.00466258
v -0.00006841 -0.04702277 -0.00460491
v -0.00081841 -0.04707582 -0.00442938
v -0.00006841 -0.04708164 -0.00440017
v -0.00156841 -0.04708164 -0.00440017
v -0.00156841 -0.04579984 -0.00528164
v -0.00156841 -0.04600000 -0.00529999
v -0.00156841 -0.04620016 -0.00528164
v -0.00156841 -0.04640491 -0.00522278
v -0.00156841 -0.04660193 -0.00512070
v -0.00156841 -0.04677781 -0.00497780
v -0.00156841 -0.04692069 -0.00480194
v -0.00156841 -0.04702277 -0.00460491
v -0.00006841 -0.04539807 -0.00512070
v -0.00006841 -0.04522218 -0.00497780
v -0.00006841 -0.04507930 -0.00480194
v -0.00006841 -0.04497723 -0.00460491
v -0.00006841 0.04708165 0.01959985
v -0.00081841 0.04708663 0.01962896
v -0.00156842 0.04708165 0.01959985
v -0.00081841 0.04704397 0.01945340
v -0.00156842 0.04702277 0.01939511
v -0.00081841 0.04696971 0.01928069
v -0.00156842 0.04692070 0.01919808
v -0.00081841 0.04686413 0.01911934
v -0.00156842 0.04677782 0.01902219
v -0.00081841 0.04673048 0.01897758
v -0.00156842 0.04660194 0.01887932
v -0.00081841 0.04657478 0.01886212
v -0.00156842 0.04640491 0.01877724
v -0.00081841 0.04640491 0.01877724
v -0.00081841 0.04622939 0.01872420
v -0.00006841 0.04640491 0.01877724
v -0.00006841 0.04620017 0.01871838
v -0.00081841 0.04600001 0.01870000
v -0.00006841 0.04600001 0.01870000
v -0.00006841 0.04579985 0.01871838
v -0.00081841 0.04577062 0.01872420
v -0.00006841 0.04559511 0.01877724
v -0.00081841 0.04553743 0.01880201
v -0.00006841 0.04539808 0.01887932
v -0.00081841 0.04531935 0.01893588
v -0.00006841 0.04522219 0.01902219
v -0.00081841 0.04513589 0.01911934
v -0.00006841 0.04507931 0.01919808
v -0.00081841 0.04500199 0.01933744
v -0.00006841 0.04497724 0.01939511
v -0.00081841 0.04492419 0.01957061
v -0.00006841 0.04491837 0.01959985
v -0.00156842 0.04491837 0.01959985
v -0.00156842 0.04620017 0.01871838
v -0.00156842 0.04600001 0.01870000
v -0.00156842 0.04579985 0.01871838
v -0.00156842 0.04559511 0.01877724
v -0.00156842 0.04539808 0.01887932
v -0.00156842 0.04522219 0.01902219
v -0.00156842 0.04507931 0.01919808
v -0.00156842 0.04497724 0.01939511
v -0.00006841 0.04660194 0.01887932
v -0.00006841 0.04677782 0.01902219
v -0.00006841 0.04692070 0.01919808
v -0.00006841 0.04702277 0.01939511
v -0.00006841 0.03098331 -0.01988197
v -0.00081841 0.03098784 -0.01985548
v -0.00156841 0.03098331 -0.01988197
v -0.00081841 0.03094906 -0.02001510
v -0.00156841 0.03092979 -0.02006809
v -0.00081841 0.03088155 -0.02017210
v -0.00156841 0.03083700 -0.02024720
v -0.00081841 0.03078557 -0.02031878
v -0.00156841 0.03070711 -0.02040712
v -0.00081841 0.03066407 -0.02044768
v -0.00156841 0.03054721 -0.02053700
v -0.00081841 0.03052252 -0.02055261
v -0.00156841 0.03036810 -0.02062977
v -0.00081841 0.03036810 -0.02062977
v -0.00081841 0.03020854 -0.02067802
v -0.00006841 0.03036810 -0.02062977
v -0.00006841 0.03018197 -0.02068330
v -0.00081841 0.03000000 -0.02069999
v -0.00006841 0.03000000 -0.02069999
v -0.00006841 0.02981804 -0.02068330
v -0.00081841 0.02979147 -0.02067802
v -0.00006841 0.02963191 -0.02062977
v -0.00081841 0.02957948 -0.02060727
v -0.00006841 0.02945280 -0.02053700
v -0.00081841 0.02938122 -0.02048556
v -0.00006841 0.02929290 -0.02040712
v -0.00081841 0.02921444 -0.02031878
v -0.00006841 0.02916301 -0.02024720
v -0.00081841 0.02909272 -0.02012051
v -0.00006841 0.02907022 -0.02006809
v -0.00081841 0.02902199 -0.01990853
v -0.00006841 0.02901670 -0.01988197
v -0.00156841 0.02901670 -0.01988197
v -0.00156841 0.03018197 -0.02068330
v -0.00156841 0.03000000 -0.02069999
v -0.00156841 0.02981804 -0.02068330
v -0.00156841 0.02963191 -0.02062977
v -0.00156841 0.02945280 -0.02053700
v -0.00156841 0.02929290 -0.02040712
v -0.00156841 0.02916301 -0.02024720
v -0.00156841 0.02907022 -0.02006809
v -0.00006841 0.03054721 -0.02053700
v -0.00006841 0.03070711 -0.02040712
v -0.00006841 0.03083700 -0.02024720
v -0.00006841 0.03092979 -0.02006809
v -0.00006841 -0.02901670 0.01911803
v -0.00081841 -0.02901216 0.01914453
v -0.00156842 -0.02901670 0.01911803
v -0.00081841 -0.02905094 0.01898491
v -0.00156842 -0.02907021 0.01893192
v -0.00081841 -0.02911845 0.01882791
v -0.00156842 -0.02916300 0.01875281
v -0.00081841 -0.02921444 0.01868122
v -0.00156842 -0.02929289 0.01859292
v -0.00081841 -0.02933593 0.01855233
v -0.00156842 -0.02945279 0.01846301
v -0.00081841 -0.02947748 0.01844736
v -0.00156842 -0.02963191 0.01837023
v -0.00081841 -0.02963191 0.01837023
v -0.00081841 -0.02979147 0.01832198
v -0.00006841 -0.02963191 0.01837023
v -0.00006841 -0.02981804 0.01831671
v -0.00081841 -0.03000000 0.01830002
v -0.00006841 -0.03000000 0.01830002
v -0.00006841 -0.03018196 0.01831671
v -0.00081841 -0.03020854 0.01832198
v -0.00006841 -0.03036810 0.01837023
v -0.00081841 -0.03042052 0.01839273
v -0.00006841 -0.03054721 0.01846301
v -0.00081841 -0.03061878 0.01851445
v -0.00006841 -0.03070711 0.01859292
v -0.00081841 -0.03078556 0.01868122
v -0.00006841 -0.03083700 0.01875281
v -0.00081841 -0.03090728 0.01887950
v -0.00006841 -0.03092979 0.01893192
v -0.00081841 -0.03097801 0.01909148
v -0.00006841 -0.03098330 0.01911803
v -0.00156842 -0.03098330 0.01911803
v -0.00156842 -0.02981804 0.01831671
v -0.00156842 -0.03000000 0.01830002
v -0.00156842 -0.03018196 0.01831671
v -0.00156842 -0.03036810 0.01837023
v -0.00156842 -0.03054721 0.01846301
v -0.00156842 -0.03070711 0.01859292
v -0.00156842 -0.03083700 0.01875281
v -0.00156842 -0.03092979 0.01893192
v -0.00006841 -0.02945279 0.01846301
v -0.00006841 -0.02929289 0.01859292
v -0.00006841 -0.02916300 0.01875281
v -0.00006841 -0.02907021 0.01893192
v -0.00006841 -0.02901670 -0.01988197
v -0.00081841 -0.02901216 -0.01985548
v -0.00156841 -0.02901670 -0.01988197
v -0.00081841 -0.02905094 -0.02001510
v -0.00156841 -0.02907021 -0.02006809
v -0.00081841 -0.02911845 -0.02017210
v -0.00156841 -0.02916300 -0.02024720
v -0.00081841 -0.02921444 -0.02031878
v -0.00156841 -0.02929289 -0.02040712
v -0.00081841 -0.02933593 -0.02044768
v -0.00156841 -0.02945279 -0.02053700
v -0.00081841 -0.02947748 -0.02055261
v -0.00156841 -0.02963191 -0.02062977
v -0.00081841 -0.02963191 -0.02062977
v -0.00081841 -0.02979147 -0.02067802
v -0.00006841 -0.02963191 -0.02062977
v -0.00006841 -0.02981804 -0.02068330
v -0.00081841 -0.03000000 -0.02069999
v -0.00006841 -0.03000000 -0.02069999
v -0.00006841 -0.03018196 -0.02068330
v -0.00081841 -0.03020854 -0.02067802
v -0.00006841 -0.03036810 -0.02062977
v -0.00081841 -0.03042052 -0.02060727
v -0.00006841 -0.03054721 -0.02053700
v -0.00081841 -0.03061878 -0.02048556
v -0.00006841 -0.03070711 -0.02040712
v -0.00081841 -0.03078556 -0.02031878
v -0.00006841 -0.03083700 -0.02024720
v -0.00081841 -0.03090728 -0.02012051
v -0.00006841 -0.03092979 -0.02006809
v -0.00081841 -0.03097801 -0.01990853
v -0.00006841 -0.03098330 -0.01988197
v -0.00156841 -0.03098330 -0.01988197
v -0.00156841 -0.02981804 -0.02068330
v -0.00156841 -0.03000000 -0.02069999
v -0.00156841 -0.03018196 -0.02068330
v -0.00156841 -0.03036810 -0.02062977
v -0.00156841 -0.03054721 -0.02053700
v -0.00156841 -0.03070711 -0.02040712
v -0.00156841 -0.03083700 -0.02024720
v -0.00156841 -0.03092979 -0.02006809
v -0.00006841 -0.02945279 -0.02053700
v -0.00006841 -0.02929289 -0.02040712
v -0.00006841 -0.02916300 -0.02024720
v -0.00006841 -0.02907021 -0.02006809
v -0.00006841 0.03098331 0.01911803
v -0.00081841 0.03098784 0.01914453
v -0.00156842 0.03098331 0.01911803
v -0.00081841 0.03094906 0.01898491
v -0.00156842 0.03092979 0.01893192
v -0.00081841 0.03088155 0.01882791
v -0.00156842 0.03083700 0.01875281
v -0.00081841 0.03078557 0.01868122
v -0.00156842 0.03070711 0.01859292
v -0.00081841 0.03066407 0.01855233
v -0.00156842 0.03054721 0.01846301
v -0.00081841 0.03052252 0.01844736
v -0.00156842 0.03036810 0.01837023
v -0.00081841 0.03036810 0.01837023
v -0.00081841 0.03020854 0.01832198
v -0.00006841 0.03036810 0.01837023
v -0.00006841 0.03018197 0.01831671
v -0.00081841 0.03000000 0.01830002
v -0.00006841 0.03000000 0.01830002
v -0.00006841 0.02981804 0.01831671
v -0.00081841 0.02979147 0.01832198
v -0.00006841 0.02963191 0.01837023
v -0.00081841 0.02957948 0.01839273
v -0.00006841 0.02945280 0.01846301
v -0.00081841 0.02938122 0.01851445
v -0.00006841 0.02929290 0.01859292
v -0.00081841 0.02921444 0.01868122
v -0.00006841 0.02916301 0.01875281
v -0.00081841 0.02909272 0.01887950
v -0.00006841 0.02907022 0.01893192
v -0.00081841 0.02902199 0.01909148
v -0.00006841 0.02901670 0.01911803
v -0.00156842 0.02901670 0.01911803
v -0.00156842 0.03018197 0.01831671
v -0.00156842 0.03000000 0.01830002
v -0.00156842 0.02981804 0.01831671
v -0.00156842 0.02963191 0.01837023
v -0.00156842 0.02945280 0.01846301
v -0.00156842 0.02929290 0.01859292
v -0.00156842 0.02916301 0.01875281
v -0.00156842 0.02907022 0.01893192
v -0.00006841 0.03054721 0.01846301
v -0.00006841 0.03070711 0.01859292
v -0.00006841 0.03083700 0.01875281
v -0.00006841 0.03092979 0.01893192
v -0.00006841 -0.01050000 -0.01720000
v -0.00156841 -0.01050000 -0.01720000
v -0.00081841 -0.01050000 -0.00669999
v -0.00156841 -0.01050000 0.00380000
v -0.00006841 -0.01050000 0.00380000
v -0.00006841 0.01050000 -0.01720000
v -0.00156841 0.01050000 -0.01720000
v -0.00081841 0.00000000 -0.01720000
v -0.00006841 0.01050000 0.00380000
v -0.00156841 0.01050000 0.00380000
v -0.00081841 0.01050000 -0.00669999
v -0.00081841 0.00000000 0.00380000
v -0.00006841 0.00858164 -0.04690016
v -0.00081841 0.00858663 -0.04687103
v -0.00156841 0.00858164 -0.04690016
v -0.00081841 0.00854397 -0.04704661
v -0.00156841 0.00852277 -0.04710490
v -0.00081841 0.00846971 -0.04721930
v -0.00156841 0.00842070 -0.04730193
v -0.00081841 0.00836412 -0.04738066
v -0.00156841 0.00827782 -0.04747782
v -0.00081841 0.00823047 -0.04752245
v -0.00156841 0.00810193 -0.04762069
v -0.00081841 0.00807477 -0.04763789
v -0.00156841 0.00790491 -0.04772276
v -0.00081841 0.00790491 -0.04772276
v -0.00081841 0.00772939 -0.04777581
v -0.00006841 0.00790491 -0.04772276
v -0.00006841 0.00770016 -0.04778164
v -0.00081841 0.00750000 -0.04780000
v -0.00006841 0.00750000 -0.04780000
v -0.00006841 0.00729984 -0.04778164
v -0.00081841 0.00727061 -0.04777581
v -0.00006841 0.00709510 -0.04772276
v -0.00081841 0.00703743 -0.04769801
v -0.00006841 0.00689807 -0.04762069
v -0.00081841 0.00681934 -0.04756413
v -0.00006841 0.00672219 -0.04747782
v -0.00081841 0.00663588 -0.04738066
v -0.00006841 0.00657931 -0.04730193
v -0.00081841 0.00650199 -0.04716257
v -0.00006841 0.00647724 -0.04710490
v -0.00081841 0.00642419 -0.04692938
v -0.00006841 0.00641837 -0.04690016
v -0.00156841 0.00641837 -0.04690016
v -0.00156841 0.00770016 -0.04778164
v -0.00156841 0.00750000 -0.04780000
v -0.00156841 0.00729984 -0.04778164
v -0.00156841 0.00709510 -0.04772276
v -0.00156841 0.00689807 -0.04762069
v -0.00156841 0.00672219 -0.04747782
v -0.00156841 0.00657931 -0.04730193
v -0.00156841 0.00647724 -0.04710490
v -0.00006841 0.00810193 -0.04762069
v -0.00006841 0.00827782 -0.04747782
v -0.00006841 0.00842070 -0.04730193
v -0.00006841 0.00852277 -0.04710490
v -0.00006841 -0.00641836 -0.04690016
v -0.00081841 -0.00641338 -0.04687103
v -0.00156841 -0.00641836 -0.04690016
v -0.00081841 -0.00645604 -0.04704661
v -0.00156841 -0.00647723 -0.04710490
v -0.00081841 -0.00653029 -0.04721930
v -0.00156841 -0.00657930 -0.04730193
v -0.00081841 -0.00663588 -0.04738066
v -0.00156841 -0.00672218 -0.04747782
v -0.00081841 -0.00676953 -0.04752245
v -0.00156841 -0.00689807 -0.04762069
v -0.00081841 -0.00692523 -0.04763789
v -0.00156841 -0.00709509 -0.04772276
v -0.00081841 -0.00709509 -0.04772276
v -0.00081841 -0.00727061 -0.04777581
v -0.00006841 -0.00709509 -0.04772276
v -0.00006841 -0.00729984 -0.04778164
v -0.00081841 -0.00750000 -0.04780000
v -0.00006841 -0.00750000 -0.04780000
v -0.00006841 -0.00770016 -0.04778164
v -0.00081841 -0.00772939 -0.04777581
v -0.00006841 -0.00790490 -0.04772276
v -0.00081841 -0.00796257 -0.04769801
v -0.00006841 -0.00810193 -0.04762069
v -0.00081841 -0.00818066 -0.04756413
v -0.00006841 -0.00827782 -0.04747782
v -0.00081841 -0.00836412 -0.04738066
v -0.00006841 -0.00842069 -0.04730193
v -0.00081841 -0.00849801 -0.04716257
v -0.00006841 -0.00852277 -0.04710490
v -0.00081841 -0.00857581 -0.04692938
v -0.00006841 -0.00858163 -0.04690016
v -0.00156841 -0.00858163 -0.04690016
v -0.00156841 -0.00729984 -0.04778164
v -0.00156841 -0.00750000 -0.04780000
v -0.00156841 -0.00770016 -0.04778164
v -0.00156841 -0.00790490 -0.04772276
v -0.00156841 -0.00810193 -0.04762069
v -0.00156841 -0.00827782 -0.04747782
v -0.00156841 -0.00842069 -0.04730193
v -0.00156841 -0.00852277 -0.04710490
v -0.00006841 -0.00689807 -0.04762069
v -0.00006841 -0.00672218 -0.04747782
v -0.00006841 -0.00657930 -0.04730193
v -0.00006841 -0.00647723 -0.04710490
v -0.00006841 -0.02016694 -0.00201962
v -0.00081841 -0.02012161 -0.00175480
v -0.00156841 -0.02016694 -0.00201962
v -0.00081841 -0.02050943 -0.00335104
v -0.00156841 -0.02070212 -0.00388096
v -0.00081841 -0.02118450 -0.00492091
v -0.00156841 -0.02163004 -0.00567208
v -0.00081841 -0.02214436 -0.00638781
v -0.00156841 -0.02292893 -0.00727106
v -0.00081841 -0.02335935 -0.00767676
v -0.00156841 -0.02452790 -0.00856993
v -0.00081841 -0.02477483 -0.00872628
v -0.00156841 -0.02631905 -0.00949789
v -0.00081841 -0.02631905 -0.00949789
v -0.00081841 -0.02791465 -0.00998015
v -0.00006841 -0.02631905 -0.00949789
v -0.00006841 -0.02818037 -0.01003305
v -0.00081841 -0.03000000 -0.01020000
v -0.00006841 -0.03000000 -0.01020000
v -0.00006841 -0.03181963 -0.01003305
v -0.00081841 -0.03208535 -0.00998015
v -0.00006841 -0.03368095 -0.00949789
v -0.00081841 -0.03420520 -0.00927282
v -0.00006841 -0.03547210 -0.00856993
v -0.00081841 -0.03618780 -0.00805564
v -0.00006841 -0.03707107 -0.00727106
v -0.00081841 -0.03785564 -0.00638781
v -0.00006841 -0.03836995 -0.00567208
v -0.00081841 -0.03907283 -0.00440521
v -0.00006841 -0.03929788 -0.00388096
v -0.00081841 -0.03978015 -0.00228534
v -0.00006841 -0.03983305 -0.00201962
v -0.00156841 -0.03983305 -0.00201962
v -0.00156841 -0.02818037 -0.01003305
v -0.00156841 -0.03000000 -0.01020000
v -0.00156841 -0.03181963 -0.01003305
v -0.00156841 -0.03368095 -0.00949789
v -0.00156841 -0.03547210 -0.00856993
v -0.00156841 -0.03707107 -0.00727106
v -0.00156841 -0.03836995 -0.00567208
v -0.00156841 -0.03929788 -0.00388096
v -0.00006841 -0.02452790 -0.00856993
v -0.00006841 -0.02292893 -0.00727106
v -0.00006841 -0.02163004 -0.00567208
v -0.00006841 -0.02070212 -0.00388096
v -0.00006841 0.03983306 -0.00201962
v -0.00081841 0.03987840 -0.00175480
v -0.00156841 0.03983306 -0.00201962
v -0.00081841 0.03949058 -0.00335104
v -0.00156841 0.03929789 -0.00388096
v -0.00081841 0.03881550 -0.00492091
v -0.00156841 0.03836996 -0.00567208
v -0.00081841 0.03785565 -0.00638781
v -0.00156841 0.03707108 -0.00727106
v -0.00081841 0.03664065 -0.00767676
v -0.00156841 0.03547210 -0.00856993
v -0.00081841 0.03522518 -0.00872628
v -0.00156841 0.03368095 -0.00949789
v -0.00081841 0.03368095 -0.00949789
v -0.00081841 0.03208536 -0.00998015
v -0.00006841 0.03368095 -0.00949789
v -0.00006841 0.03181963 -0.01003305
v -0.00081841 0.03000000 -0.01020000
v -0.00006841 0.03000000 -0.01020000
v -0.00006841 0.02818037 -0.01003305
v -0.00081841 0.02791465 -0.00998015
v -0.00006841 0.02631906 -0.00949789
v -0.00081841 0.02579480 -0.00927282
v -0.00006841 0.02452791 -0.00856993
v -0.00081841 0.02381220 -0.00805564
v -0.00006841 0.02292893 -0.00727106
v -0.00081841 0.02214436 -0.00638781
v -0.00006841 0.02163005 -0.00567208
v -0.00081841 0.02092717 -0.00440521
v -0.00006841 0.02070212 -0.00388096
v -0.00081841 0.02021985 -0.00228534
v -0.00006841 0.02016695 -0.00201962
v -0.00156841 0.02016695 -0.00201962
v -0.00156841 0.03181963 -0.01003305
v -0.00156841 0.03000000 -0.01020000
v -0.00156841 0.02818037 -0.01003305
v -0.00156841 0.02631906 -0.00949789
v -0.00156841 0.02452791 -0.00856993
v -0.00156841 0.02292893 -0.00727106
v -0.00156841 0.02163005 -0.00567208
v -0.00156841 0.02070212 -0.00388096
v -0.00006841 0.03547210 -0.00856993
v -0.00006841 0.03707108 -0.00727106
v -0.00006841 0.03836996 -0.00567208
v -0.00006841 0.03929789 -0.00388096
v -0.00156842 -0.01850000 0.02730002
v -0.00006842 -0.01850000 0.02730002
v -0.00081841 -0.01850000 0.01780000
v -0.00006841 -0.01850000 0.00830000
v -0.00156841 -0.01850000 0.00830000
v -0.00156842 -0.03800000 0.02730002
v -0.00006842 -0.03800000 0.02730002
v -0.00081841 -0.02825000 0.02730002
v -0.00156842 -0.03800000 0.02380001
v -0.00006841 -0.03800000 0.02380001
v -0.00081841 -0.03800000 0.02555000
v -0.00156842 -0.04950000 0.02380001
v -0.00006841 -0.04950000 0.02380001
v -0.00081841 -0.04375000 0.02380001
v -0.00156841 -0.04950000 -0.02319998
v -0.00006841 -0.04950000 -0.02319998
v -0.00081841 -0.04950000 0.00030001
v -0.00156841 -0.02750000 -0.02319998
v -0.00006841 -0.02750000 -0.02319998
v -0.00081841 -0.03850000 -0.02319998
v -0.00156841 -0.01750000 -0.03270001
v -0.00006841 -0.01750000 -0.03270001
v -0.00081841 -0.02250000 -0.02795000
v -0.00156841 -0.01750000 -0.04970000
v -0.00006841 -0.01750000 -0.04970000
v -0.00081841 -0.01750000 -0.04120000
v -0.00156841 0.01750000 -0.04970000
v -0.00006841 0.01750000 -0.04970000
v -0.00081841 0.00000000 -0.04970000
v -0.00156841 0.01750000 -0.03270001
v -0.00006841 0.01750000 -0.03270001
v -0.00081841 0.01750000 -0.04120000
v -0.00156841 0.02750000 -0.02319998
v -0.00006841 0.02750000 -0.02319998
v -0.00081841 0.02250000 -0.02795000
v -0.00156841 0.04950001 -0.02319998
v -0.00006841 0.04950001 -0.02319998
v -0.00081841 0.03850001 -0.02319998
v -0.00156842 0.04950001 0.02380001
v -0.00006841 0.04950001 0.02380001
v -0.00081841 0.04950001 0.00030001
v -0.00156842 0.03800001 0.02380001
v -0.00006841 0.03800001 0.02380001
v -0.00081841 0.04375001 0.02380001
v -0.00156842 0.03800001 0.02730002
v -0.00006842 0.03800001 0.02730002
v -0.00081841 0.03800001 0.02555000
v -0.00156842 0.01850000 0.02730002
v -0.00006842 0.01850000 0.02730002
v -0.00081841 0.02825001 0.02730002
v -0.00156841 0.01850000 0.00830000
v -0.00006841 0.01850000 0.00830000
v -0.00081841 0.01850000 0.01780000
v -0.00081841 0.00000000 0.00830000
v -0.00006841 0.00000000 -0.02069999
v -0.00006841 0.00000000 -0.04780000
v -0.00156841 0.00000000 -0.02069999
v -0.00156841 0.00000000 -0.04780000
f 1 2 3
f 3 2 4
f 3 4 5
f 5 4 6
f 5 6 7
f 7 6 8
f 7 8 9
f 9 8 10
f 9 10 11
f 11 10 12
f 11 12 13
f 13 12 14
f 13 14 15
f 15 14 16
f 15 16 17
f 17 16 18
f 18 16 19
f 18 19 20
f 20 19 21
f 20 21 22
f 22 21 23
f 22 23 24
f 2 25 4
f 4 25 26
f 4 26 6
f 6 26 27
f 6 27 8
f 8 27 28
f 8 28 10
f 10 28 29
f 10 29 12
f 12 29 30
f 12 30 14
f 14 30 31
f 14 31 16
f 16 31 32
f 16 32 33
f 16 33 19
f 19 33 23
f 19 23 21
f 22 24 34
f 34 24 35
f 34 35 36
f 36 35 37
f 36 37 38
f 38 37 39
f 38 39 40
f 40 39 41
f 40 41 42
f 42 41 43
f 42 43 44
f 44 45 42
f 42 45 40
f 45 46 40
f 40 46 38
f 46 47 38
f 38 47 36
f 47 48 36
f 36 48 34
f 48 49 34
f 34 49 22
f 49 20 22
f 50 51 52
f 52 51 53
f 52 53 54
f 54 53 55
f 54 55 56
f 56 55 57
f 56 57 58
f 58 57 59
f 58 59 60
f 60 59 61
f 60 61 62
f 62 61 63
f 62 63 64
f 64 63 65
f 64 65 66
f 66 65 67
f 67 65 68
f 67 68 69
f 69 68 70
f 69 70 71
f 71 70 72
f 71 72 73
f 51 74 53
f 53 74 75
f 53 75 55
f 55 75 76
f 55 76 57
f 57 76 77
f 57 77 59
f 59 77 78
f 59 78 61
f 61 78 79
f 61 79 63
f 63 79 80
f 63 80 65
f 65 80 81
f 65 81 82
f 65 82 68
f 68 82 72
f 68 72 70
f 71 73 83
f 83 73 84
f 83 84 85
f 85 84 86
f 85 86 87
f 87 86 88
f 87 88 89
f 89 88 90
f 89 90 91
f 91 90 92
f 91 92 93
f 93 94 91
f 91 94 89
f 94 95 89
f 89 95 87
f 95 96 87
f 87 96 85
f 96 97 85
f 85 97 83
f 97 98 83
f 83 98 71
f 98 69 71
f 99 100 101
f 101 100 102
f 101 102 103
f 103 102 104
f 103 104 105
f 105 104 106
f 105 106 107
f 107 106 108
f 107 108 109
f 109 108 110
f 109 110 111
f 111 110 112
f 111 112 113
f 113 112 114
f 113 114 115
f 115 114 116
f 116 114 117
f 116 117 118
f 118 117 119
f 118 119 120
f 120 119 121
f 120 121 122
f 100 123 102
f 102 123 124
f 102 124 104
f 104 124 125
f 104 125 106
f 106 125 126
f 106 126 108
f 108 126 127
f 108 127 110
f 110 127 128
f 110 128 112
f 112 128 129
f 112 129 114
f 114 129 130
f 114 130 131
f 114 131 117
f 117 131 121
f 117 121 119
f 120 122 132
f 132 122 133
f 132 133 134
f 134 133 135
f 134 135 136
f 136 135 137
f 136 137 138
f 138 137 139
f 138 139 140
f 140 139 141
f 140 141 142
f 142 143 140
f 140 143 138
f 143 144 138
f 138 144 136
f 144 145 136
f 136 145 134
f 145 146 134
f 134 146 132
f 146 147 132
f 132 147 120
f 147 118 120
f 148 149 150
f 150 149 151
f 150 151 152
f 152 151 153
f 152 153 154
f 154 153 155
f 154 155 156
f 156 155 157
f 156 157 158
f 158 157 159
f 158 159 160
f 160 159 161
f 160 161 162
f 162 161 163
f 162 163 164
f 164 163 165
f 165 163 166
f 165 166 167
f 167 166 168
f 167 168 169
f 169 168 170
f 169 170 171
f 149 172 151
f 151 172 173
f 151 173 153
f 153 173 174
f 153 174 155
f 155 174 175
f 155 175 157
f 157 175 176
f 157 176 159
f 159 176 177
f 159 177 161
f 161 177 178
f 161 178 163
f 163 178 179
f 163 179 180
f 163 180 166
f 166 180 170
f 166 170 168
f 169 171 181
f 181 171 182
f 181 182 183
f 183 182 184
f 183 184 185
f 185 184 186
f 185 186 187
f 187 186 188
f 187 188 189
f 189 188 190
f 189 190 191
f 191 192 189
f 189 192 187
f 192 193 187
f 187 193 185
f 193 194 185
f 185 194 183
f 194 195 183
f 183 195 181
f 195 196 181
f 181 196 169
f 196 167 169
f 197 198 199
f 199 198 200
f 199 200 201
f 201 200 202
f 201 202 203
f 203 202 204
f 203 204 205
f 205 204 206
f 205 206 207
f 207 206 208
f 207 208 209
f 209 208 210
f 209 210 211
f 211 210 212
f 211 212 213
f 213 212 214
f 214 212 215
f 214 215 216
f 216 215 217
f 216 217 218
f 218 217 219
f 218 219 220
f 198 221 200
f 200 221 222
f 200 222 202
f 202 222 223
f 202 223 204
f 204 223 224
f 204 224 206
f 206 224 225
f 206 225 208
f 208 225 226
f 208 226 210
f 210 226 227
f 210 227 212
f 212 227 228
f 212 228 229
f 212 229 215
f 215 229 219
f 215 219 217
f 218 220 230
f 230 220 231
f 230 231 232
f 232 231 233
f 232 233 234
f 234 233 235
f 234 235 236
f 236 235 237
f 236 237 238
f 238 237 239
f 238 239 240
f 240 241 238
f 238 241 236
f 241 242 236
f 236 242 234
f 242 243 234
f 234 243 232
f 243 244 232
f 232 244 230
f 244 245 230
f 230 245 218
f 245 216 218
f 246 247 248
f 248 247 249
f 248 249 250
f 250 249 251
f 250 251 252
f 252 251 253
f 252 253 254
f 254 253 255
f 254 255 256
f 256 255 257
f 256 257 258
f 258 257 259
f 258 259 260
f 260 259 261
f 260 261 262
f 262 261 263
f 263 261 264
f 263 264 265
f 265 264 266
f 265 266 267
f 267 266 268
f 267 268 269
f 247 270 249
f 249 270 271
f 249 271 251
f 251 271 272
f 251 272 253
f 253 272 273
f 253 273 255
f 255 273 274
f 255 274 257
f 257 274 275
f 257 275 259
f 259 275 276
f 259 276 261
f 261 276 277
f 261 277 278
f 261 278 264
f 264 278 268
f 264 268 266
f 267 269 279
f 279 269 280
f 279 280 281
f 281 280 282
f 281 282 283
f 283 282 284
f 283 284 285
f 285 284 286
f 285 286 287
f 287 286 288
f 287 288 289
f 289 290 287
f 287 290 285
f 290 291 285
f 285 291 283
f 291 292 283
f 283 292 281
f 292 293 281
f 281 293 279
f 293 294 279
f 279 294 267
f 294 265 267
f 295 296 297
f 297 296 298
f 297 298 299
f 299 298 300
f 299 300 301
f 301 300 302
f 301 302 303
f 303 302 304
f 303 304 305
f 305 304 306
f 305 306 307
f 307 306 308
f 307 308 309
f 309 308 310
f 309 310 311
f 311 310 312
f 312 310 313
f 312 313 314
f 314 313 315
f 314 315 316
f 316 315 317
f 316 317 318
f 296 319 298
f 298 319 320
f 298 320 300
f 300 320 321
f 300 321 302
f 302 321 322
f 302 322 304
f 304 322 323
f 304 323 306
f 306 323 324
f 306 324 308
f 308 324 325
f 308 325 310
f 310 325 326
f 310 326 327
f 310 327 313
f 313 327 317
f 313 317 315
f 316 318 328
f 328 318 329
f 328 329 330
f 330 329 331
f 330 331 332
f 332 331 333
f 332 333 334
f 334 333 335
f 334 335 336
f 336 335 337
f 336 337 338
f 338 339 336
f 336 339 334
f 339 340 334
f 334 340 332
f 340 341 332
f 332 341 330
f 341 342 330
f 330 342 328
f 342 343 328
f 328 343 316
f 343 314 316
f 344 345 346
f 346 345 347
f 346 347 348
f 348 347 349
f 348 349 350
f 350 349 351
f 350 351 352
f 352 351 353
f 352 353 354
f 354 353 355
f 354 355 356
f 356 355 357
f 356 357 358
f 358 357 359
f 358 359 360
f 360 359 361
f 361 359 362
f 361 362 363
f 363 362 364
f 363 364 365
f 365 364 366
f 365 366 367
f 345 368 347
f 347 368 369
f 347 369 349
f 349 369 370
f 349 370 351
f 351 370 371
f 351 371 353
f 353 371 372
f 353 372 355
f 355 372 373
f 355 373 357
f 357 373 374
f 357 374 359
f 359 374 375
f 359 375 376
f 359 376 362
f 362 376 366
f 362 366 364
f 365 367 377
f 377 367 378
f 377 378 379
f 379 378 380
f 379 380 381
f 381 380 382
f 381 382 383
f 383 382 384
f 383 384 385
f 385 384 386
f 385 386 387
f 387 388 385
f 385 388 383
f 388 389 383
f 383 389 381
f 389 390 381
f 381 390 379
f 390 391 379
f 379 391 377
f 391 392 377
f 377 392 365
f 392 363 365
f 393 394 395
f 395 394 396
f 395 396 397
f 397 396 398
f 397 398 399
f 399 398 400
f 399 400 401
f 401 400 402
f 401 402 403
f 403 402 404
f 403 404 405
f 405 404 406
f 405 406 407
f 407 406 408
f 407 408 409
f 409 408 410
f 410 408 411
f 410 411 412
f 412 411 413
f 412 413 414
f 414 413 415
f 414 415 416
f 394 417 396
f 396 417 418
f 396 418 398
f 398 418 419
f 398 419 400
f 400 419 420
f 400 420 402
f 402 420 421
f 402 421 404
f 404 421 422
f 404 422 406
f 406 422 423
f 406 423 408
f 408 423 424
f 408 424 425
f 408 425 411
f 411 425 415
f 411 415 413
f 414 416 426
f 426 416 427
f 426 427 428
f 428 427 429
f 428 429 430
f 430 429 431
f 430 431 432
f 432 431 433
f 432 433 434
f 434 433 435
f 434 435 436
f 436 437 434
f 434 437 432
f 437 438 432
f 432 438 430
f 438 439 430
f 430 439 428
f 439 440 428
f 428 440 426
f 440 441 426
f 426 441 414
f 441 412 414
f 442 443 444
f 444 443 445
f 444 445 446
f 446 445 447
f 446 447 448
f 448 447 449
f 448 449 450
f 450 449 451
f 450 451 452
f 452 451 453
f 452 453 454
f 454 453 455
f 454 455 456
f 456 455 457
f 456 457 458
f 458 457 459
f 459 457 460
f 459 460 461
f 461 460 462
f 461 462 463
f 463 462 464
f 463 464 465
f 443 466 445
f 445 466 467
f 445 467 447
f 447 467 468
f 447 468 449
f 449 468 469
f 449 469 451
f 451 469 470
f 451 470 453
f 453 470 471
f 453 471 455
f 455 471 472
f 455 472 457
f 457 472 473
f 457 473 474
f 457 474 460
f 460 474 464
f 460 464 462
f 463 465 475
f 475 465 476
f 475 476 477
f 477 476 478
f 477 478 479
f 479 478 480
f 479 480 481
f 481 480 482
f 481 482 483
f 483 482 484
f 483 484 485
f 485 486 483
f 483 486 481
f 486 487 481
f 481 487 479
f 487 488 479
f 479 488 477
f 488 489 477
f 477 489 475
f 489 490 475
f 475 490 463
f 490 461 463
f 491 492 493
f 493 492 494
f 493 494 495
f 495 494 496
f 495 496 497
f 497 496 498
f 497 498 499
f 499 498 500
f 499 500 501
f 501 500 502
f 501 502 503
f 503 502 504
f 503 504 505
f 505 504 506
f 505 506 507
f 507 506 508
f 508 506 509
f 508 509 510
f 510 509 511
f 510 511 512
f 512 511 513
f 512 513 514
f 492 515 494
f 494 515 516
f 494 516 496
f 496 516 517
f 496 517 498
f 498 517 518
f 498 518 500
f 500 518 519
f 500 519 502
f 502 519 520
f 502 520 504
f 504 520 521
f 504 521 506
f 506 521 522
f 506 522 523
f 506 523 509
f 509 523 513
f 509 513 511
f 512 514 524
f 524 514 525
f 524 525 526
f 526 525 527
f 526 527 528
f 528 527 529
f 528 529 530
f 530 529 531
f 530 531 532
f 532 531 533
f 532 533 534
f 534 535 532
f 532 535 530
f 535 536 530
f 530 536 528
f 536 537 528
f 528 537 526
f 537 538 526
f 526 538 524
f 538 539 524
f 524 539 512
f 539 510 512
f 540 541 542
f 542 541 543
f 542 543 544
f 544 543 545
f 544 545 546
f 546 545 547
f 546 547 548
f 548 547 549
f 548 549 550
f 550 549 551
f 550 551 552
f 552 551 553
f 552 553 554
f 554 553 555
f 554 555 556
f 556 555 557
f 557 555 558
f 557 558 559
f 559 558 560
f 559 560 561
f 561 560 562
f 561 562 563
f 541 564 543
f 543 564 565
f 543 565 545
f 545 565 566
f 545 566 547
f 547 566 567
f 547 567 549
f 549 567 568
f 549 568 551
f 551 568 569
f 551 569 553
f 553 569 570
f 553 570 555
f 555 570 571
f 555 571 572
f 555 572 558
f 558 572 562
f 558 562 560
f 561 563 573
f 573 563 574
f 573 574 575
f 575 574 576
f 575 576 577
f 577 576 578
f 577 578 579
f 579 578 580
f 579 580 581
f 581 580 582
f 581 582 583
f 583 584 581
f 581 584 579
f 584 585 579
f 579 585 577
f 585 586 577
f 577 586 575
f 586 587 575
f 575 587 573
f 587 588 573
f 573 588 561
f 588 559 561
f 589 541 590
f 590 541 540
f 590 540 591
f 590 591 592
f 592 591 593
f 592 593 594
f 594 593 595
f 594 595 596
f 596 595 597
f 596 597 598
f 598 597 599
f 598 599 600
f 600 599 601
f 600 601 602
f 602 601 603
f 602 603 604
f 604 603 605
f 605 603 606
f 605 606 607
f 607 606 608
f 608 606 609
f 608 609 610
f 610 609 611
f 610 611 612
f 612 611 613
f 612 613 614
f 614 613 615
f 614 615 616
f 616 615 617
f 616 617 618
f 618 617 619
f 618 619 620
f 620 619 582
f 582 619 621
f 582 621 583
f 601 622 603
f 603 622 606
f 622 623 606
f 606 623 624
f 606 624 609
f 609 624 625
f 609 625 611
f 611 625 626
f 611 626 613
f 613 626 627
f 613 627 615
f 615 627 628
f 615 628 617
f 617 628 629
f 617 629 619
f 619 629 621
f 602 604 600
f 600 604 630
f 600 630 598
f 598 630 631
f 598 631 596
f 596 631 632
f 596 632 594
f 594 632 633
f 594 633 592
f 592 633 589
f 592 589 590
f 634 492 635
f 635 492 491
f 635 491 636
f 635 636 637
f 637 636 638
f 637 638 639
f 639 638 640
f 639 640 641
f 641 640 642
f 641 642 643
f 643 642 644
f 643 644 645
f 645 644 646
f 645 646 647
f 647 646 648
f 647 648 649
f 649 648 650
f 650 648 651
f 650 651 652
f 652 651 653
f 653 651 654
f 653 654 655
f 655 654 656
f 655 656 657
f 657 656 658
f 657 658 659
f 659 658 660
f 659 660 661
f 661 660 662
f 661 662 663
f 663 662 664
f 663 664 665
f 665 664 533
f 533 664 666
f 533 666 534
f 646 667 648
f 648 667 651
f 667 668 651
f 651 668 669
f 651 669 654
f 654 669 670
f 654 670 656
f 656 670 671
f 656 671 658
f 658 671 672
f 658 672 660
f 660 672 673
f 660 673 662
f 662 673 674
f 662 674 664
f 664 674 666
f 647 649 645
f 645 649 675
f 645 675 643
f 643 675 676
f 643 676 641
f 641 676 677
f 641 677 639
f 639 677 678
f 639 678 637
f 637 678 634
f 637 634 635
f 679 443 680
f 680 443 442
f 680 442 681
f 680 681 682
f 682 681 683
f 682 683 684
f 684 683 685
f 684 685 686
f 686 685 687
f 686 687 688
f 688 687 689
f 688 689 690
f 690 689 691
f 690 691 692
f 692 691 693
f 692 693 694
f 694 693 695
f 695 693 696
f 695 696 697
f 697 696 698
f 698 696 699
f 698 699 700
f 700 699 701
f 700 701 702
f 702 701 703
f 702 703 704
f 704 703 705
f 704 705 706
f 706 705 707
f 706 707 708
f 708 707 709
f 708 709 710
f 710 709 484
f 484 709 711
f 484 711 485
f 691 712 693
f 693 712 696
f 712 713 696
f 696 713 714
f 696 714 699
f 699 714 715
f 699 715 701
f 701 715 716
f 701 716 703
f 703 716 717
f 703 717 705
f 705 717 718
f 705 718 707
f 707 718 719
f 707 719 709
f 709 719 711
f 692 694 690
f 690 694 720
f 690 720 688
f 688 720 721
f 688 721 686
f 686 721 722
f 686 722 684
f 684 722 723
f 684 723 682
f 682 723 679
f 682 679 680
f 724 394 725
f 725 394 393
f 725 393 726
f 725 726 727
f 727 726 728
f 727 728 729
f 729 728 730
f 729 730 731
f 731 730 732
f 731 732 733
f 733 732 734
f 733 734 735
f 735 734 736
f 735 736 737
f 737 736 738
f 737 738 739
f 739 738 740
f 740 738 741
f 740 741 742
f 742 741 743
f 743 741 744
f 743 744 745
f 745 744 746
f 745 746 747
f 747 746 748
f 747 748 749
f 749 748 750
f 749 750 751
f 751 750 752
f 751 752 753
f 753 752 754
f 753 754 755
f 755 754 435
f 435 754 756
f 435 756 436
f 736 757 738
f 738 757 741
f 757 758 741
f 741 758 759
f 741 759 744
f 744 759 760
f 744 760 746
f 746 760 761
f 746 761 748
f 748 761 762
f 748 762 750
f 750 762 763
f 750 763 752
f 752 763 764
f 752 764 754
f 754 764 756
f 737 739 735
f 735 739 765
f 735 765 733
f 733 765 766
f 733 766 731
f 731 766 767
f 731 767 729
f 729 767 768
f 729 768 727
f 727 768 724
f 727 724 725
f 769 345 770
f 770 345 344
f 770 344 771
f 770 771 772
f 772 771 773
f 772 773 774
f 774 773 775
f 774 775 776
f 776 775 777
f 776 777 778
f 778 777 779
f 778 779 780
f 780 779 781
f 780 781 782
f 782 781 783
f 782 783 784
f 784 783 785
f 785 783 786
f 785 786 787
f 787 786 788
f 788 786 789
f 788 789 790
f 790 789 791
f 790 791 792
f 792 791 793
f 792 793 794
f 794 793 795
f 794 795 796
f 796 795 797
f 796 797 798
f 798 797 799
f 798 799 800
f 800 799 386
f 386 799 801
f 386 801 387
f 781 802 783
f 783 802 786
f 802 803 786
f 786 803 804
f 786 804 789
f 789 804 805
f 789 805 791
f 791 805 806
f 791 806 793
f 793 806 807
f 793 807 795
f 795 807 808
f 795 808 797
f 797 808 809
f 797 809 799
f 799 809 801
f 782 784 780
f 780 784 810
f 780 810 778
f 778 810 811
f 778 811 776
f 776 811 812
f 776 812 774
f 774 812 813
f 774 813 772
f 772 813 769
f 772 769 770
f 814 296 815
f 815 296 295
f 815 295 816
f 815 816 817
f 817 816 818
f 817 818 819
f 819 818 820
f 819 820 821
f 821 820 822
f 821 822 823
f 823 822 824
f 823 824 825
f 825 824 826
f 825 826 827
f 827 826 828
f 827 828 829
f 829 828 830
f 830 828 831
f 830 831 832
f 832 831 833
f 833 831 834
f 833 834 835
f 835 834 836
f 835 836 837
f 837 836 838
f 837 838 839
f 839 838 840
f 839 840 841
f 841 840 842
f 841 842 843
f 843 842 844
f 843 844 845
f 845 844 337
f 337 844 846
f 337 846 338
f 826 847 828
f 828 847 831
f 847 848 831
f 831 848 849
f 831 849 834
f 834 849 850
f 834 850 836
f 836 850 851
f 836 851 838
f 838 851 852
f 838 852 840
f 840 852 853
f 840 853 842
f 842 853 854
f 842 854 844
f 844 854 846
f 827 829 825
f 825 829 855
f 825 855 823
f 823 855 856
f 823 856 821
f 821 856 857
f 821 857 819
f 819 857 858
f 819 858 817
f 817 858 814
f 817 814 815
f 859 247 860
f 860 247 246
f 860 246 861
f 860 861 862
f 862 861 863
f 862 863 864
f 864 863 865
f 864 865 866
f 866 865 867
f 866 867 868
f 868 867 869
f 868 869 870
f 870 869 871
f 870 871 872
f 872 871 873
f 872 873 874
f 874 873 875
f 875 873 876
f 875 876 877
f 877 876 878
f 878 876 879
f 878 879 880
f 880 879 881
f 880 881 882
f 882 881 883
f 882 883 884
f 884 883 885
f 884 885 886
f 886 885 887
f 886 887 888
f 888 887 889
f 888 889 890
f 890 889 288
f 288 889 891
f 288 891 289
f 871 892 873
f 873 892 876
f 892 893 876
f 876 893 894
f 876 894 879
f 879 894 895
f 879 895 881
f 881 895 896
f 881 896 883
f 883 896 897
f 883 897 885
f 885 897 898
f 885 898 887
f 887 898 899
f 887 899 889
f 889 899 891
f 872 874 870
f 870 874 900
f 870 900 868
f 868 900 901
f 868 901 866
f 866 901 902
f 866 902 864
f 864 902 903
f 864 903 862
f 862 903 859
f 862 859 860
f 904 198 905
f 905 198 197
f 905 197 906
f 905 906 907
f 907 906 908
f 907 908 909
f 909 908 910
f 909 910 911
f 911 910 912
f 911 912 913
f 913 912 914
f 913 914 915
f 915 914 916
f 915 916 917
f 917 916 918
f 917 918 919
f 919 918 920
f 920 918 921
f 920 921 922
f 922 921 923
f 923 921 924
f 923 924 925
f 925 924 926
f 925 926 927
f 927 926 928
f 927 928 929
f 929 928 930
f 929 930 931
f 931 930 932
f 931 932 933
f 933 932 934
f 933 934 935
f 935 934 239
f 239 934 936
f 239 936 240
f 916 937 918
f 918 937 921
f 937 938 921
f 921 938 939
f 921 939 924
f 924 939 940
f 924 940 926
f 926 940 941
f 926 941 928
f 928 941 942
f 928 942 930
f 930 942 943
f 930 943 932
f 932 943 944
f 932 944 934
f 934 944 936
f 917 919 915
f 915 919 945
f 915 945 913
f 913 945 946
f 913 946 911
f 911 946 947
f 911 947 909
f 909 947 948
f 909 948 907
f 907 948 904
f 907 904 905
f 949 950 951
f 951 950 952
f 951 952 953
f 953 949 951
f 954 955 956
f 956 955 950
f 956 950 949
f 949 954 956
f 957 958 959
f 959 958 955
f 959 955 954
f 954 957 959
f 953 952 960
f 960 952 958
f 960 958 957
f 957 953 960
f 961 149 962
f 962 149 148
f 962 148 963
f 962 963 964
f 964 963 965
f 964 965 966
f 966 965 967
f 966 967 968
f 968 967 969
f 968 969 970
f 970 969 971
f 970 971 972
f 972 971 973
f 972 973 974
f 974 973 975
f 974 975 976
f 976 975 977
f 977 975 978
f 977 978 979
f 979 978 980
f 980 978 981
f 980 981 982
f 982 981 983
f 982 983 984
f 984 983 985
f 984 985 986
f 986 985 987
f 986 987 988
f 988 987 989
f 988 989 990
f 990 989 991
f 990 991 992
f 992 991 190
f 190 991 993
f 190 993 191
f 973 994 975
f 975 994 978
f 994 995 978
f 978 995 996
f 978 996 981
f 981 996 997
f 981 997 983
f 983 997 998
f 983 998 985
f 985 998 999
f 985 999 987
f 987 999 1000
f 987 1000 989
f 989 1000 1001
f 989 1001 991
f 991 1001 993
f 974 976 972
f 972 976 1002
f 972 1002 970
f 970 1002 1003
f 970 1003 968
f 968 1003 1004
f 968 1004 966
f 966 1004 1005
f 966 1005 964
f 964 1005 961
f 964 961 962
f 1006 100 1007
f 1007 100 99
f 1007 99 1008
f 1007 1008 1009
f 1009 1008 1010
f 1009 1010 1011
f 1011 1010 1012
f 1011 1012 1013
f 1013 1012 1014
f 1013 1014 1015
f 1015 1014 1016
f 1015 1016 1017
f 1017 1016 1018
f 1017 1018 1019
f 1019 1018 1020
f 1019 1020 1021
f 1021 1020 1022
f 1022 1020 1023
f 1022 1023 1024
f 1024 1023 1025
f 1025 1023 1026
f 1025 1026 1027
f 1027 1026 1028
f 1027 1028 1029
f 1029 1028 1030
f 1029 1030 1031
f 1031 1030 1032
f 1031 1032 1033
f 1033 1032 1034
f 1033 1034 1035
f 1035 1034 1036
f 1035 1036 1037
f 1037 1036 141
f 141 1036 1038
f 141 1038 142
f 1018 1039 1020
f 1020 1039 1023
f 1039 1040 1023
f 1023 1040 1041
f 1023 1041 1026
f 1026 1041 1042
f 1026 1042 1028
f 1028 1042 1043
f 1028 1043 1030
f 1030 1043 1044
f 1030 1044 1032
f 1032 1044 1045
f 1032 1045 1034
f 1034 1045 1046
f 1034 1046 1036
f 1036 1046 1038
f 1019 1021 1017
f 1017 1021 1047
f 1017 1047 1015
f 1015 1047 1048
f 1015 1048 1013
f 1013 1048 1049
f 1013 1049 1011
f 1011 1049 1050
f 1011 1050 1009
f 1009 1050 1006
f 1009 1006 1007
f 1051 51 1052
f 1052 51 50
f 1052 50 1053
f 1052 1053 1054
f 1054 1053 1055
f 1054 1055 1056
f 1056 1055 1057
f 1056 1057 1058
f 1058 1057 1059
f 1058 1059 1060
f 1060 1059 1061
f 1060 1061 1062
f 1062 1061 1063
f 1062 1063 1064
f 1064 1063 1065
f 1064 1065 1066
f 1066 1065 1067
f 1067 1065 1068
f 1067 1068 1069
f 1069 1068 1070
f 1070 1068 1071
f 1070 1071 1072
f 1072 1071 1073
f 1072 1073 1074
f 1074 1073 1075
f 1074 1075 1076
f 1076 1075 1077
f 1076 1077 1078
f 1078 1077 1079
f 1078 1079 1080
f 1080 1079 1081
f 1080 1081 1082
f 1082 1081 92
f 92 1081 1083
f 92 1083 93
f 1063 1084 1065
f 1065 1084 1068
f 1084 1085 1068
f 1068 1085 1086
f 1068 1086 1071
f 1071 1086 1087
f 1071 1087 1073
f 1073 1087 1088
f 1073 1088 1075
f 1075 1088 1089
f 1075 1089 1077
f 1077 1089 1090
f 1077 1090 1079
f 1079 1090 1091
f 1079 1091 1081
f 1081 1091 1083
f 1064 1066 1062
f 1062 1066 1092
f 1062 1092 1060
f 1060 1092 1093
f 1060 1093 1058
f 1058 1093 1094
f 1058 1094 1056
f 1056 1094 1095
f 1056 1095 1054
f 1054 1095 1051
f 1054 1051 1052
f 1096 2 1097
f 1097 2 1
f 1097 1 1098
f 1097 1098 1099
f 1099 1098 1100
f 1099 1100 1101
f 1101 1100 1102
f 1101 1102 1103
f 1103 1102 1104
f 1103 1104 1105
f 1105 1104 1106
f 1105 1106 1107
f 1107 1106 1108
f 1107 1108 1109
f 1109 1108 1110
f 1109 1110 1111
f 1111 1110 1112
f 1112 1110 1113
f 1112 1113 1114
f 1114 1113 1115
f 1115 1113 1116
f 1115 1116 1117
f 1117 1116 1118
f 1117 1118 1119
f 1119 1118 1120
f 1119 1120 1121
f 1121 1120 1122
f 1121 1122 1123
f 1123 1122 1124
f 1123 1124 1125
f 1125 1124 1126
f 1125 1126 1127
f 1127 1126 43
f 43 1126 1128
f 43 1128 44
f 1108 1129 1110
f 1110 1129 1113
f 1129 1130 1113
f 1113 1130 1131
f 1113 1131 1116
f 1116 1131 1132
f 1116 1132 1118
f 1118 1132 1133
f 1118 1133 1120
f 1120 1133 1134
f 1120 1134 1122
f 1122 1134 1135
f 1122 1135 1124
f 1124 1135 1136
f 1124 1136 1126
f 1126 1136 1128
f 1109 1111 1107
f 1107 1111 1137
f 1107 1137 1105
f 1105 1137 1138
f 1105 1138 1103
f 1103 1138 1139
f 1103 1139 1101
f 1101 1139 1140
f 1101 1140 1099
f 1099 1140 1096
f 1099 1096 1097
f 1141 1142 1143
f 1143 1142 1144
f 1143 1144 1145
f 1145 1141 1143
f 1146 1147 1148
f 1148 1147 1142
f 1148 1142 1141
f 1141 1146 1148
f 1149 1150 1151
f 1151 1150 1147
f 1151 1147 1146
f 1146 1149 1151
f 1152 1153 1154
f 1154 1153 1150
f 1154 1150 1149
f 1149 1152 1154
f 1155 1156 1157
f 1157 1156 1153
f 1157 1153 1152
f 1152 1155 1157
f 1158 1159 1160
f 1160 1159 1156
f 1160 1156 1155
f 1155 1158 1160
f 1161 1162 1163
f 1163 1162 1159
f 1163 1159 1158
f 1158 1161 1163
f 1164 1165 1166
f 1166 1165 1162
f 1166 1162 1161
f 1161 1164 1166
f 1167 1168 1169
f 1169 1168 1165
f 1169 1165 1164
f 1164 1167 1169
f 1170 1171 1172
f 1172 1171 1168
f 1172 1168 1167
f 1167 1170 1172
f 1173 1174 1175
f 1175 1174 1171
f 1175 1171 1170
f 1170 1173 1175
f 1176 1177 1178
f 1178 1177 1174
f 1178 1174 1173
f 1173 1176 1178
f 1179 1180 1181
f 1181 1180 1177
f 1181 1177 1176
f 1176 1179 1181
f 1182 1183 1184
f 1184 1183 1180
f 1184 1180 1179
f 1179 1182 1184
f 1185 1186 1187
f 1187 1186 1183
f 1187 1183 1182
f 1182 1185 1187
f 1188 1189 1190
f 1190 1189 1186
f 1190 1186 1185
f 1185 1188 1190
f 1191 1192 1193
f 1193 1192 1189
f 1193 1189 1188
f 1188 1191 1193
f 1145 1144 1194
f 1194 1144 1192
f 1194 1192 1191
f 1191 1145 1194
f 589 1177 541
f 541 1177 1180
f 541 1180 564
f 564 1180 565
f 565 1180 768
f 565 768 767
f 589 633 1177
f 1177 633 632
f 1177 632 631
f 631 630 1177
f 1177 630 604
f 1177 604 605
f 605 607 1177
f 1177 607 1137
f 1177 1137 369
f 369 1137 370
f 370 1137 1111
f 370 1111 371
f 371 1111 372
f 372 1111 1112
f 372 1112 373
f 373 1112 374
f 374 1112 1114
f 374 1114 375
f 375 1114 376
f 376 1114 1115
f 376 1115 366
f 366 1115 367
f 367 1115 1117
f 367 1117 378
f 378 1117 380
f 380 1117 954
f 380 954 382
f 382 954 384
f 384 954 386
f 386 954 1174
f 386 1174 800
f 800 1174 798
f 798 1174 796
f 796 1174 794
f 794 1174 792
f 792 1174 790
f 790 1174 788
f 788 1174 787
f 787 1174 785
f 785 1174 784
f 784 1174 810
f 810 1174 1177
f 810 1177 811
f 811 1177 812
f 812 1177 813
f 813 1177 769
f 769 1177 345
f 345 1177 368
f 368 1177 369
f 607 608 1137
f 1137 608 1138
f 1138 608 610
f 1138 610 612
f 1138 612 1139
f 1139 612 614
f 1139 614 616
f 1139 616 1140
f 1140 616 618
f 1140 618 620
f 620 582 1140
f 1140 582 580
f 1140 580 578
f 1140 578 1096
f 1096 578 576
f 1096 576 574
f 574 563 1096
f 1096 563 2
f 2 563 562
f 2 562 572
f 2 572 25
f 25 572 571
f 25 571 570
f 25 570 26
f 26 570 569
f 26 569 739
f 739 569 568
f 739 568 765
f 765 568 567
f 765 567 766
f 766 567 566
f 766 566 767
f 767 566 565
f 515 492 1150
f 1150 492 634
f 1150 634 678
f 677 843 678
f 678 843 845
f 678 845 1150
f 1150 845 337
f 1150 337 335
f 843 677 841
f 841 677 676
f 841 676 839
f 839 676 72
f 839 72 837
f 837 72 82
f 837 82 835
f 835 82 833
f 833 82 81
f 833 81 832
f 832 81 830
f 830 81 80
f 830 80 829
f 829 80 855
f 855 80 79
f 855 79 856
f 856 79 857
f 857 79 1144
f 857 1144 858
f 858 1144 814
f 814 1144 1142
f 814 1142 296
f 296 1142 319
f 319 1142 320
f 320 1142 321
f 321 1142 322
f 322 1142 323
f 323 1142 324
f 324 1142 325
f 325 1142 1147
f 325 1147 326
f 326 1147 327
f 327 1147 1150
f 327 1150 317
f 317 1150 318
f 318 1150 329
f 329 1150 331
f 331 1150 333
f 333 1150 335
f 676 675 72
f 72 675 73
f 73 675 649
f 73 649 650
f 73 650 84
f 84 650 652
f 84 652 86
f 86 652 653
f 86 653 655
f 657 465 655
f 655 465 464
f 655 464 88
f 88 464 474
f 88 474 90
f 90 474 473
f 90 473 472
f 465 657 476
f 476 657 659
f 476 659 478
f 478 659 661
f 478 661 480
f 480 661 663
f 480 663 1153
f 1153 663 665
f 1153 665 533
f 533 531 1153
f 1153 531 529
f 1153 529 527
f 527 525 1153
f 1153 525 514
f 1153 514 513
f 513 523 1153
f 1153 523 522
f 1153 522 521
f 1153 521 1150
f 1150 521 520
f 1150 520 519
f 519 518 1150
f 1150 518 517
f 1150 517 516
f 516 515 1150
f 466 443 1080
f 1080 443 679
f 1080 679 723
f 723 722 1080
f 1080 722 1078
f 1078 722 721
f 1078 721 720
f 1078 720 1076
f 1076 720 694
f 1076 694 695
f 1076 695 1074
f 1074 695 697
f 1074 697 1156
f 1156 697 698
f 1156 698 700
f 700 702 1156
f 1156 702 704
f 1156 704 706
f 706 708 1156
f 1156 708 710
f 1156 710 484
f 1156 484 1153
f 1153 484 482
f 1153 482 480
f 90 472 92
f 92 472 471
f 92 471 470
f 92 470 1082
f 1082 470 469
f 1082 469 468
f 468 467 1082
f 1082 467 1080
f 1080 467 466
f 417 394 1180
f 1180 394 724
f 1180 724 768
f 26 739 27
f 27 739 740
f 27 740 742
f 27 742 28
f 28 742 743
f 28 743 29
f 29 743 745
f 29 745 747
f 29 747 30
f 30 747 749
f 30 749 946
f 946 749 947
f 947 749 751
f 947 751 948
f 948 751 753
f 948 753 904
f 904 753 1183
f 904 1183 198
f 198 1183 221
f 221 1183 222
f 222 1183 223
f 223 1183 224
f 224 1183 225
f 225 1183 226
f 226 1183 227
f 227 1183 1186
f 227 1186 228
f 228 1186 229
f 229 1186 1189
f 229 1189 219
f 219 1189 220
f 220 1189 231
f 231 1189 233
f 233 1189 235
f 235 1189 237
f 237 1189 239
f 239 1189 935
f 935 1189 1192
f 935 1192 933
f 933 1192 931
f 931 1192 23
f 931 23 929
f 929 23 927
f 927 23 33
f 927 33 925
f 925 33 923
f 923 33 32
f 923 32 922
f 922 32 920
f 920 32 31
f 920 31 919
f 919 31 945
f 945 31 30
f 945 30 946
f 753 755 1183
f 1183 755 435
f 1183 435 433
f 433 431 1183
f 1183 431 429
f 1183 429 427
f 427 416 1183
f 1183 416 415
f 1183 415 425
f 1183 425 1180
f 1180 425 424
f 1180 424 423
f 423 422 1180
f 1180 422 421
f 1180 421 420
f 420 419 1180
f 1180 419 418
f 1180 418 417
f 859 1159 247
f 247 1159 949
f 247 949 270
f 270 949 271
f 271 949 272
f 272 949 1066
f 272 1066 273
f 273 1066 274
f 274 1066 1067
f 274 1067 275
f 275 1067 276
f 276 1067 1069
f 276 1069 277
f 277 1069 278
f 278 1069 1070
f 278 1070 268
f 268 1070 269
f 269 1070 1072
f 269 1072 280
f 280 1072 282
f 282 1072 1074
f 282 1074 284
f 284 1074 1156
f 284 1156 286
f 286 1156 288
f 288 1156 890
f 890 1156 888
f 888 1156 886
f 886 1156 884
f 884 1156 882
f 882 1156 1159
f 882 1159 880
f 880 1159 878
f 878 1159 877
f 877 1159 875
f 875 1159 874
f 874 1159 900
f 900 1159 901
f 901 1159 902
f 902 1159 903
f 903 1159 859
f 953 1095 949
f 949 1095 1094
f 949 1094 1093
f 957 1144 953
f 953 1144 75
f 953 75 74
f 954 1125 957
f 957 1125 1127
f 957 1127 43
f 949 1195 954
f 954 1195 1171
f 954 1171 1174
f 172 149 1168
f 1168 149 961
f 1168 961 1005
f 1005 1004 1168
f 1168 1004 1003
f 1168 1003 1002
f 1002 976 1168
f 1168 976 977
f 1168 977 979
f 1168 979 1196
f 1196 979 980
f 1196 980 982
f 982 984 1196
f 1196 984 986
f 1196 986 988
f 988 990 1196
f 1196 990 992
f 1196 992 190
f 190 188 1196
f 1196 188 186
f 1196 186 184
f 184 182 1196
f 1196 182 171
f 1196 171 127
f 127 171 170
f 127 170 128
f 128 170 1195
f 128 1195 1162
f 1162 1195 949
f 1162 949 1159
f 1195 170 1171
f 1171 170 180
f 1171 180 179
f 179 178 1171
f 1171 178 177
f 1171 177 176
f 176 175 1171
f 1171 175 1168
f 1168 175 174
f 1168 174 173
f 173 172 1168
f 123 100 1196
f 1196 100 1006
f 1196 1006 1050
f 1050 1049 1196
f 1196 1049 1048
f 1196 1048 1047
f 1047 1021 1196
f 1196 1021 1022
f 1196 1022 1024
f 1196 1024 1165
f 1165 1024 1025
f 1165 1025 1027
f 1027 1029 1165
f 1165 1029 1031
f 1165 1031 1033
f 1033 1035 1165
f 1165 1035 1037
f 1165 1037 141
f 141 139 1165
f 1165 139 137
f 1165 137 135
f 135 133 1165
f 1165 133 1162
f 1162 133 122
f 1162 122 121
f 121 131 1162
f 1162 131 130
f 1162 130 129
f 129 128 1162
f 127 126 1196
f 1196 126 125
f 1196 125 124
f 124 123 1196
f 74 51 953
f 953 51 1051
f 953 1051 1095
f 1093 1092 949
f 949 1092 1066
f 88 86 655
f 79 78 1144
f 1144 78 77
f 1144 77 76
f 76 75 1144
f 1117 1119 954
f 954 1119 1121
f 954 1121 1123
f 1123 1125 954
f 43 41 957
f 957 41 39
f 957 39 1192
f 1192 39 37
f 1192 37 35
f 35 24 1192
f 1192 24 23
f 1192 1144 957
f 1165 1168 1196
f 584 583 1100
f 1100 583 621
f 1100 621 629
f 629 628 1100
f 1100 628 1102
f 1102 628 627
f 1102 627 626
f 1102 626 1104
f 1104 626 625
f 1104 625 624
f 1104 624 1106
f 1106 624 623
f 1106 623 1176
f 1176 623 622
f 1176 622 601
f 601 599 1176
f 1176 599 597
f 1176 597 595
f 595 593 1176
f 1176 593 591
f 1176 591 540
f 1176 540 1179
f 1179 540 542
f 1179 542 544
f 546 730 544
f 544 730 728
f 544 728 1179
f 1179 728 726
f 1179 726 393
f 730 546 732
f 732 546 548
f 732 548 734
f 734 548 550
f 734 550 736
f 736 550 552
f 736 552 5
f 5 552 554
f 5 554 3
f 3 554 556
f 3 556 557
f 3 557 1
f 1 557 559
f 1 559 588
f 1 588 1098
f 1098 588 587
f 1098 587 586
f 586 585 1098
f 1098 585 1100
f 1100 585 584
f 535 534 1152
f 1152 534 666
f 1152 666 674
f 1152 674 487
f 487 674 673
f 487 673 488
f 488 673 672
f 488 672 489
f 489 672 671
f 489 671 490
f 490 671 670
f 490 670 461
f 461 670 95
f 461 95 459
f 459 95 94
f 459 94 458
f 458 94 456
f 456 94 93
f 456 93 454
f 454 93 452
f 452 93 1083
f 452 1083 450
f 450 1083 448
f 448 1083 446
f 446 1083 1091
f 446 1091 444
f 444 1091 442
f 442 1091 681
f 681 1091 683
f 683 1091 685
f 685 1091 1090
f 685 1090 687
f 687 1090 689
f 689 1090 1089
f 689 1089 691
f 691 1089 712
f 712 1089 1088
f 712 1088 713
f 713 1088 1155
f 713 1155 714
f 714 1155 715
f 715 1155 716
f 716 1155 717
f 717 1155 718
f 718 1155 719
f 719 1155 711
f 711 1155 485
f 485 1155 1152
f 485 1152 486
f 486 1152 487
f 95 670 96
f 96 670 669
f 96 669 668
f 96 668 97
f 97 668 667
f 97 667 98
f 98 667 646
f 98 646 644
f 98 644 69
f 69 644 642
f 69 642 852
f 852 642 853
f 853 642 640
f 853 640 854
f 854 640 638
f 854 638 846
f 846 638 1149
f 846 1149 338
f 338 1149 339
f 339 1149 340
f 340 1149 341
f 341 1149 342
f 342 1149 343
f 343 1149 314
f 314 1149 312
f 312 1149 1146
f 312 1146 311
f 311 1146 309
f 309 1146 1141
f 309 1141 307
f 307 1141 305
f 305 1141 303
f 303 1141 301
f 301 1141 299
f 299 1141 297
f 297 1141 295
f 295 1141 816
f 816 1141 1145
f 816 1145 818
f 818 1145 820
f 820 1145 62
f 820 62 822
f 822 62 824
f 824 62 64
f 824 64 826
f 826 64 847
f 847 64 66
f 847 66 848
f 848 66 849
f 849 66 67
f 849 67 850
f 850 67 851
f 851 67 69
f 851 69 852
f 638 636 1149
f 1149 636 491
f 1149 491 493
f 493 495 1149
f 1149 495 497
f 1149 497 499
f 499 501 1149
f 1149 501 503
f 1149 503 505
f 1149 505 1152
f 1152 505 507
f 1152 507 508
f 508 510 1152
f 1152 510 539
f 1152 539 538
f 538 537 1152
f 1152 537 536
f 1152 536 535
f 437 436 1182
f 1182 436 756
f 1182 756 764
f 763 908 764
f 764 908 906
f 764 906 1182
f 1182 906 197
f 1182 197 199
f 908 763 910
f 910 763 762
f 910 762 912
f 912 762 13
f 912 13 914
f 914 13 15
f 914 15 916
f 916 15 937
f 937 15 17
f 937 17 938
f 938 17 939
f 939 17 18
f 939 18 940
f 940 18 941
f 941 18 20
f 941 20 942
f 942 20 943
f 943 20 1191
f 943 1191 944
f 944 1191 936
f 936 1191 1188
f 936 1188 240
f 240 1188 241
f 241 1188 242
f 242 1188 243
f 243 1188 244
f 244 1188 245
f 245 1188 216
f 216 1188 214
f 214 1188 1185
f 214 1185 213
f 213 1185 211
f 211 1185 1182
f 211 1182 209
f 209 1182 207
f 207 1182 205
f 205 1182 203
f 203 1182 201
f 201 1182 199
f 762 761 13
f 13 761 11
f 11 761 760
f 11 760 759
f 11 759 9
f 9 759 758
f 9 758 7
f 7 758 757
f 7 757 736
f 393 395 1179
f 1179 395 397
f 1179 397 399
f 399 401 1179
f 1179 401 403
f 1179 403 405
f 405 407 1179
f 1179 407 409
f 1179 409 410
f 1179 410 1182
f 1182 410 412
f 1182 412 441
f 441 440 1182
f 1182 440 439
f 1182 439 438
f 438 437 1182
f 801 1173 387
f 387 1173 955
f 387 955 388
f 388 955 389
f 389 955 390
f 390 955 1132
f 390 1132 391
f 391 1132 392
f 392 1132 1131
f 392 1131 363
f 363 1131 361
f 361 1131 1130
f 361 1130 360
f 360 1130 358
f 358 1130 1129
f 358 1129 356
f 356 1129 354
f 354 1129 1108
f 354 1108 352
f 352 1108 350
f 350 1108 1106
f 350 1106 348
f 348 1106 1176
f 348 1176 346
f 346 1176 344
f 344 1176 771
f 771 1176 773
f 773 1176 775
f 775 1176 777
f 777 1176 779
f 779 1176 1173
f 779 1173 781
f 781 1173 802
f 802 1173 803
f 803 1173 804
f 804 1173 805
f 805 1173 806
f 806 1173 807
f 807 1173 808
f 808 1173 809
f 809 1173 801
f 290 289 1155
f 1155 289 891
f 1155 891 899
f 899 898 1155
f 1155 898 897
f 1155 897 896
f 1155 896 1158
f 1158 896 895
f 1158 895 894
f 894 893 1158
f 1158 893 892
f 1158 892 871
f 871 869 1158
f 1158 869 867
f 1158 867 865
f 865 863 1158
f 1158 863 861
f 1158 861 246
f 1158 246 950
f 950 246 248
f 950 248 250
f 250 252 950
f 950 252 1063
f 950 1063 1061
f 252 254 1063
f 1063 254 256
f 1063 256 1084
f 1084 256 258
f 1084 258 260
f 1084 260 1085
f 1085 260 262
f 1085 262 263
f 1085 263 1086
f 1086 263 265
f 1086 265 294
f 1086 294 1087
f 1087 294 293
f 1087 293 292
f 1087 292 1088
f 1088 292 291
f 1088 291 1155
f 1155 291 290
f 950 1055 952
f 952 1055 1053
f 952 1053 50
f 955 1197 950
f 950 1197 1161
f 950 1161 1158
f 958 1136 955
f 955 1136 1135
f 955 1135 1134
f 952 1191 958
f 958 1191 46
f 958 46 45
f 192 191 1198
f 1198 191 993
f 1198 993 1001
f 1001 1000 1198
f 1198 1000 999
f 1198 999 998
f 998 997 1198
f 1198 997 996
f 1198 996 995
f 1198 995 1167
f 1167 995 994
f 1167 994 973
f 973 971 1167
f 1167 971 969
f 1167 969 967
f 967 965 1167
f 1167 965 963
f 1167 963 148
f 148 150 1167
f 1167 150 152
f 1167 152 154
f 154 156 1167
f 1167 156 1170
f 1170 156 158
f 1170 158 160
f 160 162 1170
f 1170 162 164
f 1170 164 165
f 165 167 1170
f 1170 167 1197
f 1170 1197 955
f 1197 167 111
f 111 167 196
f 111 196 109
f 109 196 1198
f 109 1198 107
f 107 1198 105
f 105 1198 103
f 103 1198 101
f 101 1198 99
f 99 1198 1008
f 1008 1198 1010
f 1010 1198 1012
f 1012 1198 1014
f 1014 1198 1016
f 1016 1198 1018
f 1018 1198 1039
f 1039 1198 1040
f 1040 1198 1164
f 1040 1164 1041
f 1041 1164 1042
f 1042 1164 1043
f 1043 1164 1044
f 1044 1164 1045
f 1045 1164 1046
f 1046 1164 1038
f 1038 1164 142
f 142 1164 143
f 143 1164 144
f 144 1164 145
f 145 1164 146
f 146 1164 1161
f 146 1161 147
f 147 1161 118
f 118 1161 116
f 116 1161 115
f 115 1161 113
f 113 1161 111
f 111 1161 1197
f 196 195 1198
f 1198 195 194
f 1198 194 193
f 193 192 1198
f 1061 1059 950
f 950 1059 1057
f 950 1057 1055
f 50 52 952
f 952 52 54
f 952 54 1145
f 1145 54 56
f 1145 56 58
f 58 60 1145
f 1145 60 62
f 45 44 958
f 958 44 1128
f 958 1128 1136
f 1134 1133 955
f 955 1133 1132
f 5 7 736
f 20 49 1191
f 1191 49 48
f 1191 48 47
f 47 46 1191
f 1145 1191 952
f 1173 1170 955
f 1167 1164 1198

