# https://github.com/mikedh/trimesh
v 0.00000000 -0.01600000 -0.01625456
v -0.00612290 -0.01478210 -0.01625456
v 0.00000000 0.00000000 -0.01625456
v -0.01131370 -0.01131370 -0.01625457
v -0.01131370 0.01131370 -0.01625456
v -0.00612290 0.01478210 -0.01625456
v 0.00000000 0.01600000 -0.01625456
v -0.00612290 -0.01478210 0.01624544
v -0.00000000 -0.01600000 0.01624544
v -0.00000000 -0.00000000 0.01624544
v -0.01131370 -0.01131370 0.01624543
v -0.00612290 0.01478210 0.01624544
v -0.01131370 0.01131370 0.01624544
v -0.00000000 0.01600000 0.01624544
v 0.00950000 -0.01600000 0.01624544
v 0.00950000 -0.00000000 0.01624544
v 0.00950000 0.00000000 -0.01625456
v 0.00950000 -0.01600000 -0.01625456
v 0.00950000 0.01600000 0.01624544
v 0.00950000 0.01600000 -0.01625456
v 0.03100000 -0.01600000 0.01624544
v 0.03100000 -0.00000000 0.01624544
v 0.03100000 0.00000000 -0.01625456
v 0.03100000 -0.01600000 -0.01625456
v 0.03100000 0.01600000 0.01624544
v 0.03100000 0.01600000 -0.01625456
v 0.00300000 0.00000000 -0.01625456
v 0.00277160 -0.00114810 -0.01625456
v 0.00277160 -0.00114810 -0.01975456
v 0.00300000 0.00000000 -0.01975456
v 0.00212130 -0.00212130 -0.01625456
v 0.00212130 -0.00212130 -0.01975456
v 0.00114810 -0.00277160 -0.01625456
v 0.00114810 -0.00277160 -0.01975456
v 0.00000000 -0.00300000 -0.01625456
v 0.00000000 -0.00300000 -0.01975456
v -0.00114810 -0.00277160 -0.01625456
v -0.00114810 -0.00277160 -0.01975456
v -0.00212130 -0.00212130 -0.01625456
v -0.00212130 -0.00212130 -0.01975456
v -0.00277160 -0.00114810 -0.01625456
v -0.00277160 -0.00114810 -0.01975456
v -0.00300000 0.00000000 -0.01625456
v -0.00300000 0.00000000 -0.01975456
v -0.00277160 0.00114800 -0.01625456
v -0.00277160 0.00114800 -0.01975456
v -0.00212130 0.00212130 -0.01625456
v -0.00212130 0.00212130 -0.01975456
v -0.00114810 0.00277160 -0.01625456
v -0.00114810 0.00277160 -0.01975456
v 0.00000000 0.00300000 -0.01625456
v 0.00000000 0.00300000 -0.01975456
v 0.00114810 0.00277160 -0.01625456
v 0.00114810 0.00277160 -0.01975456
v 0.00212130 0.00212130 -0.01625456
v 0.00212130 0.00212130 -0.01975456
v 0.00277160 0.00114800 -0.01625456
v 0.00277160 0.00114800 -0.01975456
v 0.00000000 0.00000000 -0.01975456
v 0.00950000 0.01600000 -0.00000456
v 0.03100000 0.01600000 -0.00000456
v 0.03100000 -0.00000000 -0.00000456
v -0.00000000 0.01600000 -0.00000456
v 0.03100000 -0.01600000 -0.00000456
v -0.00612290 0.01478210 -0.00000456
v 0.00950000 -0.01600000 -0.00000456
v -0.01131370 0.01131370 -0.00000456
v -0.00000000 -0.01600000 -0.00000456
v -0.00612290 -0.01478210 -0.00000456
v -0.01131370 -0.01131370 -0.00000456
v -0.01131370 -0.00000000 -0.00000456
v -0.01131370 0.00000000 -0.01625456
v -0.01131370 -0.00000000 0.01624544
f 1 2 3
f 2 4 3
f 5 6 3
f 6 7 3
f 8 9 10
f 11 8 10
f 12 13 10
f 14 12 10
f 10 9 15
f 10 15 16
f 1 3 17
f 1 17 18
f 14 10 16
f 14 16 19
f 3 7 20
f 3 20 17
f 16 15 21
f 16 21 22
f 18 17 23
f 18 23 24
f 19 16 22
f 19 22 25
f 17 20 26
f 17 26 23
f 27 28 29
f 27 29 30
f 28 31 32
f 28 32 29
f 31 33 34
f 31 34 32
f 33 35 36
f 33 36 34
f 35 37 38
f 35 38 36
f 37 39 40
f 37 40 38
f 39 41 42
f 39 42 40
f 41 43 44
f 41 44 42
f 43 45 46
f 43 46 44
f 45 47 48
f 45 48 46
f 47 49 50
f 47 50 48
f 49 51 52
f 49 52 50
f 51 53 54
f 51 54 52
f 53 55 56
f 53 56 54
f 55 57 58
f 55 58 56
f 57 27 30
f 57 30 58
f 30 29 59
f 29 32 59
f 32 34 59
f 34 36 59
f 36 38 59
f 38 40 59
f 40 42 59
f 42 44 59
f 44 46 59
f 46 48 59
f 48 50 59
f 50 52 59
f 52 54 59
f 54 56 59
f 56 58 59
f 58 30 59
f 28 27 3
f 31 28 3
f 33 31 3
f 35 33 3
f 37 35 3
f 39 37 3
f 41 39 3
f 43 41 3
f 45 43 3
f 47 45 3
f 49 47 3
f 51 49 3
f 53 51 3
f 55 53 3
f 57 55 3
f 27 57 3
f 20 60 61
f 20 61 26
f 60 19 25
f 60 25 61
f 22 62 61
f 22 61 25
f 62 23 26
f 62 26 61
f 7 63 60
f 7 60 20
f 63 14 19
f 63 19 60
f 21 64 62
f 21 62 22
f 64 24 23
f 64 23 62
f 6 65 63
f 6 63 7
f 65 12 14
f 65 14 63
f 15 66 64
f 15 64 21
f 66 18 24
f 66 24 64
f 5 67 65
f 5 65 6
f 67 13 12
f 67 12 65
f 9 68 66
f 9 66 15
f 68 1 18
f 68 18 66
f 8 69 68
f 8 68 9
f 69 2 1
f 69 1 68
f 2 69 70
f 2 70 4
f 69 8 11
f 69 11 70
f 70 71 72
f 70 72 4
f 71 67 5
f 71 5 72
f 3 72 5
f 3 4 72
f 11 73 71
f 11 71 70
f 73 13 67
f 73 67 71
f 10 73 11
f 10 13 73

