# https://github.com/mikedh/trimesh
v -0.00150000 -0.01990000 -0.00400001
v 0.00000000 -0.01990000 -0.00400001
v -0.00075000 -0.02140000 -0.00250001
v 0.00000000 -0.02290000 -0.00100002
v -0.00150000 -0.02290000 -0.00100002
v 0.00000000 0.02210000 -0.00400001
v -0.00075000 0.00110000 -0.00400001
v -0.00150000 0.02210000 -0.00400001
v -0.00150000 0.00110000 0.00074999
v -0.00150000 -0.01540000 0.00199999
v -0.00150000 0.01760000 0.00199999
v -0.00150000 0.02510000 -0.00100002
v 0.00000000 0.02510000 -0.00100002
v -0.00075000 0.02360000 -0.00250001
v -0.00150000 -0.01540000 0.00549999
v -0.00150000 -0.02290000 0.00549999
v -0.00150000 0.01760000 0.00549999
v -0.00150000 0.02510000 0.00549999
v 0.00000000 0.02510000 0.00549999
v -0.00075000 0.02135000 0.00549999
v 0.00000000 0.01760000 0.00549999
v -0.00075000 0.02510000 0.00224998
v -0.00075000 -0.02290000 0.00224998
v 0.00000000 -0.02290000 0.00549999
v 0.00000000 -0.01540000 0.00549999
v -0.00075000 -0.01915000 0.00549999
v 0.00000000 -0.01540000 0.00199999
v -0.00075000 -0.01540000 0.00374999
v 0.00000000 0.01760000 0.00199999
v -0.00075000 0.00110000 0.00199999
v -0.00075000 0.01760000 0.00374999
v 0.00000000 0.00110000 0.00074999
f 1 2 3
f 3 2 4
f 3 4 5
f 5 1 3
f 6 2 7
f 7 2 1
f 7 1 8
f 8 6 7
f 8 1 9
f 9 1 5
f 9 5 10
f 10 11 9
f 9 11 12
f 9 12 8
f 12 13 14
f 14 13 6
f 14 6 8
f 8 12 14
f 15 10 4
f 15 4 16
f 12 11 17
f 12 17 18
f 19 18 20
f 20 18 17
f 20 17 21
f 21 19 20
f 19 13 22
f 22 13 12
f 22 12 18
f 18 19 22
f 16 5 23
f 23 5 4
f 23 4 24
f 24 16 23
f 25 15 26
f 26 15 16
f 26 16 24
f 24 25 26
f 27 10 28
f 28 10 15
f 28 15 25
f 25 27 28
f 29 11 30
f 30 11 10
f 30 10 27
f 27 29 30
f 21 17 31
f 31 17 11
f 31 11 29
f 29 21 31
f 2 32 4
f 4 32 27
f 2 6 32
f 32 6 13
f 32 13 29
f 4 27 25
f 4 25 24
f 21 29 13
f 21 13 19
f 29 27 32

