# https://github.com/mikedh/trimesh
v -0.00000508 0.01599999 -0.00360979
v -0.00612759 0.01478015 -0.00360979
v 0.00000000 -0.00000001 -0.00360980
v -0.01131729 0.01131010 -0.00360979
v -0.01131011 -0.01131730 -0.00360980
v -0.00611821 -0.01478405 -0.00360980
v 0.00000508 -0.01600001 -0.00360980
v -0.00612759 0.01478016 -0.03610979
v -0.00000508 0.01600001 -0.03610979
v -0.00000000 0.00000001 -0.03610980
v -0.01131729 0.01131012 -0.03610979
v -0.00611821 -0.01478403 -0.03610980
v -0.01131011 -0.01131728 -0.03610980
v 0.00000508 -0.01599999 -0.03610980
v 0.00949492 0.01600302 -0.03610979
v 0.00950000 0.00000302 -0.03610980
v 0.00950000 0.00000301 -0.00360980
v 0.00949492 0.01600301 -0.00360979
v 0.00950508 -0.01599698 -0.03610980
v 0.00950508 -0.01599699 -0.00360980
v 0.03099492 0.01600985 -0.03610979
v 0.03100000 0.00000985 -0.03610980
v 0.03100000 0.00000983 -0.00360980
v 0.03099492 0.01600983 -0.00360979
v 0.03100508 -0.01599015 -0.03610980
v 0.03100508 -0.01599017 -0.00360980
v 0.00300000 0.00000094 -0.00360980
v 0.00277124 0.00114897 -0.00360980
v 0.00277124 0.00114897 -0.00010980
v 0.00300000 0.00000094 -0.00010980
v 0.00212063 0.00212197 -0.00360980
v 0.00212063 0.00212196 -0.00010980
v 0.00114722 0.00277196 -0.00360979
v 0.00114722 0.00277195 -0.00010980
v -0.00000095 0.00299999 -0.00360979
v -0.00000095 0.00299999 -0.00010980
v -0.00114898 0.00277123 -0.00360979
v -0.00114898 0.00277123 -0.00010980
v -0.00212197 0.00212062 -0.00360980
v -0.00212197 0.00212062 -0.00010980
v -0.00277196 0.00114721 -0.00360980
v -0.00277196 0.00114721 -0.00010980
v -0.00300000 -0.00000096 -0.00360980
v -0.00300000 -0.00000096 -0.00010980
v -0.00277123 -0.00114889 -0.00360980
v -0.00277123 -0.00114889 -0.00010980
v -0.00212063 -0.00212198 -0.00360980
v -0.00212063 -0.00212198 -0.00010980
v -0.00114722 -0.00277197 -0.00360980
v -0.00114722 -0.00277197 -0.00010980
v 0.00000095 -0.00300001 -0.00360980
v 0.00000095 -0.00300001 -0.00010980
v 0.00114898 -0.00277124 -0.00360980
v 0.00114898 -0.00277125 -0.00010980
v 0.00212197 -0.00212063 -0.00360980
v 0.00212197 -0.00212064 -0.00010980
v 0.00277196 -0.00114713 -0.00360980
v 0.00277197 -0.00114713 -0.00010980
v 0.00000000 -0.00000001 -0.00010980
v 0.00950508 -0.01599698 -0.01985980
v 0.03100508 -0.01599016 -0.01985980
v 0.03100000 0.00000984 -0.01985980
v 0.00000508 -0.01600000 -0.01985980
v 0.03099492 0.01600984 -0.01985979
v -0.00611821 -0.01478404 -0.01985980
v 0.00949492 0.01600301 -0.01985979
v -0.01131011 -0.01131729 -0.01985980
v -0.00000508 0.01600000 -0.01985979
v -0.00612759 0.01478016 -0.01985979
v -0.01131729 0.01131011 -0.01985979
v -0.01131370 -0.00000359 -0.01985980
v -0.01131370 -0.00000360 -0.00360980
v -0.01131370 -0.00000358 -0.03610980
v 0.02348636 0.01900000 -0.03671278
v 0.02348636 0.02021790 -0.04283568
v 0.02348636 0.03500000 -0.03671278
v 0.02348636 0.02368630 -0.04802648
v 0.02348636 0.04631370 -0.04802648
v 0.02348636 0.04978210 -0.04283568
v 0.02348636 0.05100000 -0.03671278
v -0.00901364 0.02021790 -0.04283568
v -0.00901364 0.01900000 -0.03671278
v -0.00901364 0.03500000 -0.03671278
v -0.00901364 0.02368630 -0.04802648
v -0.00901364 0.04978210 -0.04283568
v -0.00901364 0.04631370 -0.04802648
v -0.00901364 0.05100000 -0.03671278
v -0.00901364 0.01900000 -0.02721278
v -0.00901364 0.03500000 -0.02721278
v 0.02348636 0.03500000 -0.02721278
v 0.02348636 0.01900000 -0.02721278
v -0.00901365 0.05100000 -0.02721278
v 0.02348636 0.05100000 -0.02721278
v -0.00901364 0.01900000 -0.00571277
v -0.00901365 0.03500000 -0.00571277
v 0.02348636 0.03500000 -0.00571277
v 0.02348636 0.01900000 -0.00571277
v -0.00901365 0.05100000 -0.00571277
v 0.02348636 0.05100000 -0.00571277
v 0.02348636 0.03500000 -0.03371277
v 0.02348636 0.03385190 -0.03394118
v 0.02698636 0.03385190 -0.03394118
v 0.02698636 0.03500000 -0.03371277
v 0.02348636 0.03287870 -0.03459148
v 0.02698636 0.03287870 -0.03459148
v 0.02348636 0.03222840 -0.03556467
v 0.02698636 0.03222840 -0.03556467
v 0.02348636 0.03200000 -0.03671278
v 0.02698636 0.03200000 -0.03671278
v 0.02348636 0.03222840 -0.03786088
v 0.02698636 0.03222840 -0.03786088
v 0.02348636 0.03287870 -0.03883408
v 0.02698636 0.03287870 -0.03883408
v 0.02348636 0.03385190 -0.03948438
v 0.02698636 0.03385190 -0.03948438
v 0.02348636 0.03500000 -0.03971278
v 0.02698636 0.03500000 -0.03971278
v 0.02348636 0.03614800 -0.03948438
v 0.02698636 0.03614800 -0.03948438
v 0.02348636 0.03712130 -0.03883408
v 0.02698636 0.03712130 -0.03883408
v 0.02348636 0.03777160 -0.03786088
v 0.02698636 0.03777160 -0.03786088
v 0.02348636 0.03800000 -0.03671278
v 0.02698636 0.03800000 -0.03671278
v 0.02348636 0.03777160 -0.03556467
v 0.02698636 0.03777160 -0.03556467
v 0.02348636 0.03712130 -0.03459148
v 0.02698636 0.03712130 -0.03459148
v 0.02348636 0.03614800 -0.03394118
v 0.02698636 0.03614800 -0.03394118
v 0.02698636 0.03500000 -0.03671278
v 0.00723635 0.05100000 -0.02721278
v 0.00723635 0.05100000 -0.00571277
v 0.00723636 0.03500000 -0.00571277
v 0.00723635 0.05100000 -0.03671278
v 0.00723636 0.01900000 -0.00571277
v 0.00723636 0.04978210 -0.04283568
v 0.00723636 0.01900000 -0.02721278
v 0.00723636 0.04631370 -0.04802648
v 0.00723636 0.01900000 -0.03671278
v 0.00723636 0.02021790 -0.04283568
v 0.00723636 0.02368630 -0.04802648
v 0.00723636 0.03500000 -0.04802648
v 0.02348636 0.03500000 -0.04802648
v -0.00901364 0.03500000 -0.04802648
v 0.02325457 -0.05100000 -0.03710000
v 0.02325457 -0.04978210 -0.04322290
v 0.02325457 -0.03500000 -0.03710000
v 0.02325457 -0.04631370 -0.04841371
v 0.02325457 -0.02368630 -0.04841371
v 0.02325457 -0.02021790 -0.04322290
v 0.02325457 -0.01900000 -0.03710000
v -0.00924544 -0.04978210 -0.04322290
v -0.00924544 -0.05100000 -0.03710000
v -0.00924544 -0.03500000 -0.03710000
v -0.00924543 -0.04631370 -0.04841371
v -0.00924544 -0.02021790 -0.04322290
v -0.00924544 -0.02368630 -0.04841371
v -0.00924544 -0.01900000 -0.03710000
v -0.00924544 -0.05100000 -0.02760000
v -0.00924544 -0.03500000 -0.02760000
v 0.02325457 -0.03500000 -0.02760000
v 0.02325457 -0.05100000 -0.02760000
v -0.00924544 -0.01900000 -0.02760000
v 0.02325456 -0.01900000 -0.02760000
v -0.00924544 -0.05100000 -0.00609999
v -0.00924544 -0.03500000 -0.00609999
v 0.02325456 -0.03500000 -0.00609999
v 0.02325457 -0.05100000 -0.00609999
v -0.00924544 -0.01900000 -0.00609999
v 0.02325456 -0.01900000 -0.00609999
v 0.02325457 -0.03500000 -0.03409999
v 0.02325457 -0.03614810 -0.03432840
v 0.02675457 -0.03614810 -0.03432840
v 0.02675457 -0.03500000 -0.03409999
v 0.02325457 -0.03712130 -0.03497870
v 0.02675457 -0.03712130 -0.03497870
v 0.02325457 -0.03777160 -0.03595189
v 0.02675457 -0.03777160 -0.03595189
v 0.02325457 -0.03800000 -0.03710000
v 0.02675457 -0.03800000 -0.03710000
v 0.02325457 -0.03777160 -0.03824810
v 0.02675457 -0.03777160 -0.03824810
v 0.02325457 -0.03712130 -0.03922130
v 0.02675457 -0.03712130 -0.03922130
v 0.02325457 -0.03614810 -0.03987160
v 0.02675457 -0.03614810 -0.03987160
v 0.02325457 -0.03500000 -0.04010000
v 0.02675457 -0.03500000 -0.04010000
v 0.02325457 -0.03385200 -0.03987160
v 0.02675457 -0.03385200 -0.03987160
v 0.02325457 -0.03287870 -0.03922130
v 0.02675457 -0.03287870 -0.03922130
v 0.02325457 -0.03222840 -0.03824810
v 0.02675457 -0.03222840 -0.03824810
v 0.02325457 -0.03200000 -0.03710000
v 0.02675457 -0.03200000 -0.03710000
v 0.02325457 -0.03222840 -0.03595189
v 0.02675457 -0.03222840 -0.03595189
v 0.02325457 -0.03287870 -0.03497870
v 0.02675457 -0.03287870 -0.03497870
v 0.02325457 -0.03385200 -0.03432840
v 0.02675457 -0.03385200 -0.03432840
v 0.02675457 -0.03500000 -0.03710000
v 0.00700456 -0.01900000 -0.02760000
v 0.00700456 -0.01900000 -0.00609999
v 0.00700456 -0.03500000 -0.00609999
v 0.00700456 -0.01900000 -0.03710000
v 0.00700456 -0.05100000 -0.00609999
v 0.00700456 -0.02021790 -0.04322290
v 0.00700457 -0.05100000 -0.02760000
v 0.00700456 -0.02368630 -0.04841371
v 0.00700457 -0.05100000 -0.03710000
v 0.00700457 -0.04978210 -0.04322290
v 0.00700457 -0.04631370 -0.04841371
v 0.00700456 -0.03500000 -0.04841371
v 0.02325457 -0.03500000 -0.04841371
v -0.00924544 -0.03500000 -0.04841371
f 1 2 3
f 2 4 3
f 5 6 3
f 6 7 3
f 8 9 10
f 11 8 10
f 12 13 10
f 14 12 10
f 10 9 15
f 10 15 16
f 1 3 17
f 1 17 18
f 14 10 16
f 14 16 19
f 3 7 20
f 3 20 17
f 16 15 21
f 16 21 22
f 18 17 23
f 18 23 24
f 19 16 22
f 19 22 25
f 17 20 26
f 17 26 23
f 27 28 29
f 27 29 30
f 28 31 32
f 28 32 29
f 31 33 34
f 31 34 32
f 33 35 36
f 33 36 34
f 35 37 38
f 35 38 36
f 37 39 40
f 37 40 38
f 39 41 42
f 39 42 40
f 41 43 44
f 41 44 42
f 43 45 46
f 43 46 44
f 45 47 48
f 45 48 46
f 47 49 50
f 47 50 48
f 49 51 52
f 49 52 50
f 51 53 54
f 51 54 52
f 53 55 56
f 53 56 54
f 55 57 58
f 55 58 56
f 57 27 30
f 57 30 58
f 30 29 59
f 29 32 59
f 32 34 59
f 34 36 59
f 36 38 59
f 38 40 59
f 40 42 59
f 42 44 59
f 44 46 59
f 46 48 59
f 48 50 59
f 50 52 59
f 52 54 59
f 54 56 59
f 56 58 59
f 58 30 59
f 28 27 3
f 31 28 3
f 33 31 3
f 35 33 3
f 37 35 3
f 39 37 3
f 41 39 3
f 43 41 3
f 45 43 3
f 47 45 3
f 49 47 3
f 51 49 3
f 53 51 3
f 55 53 3
f 57 55 3
f 27 57 3
f 20 60 61
f 20 61 26
f 60 19 25
f 60 25 61
f 22 62 61
f 22 61 25
f 62 23 26
f 62 26 61
f 7 63 60
f 7 60 20
f 63 14 19
f 63 19 60
f 21 64 62
f 21 62 22
f 64 24 23
f 64 23 62
f 6 65 63
f 6 63 7
f 65 12 14
f 65 14 63
f 15 66 64
f 15 64 21
f 66 18 24
f 66 24 64
f 5 67 65
f 5 65 6
f 67 13 12
f 67 12 65
f 9 68 66
f 9 66 15
f 68 1 18
f 68 18 66
f 8 69 68
f 8 68 9
f 69 2 1
f 69 1 68
f 2 69 70
f 2 70 4
f 69 8 11
f 69 11 70
f 70 71 72
f 70 72 4
f 71 67 5
f 71 5 72
f 3 72 5
f 3 4 72
f 11 73 71
f 11 71 70
f 73 13 67
f 73 67 71
f 10 73 11
f 10 13 73
f 74 75 76
f 75 77 76
f 78 79 76
f 79 80 76
f 81 82 83
f 84 81 83
f 85 86 83
f 87 85 83
f 83 82 88
f 83 88 89
f 74 76 90
f 74 90 91
f 87 83 89
f 87 89 92
f 76 80 93
f 76 93 90
f 89 88 94
f 89 94 95
f 91 90 96
f 91 96 97
f 92 89 95
f 92 95 98
f 90 93 99
f 90 99 96
f 100 101 102
f 100 102 103
f 101 104 105
f 101 105 102
f 104 106 107
f 104 107 105
f 106 108 109
f 106 109 107
f 108 110 111
f 108 111 109
f 110 112 113
f 110 113 111
f 112 114 115
f 112 115 113
f 114 116 117
f 114 117 115
f 116 118 119
f 116 119 117
f 118 120 121
f 118 121 119
f 120 122 123
f 120 123 121
f 122 124 125
f 122 125 123
f 124 126 127
f 124 127 125
f 126 128 129
f 126 129 127
f 128 130 131
f 128 131 129
f 130 100 103
f 130 103 131
f 103 102 132
f 102 105 132
f 105 107 132
f 107 109 132
f 109 111 132
f 111 113 132
f 113 115 132
f 115 117 132
f 117 119 132
f 119 121 132
f 121 123 132
f 123 125 132
f 125 127 132
f 127 129 132
f 129 131 132
f 131 103 132
f 101 100 76
f 104 101 76
f 106 104 76
f 108 106 76
f 110 108 76
f 112 110 76
f 114 112 76
f 116 114 76
f 118 116 76
f 120 118 76
f 122 120 76
f 124 122 76
f 126 124 76
f 128 126 76
f 130 128 76
f 100 130 76
f 93 133 134
f 93 134 99
f 133 92 98
f 133 98 134
f 95 135 134
f 95 134 98
f 135 96 99
f 135 99 134
f 80 136 133
f 80 133 93
f 136 87 92
f 136 92 133
f 94 137 135
f 94 135 95
f 137 97 96
f 137 96 135
f 79 138 136
f 79 136 80
f 138 85 87
f 138 87 136
f 88 139 137
f 88 137 94
f 139 91 97
f 139 97 137
f 78 140 138
f 78 138 79
f 140 86 85
f 140 85 138
f 82 141 139
f 82 139 88
f 141 74 91
f 141 91 139
f 81 142 141
f 81 141 82
f 142 75 74
f 142 74 141
f 75 142 143
f 75 143 77
f 142 81 84
f 142 84 143
f 143 144 145
f 143 145 77
f 144 140 78
f 144 78 145
f 76 145 78
f 76 77 145
f 84 146 144
f 84 144 143
f 146 86 140
f 146 140 144
f 83 146 84
f 83 86 146
f 147 148 149
f 148 150 149
f 151 152 149
f 152 153 149
f 154 155 156
f 157 154 156
f 158 159 156
f 160 158 156
f 156 155 161
f 156 161 162
f 147 149 163
f 147 163 164
f 160 156 162
f 160 162 165
f 149 153 166
f 149 166 163
f 162 161 167
f 162 167 168
f 164 163 169
f 164 169 170
f 165 162 168
f 165 168 171
f 163 166 172
f 163 172 169
f 173 174 175
f 173 175 176
f 174 177 178
f 174 178 175
f 177 179 180
f 177 180 178
f 179 181 182
f 179 182 180
f 181 183 184
f 181 184 182
f 183 185 186
f 183 186 184
f 185 187 188
f 185 188 186
f 187 189 190
f 187 190 188
f 189 191 192
f 189 192 190
f 191 193 194
f 191 194 192
f 193 195 196
f 193 196 194
f 195 197 198
f 195 198 196
f 197 199 200
f 197 200 198
f 199 201 202
f 199 202 200
f 201 203 204
f 201 204 202
f 203 173 176
f 203 176 204
f 176 175 205
f 175 178 205
f 178 180 205
f 180 182 205
f 182 184 205
f 184 186 205
f 186 188 205
f 188 190 205
f 190 192 205
f 192 194 205
f 194 196 205
f 196 198 205
f 198 200 205
f 200 202 205
f 202 204 205
f 204 176 205
f 174 173 149
f 177 174 149
f 179 177 149
f 181 179 149
f 183 181 149
f 185 183 149
f 187 185 149
f 189 187 149
f 191 189 149
f 193 191 149
f 195 193 149
f 197 195 149
f 199 197 149
f 201 199 149
f 203 201 149
f 173 203 149
f 166 206 207
f 166 207 172
f 206 165 171
f 206 171 207
f 168 208 207
f 168 207 171
f 208 169 172
f 208 172 207
f 153 209 206
f 153 206 166
f 209 160 165
f 209 165 206
f 167 210 208
f 167 208 168
f 210 170 169
f 210 169 208
f 152 211 209
f 152 209 153
f 211 158 160
f 211 160 209
f 161 212 210
f 161 210 167
f 212 164 170
f 212 170 210
f 151 213 211
f 151 211 152
f 213 159 158
f 213 158 211
f 155 214 212
f 155 212 161
f 214 147 164
f 214 164 212
f 154 215 214
f 154 214 155
f 215 148 147
f 215 147 214
f 148 215 216
f 148 216 150
f 215 154 157
f 215 157 216
f 216 217 218
f 216 218 150
f 217 213 151
f 217 151 218
f 149 218 151
f 149 150 218
f 157 219 217
f 157 217 216
f 219 159 213
f 219 213 217
f 156 219 157
f 156 159 219

