# https://github.com/mikedh/trimesh
v -0.02915000 -0.01900000 -0.02825002
v -0.02915000 -0.01900000 -0.03325002
v -0.02915000 -0.05100000 -0.03325002
v -0.02915000 -0.05100000 -0.00125001
v -0.02915000 -0.01900000 -0.00125001
v -0.02915000 -0.01900000 -0.00625000
v -0.02765000 0.01900000 -0.02825002
v -0.02765000 0.01900000 -0.03325002
v -0.02765000 0.05100000 -0.03325002
v -0.02765000 0.05100000 -0.00125001
v -0.02765000 0.01900000 -0.00125001
v -0.02765000 0.01900000 -0.00625000
v -0.02765000 -0.01900000 -0.00125001
v -0.02765000 -0.05100000 -0.00125001
v -0.02765000 -0.05100000 -0.03325002
v -0.02765000 -0.01900000 -0.03325002
v -0.02765000 -0.01900000 -0.02825002
v -0.02765000 -0.01900000 -0.00625000
v -0.02915000 0.01900000 -0.00625000
v -0.02915000 0.01900000 -0.00125001
v -0.02915000 0.05100000 -0.00125001
v -0.02915000 0.05100000 -0.03325002
v -0.02915000 0.01900000 -0.03325002
v -0.02915000 0.01900000 -0.02825002
v -0.02840000 0.03500000 -0.00125001
v -0.02840000 0.05100000 -0.01725001
v -0.02840000 0.03500000 -0.03325002
v -0.02840000 0.01900000 -0.03075002
v -0.02840000 0.00000000 -0.02825002
v -0.02840000 -0.01900000 -0.03075002
v -0.02840000 -0.03500000 -0.03325002
v -0.02840000 -0.05100000 -0.01725001
v -0.02840000 -0.03500000 -0.00125001
v -0.02840000 -0.01900000 -0.00375001
v -0.02840000 0.00000000 -0.00625000
v -0.02840000 0.01900000 -0.00375001
v -0.02765000 0.00000000 -0.01725001
v -0.02915000 0.00000000 -0.01725001
v -0.00910000 -0.01900000 -0.03550002
v -0.00910000 -0.01900000 -0.02500002
v -0.00910000 -0.05100000 -0.02500002
v -0.00910000 -0.05100000 -0.03550002
v -0.02760000 0.05100000 -0.03350001
v -0.02760000 0.01900000 -0.03350001
v -0.02760000 0.01900000 -0.02500002
v -0.02760000 0.05100000 -0.02500002
v -0.00910000 0.05100000 -0.02500002
v -0.00910000 0.01900000 -0.02500002
v -0.00910000 0.01900000 -0.03550002
v -0.00910000 0.05100000 -0.03550002
v -0.01060000 0.01900000 -0.02650001
v -0.01060000 0.05100000 -0.02650001
v -0.01060000 0.05100000 -0.03550002
v -0.01060000 0.01900000 -0.03550002
v -0.02610000 0.05100000 -0.03350001
v -0.02610000 0.01900000 -0.03350001
v -0.02610000 -0.01900000 -0.02650001
v -0.01760000 -0.01900000 -0.02650001
v -0.02610000 -0.05100000 -0.02650001
v -0.01060000 -0.05100000 -0.02650001
v -0.01260000 -0.01900000 -0.02650001
v -0.01060000 -0.01900000 -0.02650001
v -0.01760000 0.01900000 -0.02650001
v -0.01260000 0.01900000 -0.02650001
v -0.02610000 0.01900000 -0.02650001
v -0.02610000 0.05100000 -0.02650001
v -0.01060000 -0.05100000 -0.03550002
v -0.00985000 -0.03500000 -0.03550002
v -0.01060000 -0.01900000 -0.03550002
v -0.00985000 0.03500000 -0.03550002
v -0.02760000 -0.05100000 -0.02500002
v -0.02760000 -0.05100000 -0.03350001
v -0.02610000 -0.05100000 -0.03350001
v -0.02760000 -0.01900000 -0.03350001
v -0.02760000 -0.01900000 -0.02500002
v -0.02610000 -0.01900000 -0.03350001
v -0.01760000 -0.01900000 -0.02500002
v -0.01760000 0.01900000 -0.02500002
v -0.01760000 0.00000000 -0.02575001
v -0.01260000 0.01900000 -0.02500002
v -0.01260000 -0.01900000 -0.02500002
v -0.01260000 0.00000000 -0.02575001
v -0.02599400 0.05100000 -0.00150001
v -0.02599400 0.01900000 -0.00150001
v -0.02599400 0.03500000 -0.00240001
v -0.02749400 0.05100000 -0.00600001
v -0.02599400 0.05100000 -0.00600001
v -0.02674401 0.03500000 -0.00600001
v -0.02599400 0.01900000 -0.00600001
v -0.02749400 0.01900000 -0.00600001
v 0.01900600 0.01600000 -0.00150001
v 0.02910600 0.00000000 -0.00150001
v 0.01000600 0.00000000 -0.00150001
v 0.01900600 -0.01600000 -0.00150001
v 0.00400600 -0.03700000 -0.00150001
v 0.01900600 -0.01900000 -0.00150001
v 0.01400600 -0.05100000 -0.00150001
v 0.02350600 -0.05100000 -0.00150001
v 0.02350600 -0.01900000 -0.00150001
v -0.00999400 0.00000000 -0.00150001
v -0.01249400 -0.01900000 -0.00150001
v -0.01249400 0.01900000 -0.00150001
v -0.01049400 0.03700000 -0.00150001
v -0.01049400 0.05100000 -0.00150001
v -0.00899400 0.03700000 -0.00150001
v 0.00400600 0.03700000 -0.00150001
v 0.01400600 0.05100000 -0.00150001
v 0.01900600 0.01900000 -0.00150001
v 0.02350600 0.05100000 -0.00150001
v 0.02350600 0.01900000 -0.00150001
v 0.03100600 0.01600000 -0.00150001
v 0.03100600 -0.01600000 -0.00150001
v -0.00899400 -0.03700000 -0.00150001
v -0.01049400 -0.03700000 -0.00150001
v -0.02599400 -0.01900000 -0.00150001
v -0.02599400 -0.05100000 -0.00150001
v -0.01049400 -0.05100000 -0.00150001
v -0.02599400 -0.03500000 -0.00240001
v -0.02749400 -0.05100000 -0.00600001
v -0.02749400 -0.01900000 -0.00600001
v -0.02674401 -0.03500000 -0.00600001
v -0.02599400 -0.01900000 -0.00600001
v -0.02599400 -0.05100000 -0.00600001
v -0.01049400 0.04400000 -0.00498564
v -0.01049400 0.03700000 -0.00850001
v -0.00899400 0.03700000 -0.00850001
v -0.00974400 0.03700000 -0.00500001
v -0.00899400 0.05100000 -0.00850001
v -0.00974400 0.04400000 -0.00850001
v -0.01049400 0.05100000 -0.00850001
v 0.02350600 -0.03500000 -0.00490000
v 0.02350600 -0.01900000 -0.00850001
v 0.02500600 -0.01900000 -0.00850001
v 0.02425600 -0.03500000 -0.00850001
v 0.02500600 -0.05100000 -0.00850001
v 0.02350600 -0.05100000 -0.00850001
v 0.02350600 0.03500000 -0.00490000
v 0.02500600 0.05100000 -0.00850001
v 0.02500600 0.01900000 -0.00850001
v 0.02425600 0.03500000 -0.00850001
v 0.02350600 0.01900000 -0.00850001
v 0.02350600 0.05100000 -0.00850001
v -0.01049400 -0.03700000 -0.00850001
v -0.00974400 -0.03700000 -0.00500001
v -0.00899400 -0.03700000 -0.00850001
v -0.01049400 -0.04400000 -0.00498564
v -0.00899400 -0.05100000 -0.00850001
v -0.01049400 -0.05100000 -0.00850001
v -0.00974400 -0.04400000 -0.00850001
v 0.01000600 0.00000000 -0.00000001
v 0.01900600 0.01600000 -0.00000001
v 0.00000600 0.00000000 -0.00000001
v -0.00999400 0.00000000 -0.00000001
v 0.01900600 0.01900000 -0.00000001
v 0.00400600 0.03700000 -0.00000001
v -0.00899400 0.03700000 -0.00000001
v -0.01249400 0.01900000 -0.00000001
v 0.00000600 0.01000000 -0.00000001
v 0.00000600 -0.01000000 -0.00000001
v 0.00000600 -0.01000000 -0.00075002
v 0.00000600 -0.01000000 -0.00150001
v 0.00000600 0.01000000 -0.00150001
v 0.00000600 0.01000000 -0.00075002
v 0.01900600 -0.01600000 -0.00000001
v 0.02500600 -0.01600000 -0.00075000
v 0.03100600 -0.01600000 -0.00000001
v 0.01900600 -0.01900000 -0.00000001
v 0.01900600 -0.01750000 -0.00075000
v 0.02500600 -0.01900000 -0.00000001
v 0.02500600 -0.03500000 -0.00425000
v 0.02500600 -0.05100000 -0.00000001
v 0.02500600 -0.03500000 -0.00710001
v 0.01400600 -0.05100000 -0.00000001
v 0.00400600 -0.03700000 -0.00000001
v 0.00900600 -0.04400000 -0.00075000
v -0.00899400 -0.03700000 -0.00000001
v -0.00249400 -0.03700000 -0.00075002
v -0.00899400 -0.04400000 -0.00425002
v -0.00899400 -0.05100000 -0.00000001
v -0.02749400 -0.05100000 -0.00000001
v -0.02749400 -0.03500000 -0.00460001
v -0.02749400 -0.01900000 -0.00000001
v -0.02749400 -0.03500000 -0.00300002
v -0.01249400 -0.01900000 -0.00000001
v -0.01249400 0.00000000 -0.00075002
v -0.01249400 0.00000000 -0.00000001
v -0.02749400 0.01900000 -0.00000001
v -0.02749400 0.03500000 -0.00460001
v -0.02749400 0.05100000 -0.00000001
v -0.02749400 0.03500000 -0.00300002
v -0.00899400 0.05100000 -0.00000001
v -0.00899400 0.04400000 -0.00425002
v -0.00249400 0.03700000 -0.00075002
v 0.01400600 0.05100000 -0.00000001
v 0.00900600 0.04400000 -0.00075000
v 0.02500600 0.05100000 -0.00000001
v 0.02500600 0.03500000 -0.00425000
v 0.02500600 0.01900000 -0.00000001
v 0.02500600 0.03500000 -0.00710001
v 0.01900600 0.01750000 -0.00075000
v 0.03100600 0.01600000 -0.00000001
v 0.02500600 0.01600000 -0.00075000
v 0.03100600 0.00000000 -0.00075000
v 0.03100600 0.00000000 -0.00000001
f 1 2 3
f 3 4 5
f 6 1 3
f 3 5 6
f 7 8 9
f 9 10 11
f 12 7 9
f 9 11 12
f 13 14 15
f 15 16 17
f 18 13 15
f 15 17 18
f 19 20 21
f 21 22 23
f 24 19 21
f 21 23 24
f 10 21 25
f 25 21 20
f 25 20 11
f 11 10 25
f 9 22 26
f 26 22 21
f 26 21 10
f 10 9 26
f 8 23 27
f 27 23 22
f 27 22 9
f 9 8 27
f 7 24 28
f 28 24 23
f 28 23 8
f 8 7 28
f 17 1 29
f 29 1 24
f 29 24 7
f 7 17 29
f 16 2 30
f 30 2 1
f 30 1 17
f 17 16 30
f 15 3 31
f 31 3 2
f 31 2 16
f 16 15 31
f 14 4 32
f 32 4 3
f 32 3 15
f 15 14 32
f 13 5 33
f 33 5 4
f 33 4 14
f 14 13 33
f 18 6 34
f 34 6 5
f 34 5 13
f 13 18 34
f 12 19 35
f 35 19 6
f 35 6 18
f 18 12 35
f 11 20 36
f 36 20 19
f 36 19 12
f 12 11 36
f 18 17 37
f 18 37 12
f 12 37 7
f 17 7 37
f 1 6 38
f 1 38 24
f 24 38 19
f 6 19 38
f 39 40 41
f 39 41 42
f 43 44 45
f 43 45 46
f 47 48 49
f 47 49 50
f 51 52 53
f 51 53 54
f 55 56 44
f 55 44 43
f 57 58 59
f 59 58 60
f 60 58 61
f 60 61 62
f 58 63 61
f 61 63 64
f 64 63 52
f 64 52 51
f 65 66 63
f 63 66 52
f 66 65 56
f 66 56 55
f 42 67 68
f 68 67 69
f 68 69 39
f 39 42 68
f 50 49 70
f 70 49 54
f 70 54 53
f 53 50 70
f 67 42 60
f 60 42 41
f 60 41 71
f 60 71 59
f 59 71 72
f 59 72 73
f 60 62 69
f 60 69 67
f 74 72 71
f 74 71 75
f 76 74 57
f 57 74 75
f 57 75 77
f 77 58 57
f 78 63 79
f 79 63 58
f 79 58 77
f 77 78 79
f 63 78 65
f 65 78 45
f 65 45 44
f 44 56 65
f 66 47 52
f 52 47 50
f 52 50 53
f 55 43 66
f 66 43 46
f 66 46 47
f 54 49 51
f 51 49 48
f 51 48 80
f 80 64 51
f 81 61 82
f 82 61 64
f 82 64 80
f 80 81 82
f 61 81 62
f 62 81 40
f 62 40 39
f 39 69 62
f 57 59 73
f 57 73 76
f 76 73 72
f 76 72 74
f 40 81 41
f 41 81 77
f 41 77 71
f 71 77 75
f 81 80 77
f 77 80 78
f 78 80 47
f 78 47 46
f 80 48 47
f 46 45 78
f 83 84 85
f 86 87 88
f 88 87 89
f 88 89 90
f 90 86 88
f 91 92 93
f 93 92 94
f 95 96 97
f 97 96 98
f 98 96 99
f 100 101 102
f 102 84 103
f 103 84 83
f 103 83 104
f 103 105 102
f 106 107 108
f 108 107 109
f 108 109 110
f 111 112 92
f 113 114 101
f 101 114 115
f 115 114 116
f 116 114 117
f 115 116 118
f 119 120 121
f 121 120 122
f 121 122 123
f 123 119 121
f 124 125 103
f 103 104 124
f 126 105 127
f 127 105 103
f 127 103 125
f 125 126 127
f 128 126 129
f 129 126 125
f 129 125 130
f 130 128 129
f 98 99 131
f 132 133 134
f 134 133 135
f 134 135 136
f 136 132 134
f 110 109 137
f 138 139 140
f 140 139 141
f 140 141 142
f 142 138 140
f 143 114 144
f 144 114 113
f 144 113 145
f 145 143 144
f 143 146 114
f 114 146 117
f 147 148 149
f 149 148 143
f 149 143 145
f 145 147 149
f 150 151 152
f 153 152 151
f 151 154 155
f 155 156 157
f 157 153 151
f 151 155 157
f 158 159 160
f 160 161 162
f 163 158 160
f 160 162 163
f 94 96 95
f 95 113 101
f 100 102 105
f 95 101 100
f 93 94 95
f 108 91 93
f 105 106 108
f 95 100 105
f 105 108 93
f 95 105 93
f 164 94 165
f 165 94 112
f 165 112 166
f 166 164 165
f 167 96 168
f 168 96 94
f 168 94 164
f 164 167 168
f 96 167 99
f 99 167 169
f 99 169 133
f 133 132 99
f 170 169 171
f 135 133 172
f 136 135 98
f 98 135 171
f 98 171 173
f 173 97 98
f 174 95 175
f 175 95 97
f 175 97 173
f 173 174 175
f 176 113 177
f 177 113 95
f 177 95 174
f 174 176 177
f 178 145 113
f 113 176 178
f 178 176 179
f 148 147 117
f 117 147 179
f 117 179 180
f 117 180 116
f 116 180 119
f 116 119 123
f 181 120 119
f 180 182 183
f 122 120 115
f 115 120 182
f 115 182 184
f 184 101 115
f 157 102 185
f 185 102 101
f 185 101 184
f 184 186 157
f 184 157 185
f 102 157 84
f 84 157 187
f 84 187 90
f 90 89 84
f 188 86 90
f 187 189 190
f 83 191 104
f 104 191 128
f 104 128 130
f 87 86 83
f 83 86 189
f 83 189 191
f 191 156 192
f 192 156 105
f 192 105 126
f 155 106 193
f 193 106 105
f 193 105 156
f 156 155 193
f 194 107 195
f 195 107 106
f 195 106 155
f 155 194 195
f 107 194 109
f 109 194 196
f 109 196 138
f 138 142 109
f 197 196 198
f 139 138 199
f 108 110 154
f 154 110 198
f 198 110 139
f 139 110 141
f 151 91 200
f 200 91 108
f 200 108 154
f 154 151 200
f 201 111 202
f 202 111 91
f 202 91 151
f 151 201 202
f 166 112 203
f 203 112 111
f 203 111 201
f 201 204 166
f 201 166 203
f 184 153 186
f 155 154 194
f 194 154 196
f 196 154 198
f 191 189 156
f 156 189 157
f 189 187 157
f 182 180 184
f 184 180 176
f 167 174 173
f 167 173 171
f 180 179 176
f 171 169 167
f 150 164 166
f 150 166 204
f 94 92 112
f 126 128 192
f 128 191 192
f 117 146 143
f 117 143 148
f 133 169 170
f 133 170 172
f 170 171 135
f 170 135 172
f 183 182 120
f 183 120 181
f 183 181 119
f 183 119 180
f 190 189 86
f 190 86 188
f 190 188 90
f 190 90 187
f 138 196 197
f 138 197 199
f 197 198 139
f 197 139 199
f 89 87 83
f 85 84 89
f 83 85 89
f 116 123 122
f 122 115 118
f 122 118 116
f 99 132 136
f 136 98 131
f 136 131 99
f 109 142 141
f 141 110 137
f 141 137 109
f 145 178 147
f 178 179 147
f 92 91 111
f 125 124 104
f 125 104 130
f 150 204 201
f 150 201 151
f 186 153 157
f 174 167 164
f 164 152 153
f 153 184 176
f 176 174 164
f 164 153 176
f 150 152 164

