# https://github.com/mikedh/trimesh
v -0.01599965 0.01621423 0.00010000
v -0.01478175 0.01621423 -0.00602291
v -0.01478175 -0.01628577 -0.00602291
v -0.01599965 -0.01628577 0.00010000
v -0.01131335 0.01621423 -0.01121370
v -0.01131335 -0.01628577 -0.01121370
v 0.01131405 0.01621423 -0.01121370
v 0.01478245 0.01621424 -0.00602291
v 0.01478245 -0.01628577 -0.00602291
v 0.01131405 -0.01628577 -0.01121370
v 0.01600035 0.01621424 0.00010000
v 0.01600035 -0.01628577 0.00010000
v 0.00000035 -0.01628577 0.00010000
v 0.00000035 0.01621423 0.00010000
v -0.01599965 -0.01628577 0.00960000
v -0.01599965 0.01621423 0.00960000
v 0.00000035 0.01621424 0.00960000
v 0.00000035 -0.01628577 0.00960000
v 0.01600035 0.01621424 0.00960000
v 0.01600035 -0.01628577 0.00960000
v -0.01599965 -0.01628577 0.03110000
v -0.01599965 0.01621424 0.03110000
v 0.00000035 0.01621424 0.03110000
v 0.00000035 -0.01628577 0.03110000
v 0.01600035 0.01621424 0.03110000
v 0.01600035 -0.01628577 0.03110000
v 0.00000035 -0.01628577 0.00309999
v -0.00114775 -0.01628577 0.00287160
v -0.00114775 -0.01978577 0.00287160
v 0.00000035 -0.01978577 0.00309999
v -0.00212095 -0.01628577 0.00222130
v -0.00212095 -0.01978577 0.00222130
v -0.00277125 -0.01628577 0.00124810
v -0.00277125 -0.01978577 0.00124810
v -0.00299965 -0.01628577 0.00010000
v -0.00299965 -0.01978577 0.00010000
v -0.00277125 -0.01628577 -0.00104810
v -0.00277125 -0.01978577 -0.00104810
v -0.00212095 -0.01628577 -0.00202130
v -0.00212095 -0.01978577 -0.00202130
v -0.00114775 -0.01628577 -0.00267161
v -0.00114775 -0.01978577 -0.00267161
v 0.00000035 -0.01628577 -0.00290000
v 0.00000035 -0.01978577 -0.00290000
v 0.00114835 -0.01628577 -0.00267161
v 0.00114835 -0.01978577 -0.00267161
v 0.00212165 -0.01628577 -0.00202130
v 0.00212165 -0.01978577 -0.00202130
v 0.00277195 -0.01628577 -0.00104810
v 0.00277195 -0.01978577 -0.00104810
v 0.00300035 -0.01628577 0.00010000
v 0.00300035 -0.01978577 0.00010000
v 0.00277195 -0.01628577 0.00124810
v 0.00277195 -0.01978577 0.00124810
v 0.00212165 -0.01628577 0.00222130
v 0.00212165 -0.01978577 0.00222130
v 0.00114835 -0.01628577 0.00287160
v 0.00114835 -0.01978577 0.00287160
v 0.00000035 -0.01978577 0.00010000
v -0.05749965 -0.01603577 0.00010000
v -0.05749965 -0.01481787 -0.00602291
v -0.02499965 -0.01481787 -0.00602291
v -0.02499965 -0.01603577 0.00010000
v -0.05749965 -0.01134947 -0.01121370
v -0.02499965 -0.01134947 -0.01121370
v -0.05749965 0.01127792 -0.01121370
v -0.05749965 0.01474633 -0.00602291
v -0.02499965 0.01474633 -0.00602291
v -0.02499965 0.01127792 -0.01121370
v -0.05749965 0.01596423 0.00010000
v -0.02499965 0.01596423 0.00010000
v -0.02499965 -0.00003577 0.00010000
v -0.05749965 -0.00003577 0.00010000
v -0.02499965 -0.01603577 0.00960000
v -0.05749965 -0.01603577 0.00960000
v -0.05749965 -0.00003577 0.00960000
v -0.02499965 -0.00003577 0.00960000
v -0.05749965 0.01596423 0.00960000
v -0.02499965 0.01596423 0.00960000
v -0.02499965 -0.01603577 0.03110000
v -0.05749965 -0.01603577 0.03110000
v -0.05749965 -0.00003577 0.03110000
v -0.02499965 -0.00003577 0.03110000
v -0.05749965 0.01596423 0.03110000
v -0.02499965 0.01596423 0.03110000
v -0.02499965 -0.00003577 0.00309999
v -0.02499965 -0.00118387 0.00287160
v -0.02149965 -0.00118387 0.00287160
v -0.02149965 -0.00003577 0.00309999
v -0.02499965 -0.00215707 0.00222130
v -0.02149965 -0.00215707 0.00222130
v -0.02499965 -0.00280737 0.00124810
v -0.02149965 -0.00280737 0.00124810
v -0.02499965 -0.00303577 0.00010000
v -0.02149965 -0.00303577 0.00010000
v -0.02499965 -0.00280737 -0.00104810
v -0.02149965 -0.00280737 -0.00104810
v -0.02499965 -0.00215707 -0.00202130
v -0.02149965 -0.00215707 -0.00202130
v -0.02499965 -0.00118387 -0.00267161
v -0.02149965 -0.00118387 -0.00267161
v -0.02499965 -0.00003577 -0.00290000
v -0.02149965 -0.00003577 -0.00290000
v -0.02499965 0.00111223 -0.00267161
v -0.02149965 0.00111223 -0.00267161
v -0.02499965 0.00208553 -0.00202130
v -0.02149965 0.00208553 -0.00202130
v -0.02499965 0.00273583 -0.00104810
v -0.02149965 0.00273583 -0.00104810
v -0.02499965 0.00296423 0.00010000
v -0.02149965 0.00296423 0.00010000
v -0.02499965 0.00273583 0.00124810
v -0.02149965 0.00273583 0.00124810
v -0.02499965 0.00208553 0.00222130
v -0.02149965 0.00208553 0.00222130
v -0.02499965 0.00111223 0.00287160
v -0.02149965 0.00111223 0.00287160
v -0.02149965 -0.00003577 0.00010000
f 1 2 3
f 1 3 4
f 2 5 6
f 2 6 3
f 7 8 9
f 7 9 10
f 8 11 12
f 8 12 9
f 4 3 13
f 3 6 13
f 10 9 13
f 9 12 13
f 2 1 14
f 5 2 14
f 8 7 14
f 11 8 14
f 1 4 15
f 1 15 16
f 14 1 16
f 14 16 17
f 4 13 18
f 4 18 15
f 11 14 17
f 11 17 19
f 12 11 19
f 12 19 20
f 13 12 20
f 13 20 18
f 16 15 21
f 16 21 22
f 17 16 22
f 17 22 23
f 15 18 24
f 15 24 21
f 24 23 22
f 24 22 21
f 19 17 23
f 19 23 25
f 20 19 25
f 20 25 26
f 18 20 26
f 18 26 24
f 26 25 23
f 26 23 24
f 5 7 10
f 5 10 6
f 13 6 10
f 7 5 14
f 27 28 29
f 27 29 30
f 28 31 32
f 28 32 29
f 31 33 34
f 31 34 32
f 33 35 36
f 33 36 34
f 35 37 38
f 35 38 36
f 37 39 40
f 37 40 38
f 39 41 42
f 39 42 40
f 41 43 44
f 41 44 42
f 43 45 46
f 43 46 44
f 45 47 48
f 45 48 46
f 47 49 50
f 47 50 48
f 49 51 52
f 49 52 50
f 51 53 54
f 51 54 52
f 53 55 56
f 53 56 54
f 55 57 58
f 55 58 56
f 57 27 30
f 57 30 58
f 30 29 59
f 29 32 59
f 32 34 59
f 34 36 59
f 36 38 59
f 38 40 59
f 40 42 59
f 42 44 59
f 44 46 59
f 46 48 59
f 48 50 59
f 50 52 59
f 52 54 59
f 54 56 59
f 56 58 59
f 58 30 59
f 28 27 13
f 31 28 13
f 33 31 13
f 35 33 13
f 37 35 13
f 39 37 13
f 41 39 13
f 43 41 13
f 45 43 13
f 47 45 13
f 49 47 13
f 51 49 13
f 53 51 13
f 55 53 13
f 57 55 13
f 27 57 13
f 60 61 62
f 60 62 63
f 61 64 65
f 61 65 62
f 66 67 68
f 66 68 69
f 67 70 71
f 67 71 68
f 63 62 72
f 62 65 72
f 69 68 72
f 68 71 72
f 61 60 73
f 64 61 73
f 67 66 73
f 70 67 73
f 60 63 74
f 60 74 75
f 73 60 75
f 73 75 76
f 63 72 77
f 63 77 74
f 70 73 76
f 70 76 78
f 71 70 78
f 71 78 79
f 72 71 79
f 72 79 77
f 75 74 80
f 75 80 81
f 76 75 81
f 76 81 82
f 74 77 83
f 74 83 80
f 83 82 81
f 83 81 80
f 78 76 82
f 78 82 84
f 79 78 84
f 79 84 85
f 77 79 85
f 77 85 83
f 85 84 82
f 85 82 83
f 64 66 69
f 64 69 65
f 72 65 69
f 66 64 73
f 86 87 88
f 86 88 89
f 87 90 91
f 87 91 88
f 90 92 93
f 90 93 91
f 92 94 95
f 92 95 93
f 94 96 97
f 94 97 95
f 96 98 99
f 96 99 97
f 98 100 101
f 98 101 99
f 100 102 103
f 100 103 101
f 102 104 105
f 102 105 103
f 104 106 107
f 104 107 105
f 106 108 109
f 106 109 107
f 108 110 111
f 108 111 109
f 110 112 113
f 110 113 111
f 112 114 115
f 112 115 113
f 114 116 117
f 114 117 115
f 116 86 89
f 116 89 117
f 89 88 118
f 88 91 118
f 91 93 118
f 93 95 118
f 95 97 118
f 97 99 118
f 99 101 118
f 101 103 118
f 103 105 118
f 105 107 118
f 107 109 118
f 109 111 118
f 111 113 118
f 113 115 118
f 115 117 118
f 117 89 118
f 87 86 72
f 90 87 72
f 92 90 72
f 94 92 72
f 96 94 72
f 98 96 72
f 100 98 72
f 102 100 72
f 104 102 72
f 106 104 72
f 108 106 72
f 110 108 72
f 112 110 72
f 114 112 72
f 116 114 72
f 86 116 72

