# https://github.com/mikedh/trimesh
v 0.01750035 0.01746424 0.03010000
v 0.01750035 0.01596424 0.03010000
v 0.01900035 0.01596424 0.03010000
v 0.01900035 0.01746424 0.03010000
v 0.01750035 -0.00003576 0.03010000
v 0.01900035 -0.00003576 0.03010000
v 0.01750035 -0.01603576 0.03010000
v 0.01900035 -0.01603576 0.03010000
v 0.01750035 -0.01753576 0.03010000
v 0.01900035 -0.01753576 0.03010000
v 0.01750035 -0.01753576 0.02210000
v 0.01900035 -0.01753576 0.02210000
v 0.01750035 -0.01753576 0.01409999
v 0.01900035 -0.01753576 0.01409999
v 0.01750035 -0.01753576 0.00610000
v 0.01900035 -0.01753576 0.00610000
v 0.01750035 -0.01753576 -0.00190000
v 0.01900035 -0.01753576 -0.00190000
v 0.01750035 -0.01603576 -0.00190000
v 0.01900035 -0.01603576 -0.00190000
v 0.01750035 -0.00003576 -0.00190000
v 0.01900035 -0.00003576 -0.00190000
v 0.01750035 0.01596424 -0.00190000
v 0.01900035 0.01596424 -0.00190000
v 0.01750035 0.01746424 -0.00190000
v 0.01900035 0.01746424 -0.00190000
v 0.01750035 0.01746424 0.00610000
v 0.01900035 0.01746424 0.00610000
v 0.01750035 0.01746424 0.01409999
v 0.01900035 0.01746424 0.01409999
v 0.01750035 0.01746424 0.02210000
v 0.01900035 0.01746424 0.02210000
v 0.01900035 0.01596424 0.00610000
v 0.01900035 -0.00003576 0.00610000
v 0.01900035 -0.01603576 0.00610000
v 0.01900035 0.01596424 0.01409999
v 0.01900035 -0.00003576 0.01409999
v 0.01900035 -0.01603576 0.01409999
v 0.01900035 0.01596424 0.02210000
v 0.01900035 -0.00003576 0.02210000
v 0.01900035 -0.01603576 0.02210000
v 0.01750035 -0.00003576 0.00610000
v 0.01750035 0.01596424 0.00610000
v 0.01750035 -0.01603576 0.00610000
v 0.01750035 -0.00003576 0.01409999
v 0.01750035 0.01596424 0.01409999
v 0.01750035 -0.01603576 0.01409999
v 0.01750035 -0.00003576 0.02210000
v 0.01750035 0.01596424 0.02210000
v 0.01750035 -0.01603576 0.02210000
v 0.01100035 -0.01753576 0.00610000
v 0.01100035 -0.01753576 -0.00190000
v 0.01100035 -0.01603576 -0.00190000
v 0.01100035 -0.01603576 0.00610000
v 0.01100035 -0.01753576 0.01409999
v 0.01100035 -0.01603576 0.01409999
v 0.01100035 -0.01753576 0.02210000
v 0.01100035 -0.01603576 0.02210000
v 0.01100035 -0.01603576 0.03010000
v 0.01100035 -0.01753576 0.03010000
v 0.01100035 0.01596424 0.00610000
v 0.01100035 0.01596424 -0.00190000
v 0.01100035 0.01746424 -0.00190000
v 0.01100035 0.01746424 0.00610000
v 0.01100035 0.01596424 0.01409999
v 0.01100035 0.01746424 0.01409999
v 0.01100035 0.01596424 0.02210000
v 0.01100035 0.01746424 0.02210000
v 0.01100035 0.01746424 0.03010000
v 0.01100035 0.01596424 0.03010000
v -0.01899965 0.01596424 0.03010000
v -0.01749965 0.01596424 0.03010000
v -0.01749965 0.01746424 0.03010000
v -0.01899965 0.01746424 0.03010000
v -0.01899965 -0.01753576 0.03010000
v -0.01749965 -0.01753576 0.03010000
v -0.01749965 -0.01603576 0.03010000
v -0.01899965 -0.01603576 0.03010000
v -0.01899965 -0.01753577 0.02210000
v -0.01749965 -0.01753577 0.02210000
v -0.01899965 -0.01753577 0.01409999
v -0.01749965 -0.01753577 0.01409999
v -0.01899965 0.01746423 0.02210000
v -0.01749965 0.01746423 0.02210000
v -0.01749965 0.01746423 0.01409999
v -0.01899965 0.01746423 0.01409999
v -0.01099965 -0.01753577 0.00610000
v -0.01749965 -0.01753577 0.00610000
v -0.01749965 -0.01753577 -0.00190000
v -0.01099965 -0.01753577 -0.00190000
v -0.01749965 -0.01603577 -0.00190000
v -0.01099965 -0.01603577 -0.00190000
v -0.01749965 -0.01603577 0.00610000
v -0.01099965 -0.01603577 0.00610000
v -0.01099965 -0.01753577 0.01409999
v -0.01749965 -0.01603577 0.01409999
v -0.01099965 -0.01603577 0.01409999
v -0.01099965 -0.01753576 0.02210000
v -0.01749965 -0.01603577 0.02210000
v -0.01099965 -0.01603576 0.02210000
v -0.01099965 -0.01603576 0.03010000
v -0.01099965 -0.01753576 0.03010000
v -0.01099965 0.01596423 0.00610000
v -0.01749965 0.01596423 0.00610000
v -0.01749965 0.01596423 -0.00190000
v -0.01099965 0.01596423 -0.00190000
v -0.01749965 0.01746423 -0.00190000
v -0.01099965 0.01746423 -0.00190000
v -0.01749965 0.01746423 0.00610000
v -0.01099965 0.01746423 0.00610000
v -0.01099965 0.01596423 0.01409999
v -0.01749965 0.01596423 0.01409999
v -0.01099965 0.01746423 0.01409999
v -0.01099965 0.01596424 0.02210000
v -0.01749965 0.01596423 0.02210000
v -0.01099965 0.01746424 0.02210000
v -0.01099965 0.01746424 0.03010000
v -0.01099965 0.01596424 0.03010000
v -0.02299965 0.01746423 0.01409999
v -0.02299965 0.01746423 0.02210000
v -0.02299965 -0.01753577 0.02210000
v -0.02299965 -0.01753577 0.01409999
v -0.02299965 0.01746423 0.03010000
v -0.02299965 0.01596423 0.03010000
v -0.02299965 -0.01603577 0.03010000
v -0.02299965 -0.01753577 0.03010000
v -0.02299965 0.01746423 0.00610000
v -0.02299965 0.01746423 -0.00190000
v -0.02499965 0.01746423 -0.00190000
v -0.02499965 0.01746423 0.00610000
v -0.02299965 0.01596423 -0.00190000
v -0.02499965 0.01596423 -0.00190000
v -0.02499965 0.01596423 0.00610000
v -0.02299965 -0.00003577 -0.00190000
v -0.02499965 -0.00003577 -0.00190000
v -0.02499965 -0.00003577 0.00610000
v -0.02299965 -0.01603577 -0.00190000
v -0.02499965 -0.01603577 -0.00190000
v -0.02499965 -0.01603577 0.00610000
v -0.02299965 -0.01753577 -0.00190000
v -0.02299965 -0.01753577 0.00610000
v -0.02499965 -0.01753577 0.00610000
v -0.02499965 -0.01753577 -0.00190000
v -0.02499965 0.01746423 0.01409999
v -0.02499965 0.01596423 0.01409999
v -0.02499965 -0.00003577 0.01409999
v -0.02499965 -0.01603577 0.01409999
v -0.02499965 -0.01753577 0.01409999
v -0.02499965 0.01746423 0.02210000
v -0.02499965 0.01596423 0.02210000
v -0.02499965 -0.00003577 0.02210000
v -0.02499965 -0.01603577 0.02210000
v -0.02499965 -0.01753577 0.02210000
v -0.02499965 0.01746423 0.03010000
v -0.02499965 0.01596423 0.03010000
v -0.02299965 -0.00003577 0.03010000
v -0.02499965 -0.00003577 0.03010000
v -0.02499965 -0.01603577 0.03010000
v -0.02499965 -0.01753577 0.03010000
f 1 2 3
f 1 3 4
f 2 5 6
f 2 6 3
f 5 7 8
f 5 8 6
f 7 9 10
f 7 10 8
f 9 11 12
f 9 12 10
f 11 13 14
f 11 14 12
f 13 15 16
f 13 16 14
f 15 17 18
f 15 18 16
f 17 19 20
f 17 20 18
f 19 21 22
f 19 22 20
f 21 23 24
f 21 24 22
f 23 25 26
f 23 26 24
f 25 27 28
f 25 28 26
f 27 29 30
f 27 30 28
f 29 31 32
f 29 32 30
f 31 1 4
f 31 4 32
f 28 33 24
f 28 24 26
f 33 34 22
f 33 22 24
f 34 35 20
f 34 20 22
f 35 16 18
f 35 18 20
f 30 36 33
f 30 33 28
f 36 37 34
f 36 34 33
f 37 38 35
f 37 35 34
f 38 14 16
f 38 16 35
f 32 39 36
f 32 36 30
f 39 40 37
f 39 37 36
f 40 41 38
f 40 38 37
f 41 12 14
f 41 14 38
f 4 3 39
f 4 39 32
f 3 6 40
f 3 40 39
f 6 8 41
f 6 41 40
f 8 10 12
f 8 12 41
f 23 21 42
f 23 42 43
f 21 19 44
f 21 44 42
f 43 42 45
f 43 45 46
f 42 44 47
f 42 47 45
f 46 45 48
f 46 48 49
f 45 47 50
f 45 50 48
f 49 48 5
f 49 5 2
f 48 50 7
f 48 7 5
f 17 15 51
f 17 51 52
f 19 17 52
f 19 52 53
f 44 19 53
f 44 53 54
f 53 52 51
f 53 51 54
f 15 13 55
f 15 55 51
f 47 44 54
f 47 54 56
f 54 51 55
f 54 55 56
f 13 11 57
f 13 57 55
f 50 47 56
f 50 56 58
f 56 55 57
f 56 57 58
f 9 7 59
f 9 59 60
f 11 9 60
f 11 60 57
f 7 50 58
f 7 58 59
f 58 57 60
f 58 60 59
f 23 43 61
f 23 61 62
f 25 23 62
f 25 62 63
f 27 25 63
f 27 63 64
f 63 62 61
f 63 61 64
f 43 46 65
f 43 65 61
f 29 27 64
f 29 64 66
f 64 61 65
f 64 65 66
f 46 49 67
f 46 67 65
f 31 29 66
f 31 66 68
f 66 65 67
f 66 67 68
f 2 1 69
f 2 69 70
f 49 2 70
f 49 70 67
f 1 31 68
f 1 68 69
f 68 67 70
f 68 70 69
f 71 72 73
f 71 73 74
f 75 76 77
f 75 77 78
f 79 80 76
f 79 76 75
f 81 82 80
f 81 80 79
f 83 84 85
f 83 85 86
f 74 73 84
f 74 84 83
f 87 88 89
f 87 89 90
f 90 89 91
f 90 91 92
f 92 91 93
f 92 93 94
f 87 90 92
f 87 92 94
f 95 82 88
f 95 88 87
f 94 93 96
f 94 96 97
f 95 87 94
f 95 94 97
f 98 80 82
f 98 82 95
f 97 96 99
f 97 99 100
f 98 95 97
f 98 97 100
f 101 77 76
f 101 76 102
f 102 76 80
f 102 80 98
f 100 99 77
f 100 77 101
f 102 98 100
f 102 100 101
f 103 104 105
f 103 105 106
f 106 105 107
f 106 107 108
f 108 107 109
f 108 109 110
f 103 106 108
f 103 108 110
f 111 112 104
f 111 104 103
f 110 109 85
f 110 85 113
f 111 103 110
f 111 110 113
f 114 115 112
f 114 112 111
f 113 85 84
f 113 84 116
f 114 111 113
f 114 113 116
f 117 73 72
f 117 72 118
f 118 72 115
f 118 115 114
f 116 84 73
f 116 73 117
f 118 114 116
f 118 116 117
f 83 86 119
f 83 119 120
f 81 79 121
f 81 121 122
f 74 83 120
f 74 120 123
f 71 74 123
f 71 123 124
f 75 78 125
f 75 125 126
f 79 75 126
f 79 126 121
f 127 128 129
f 127 129 130
f 128 131 132
f 128 132 129
f 132 133 130
f 132 130 129
f 131 134 135
f 131 135 132
f 135 136 133
f 135 133 132
f 134 137 138
f 134 138 135
f 138 139 136
f 138 136 135
f 140 141 142
f 140 142 143
f 137 140 143
f 137 143 138
f 143 142 139
f 143 139 138
f 119 127 130
f 119 130 144
f 133 145 144
f 133 144 130
f 136 146 145
f 136 145 133
f 139 147 146
f 139 146 136
f 141 122 148
f 141 148 142
f 142 148 147
f 142 147 139
f 120 119 144
f 120 144 149
f 145 150 149
f 145 149 144
f 146 151 150
f 146 150 145
f 147 152 151
f 147 151 146
f 122 121 153
f 122 153 148
f 148 153 152
f 148 152 147
f 123 120 149
f 123 149 154
f 124 123 154
f 124 154 155
f 150 155 154
f 150 154 149
f 156 124 155
f 156 155 157
f 151 157 155
f 151 155 150
f 125 156 157
f 125 157 158
f 152 158 157
f 152 157 151
f 126 125 158
f 126 158 159
f 121 126 159
f 121 159 153
f 153 159 158
f 153 158 152
f 141 127 119
f 141 119 122
f 141 137 131
f 141 131 127
f 140 137 141
f 131 128 127
f 88 93 91
f 88 91 89
f 82 96 93
f 82 93 88
f 104 109 107
f 104 107 105
f 112 85 109
f 112 109 104
f 155 150 115
f 155 115 72
f 150 145 112
f 150 112 115
f 99 152 158
f 99 158 77
f 126 121 120
f 126 120 123
f 121 122 119
f 121 119 120
f 145 144 85
f 145 85 112
f 147 152 99
f 147 99 96
f 148 147 96
f 148 96 82

