# https://github.com/mikedh/trimesh
v -0.01824926 -0.00833745 -0.02499595
v -0.01824926 -0.01633746 -0.02499595
v -0.01674926 -0.01633746 -0.02499595
v -0.01674926 -0.00833646 -0.02499595
v -0.01824926 -0.01633645 -0.03149495
v -0.01824926 -0.00833745 -0.03149495
v -0.01674926 -0.00833745 -0.03149495
v -0.01674926 -0.01633645 -0.03149495
v -0.01824926 -0.00033746 -0.02499595
v -0.01674926 -0.00033746 -0.02499595
v -0.01824926 -0.00033746 -0.03149495
v -0.01674926 -0.00033746 -0.03149495
v -0.01824926 0.00766256 -0.02499595
v -0.01674926 0.00766256 -0.02499595
v -0.01824926 0.00766256 -0.03149595
v -0.01674926 0.00766256 -0.03149595
v -0.01824926 0.01566254 -0.02499595
v -0.01674926 0.01566254 -0.02499595
v -0.01824926 0.01566254 -0.03149495
v -0.01674926 0.01566254 -0.03149495
v 0.01675074 -0.00833745 -0.02499595
v 0.01675074 -0.01633746 -0.02499595
v 0.01825074 -0.01633645 -0.02499595
v 0.01825074 -0.00833745 -0.02499595
v 0.01675074 -0.01633746 -0.03149495
v 0.01675074 -0.00833745 -0.03149495
v 0.01825074 -0.00833745 -0.03149495
v 0.01825074 -0.01633645 -0.03149495
v 0.01675074 -0.00033746 -0.02499595
v 0.01825074 -0.00033746 -0.02499595
v 0.01675074 -0.00033746 -0.03149495
v 0.01825074 -0.00033746 -0.03149495
v 0.01675074 0.00766256 -0.02499595
v 0.01825074 0.00766256 -0.02499595
v 0.01675074 0.00766256 -0.03149595
v 0.01825074 0.00766256 -0.03149495
v 0.01675074 0.01566254 -0.02499595
v 0.01825074 0.01566254 -0.02499595
v 0.01675074 0.01566254 -0.03149495
v 0.01825074 0.01566254 -0.03149495
v 0.01675074 -0.01633746 -0.03299595
v 0.01675074 -0.00833745 -0.03299595
v 0.01825074 -0.00833745 -0.03299595
v 0.01825074 -0.01633746 -0.03299595
v -0.01824926 -0.01633746 -0.03299595
v -0.01824926 -0.00833745 -0.03299595
v -0.01674926 -0.00833745 -0.03299595
v -0.01674926 -0.01633746 -0.03299595
v 0.01675074 -0.00033746 -0.03299495
v 0.01825074 -0.00033746 -0.03299495
v -0.01824926 -0.00033746 -0.03299495
v -0.01674926 -0.00033746 -0.03299495
v 0.01675074 0.00766256 -0.03299595
v 0.01825074 0.00766256 -0.03299595
v -0.01824926 0.00766256 -0.03299595
v -0.01674926 0.00766256 -0.03299595
v 0.01675074 0.01566254 -0.03299595
v 0.01825074 0.01566254 -0.03299595
v -0.01824926 0.01566254 -0.03299595
v -0.01674926 0.01566254 -0.03299595
v 0.00000074 0.01566254 -0.03149495
v 0.00000074 0.01566254 -0.03299595
v 0.00000074 0.00766256 -0.03149595
v 0.00000074 0.00766256 -0.03299595
v 0.00000074 -0.00033746 -0.03149495
v 0.00000074 -0.00033746 -0.03299495
v 0.00000074 -0.00833745 -0.03149495
v 0.00000074 -0.00833745 -0.03299595
v 0.00000074 -0.01633645 -0.03149495
v 0.00000074 -0.01633645 -0.03299595
f 1 2 3
f 1 3 4
f 5 2 1
f 5 1 6
f 7 4 3
f 7 3 8
f 8 3 2
f 8 2 5
f 9 1 4
f 9 4 10
f 6 1 9
f 6 9 11
f 12 10 4
f 12 4 7
f 13 9 10
f 13 10 14
f 11 9 13
f 11 13 15
f 16 14 10
f 16 10 12
f 17 13 14
f 17 14 18
f 15 13 17
f 15 17 19
f 19 17 18
f 19 18 20
f 20 18 14
f 20 14 16
f 21 22 23
f 21 23 24
f 25 22 21
f 25 21 26
f 27 24 23
f 27 23 28
f 28 23 22
f 28 22 25
f 29 21 24
f 29 24 30
f 26 21 29
f 26 29 31
f 32 30 24
f 32 24 27
f 33 29 30
f 33 30 34
f 31 29 33
f 31 33 35
f 36 34 30
f 36 30 32
f 37 33 34
f 37 34 38
f 35 33 37
f 35 37 39
f 39 37 38
f 39 38 40
f 40 38 34
f 40 34 36
f 41 42 43
f 41 43 44
f 45 46 47
f 45 47 48
f 42 49 50
f 42 50 43
f 46 51 52
f 46 52 47
f 49 53 54
f 49 54 50
f 51 55 56
f 51 56 52
f 53 57 58
f 53 58 54
f 55 59 60
f 55 60 56
f 6 46 45
f 6 45 5
f 11 51 46
f 11 46 6
f 15 55 51
f 15 51 11
f 19 59 55
f 19 55 15
f 20 60 59
f 20 59 19
f 40 58 57
f 40 57 39
f 36 54 58
f 36 58 40
f 32 50 54
f 32 54 36
f 27 43 50
f 27 50 32
f 28 44 43
f 28 43 27
f 25 41 44
f 25 44 28
f 5 45 48
f 5 48 8
f 61 39 57
f 61 57 62
f 61 62 60
f 61 60 20
f 61 20 16
f 61 16 63
f 61 63 35
f 61 35 39
f 62 57 53
f 62 53 64
f 62 64 56
f 62 56 60
f 63 16 12
f 63 12 65
f 63 65 31
f 63 31 35
f 64 53 49
f 64 49 66
f 64 66 52
f 64 52 56
f 65 12 7
f 65 7 67
f 65 67 26
f 65 26 31
f 66 49 42
f 66 42 68
f 66 68 47
f 66 47 52
f 67 7 8
f 67 8 69
f 67 69 25
f 67 25 26
f 68 42 41
f 68 41 70
f 68 70 48
f 68 48 47
f 69 8 48
f 69 48 70
f 69 70 41
f 69 41 25

