# https://github.com/mikedh/trimesh
v 0.01476074 -0.00033746 -0.06550295
v 0.01753274 -0.00148545 -0.06550295
v 0.01776074 -0.00033746 -0.06550295
v 0.01688174 -0.00245945 -0.06550295
v 0.01590874 -0.00310946 -0.06550295
v 0.01476074 -0.00333745 -0.06550295
v 0.01361274 -0.00310946 -0.06550295
v 0.01263974 -0.00245945 -0.06550295
v 0.01198874 -0.00148545 -0.06550295
v 0.01176074 -0.00033746 -0.06550295
v 0.01198874 0.00081056 -0.06550295
v 0.01263974 0.00178354 -0.06550295
v 0.01361274 0.00243353 -0.06550295
v 0.01476074 0.00266253 -0.06550295
v 0.01590874 0.00243353 -0.06550295
v 0.01688174 0.00178354 -0.06550295
v 0.01753274 0.00081056 -0.06550295
v 0.01476074 -0.00033746 -0.06900295
v 0.01776074 -0.00033746 -0.06900295
v 0.01753274 -0.00148545 -0.06900295
v 0.01688174 -0.00245945 -0.06900295
v 0.01590874 -0.00310946 -0.06900295
v 0.01476074 -0.00333745 -0.06900295
v 0.01361274 -0.00310946 -0.06900295
v 0.01263974 -0.00245945 -0.06900295
v 0.01198974 -0.00148545 -0.06900295
v 0.01176074 -0.00033746 -0.06900295
v 0.01198974 0.00081056 -0.06900295
v 0.01263974 0.00178354 -0.06900295
v 0.01361274 0.00243353 -0.06900295
v 0.01476074 0.00266253 -0.06900295
v 0.01590874 0.00243353 -0.06900295
v 0.01688174 0.00178354 -0.06900295
v 0.01753274 0.00081056 -0.06900295
v 0.02087674 0.01444455 -0.03300295
v 0.02087674 0.01444455 -0.06550295
v 0.01475374 0.01566254 -0.06550295
v 0.01475474 0.01566254 -0.03300295
v 0.02606774 0.01097553 -0.03300295
v 0.02606774 0.01097553 -0.06550295
v 0.02087674 -0.01511947 -0.03300295
v 0.02087674 -0.01511947 -0.06550295
v 0.02606774 -0.01165146 -0.06550295
v 0.02606774 -0.01165146 -0.03300295
v 0.01475474 -0.01633746 -0.03300295
v 0.01475374 -0.01633746 -0.06550295
v 0.01475474 -0.00033746 -0.03300295
v 0.01475374 -0.00033746 -0.06550295
v 0.00525374 0.01566254 -0.03300295
v 0.00525374 0.01566254 -0.06550295
v 0.00525374 -0.00033746 -0.06550295
v 0.00525374 -0.00033746 -0.03300295
v 0.00525374 -0.01633746 -0.06550295
v 0.00525374 -0.01633746 -0.03300295
v -0.01624526 0.01566254 -0.03300295
v -0.01624626 0.01566254 -0.06550295
v -0.01624626 -0.00033746 -0.06550295
v -0.01624526 -0.00033746 -0.03300295
v -0.01624626 -0.01633746 -0.06550295
v -0.01624526 -0.01633746 -0.03300295
v -0.01624526 -0.00033046 0.00200305
v -0.01624526 0.01445155 0.00812606
v -0.01624526 0.01566955 0.00200307
v -0.01624526 0.01098355 0.01331707
v -0.01624526 -0.01511247 0.00812606
v -0.01624526 -0.01164446 0.01331706
v -0.01624526 -0.01633046 0.00200305
v 0.01625474 -0.00033046 0.00200305
v 0.01625474 0.01566955 0.00200307
v 0.01625474 0.01445155 0.00812606
v 0.01625474 0.01098355 0.01331707
v 0.01625474 -0.01164446 0.01331706
v 0.01625474 -0.01511247 0.00812606
v 0.01625474 -0.01633046 0.00200305
v 0.01625474 -0.00033046 -0.00749695
v 0.01625474 0.01566955 -0.00749693
v -0.01624526 0.01566955 -0.00749693
v -0.01624526 -0.00033046 -0.00749695
v 0.01625474 -0.01633046 -0.00749695
v -0.01624526 -0.01633046 -0.00749695
v 0.01625474 -0.00033046 -0.02899695
v 0.01625474 0.01566955 -0.02899695
v -0.01624526 0.01566955 -0.02899695
v -0.01624526 -0.00033046 -0.02899695
v 0.01625474 -0.01633046 -0.02899695
v -0.01624526 -0.01633046 -0.02899695
v -0.01974526 -0.00033046 -0.00299694
v -0.01974526 0.00081753 -0.00276794
v -0.01624526 0.00081753 -0.00276794
v -0.01624526 -0.00033046 -0.00299694
v -0.01974526 0.00179054 -0.00211794
v -0.01624526 0.00179054 -0.00211794
v -0.01974526 0.00244155 -0.00114494
v -0.01624526 0.00244155 -0.00114494
v -0.01974526 0.00266953 0.00000306
v -0.01624526 0.00266953 0.00000306
v -0.01974526 0.00244155 0.00115106
v -0.01624526 0.00244155 0.00115106
v -0.01974526 0.00179054 0.00212406
v -0.01624526 0.00179054 0.00212406
v -0.01974526 0.00081753 0.00277505
v -0.01624526 0.00081753 0.00277505
v -0.01974526 -0.00033046 0.00300305
v -0.01624526 -0.00033046 0.00300305
v -0.01974526 -0.00147847 0.00277505
v -0.01624526 -0.00147847 0.00277505
v -0.01974526 -0.00245146 0.00212406
v -0.01624526 -0.00245146 0.00212406
v -0.01974526 -0.00310145 0.00115106
v -0.01624526 -0.00310145 0.00115106
v -0.01974526 -0.00333045 0.00000306
v -0.01624526 -0.00333045 0.00000306
v -0.01974526 -0.00310145 -0.00114494
v -0.01624526 -0.00310145 -0.00114494
v -0.01974526 -0.00245146 -0.00211794
v -0.01624526 -0.00245146 -0.00211794
v -0.01974526 -0.00147847 -0.00276794
v -0.01624526 -0.00147847 -0.00276794
v -0.01974526 -0.00033046 0.00000306
v -0.01624526 -0.00033046 0.00000306
v 0.01134974 0.01566955 -0.02899695
v 0.00000474 0.01098355 0.01331707
v 0.00000474 -0.01164446 0.01331706
v 0.00000474 0.01445155 0.00812606
v 0.00000474 -0.01511247 0.00812606
v 0.00000474 0.01566955 0.00200307
v 0.00000474 -0.01633046 0.00200305
v 0.00000474 -0.01633046 -0.00749695
v 0.00000474 -0.01633046 -0.02899695
v 0.00000474 -0.00033046 -0.02899695
v 0.00000474 0.01566955 -0.00749693
v 0.00000474 0.01566955 -0.02899695
f 1 2 3
f 1 4 2
f 1 5 4
f 1 6 5
f 1 7 6
f 1 8 7
f 1 9 8
f 1 10 9
f 1 11 10
f 1 12 11
f 1 13 12
f 1 14 13
f 1 15 14
f 1 16 15
f 1 17 16
f 1 3 17
f 18 19 20
f 18 20 21
f 18 21 22
f 18 22 23
f 18 23 24
f 18 24 25
f 18 25 26
f 18 26 27
f 18 27 28
f 18 28 29
f 18 29 30
f 18 30 31
f 18 31 32
f 18 32 33
f 18 33 34
f 18 34 19
f 2 20 19
f 2 19 3
f 4 21 20
f 4 20 2
f 5 22 21
f 5 21 4
f 6 23 22
f 6 22 5
f 7 24 23
f 7 23 6
f 8 25 24
f 8 24 7
f 9 26 25
f 9 25 8
f 10 27 26
f 10 26 9
f 11 28 27
f 11 27 10
f 12 29 28
f 12 28 11
f 13 30 29
f 13 29 12
f 14 31 30
f 14 30 13
f 15 32 31
f 15 31 14
f 16 33 32
f 16 32 15
f 17 34 33
f 17 33 16
f 3 19 34
f 3 34 17
f 35 36 37
f 35 37 38
f 39 40 36
f 39 36 35
f 41 42 43
f 41 43 44
f 45 46 42
f 45 42 41
f 47 35 38
f 47 39 35
f 47 41 44
f 47 45 41
f 48 37 36
f 48 36 40
f 48 43 42
f 48 42 46
f 49 38 37
f 49 37 50
f 50 37 48
f 50 48 51
f 52 47 38
f 52 38 49
f 51 48 46
f 51 46 53
f 53 46 45
f 53 45 54
f 54 45 47
f 54 47 52
f 55 49 50
f 55 50 56
f 56 50 51
f 56 51 57
f 58 52 49
f 58 49 55
f 56 57 58
f 56 58 55
f 57 51 53
f 57 53 59
f 59 53 54
f 59 54 60
f 60 54 52
f 60 52 58
f 57 59 60
f 57 60 58
f 44 43 40
f 44 40 39
f 44 39 47
f 48 40 43
f 61 62 63
f 61 64 62
f 61 65 66
f 61 67 65
f 68 69 70
f 68 70 71
f 68 72 73
f 68 73 74
f 75 76 69
f 75 69 68
f 77 78 61
f 77 61 63
f 79 75 68
f 79 68 74
f 78 80 67
f 78 67 61
f 81 82 76
f 81 76 75
f 83 84 78
f 83 78 77
f 85 81 75
f 85 75 79
f 84 86 80
f 84 80 78
f 66 64 61
f 68 71 72
f 87 88 89
f 87 89 90
f 88 91 92
f 88 92 89
f 91 93 94
f 91 94 92
f 93 95 96
f 93 96 94
f 95 97 98
f 95 98 96
f 97 99 100
f 97 100 98
f 99 101 102
f 99 102 100
f 101 103 104
f 101 104 102
f 103 105 106
f 103 106 104
f 105 107 108
f 105 108 106
f 107 109 110
f 107 110 108
f 109 111 112
f 109 112 110
f 111 113 114
f 111 114 112
f 113 115 116
f 113 116 114
f 115 117 118
f 115 118 116
f 117 87 90
f 117 90 118
f 119 88 87
f 119 91 88
f 119 93 91
f 119 95 93
f 119 97 95
f 119 99 97
f 119 101 99
f 119 103 101
f 119 105 103
f 119 107 105
f 119 109 107
f 119 111 109
f 119 113 111
f 119 115 113
f 119 117 115
f 119 87 117
f 120 90 89
f 120 89 92
f 120 92 94
f 120 94 96
f 120 96 98
f 120 98 100
f 120 100 102
f 120 102 104
f 120 104 106
f 120 106 108
f 120 108 110
f 120 110 112
f 120 112 114
f 120 114 116
f 120 116 118
f 120 118 90
f 121 82 81
f 81 84 83
f 121 81 83
f 122 64 66
f 122 66 123
f 122 123 72
f 122 72 71
f 122 71 70
f 122 70 124
f 122 124 62
f 122 62 64
f 123 66 65
f 123 65 125
f 123 125 73
f 123 73 72
f 124 70 69
f 124 69 126
f 124 126 63
f 124 63 62
f 125 65 67
f 125 67 127
f 125 127 74
f 125 74 73
f 127 67 80
f 127 80 128
f 127 128 79
f 127 79 74
f 128 80 86
f 128 86 129
f 128 129 85
f 128 85 79
f 129 86 84
f 129 84 130
f 129 130 81
f 129 81 85
f 131 76 82
f 131 82 132
f 131 132 83
f 131 83 77
f 131 77 63
f 131 63 126
f 131 126 69
f 131 69 76

