# https://github.com/mikedh/trimesh
v -0.01900000 0.00476941 -0.00191340
v -0.01900000 0.00515000 -0.00000001
v -0.02100001 0.00515000 -0.00000001
v -0.02100001 0.00476941 -0.00191340
v -0.01900000 0.00368550 -0.00353551
v -0.02100001 0.00368550 -0.00353551
v -0.01900000 0.00206341 -0.00461940
v -0.02100001 0.00206341 -0.00461940
v -0.01900000 0.00015001 -0.00500001
v -0.02100001 0.00015001 -0.00500001
v -0.01900000 -0.00176340 -0.00461940
v -0.02100001 -0.00176340 -0.00461940
v -0.01900000 -0.00338549 -0.00353551
v -0.02100001 -0.00338549 -0.00353551
v -0.01900000 -0.00446940 -0.00191340
v -0.02100001 -0.00446940 -0.00191340
v -0.01900000 -0.00484999 -0.00000001
v -0.02100001 -0.00484999 -0.00000001
v -0.01900000 0.01115001 -0.02900000
v -0.01900000 0.01115001 -0.03100000
v -0.02100001 0.01115001 -0.03100000
v -0.02100001 0.01115001 -0.02900000
v -0.00000000 0.01115001 -0.02900000
v -0.00000000 0.01115001 -0.03100000
v 0.01899999 0.01115001 -0.02900000
v 0.01899999 0.01115001 -0.03100000
v 0.02100000 0.01115001 -0.02900000
v 0.02100000 0.01115001 -0.03100000
v -0.01900000 -0.01085000 -0.03100000
v -0.01900000 -0.01085000 -0.02900000
v -0.02100000 -0.01085000 -0.02900000
v -0.02100000 -0.01085000 -0.03100000
v -0.00000000 -0.01085000 -0.03100000
v -0.00000000 -0.01085000 -0.02900000
v 0.01900000 -0.01085000 -0.03100000
v 0.01900000 -0.01085000 -0.02900000
v 0.02100000 -0.01085000 -0.03100000
v 0.02100000 -0.01085000 -0.02900000
v -0.01900000 -0.01085000 -0.00900000
v -0.02100000 -0.01085000 -0.00900000
v -0.02100001 0.01115001 -0.00900000
v -0.01900000 0.01115001 -0.00900000
v 0.02100000 -0.01084999 -0.00900000
v 0.01900000 -0.01084999 -0.00900000
v 0.01899999 0.01115002 -0.00900000
v 0.02100000 0.01115002 -0.00900000
v 0.02100000 0.00515001 -0.00000001
v 0.01899999 0.00515001 -0.00000001
v 0.01899999 0.00476941 -0.00191340
v 0.02100000 0.00476941 -0.00191340
v 0.01899999 0.00368551 -0.00353551
v 0.02100000 0.00368551 -0.00353551
v 0.01899999 0.00206341 -0.00461940
v 0.02100000 0.00206341 -0.00461940
v 0.01900000 0.00015002 -0.00500001
v 0.02100000 0.00015002 -0.00500001
v 0.01900000 -0.00176339 -0.00461940
v 0.02100000 -0.00176339 -0.00461940
v 0.01900000 -0.00338549 -0.00353551
v 0.02100000 -0.00338549 -0.00353551
v 0.01900000 -0.00446939 -0.00191340
v 0.02100000 -0.00446939 -0.00191340
v 0.01900000 -0.00484999 -0.00000001
v 0.02100000 -0.00484999 -0.00000001
v -0.01900000 -0.01085000 -0.00000001
v -0.02100000 -0.01085000 -0.00000001
v -0.02100001 0.01115001 -0.00000001
v -0.01900000 0.01115001 -0.00000001
v 0.01899999 0.01115002 -0.00000001
v 0.02100000 0.01115002 -0.00000001
v 0.02100000 -0.01084999 -0.00000001
v 0.01900000 -0.01084999 -0.00000001
v -0.00000000 0.00377921 -0.02900000
v -0.01900000 0.00377921 -0.02900000
v -0.01900000 0.00015001 -0.02900000
v -0.00000000 0.00015001 -0.02900000
v 0.01899999 0.00377921 -0.02900000
v 0.01900000 0.00015001 -0.02900000
v -0.01900000 0.00377921 -0.03100000
v -0.01900000 0.00015001 -0.03100000
v -0.02100001 0.00015001 -0.03100000
v -0.02100001 0.00377921 -0.03100000
v -0.00000000 0.00377921 -0.03100000
v -0.00000000 0.00015001 -0.03100000
v 0.01899999 0.00377921 -0.03100000
v 0.01900000 0.00015001 -0.03100000
v 0.02100000 0.00377921 -0.03100000
v 0.02100000 0.00015001 -0.03100000
v -0.02100001 0.00377921 -0.02900000
v -0.02100001 0.00015001 -0.02900000
v 0.02100000 0.00377921 -0.02900000
v 0.02100000 0.00015001 -0.02900000
v -0.02100001 0.00015001 -0.00900000
v -0.02100001 0.00377921 -0.00900000
v -0.01900000 0.00377921 -0.00900000
v -0.01900000 0.00015001 -0.00900000
v 0.01900000 0.00015002 -0.00900000
v 0.01899999 0.00377922 -0.00900000
v 0.02100000 0.00377922 -0.00900000
v 0.02100000 0.00015002 -0.00900000
v -0.00000000 -0.00334320 -0.02900000
v -0.01900000 -0.00334320 -0.02900000
v 0.01900000 -0.00334320 -0.02900000
v -0.01900000 -0.00334320 -0.03100000
v -0.02100001 -0.00334320 -0.03100000
v -0.00000000 -0.00334320 -0.03100000
v 0.01900000 -0.00334320 -0.03100000
v 0.02100000 -0.00334320 -0.03100000
v -0.02100001 -0.00334320 -0.02900000
v 0.02100000 -0.00334320 -0.02900000
v -0.02100001 -0.00334320 -0.00900000
v -0.01900000 -0.00334320 -0.00900000
v 0.01900000 -0.00334319 -0.00900000
v 0.02100000 -0.00334319 -0.00900000
v 0.02100000 -0.00484999 0.00200000
v 0.02100000 -0.01084999 0.00200000
v 0.01900000 -0.01084999 0.00200000
v 0.01900000 -0.00484999 0.00200000
v 0.02100000 0.01115002 0.00200000
v 0.02100000 0.00515001 0.00200000
v 0.01899999 0.00515001 0.00200000
v 0.01899999 0.01115002 0.00200000
v -0.02100001 -0.00484999 0.00200000
v -0.01900000 -0.00484999 0.00200000
v -0.01900000 -0.01085000 0.00200000
v -0.02100000 -0.01085000 0.00200000
v -0.02100001 0.01115001 0.00200000
v -0.01900000 0.01115001 0.00200000
v -0.01900000 0.00515000 0.00200000
v -0.02100001 0.00515000 0.00200000
v 0.04599677 -0.01850244 -0.03586208
v 0.04568223 -0.01842846 -0.03591993
v 0.04589059 -0.01832317 -0.03591993
v 0.04621218 -0.01835457 -0.03586208
v 0.04596537 -0.01807765 -0.03593310
v 0.04576275 -0.01820986 -0.03593310
v -0.04710537 -0.01772773 -0.03564021
v -0.04919693 -0.01895091 -0.03322599
v -0.04937842 -0.01854766 -0.03322599
v 0.04682523 -0.01752253 -0.03586208
v 0.04671525 -0.01775954 -0.03586208
v 0.04653253 -0.01765941 -0.03591993
v -0.04578422 -0.01897417 -0.03564021
v -0.04606859 -0.01884822 -0.03564021
v -0.04583816 -0.01879617 -0.03576079
v 0.02963511 -0.02448643 -0.03586208
v 0.02937906 -0.02453847 -0.03586208
v 0.02935129 -0.02433198 -0.03591993
v 0.04688279 -0.01785135 -0.03576079
v 0.04657466 -0.01797977 -0.03586208
v -0.04647325 -0.01883593 -0.02593310
v -0.04627756 -0.01896527 -0.03133740
v -0.04647325 -0.01883593 -0.03133740
v -0.04627756 -0.01896527 -0.02593310
v 0.04700352 -0.01759120 -0.03576079
v 0.04720891 -0.01743445 -0.03564021
v 0.04710536 -0.01772773 -0.03564021
v -0.04713619 -0.01703446 -0.03576079
v -0.04729289 -0.01681956 -0.03564021
v -0.04714136 -0.01681956 -0.03576457
v 0.04696310 -0.01800429 -0.03564021
v 0.04672845 -0.01809310 -0.03576079
v 0.02940453 -0.02472782 -0.03576079
v 0.02938455 -0.02487739 -0.03564021
v 0.02911837 -0.02474136 -0.03576457
v 0.02979162 -0.02444976 -0.03585698
v 0.02972746 -0.02427348 -0.03591389
v -0.04828090 -0.02052293 -0.03283819
v -0.04855652 -0.02012715 -0.03303444
v -0.04822069 -0.02045497 -0.03303444
v 0.04663080 -0.01744765 -0.03591993
v 0.04642225 -0.01752093 -0.03593310
v -0.04607055 -0.01907569 -0.02593310
v -0.04579984 -0.01918888 -0.03133740
v -0.04607055 -0.01907569 -0.03133740
v -0.04579984 -0.01918888 -0.02593310
v -0.04629900 -0.01772913 -0.03593310
v -0.04653253 -0.01765941 -0.03591993
v -0.04642225 -0.01752093 -0.03593310
v 0.04678471 -0.01825906 -0.03564021
v -0.04720891 -0.01743445 -0.03564021
v -0.04952126 -0.01812916 -0.03322599
v -0.04962420 -0.01769910 -0.03322599
v 0.04614551 -0.01791615 -0.03593310
v 0.04608306 -0.01819105 -0.03591993
v -0.04968634 -0.01726128 -0.03322599
v -0.04970711 -0.01681956 -0.03322599
v 0.02990258 -0.02475461 -0.03564021
v 0.02964714 -0.02483109 -0.03564021
v 0.02968559 -0.02467069 -0.03576079
v 0.04669996 -0.01722468 -0.03591993
v 0.04651239 -0.01729641 -0.03593310
v -0.02937906 -0.02453847 -0.03586208
v -0.02963511 -0.02448643 -0.03586208
v -0.02958006 -0.02428548 -0.03591993
v 0.02966074 -0.02409015 -0.03593310
v 0.02958006 -0.02428548 -0.03591993
v 0.02948407 -0.02414304 -0.03593310
v 0.04714136 -0.01681956 -0.03576457
v 0.04713620 -0.01703446 -0.03576079
v 0.04696847 -0.01681956 -0.03585698
v 0.04609413 -0.01866682 -0.03576079
v 0.04583815 -0.01879617 -0.03576079
v 0.04576357 -0.01862028 -0.03586208
v 0.04567326 -0.01866931 -0.03585698
v -0.04663080 -0.01744765 -0.03591993
v -0.04651239 -0.01729641 -0.03593310
v -0.04633330 -0.01868495 -0.03564021
v -0.04812139 -0.02034288 -0.03322599
v -0.04657348 -0.01848735 -0.03564021
v 0.04729289 -0.01681956 -0.03564021
v 0.04727180 -0.01712986 -0.03564021
v 0.04708849 -0.01731727 -0.03576079
v 0.04654330 -0.01831212 -0.03576079
v 0.02911837 -0.02418579 -0.03593310
v 0.02930246 -0.02417506 -0.03593310
v -0.04980259 -0.01821064 -0.03251889
v -0.04966960 -0.01859050 -0.03262701
v -0.04965086 -0.01865519 -0.03251889
v 0.04673879 -0.01699448 -0.03591993
v 0.04656733 -0.01706079 -0.03593310
v 0.04658579 -0.01681956 -0.03593310
v -0.02938455 -0.02487739 -0.03564021
v -0.02964714 -0.02483109 -0.03564021
v -0.02940453 -0.02472782 -0.03576079
v -0.04657466 -0.01797977 -0.03586208
v -0.04671525 -0.01775954 -0.03586208
v -0.04672846 -0.01809310 -0.03576079
v -0.04688279 -0.01785135 -0.03576079
v 0.04694610 -0.01701534 -0.03586208
v 0.04690264 -0.01727298 -0.03586208
v -0.04732285 -0.01773638 -0.03133740
v -0.04722658 -0.01795029 -0.02593310
v -0.04722658 -0.01795029 -0.03133740
v -0.04732285 -0.01773638 -0.02593310
v -0.04696310 -0.01800429 -0.03564021
v 0.04633331 -0.01868495 -0.03564021
v 0.04606859 -0.01884822 -0.03564021
v -0.04912574 -0.01938223 -0.03303444
v -0.04893129 -0.01982359 -0.03283819
v -0.04920287 -0.01943014 -0.03283819
v 0.02911837 -0.02456847 -0.03585698
v 0.02911837 -0.02438088 -0.03591389
v -0.04753183 -0.02112435 -0.03262701
v -0.04790816 -0.02082229 -0.03283819
v -0.04750826 -0.02108428 -0.03283819
v 0.02911837 -0.02489289 -0.03564021
v -0.04700351 -0.01759120 -0.03576079
v -0.04609413 -0.01866682 -0.03576079
v -0.04968626 -0.01809549 -0.03303444
v -0.04962614 -0.01857402 -0.03283819
v -0.04977387 -0.01811934 -0.03283819
v -0.04711065 -0.01815424 -0.02593310
v -0.04711065 -0.01815424 -0.03133740
v -0.04896823 -0.01985181 -0.03262701
v -0.04669996 -0.01722468 -0.03591993
v -0.04971358 -0.01716188 -0.03320659
v -0.04978753 -0.01763724 -0.03303444
v -0.04984410 -0.01717136 -0.03303444
v 0.02985075 -0.02461222 -0.03576457
v 0.02976479 -0.02501252 -0.02593310
v 0.03002467 -0.02493057 -0.03133740
v 0.02976479 -0.02501252 -0.03133740
v 0.03002467 -0.02493057 -0.02593310
v -0.04608306 0.02599105 -0.03591993
v -0.04614551 0.02571615 -0.03593310
v -0.04625619 0.02583445 -0.03591993
v -0.02933605 -0.02508811 -0.02593310
v -0.02906381 -0.02510000 -0.03133740
v -0.02933605 -0.02508811 -0.03133740
v -0.02906381 -0.02510000 -0.02593310
v 0.02955209 -0.02505967 -0.02593310
v 0.02955209 -0.02505967 -0.03133740
v -0.04688279 0.02565135 -0.03576079
v -0.04700352 0.02539120 -0.03576079
v -0.04710537 0.02552772 -0.03564021
v 0.04607055 -0.01907568 -0.02593310
v 0.04627756 -0.01896526 -0.03133740
v 0.04607055 -0.01907568 -0.03133740
v 0.04627756 -0.01896526 -0.02593310
v -0.04865705 0.02802063 -0.03262701
v -0.04862301 0.02798898 -0.03283819
v -0.04893129 0.02762359 -0.03283819
v -0.04922595 0.02729189 -0.03251889
v -0.04924236 0.02725467 -0.03262701
v -0.04945808 0.02688353 -0.03251889
v 0.04697607 0.02614643 -0.02593310
v 0.04711065 0.02595424 -0.03133740
v 0.04711065 0.02595424 -0.02593310
v 0.04697607 0.02614643 -0.03133740
v -0.04885915 0.02756846 -0.03303444
v -0.04947688 0.02683292 -0.03262701
v -0.04596537 0.02587765 -0.03593310
v 0.04962420 0.02549910 -0.03322599
v 0.04727180 0.02492986 -0.03564021
v 0.04720891 0.02523446 -0.03564021
v -0.04896823 0.02765181 -0.03262701
v -0.04920287 0.02723014 -0.03283819
v -0.04954124 0.02634182 -0.03303444
v -0.04956000 0.02586110 -0.03320659
v -0.04968626 0.02589549 -0.03303444
v 0.02993575 0.03503561 -0.03322599
v 0.02964713 0.03263110 -0.03564021
v 0.02938455 0.03267739 -0.03564021
v 0.04970711 0.02461956 -0.03322599
v 0.04729288 0.02461956 -0.03564021
v 0.04968634 0.02506129 -0.03322599
v 0.03072829 0.03482324 -0.03322599
v 0.04578421 0.02677417 -0.03564021
v 0.02990258 0.03255461 -0.03564021
v 0.04660993 0.02904279 -0.03322599
v -0.04855653 0.02792714 -0.03303444
v 0.04711065 -0.01815424 -0.02593310
v 0.04697607 -0.01834642 -0.03133740
v 0.04697607 -0.01834642 -0.02593310
v 0.04711065 -0.01815424 -0.03133740
v 0.04919692 0.02675091 -0.03322599
v 0.04710536 0.02552773 -0.03564021
v 0.04696310 0.02580429 -0.03564021
v 0.04682408 0.02632512 -0.02593310
v 0.04665598 0.02648876 -0.03133740
v 0.04682408 0.02632512 -0.03133740
v 0.04665598 0.02648876 -0.02593310
v 0.04748622 0.02485391 -0.02593310
v 0.04749999 0.02456082 -0.03133740
v 0.04749999 0.02456082 -0.02593310
v 0.04748622 0.02485391 -0.03133740
v -0.04943521 0.02681232 -0.03283819
v -0.04962615 0.02637402 -0.03283819
v 0.03033665 0.03494672 -0.03322599
v -0.04977387 0.02591933 -0.03283819
v -0.04978753 0.02543724 -0.03303444
v -0.04987703 0.02545253 -0.03283819
v -0.04865219 0.02803446 -0.03251889
v -0.04831173 0.02835771 -0.03262701
v -0.04831561 0.02836211 -0.03251889
v -0.04984410 0.02497136 -0.03303444
v -0.04993466 0.02497794 -0.03283819
v -0.04992388 0.02461956 -0.03290157
v -0.04998079 0.02461956 -0.03271398
v -0.02964714 0.03263108 -0.03564021
v -0.02990258 0.03255461 -0.03564021
v -0.03033665 0.03494671 -0.03322599
v -0.04713620 0.02483446 -0.03576079
v -0.04714136 0.02461956 -0.03576457
v -0.04729289 0.02461956 -0.03564021
v -0.04966960 0.02639049 -0.03262701
v -0.04971359 0.02496188 -0.03320659
v -0.04983147 0.02461956 -0.03307446
v -0.04935382 0.02677208 -0.03303444
v -0.04941889 0.02629542 -0.03320659
v 0.04872476 0.02749759 -0.03322599
v 0.04678471 0.02605906 -0.03564021
v 0.02952862 0.03508919 -0.03322599
v 0.02911837 0.03269289 -0.03564021
v -0.04912574 0.02718223 -0.03303444
v -0.04923651 0.02671408 -0.03320659
v 0.04937842 0.02634767 -0.03322599
v -0.04997794 0.02508876 -0.03251889
v -0.04998102 0.02498131 -0.03262701
v -0.05000000 0.02461956 -0.03251889
v -0.04828090 0.02832293 -0.03283819
v -0.04895653 0.02767665 -0.03251889
v 0.04897840 0.02713536 -0.03322599
v 0.04673878 0.02479448 -0.03591993
v 0.04656733 0.02486079 -0.03593310
v 0.04669996 0.02502468 -0.03591993
v 0.02979162 0.03224976 -0.03585698
v 0.02972746 0.03207348 -0.03591389
v 0.02963511 0.03228643 -0.03586208
v -0.02935129 0.03213197 -0.03591993
v -0.02958006 0.03208547 -0.03591993
v -0.02937906 0.03233847 -0.03586208
v 0.04981872 0.02593155 -0.03262701
v 0.04991194 0.02555384 -0.03251889
v 0.04992285 0.02546036 -0.03262701
v 0.04977386 0.02591934 -0.03283819
v 0.02935740 -0.02754188 -0.03283819
v 0.02935302 -0.02745119 -0.03303444
v 0.02983325 -0.02749573 -0.03283819
v 0.04846070 0.02783805 -0.03320659
v 0.04885914 0.02756847 -0.03303444
v 0.04875516 0.02748900 -0.03320659
v 0.04755791 0.02891573 -0.03251889
v 0.04753182 0.02892436 -0.03262701
v 0.04714345 0.02913681 -0.03251889
v 0.04746222 0.02880603 -0.03303444
v 0.04739588 0.02869323 -0.03320659
v 0.04699153 0.02890545 -0.03320659
v 0.04912574 0.02718223 -0.03303444
v 0.04901458 0.02711318 -0.03320659
v 0.04924235 0.02725467 -0.03262701
v 0.04945808 0.02688353 -0.03251889
v 0.04947688 0.02683293 -0.03262701
v -0.02911837 0.03540000 -0.03251889
v -0.02911837 0.03538078 -0.03271398
v -0.02935965 0.03538830 -0.03262701
v 0.04997794 0.02508876 -0.03251889
v -0.03041246 0.03522962 -0.03251889
v -0.03031354 0.03524901 -0.03262701
v -0.03077596 0.03511102 -0.03262701
v 0.04828089 0.02832293 -0.03283819
v 0.04822069 0.02825497 -0.03303444
v 0.04785479 0.02854884 -0.03303444
v 0.04920287 0.02723015 -0.03283819
v -0.03082847 0.03509846 -0.03251889
v 0.04987703 0.02545253 -0.03283819
v 0.04993466 0.02497794 -0.03283819
v 0.04978753 0.02543725 -0.03303444
v 0.04943521 0.02681232 -0.03283819
v 0.04962613 0.02637403 -0.03283819
v 0.04935382 0.02677208 -0.03303444
v 0.04813390 0.02815702 -0.03320659
v 0.04777787 0.02844298 -0.03320659
v 0.04954123 0.02634182 -0.03303444
v 0.04968626 0.02589549 -0.03303444
v 0.04941887 0.02629543 -0.03320659
v -0.02955414 0.03538096 -0.03251889
v -0.02983996 0.03534172 -0.03262701
v 0.04865219 0.02803446 -0.03251889
v 0.04895652 0.02767666 -0.03251889
v 0.04865704 0.02802065 -0.03262701
v 0.04790816 0.02862230 -0.03283819
v 0.04862300 0.02798900 -0.03283819
v 0.04896823 0.02765181 -0.03262701
v 0.04893129 0.02762359 -0.03283819
v -0.03030242 0.03520387 -0.03283819
v -0.03076053 0.03506717 -0.03283819
v -0.02935740 0.03534187 -0.03283819
v -0.02983325 0.03529572 -0.03283819
v 0.02935965 -0.02758831 -0.03262701
v 0.02911837 -0.02758079 -0.03271398
v -0.02935302 0.03525118 -0.03303444
v -0.02982013 0.03520588 -0.03303444
v -0.03068696 0.03485809 -0.03320659
v -0.03024937 0.03498867 -0.03320659
v -0.03028069 0.03511573 -0.03303444
v 0.03068696 -0.02705809 -0.03320659
v 0.03024937 -0.02718867 -0.03320659
v 0.03033665 -0.02714672 -0.03322599
v 0.03073039 -0.02718153 -0.03303444
v -0.04785479 -0.02074884 -0.03303444
v -0.04746223 -0.02100602 -0.03303444
v 0.02911837 -0.02752388 -0.03290157
v -0.04678471 -0.01825906 -0.03564021
v -0.04872476 -0.01969758 -0.03322599
v -0.04897840 -0.01933535 -0.03322599
v 0.02911837 -0.02743147 -0.03307446
v 0.02911837 -0.02760000 -0.03251889
v 0.02955414 -0.02758097 -0.03251889
v 0.02983996 -0.02754173 -0.03262701
v 0.03031354 -0.02744902 -0.03262701
v 0.03030242 -0.02740388 -0.03283819
v 0.03077596 -0.02731103 -0.03262701
v -0.04777698 -0.02062024 -0.03322599
v -0.02980122 0.03507639 -0.03320659
v -0.02934669 0.03512048 -0.03320659
v -0.02952862 0.03508918 -0.03322599
v -0.04885915 -0.01976846 -0.03303444
v -0.04862301 -0.02018899 -0.03283819
v 0.04640596 -0.01817930 -0.03586208
v 0.04625619 -0.01803445 -0.03591993
v 0.03076053 -0.02726718 -0.03283819
v 0.03028069 -0.02731573 -0.03303444
v -0.04956000 -0.01806111 -0.03320659
v -0.04954124 -0.01854182 -0.03303444
v -0.04987703 -0.01765253 -0.03283819
v -0.04981872 -0.01813155 -0.03262701
v -0.04992285 -0.01766036 -0.03262701
v 0.02982013 -0.02740589 -0.03303444
v 0.02980122 -0.02727640 -0.03320659
v -0.04633059 -0.01850450 -0.03576079
v -0.04813391 -0.02035702 -0.03320659
v -0.02998661 0.03532403 -0.03251889
v 0.03041246 -0.02742963 -0.03251889
v 0.03082847 -0.02729846 -0.03251889
v -0.04865705 -0.02022064 -0.03262701
v -0.04701790 -0.02107220 -0.03322599
v -0.04740807 -0.02086407 -0.03322599
v 0.02998661 -0.02752404 -0.03251889
v -0.04843825 -0.02003442 -0.03322599
v 0.04657348 -0.01848735 -0.03564021
v -0.04727180 -0.01712986 -0.03564021
v 0.02993575 -0.02723560 -0.03322599
v 0.04573239 -0.01883177 -0.03576457
v -0.04704668 -0.02122412 -0.03303444
v -0.04699154 -0.02110544 -0.03320659
v -0.04665246 -0.02135965 -0.03307446
v -0.04739589 -0.02089322 -0.03320659
v 0.04560910 -0.01849303 -0.03591389
v 0.04578422 -0.01897417 -0.03564021
v 0.04554237 -0.01830971 -0.03593310
v 0.04640692 -0.01785618 -0.03591993
v 0.04977386 -0.01811934 -0.03283819
v 0.04981872 -0.01813155 -0.03262701
v 0.04962614 -0.01857402 -0.03283819
v 0.02934669 -0.02732048 -0.03320659
v 0.04678088 -0.01681956 -0.03591389
v 0.04633059 -0.01850450 -0.03576079
v -0.04660993 -0.02124279 -0.03322599
v -0.04755791 -0.02111573 -0.02593310
v -0.04750000 -0.01676083 -0.02593310
v -0.04750000 0.02456081 -0.02593310
v -0.04748622 -0.01705391 -0.02593310
v -0.04714346 -0.02133681 -0.02593310
v -0.04745326 -0.01728617 -0.02593310
v -0.04739864 -0.01751434 -0.02593310
v -0.04671010 -0.02151802 -0.02593310
v -0.04697607 -0.01834643 -0.02593310
v -0.04682408 -0.01852512 -0.02593310
v -0.04665598 -0.01868877 -0.02593310
v -0.03082847 -0.02729846 -0.02593310
v -0.03002467 -0.02493058 -0.02593310
v -0.03041246 -0.02742963 -0.02593310
v -0.02998661 -0.02752404 -0.02593310
v -0.02976479 -0.02501252 -0.02593310
v -0.02955414 -0.02758097 -0.02593310
v -0.02955209 -0.02505967 -0.02593310
v -0.02911837 -0.02760000 -0.02593310
v 0.02911837 -0.02760000 -0.02593310
v 0.02906381 -0.02510000 -0.02593310
v 0.02933605 -0.02508811 -0.02593310
v 0.02955414 -0.02758097 -0.02593310
v 0.02998661 -0.02752404 -0.02593310
v 0.03041246 -0.02742963 -0.02593310
v 0.04579984 -0.01918888 -0.02593310
v 0.03082847 -0.02729846 -0.02593310
v 0.04671010 -0.02151802 -0.02593310
v 0.04647325 -0.01883592 -0.02593310
v 0.04665598 -0.01868876 -0.02593310
v 0.04682408 -0.01852511 -0.02593310
v 0.04714346 -0.02133681 -0.02593310
v 0.04722659 -0.01795028 -0.02593310
v 0.04755791 -0.02111573 -0.02593310
v 0.04732285 -0.01773637 -0.02593310
v 0.04739864 -0.01751433 -0.02593310
v 0.04745326 -0.01728616 -0.02593310
v 0.04748622 -0.01705390 -0.02593310
v 0.04750000 -0.01676082 -0.02593310
v 0.04755791 0.02891573 -0.02593310
v 0.04794978 0.02865675 -0.02593310
v 0.04794978 -0.02085674 -0.02593310
v 0.04831561 0.02836212 -0.02593310
v 0.04831561 -0.02056211 -0.02593310
v 0.04865219 0.02803446 -0.02593310
v 0.04865219 -0.02023446 -0.02593310
v 0.04895652 0.02767666 -0.02593310
v 0.04895653 -0.01987666 -0.02593310
v 0.04922595 0.02729190 -0.02593310
v 0.04922595 -0.01949189 -0.02593310
v 0.04945808 0.02688353 -0.02593310
v 0.04945808 -0.01908353 -0.02593310
v 0.04965086 0.02645520 -0.02593310
v 0.04965086 -0.01865519 -0.02593310
v 0.04980259 0.02601065 -0.02593310
v 0.04980259 -0.01821064 -0.02593310
v 0.04991194 0.02555384 -0.02593310
v 0.04991194 -0.01775383 -0.02593310
v 0.04997794 0.02508876 -0.02593310
v 0.04997794 -0.01728876 -0.02593310
v 0.05000000 0.02461956 -0.02593310
v 0.05000000 -0.01681956 -0.02593310
v -0.05000000 -0.01681956 -0.02593310
v -0.04997794 0.02508876 -0.02593310
v -0.05000000 0.02461956 -0.02593310
v -0.04997794 -0.01728876 -0.02593310
v -0.04991194 0.02555383 -0.02593310
v -0.04991194 -0.01775383 -0.02593310
v -0.04980259 0.02601064 -0.02593310
v -0.04980259 -0.01821064 -0.02593310
v -0.04965086 0.02645519 -0.02593310
v -0.04965086 -0.01865519 -0.02593310
v -0.04945808 0.02688353 -0.02593310
v -0.04945808 -0.01908353 -0.02593310
v -0.04922595 0.02729189 -0.02593310
v -0.04922595 -0.01949189 -0.02593310
v -0.04895653 0.02767665 -0.02593310
v -0.04895653 -0.01987666 -0.02593310
v -0.04865219 0.02803446 -0.02593310
v -0.04865219 -0.02023446 -0.02593310
v -0.04831561 0.02836211 -0.02593310
v -0.04831561 -0.02056211 -0.02593310
v -0.04794978 0.02865673 -0.02593310
v -0.04794978 -0.02085674 -0.02593310
v -0.04755791 0.02891573 -0.02593310
v -0.04748622 0.02485390 -0.02593310
v -0.04714346 0.02913680 -0.02593310
v -0.04745326 0.02508617 -0.02593310
v -0.04739865 0.02531434 -0.02593310
v -0.04732285 0.02553638 -0.02593310
v -0.04722659 0.02575028 -0.02593310
v -0.04711065 0.02595424 -0.02593310
v -0.04671010 0.02931802 -0.02593310
v -0.04697607 0.02614642 -0.02593310
v -0.04682408 0.02632512 -0.02593310
v -0.04665598 0.02648876 -0.02593310
v -0.04647325 0.02663592 -0.02593310
v -0.04627756 0.02676526 -0.02593310
v -0.03082847 0.03509846 -0.02593310
v -0.04607055 0.02687569 -0.02593310
v -0.04579984 0.02698888 -0.02593310
v -0.03002467 0.03273056 -0.02593310
v -0.03041246 0.03522962 -0.02593310
v -0.02998661 0.03532403 -0.02593310
v -0.02976479 0.03281252 -0.02593310
v -0.02955414 0.03538096 -0.02593310
v -0.02955209 0.03285966 -0.02593310
v -0.02911837 0.03540000 -0.02593310
v -0.02933605 0.03288810 -0.02593310
v -0.02906381 0.03289999 -0.02593310
v 0.02911837 0.03540000 -0.02593310
v 0.02906381 0.03290000 -0.02593310
v 0.02933605 0.03288811 -0.02593310
v 0.02955414 0.03538097 -0.02593310
v 0.02955209 0.03285967 -0.02593310
v 0.02976479 0.03281252 -0.02593310
v 0.02998661 0.03532404 -0.02593310
v 0.03002467 0.03273058 -0.02593310
v 0.03041246 0.03522963 -0.02593310
v 0.04579984 0.02698888 -0.02593310
v 0.03082847 0.03509846 -0.02593310
v 0.04671010 0.02931803 -0.02593310
v 0.04607055 0.02687570 -0.02593310
v 0.04627756 0.02676526 -0.02593310
v 0.04647324 0.02663592 -0.02593310
v 0.04714345 0.02913681 -0.02593310
v 0.04722658 0.02575029 -0.02593310
v 0.04732285 0.02553638 -0.02593310
v 0.04739863 0.02531434 -0.02593310
v 0.04745325 0.02508617 -0.02593310
v 0.04554237 0.02610971 -0.03593310
v 0.02966074 0.03189015 -0.03593310
v 0.04560909 0.02629303 -0.03591389
v 0.02940453 0.03252782 -0.03576079
v 0.02937905 0.03233847 -0.03586208
v 0.02911837 0.03236848 -0.03585698
v 0.04700351 0.02539120 -0.03576079
v 0.04621217 0.02615457 -0.03586208
v 0.04589058 0.02612318 -0.03591993
v 0.04599676 0.02630244 -0.03586208
v 0.04568223 0.02622846 -0.03591993
v 0.04653253 0.02545941 -0.03591993
v 0.04642225 0.02532093 -0.03593310
v 0.04629900 0.02552913 -0.03593310
v 0.04576357 0.02642028 -0.03586208
v 0.04640692 0.02565618 -0.03591993
v 0.04614551 0.02571615 -0.03593310
v 0.04625618 0.02583445 -0.03591993
v 0.04688279 0.02565135 -0.03576079
v 0.04678088 0.02461956 -0.03591389
v 0.04658579 0.02461956 -0.03593310
v 0.04690263 0.02507298 -0.03586208
v 0.04663079 0.02524765 -0.03591993
v 0.04682522 0.02532253 -0.03586208
v 0.04696847 0.02461956 -0.03585698
v 0.04694610 0.02481535 -0.03586208
v 0.04713619 0.02483446 -0.03576079
v 0.02985074 0.03241223 -0.03576457
v 0.02968559 0.03247069 -0.03576079
v 0.04671524 0.02555954 -0.03586208
v 0.04657466 0.02577977 -0.03586208
v 0.04567326 0.02646931 -0.03585698
v 0.04678088 0.00390000 -0.03591389
v -0.03076053 -0.02726718 -0.03283819
v -0.03073039 -0.02718153 -0.03303444
v -0.03030242 -0.02740388 -0.03283819
v 0.04971357 0.02496188 -0.03320659
v 0.04983146 0.02461956 -0.03307446
v -0.04609413 0.02646681 -0.03576079
v -0.04633059 0.02630450 -0.03576079
v -0.04633331 0.02648495 -0.03564021
v 0.04923651 0.02671408 -0.03320659
v 0.04966960 0.02639050 -0.03262701
v 0.04843824 0.02783443 -0.03322599
v -0.04714346 0.02913680 -0.03251889
v -0.04753183 0.02892434 -0.03262701
v -0.04755791 0.02891573 -0.03251889
v -0.04621219 0.02615456 -0.03586208
v -0.04640596 0.02597930 -0.03586208
v 0.04701789 0.02887220 -0.03322599
v 0.04952126 0.02592916 -0.03322599
v 0.04956000 0.02586111 -0.03320659
v 0.04665246 0.02915966 -0.03307446
v 0.04984409 0.02497136 -0.03303444
v 0.04965854 0.02541521 -0.03320659
v -0.02972746 -0.02427348 -0.03591389
v -0.02966074 -0.02409015 -0.03593310
v -0.04708495 0.02910645 -0.03283819
v -0.04668408 0.02924648 -0.03290157
v -0.04704668 0.02902411 -0.03303444
v 0.04750825 0.02888428 -0.03283819
v 0.04704668 0.02902412 -0.03303444
v 0.04658579 0.00390000 -0.03592349
v 0.04855651 0.02792716 -0.03303444
v 0.04777697 0.02842025 -0.03322599
v 0.04633330 0.02648495 -0.03564021
v 0.04740807 0.02866407 -0.03322599
v 0.04998102 0.02498131 -0.03262701
v 0.05000000 0.02461956 -0.03251889
v 0.04998078 0.02461956 -0.03271398
v 0.04746223 -0.02100602 -0.03303444
v 0.04739589 -0.02089322 -0.03320659
v 0.04785479 -0.02074884 -0.03303444
v -0.02911837 0.03269288 -0.03564021
v -0.02911837 0.03510710 -0.03322599
v -0.04671010 0.02931802 -0.03251889
v -0.04670353 0.02929996 -0.03271398
v -0.04710454 0.02914861 -0.03262701
v 0.04606859 0.02664823 -0.03564021
v 0.04992387 0.02461956 -0.03290157
v 0.04947688 -0.01903292 -0.03262701
v 0.04924235 -0.01945467 -0.03262701
v 0.04920287 -0.01943014 -0.03283819
v -0.04640692 -0.01785618 -0.03591993
v -0.02968559 -0.02467069 -0.03576079
v -0.02985075 -0.02461222 -0.03576457
v -0.02979162 -0.02444976 -0.03585698
v -0.04640596 -0.01817930 -0.03586208
v -0.04654330 -0.01831212 -0.03576079
v -0.04576357 -0.01862028 -0.03586208
v -0.04599677 -0.01850244 -0.03586208
v 0.02911837 0.03218089 -0.03591389
v -0.02911837 0.03198579 -0.03593310
v -0.02911837 0.03218087 -0.03591389
v 0.02911837 0.03198579 -0.03593310
v -0.02938455 0.03267739 -0.03564021
v -0.02993575 0.03503559 -0.03322599
v 0.04777787 -0.02064297 -0.03320659
v 0.04954124 -0.01854182 -0.03303444
v 0.04935382 -0.01897208 -0.03303444
v 0.04923651 -0.01891408 -0.03320659
v -0.04621218 -0.01835457 -0.03586208
v 0.04812139 0.02814288 -0.03322599
v 0.04657348 0.02628735 -0.03564021
v -0.04794978 0.02865673 -0.03251889
v -0.04682523 -0.01752253 -0.03586208
v 0.04828090 -0.02052293 -0.03283819
v 0.04822069 -0.02045497 -0.03303444
v 0.04862301 -0.02018899 -0.03283819
v 0.04755791 -0.02111573 -0.03251889
v 0.04753183 -0.02112435 -0.03262701
v 0.04793548 -0.02085990 -0.03262701
v 0.04943521 -0.01901232 -0.03283819
v 0.04966960 -0.01859050 -0.03262701
v 0.04893129 -0.01982359 -0.03283819
v 0.04750826 -0.02108428 -0.03283819
v 0.04855652 -0.02012715 -0.03303444
v 0.04813391 -0.02035702 -0.03320659
v 0.04846070 -0.02003804 -0.03320659
v -0.04656733 -0.01706079 -0.03593310
v -0.04560910 -0.01849303 -0.03591389
v -0.04567326 -0.01866931 -0.03585698
v -0.04614551 -0.01791615 -0.03593310
v 0.04865705 -0.02022064 -0.03262701
v 0.04665246 -0.02135965 -0.03307446
v 0.04660993 -0.02124279 -0.03322599
v 0.04699153 -0.02110544 -0.03320659
v 0.04875517 -0.01968900 -0.03320659
v 0.04885915 -0.01976846 -0.03303444
v 0.04937842 -0.01854766 -0.03322599
v 0.04941888 -0.01849542 -0.03320659
v -0.04710454 -0.02134861 -0.03262701
v -0.04708495 -0.02130646 -0.03283819
v 0.04968626 -0.01809549 -0.03303444
v 0.04992387 -0.01681956 -0.03290157
v 0.04984410 -0.01717136 -0.03303444
v 0.04983147 -0.01681956 -0.03307446
v 0.04945808 -0.01908353 -0.03251889
v -0.04690264 -0.01727298 -0.03586208
v -0.04673879 -0.01699448 -0.03591993
v -0.02990258 -0.02475461 -0.03564021
v -0.04714346 -0.02133681 -0.03251889
v 0.04971358 -0.01716188 -0.03320659
v 0.04970711 -0.01681956 -0.03322599
v 0.04714346 -0.02133681 -0.03251889
v 0.04710454 -0.02134861 -0.03262701
v 0.04708495 -0.02130646 -0.03283819
v 0.04952126 -0.01812916 -0.03322599
v 0.04956000 -0.01806111 -0.03320659
v -0.04846070 -0.02003804 -0.03320659
v 0.04998102 -0.01718131 -0.03262701
v 0.04992285 -0.01766036 -0.03262701
v 0.04987703 -0.01765253 -0.03283819
v 0.04831173 -0.02055772 -0.03262701
v 0.04790816 -0.02082229 -0.03283819
v -0.03028069 -0.02731573 -0.03303444
v -0.02983325 -0.02749573 -0.03283819
v -0.02935129 -0.02433198 -0.03591993
v -0.02948407 -0.02414304 -0.03593310
v 0.04965086 -0.01865519 -0.03251889
v 0.04794978 -0.02085674 -0.03251889
v 0.04831561 -0.02056211 -0.03251889
v 0.04922595 0.02729190 -0.03251889
v -0.03082847 -0.02729846 -0.03251889
v -0.03077596 -0.02731103 -0.03262701
v -0.03041246 -0.02742963 -0.03251889
v 0.04896823 -0.01985181 -0.03262701
v 0.04912574 -0.01938223 -0.03303444
v -0.02983996 -0.02754173 -0.03262701
v 0.04671010 -0.02151802 -0.03251889
v 0.04831561 0.02836212 -0.03251889
v 0.04831173 0.02835773 -0.03262701
v 0.04794978 0.02865675 -0.03251889
v -0.04794978 -0.02085674 -0.03251889
v -0.04831173 -0.02055772 -0.03262701
v -0.04793548 -0.02085990 -0.03262701
v 0.04962420 -0.01769910 -0.03322599
v 0.04978753 -0.01763724 -0.03303444
v 0.04965854 -0.01761521 -0.03320659
v -0.04793548 0.02865989 -0.03262701
v -0.02935302 -0.02745119 -0.03303444
v -0.02934669 -0.02732048 -0.03320659
v -0.02911837 -0.02743147 -0.03307446
v -0.02911837 -0.02474136 -0.03576457
v -0.04658579 0.00390000 -0.03592349
v -0.04678088 -0.01681956 -0.03591389
v -0.04678088 0.00390000 -0.03591389
v -0.04658579 -0.01681956 -0.03593310
v -0.04671010 -0.02151802 -0.03251889
v -0.04720891 0.02523445 -0.03564021
v -0.04962420 0.02549910 -0.03322599
v -0.04952126 0.02592915 -0.03322599
v -0.04937842 0.02634766 -0.03322599
v -0.04970711 0.02461956 -0.03322599
v -0.04981872 0.02593155 -0.03262701
v -0.04980259 0.02601064 -0.03251889
v -0.04965854 0.02541521 -0.03320659
v -0.04901458 0.02711318 -0.03320659
v -0.04992285 0.02546036 -0.03262701
v -0.04965086 0.02645519 -0.03251889
v -0.04755791 -0.02111573 -0.03251889
v 0.03082189 -0.02728041 -0.03271398
v -0.04991194 0.02555383 -0.03251889
v -0.04895653 -0.01987666 -0.03251889
v -0.04922595 -0.01949189 -0.03251889
v -0.04875517 0.02748900 -0.03320659
v -0.04968634 0.02506128 -0.03322599
v -0.02998661 -0.02752404 -0.03251889
v 0.03080243 -0.02722693 -0.03290157
v -0.02955414 -0.02758097 -0.03251889
v -0.04919693 0.02675091 -0.03322599
v -0.02911837 -0.02760000 -0.03251889
v -0.04865219 -0.02023446 -0.03251889
v -0.04831561 -0.02056211 -0.03251889
v 0.04671010 0.02931803 -0.03251889
v -0.04997794 -0.01728876 -0.03251889
v -0.05000000 -0.01681956 -0.03251889
v 0.04922595 -0.01949189 -0.03251889
v -0.04991194 -0.01775383 -0.03251889
v 0.02955414 0.03538097 -0.03251889
v 0.02911837 0.03540000 -0.03251889
v 0.02998661 0.03532404 -0.03251889
v 0.03082847 0.03509846 -0.03251889
v 0.03041246 0.03522963 -0.03251889
v -0.04945808 -0.01908353 -0.03251889
v 0.04965086 0.02645520 -0.03251889
v 0.04997794 -0.01728876 -0.03251889
v 0.04991194 -0.01775383 -0.03251889
v 0.04980259 -0.01821064 -0.03251889
v 0.04579984 0.02698888 -0.03133740
v 0.04607055 0.02687570 -0.03133740
v -0.02976479 0.03281252 -0.03133740
v -0.02955209 0.03285966 -0.03133740
v -0.04739865 0.02531434 -0.03133740
v -0.04745326 0.02508617 -0.03133740
v 0.04895653 -0.01987666 -0.03251889
v -0.04722659 0.02575028 -0.03133740
v -0.04732285 0.02553638 -0.03133740
v 0.05000000 -0.01681956 -0.03251889
v -0.02906381 0.03289999 -0.03133740
v 0.02906381 0.03290000 -0.03133740
v 0.04980259 0.02601065 -0.03251889
v 0.04865219 -0.02023446 -0.03251889
v -0.04711065 0.02595424 -0.03133740
v 0.04745325 0.02508617 -0.03133740
v 0.04739863 0.02531434 -0.03133740
v 0.02933605 0.03288811 -0.03133740
v 0.02955209 0.03285967 -0.03133740
v 0.04682408 -0.01852511 -0.03133740
v -0.03024937 -0.02718867 -0.03320659
v -0.02982013 -0.02740589 -0.03303444
v -0.04568223 0.02622846 -0.03591993
v -0.04589059 0.02612317 -0.03591993
v -0.04576357 0.02642027 -0.03586208
v -0.03002467 0.03273056 -0.03133740
v 0.04627756 0.02676526 -0.03133740
v 0.04647324 0.02663592 -0.03133740
v 0.02976479 0.03281252 -0.03133740
v -0.04579984 0.02698888 -0.03133740
v -0.04748622 0.02485390 -0.03133740
v 0.04901458 -0.01931318 -0.03320659
v 0.04739864 -0.01751433 -0.03133740
v 0.04745326 -0.01728616 -0.03133740
v 0.03002467 0.03273058 -0.03133740
v -0.02933605 0.03288810 -0.03133740
v -0.04697607 0.02614642 -0.03133740
v -0.04665598 0.02648876 -0.03133740
v -0.04647325 0.02663592 -0.03133740
v 0.04722659 -0.01795028 -0.03133740
v 0.04732285 -0.01773637 -0.03133740
v 0.04732285 0.02553638 -0.03133740
v 0.04722658 0.02575029 -0.03133740
v 0.04748622 -0.01705390 -0.03133740
v 0.04750000 -0.01676082 -0.03133740
v -0.02955209 -0.02505967 -0.03133740
v -0.04665598 -0.01868877 -0.03133740
v 0.04579984 -0.01918888 -0.03133740
v -0.04748622 -0.01705391 -0.03133740
v -0.04745326 -0.01728617 -0.03133740
v -0.04750000 -0.01676083 -0.03133740
v -0.02976479 -0.02501252 -0.03133740
v -0.03002467 -0.02493058 -0.03133740
v -0.04739864 -0.01751434 -0.03133740
v 0.04708848 0.02511727 -0.03576079
v 0.04714135 0.02461956 -0.03576457
v -0.04596537 -0.01807765 -0.03593310
v -0.04608306 -0.01819105 -0.03591993
v -0.04625619 -0.01803445 -0.03591993
v 0.04872476 -0.01969758 -0.03322599
v 0.04704668 -0.02122412 -0.03303444
v -0.04708849 -0.01731727 -0.03576079
v -0.02952862 -0.02728919 -0.03322599
v -0.02993575 -0.02723560 -0.03322599
v 0.04968634 -0.01726128 -0.03322599
v 0.04812139 -0.02034288 -0.03322599
v 0.04998079 -0.01681956 -0.03271398
v -0.04924236 -0.01945467 -0.03262701
v 0.04919693 -0.01895091 -0.03322599
v 0.04897840 -0.01933535 -0.03322599
v -0.02911837 -0.02489289 -0.03564021
v 0.04740807 -0.02086407 -0.03322599
v 0.03072829 -0.02702323 -0.03322599
v 0.04701789 -0.02107220 -0.03322599
v 0.04843825 -0.02003442 -0.03322599
v -0.03033665 -0.02714672 -0.03322599
v -0.04668407 -0.02144649 -0.03290157
v -0.04901458 -0.01931318 -0.03320659
v -0.04875517 -0.01968900 -0.03320659
v -0.04670353 -0.02149996 -0.03271398
v -0.02911837 -0.02456847 -0.03585698
v 0.02952862 -0.02728919 -0.03322599
v -0.04576275 -0.01820986 -0.03593310
v -0.04589059 -0.01832317 -0.03591993
v 0.04777697 -0.02062024 -0.03322599
v -0.04694610 -0.01701534 -0.03586208
v -0.02911837 -0.02438088 -0.03591389
v -0.02930246 -0.02417506 -0.03593310
v -0.02911837 -0.02418579 -0.03593310
v -0.04947688 -0.01903292 -0.03262701
v -0.04554237 -0.01830971 -0.03593310
v -0.04568223 -0.01842846 -0.03591993
v -0.03072829 -0.02702323 -0.03322599
v -0.04665246 0.02915965 -0.03307446
v -0.04699154 0.02890543 -0.03320659
v 0.02935302 0.03525120 -0.03303444
v 0.02934669 0.03512048 -0.03320659
v 0.02911837 0.03523147 -0.03307446
v -0.04846070 0.02783803 -0.03320659
v -0.04573239 -0.01883177 -0.03576457
v -0.04750826 0.02888427 -0.03283819
v -0.04790816 0.02862228 -0.03283819
v 0.04993466 -0.01717794 -0.03283819
v -0.04696847 -0.01681956 -0.03585698
v -0.04998079 -0.01681956 -0.03271398
v -0.04998102 -0.01718131 -0.03262701
v 0.03077596 0.03511104 -0.03262701
v 0.03031354 0.03524902 -0.03262701
v 0.02911837 0.03254136 -0.03576457
v -0.02963511 0.03228642 -0.03586208
v -0.04696847 0.02461956 -0.03585698
v -0.04640692 0.02565618 -0.03591993
v -0.04653253 0.02545941 -0.03591993
v -0.04657466 0.02577977 -0.03586208
v 0.02958006 0.03208548 -0.03591993
v 0.02935129 0.03213198 -0.03591993
v 0.02948407 0.03194304 -0.03593310
v -0.04682408 -0.01852512 -0.03133740
v 0.04665598 -0.01868876 -0.03133740
v 0.04647325 -0.01883592 -0.03133740
v -0.03072829 0.03482322 -0.03322599
v 0.02933605 -0.02508811 -0.03133740
v 0.02906381 -0.02510000 -0.03133740
v -0.04965854 -0.01761521 -0.03320659
v -0.04941888 -0.01849542 -0.03320659
v -0.04923651 -0.01891408 -0.03320659
v -0.04935382 -0.01897208 -0.03303444
v -0.04983147 -0.01681956 -0.03307446
v -0.04554237 0.02610970 -0.03593310
v -0.04576275 0.02600986 -0.03593310
v -0.02972746 0.03207348 -0.03591389
v -0.04560911 0.02629303 -0.03591389
v -0.02966074 0.03189015 -0.03593310
v -0.04583816 0.02659617 -0.03576079
v -0.04599677 0.02630244 -0.03586208
v -0.04727180 0.02492986 -0.03564021
v -0.02935965 -0.02758831 -0.03262701
v -0.02935740 -0.02754188 -0.03283819
v -0.02911837 -0.02758079 -0.03271398
v -0.02980122 -0.02727640 -0.03320659
v -0.04673879 0.02479448 -0.03591993
v -0.04694610 0.02481534 -0.03586208
v -0.04690265 0.02507298 -0.03586208
v -0.04678088 0.02461956 -0.03591389
v -0.04671525 0.02555954 -0.03586208
v -0.04672846 0.02589310 -0.03576079
v -0.03031354 -0.02744902 -0.03262701
v -0.04642225 0.02532093 -0.03593310
v -0.04651240 0.02509641 -0.03593310
v -0.04663080 0.02524765 -0.03591993
v -0.02911837 -0.02752388 -0.03290157
v -0.04654330 0.02611212 -0.03576079
v -0.04669996 0.02502468 -0.03591993
v 0.04670352 -0.02149996 -0.03271398
v 0.04668407 -0.02144649 -0.03290157
v -0.03068696 -0.02705809 -0.03320659
v -0.02911837 -0.02730711 -0.03322599
v 0.02911837 -0.02730711 -0.03322599
v -0.04682523 0.02532252 -0.03586208
v 0.04629900 -0.01772913 -0.03593310
v 0.02983996 0.03534174 -0.03262701
v 0.02983325 0.03529574 -0.03283819
v 0.02935740 0.03534188 -0.03283819
v -0.04657348 0.02628735 -0.03564021
v -0.04812139 0.02814288 -0.03322599
v 0.02935965 0.03538832 -0.03262701
v 0.02911837 0.03538079 -0.03271398
v 0.02911837 0.03532388 -0.03290157
v -0.04578422 0.02677417 -0.03564021
v -0.04606859 0.02664822 -0.03564021
v 0.03030242 0.03520389 -0.03283819
v -0.04678471 0.02605906 -0.03564021
v -0.04897840 0.02713535 -0.03322599
v -0.04872476 0.02749757 -0.03322599
v 0.03076053 0.03506718 -0.03283819
v 0.03024936 0.03498867 -0.03320659
v 0.03068696 0.03485809 -0.03320659
v 0.03073039 0.03498153 -0.03303444
v 0.03028069 0.03511573 -0.03303444
v 0.02980122 0.03507641 -0.03320659
v 0.02982013 0.03520590 -0.03303444
v -0.04696310 0.02580429 -0.03564021
v -0.04740807 0.02866407 -0.03322599
v 0.04640596 0.02597930 -0.03586208
v -0.04843825 0.02783441 -0.03322599
v -0.04701790 0.02887220 -0.03322599
v -0.04660993 0.02904279 -0.03322599
v 0.04583815 0.02659618 -0.03576079
v 0.04573239 0.02663177 -0.03576457
v 0.04608306 0.02599105 -0.03591993
v 0.04576275 0.02600986 -0.03593310
v 0.04672845 0.02589311 -0.03576079
v 0.04654329 0.02611212 -0.03576079
v 0.04596537 0.02587765 -0.03593310
v 0.04651239 0.02509641 -0.03593310
v 0.04609413 0.02646682 -0.03576079
v 0.04633059 0.02630450 -0.03576079
v -0.04822069 0.02825497 -0.03303444
v 0.04793548 0.02865991 -0.03262701
v -0.02911837 0.03523147 -0.03307446
v -0.02911837 0.03532387 -0.03290157
v -0.03073039 0.03498153 -0.03303444
v 0.04708495 0.02910647 -0.03283819
v -0.04777698 0.02842024 -0.03322599
v -0.04739589 0.02869321 -0.03320659
v -0.04746223 0.02880601 -0.03303444
v 0.02911837 0.03510712 -0.03322599
v -0.04785479 0.02854883 -0.03303444
v -0.04813391 0.02815702 -0.03320659
v -0.04777787 0.02844296 -0.03320659
v -0.04708849 0.02511727 -0.03576079
v -0.04656733 0.02486079 -0.03593310
v 0.03080243 0.03502693 -0.03290157
v 0.03077083 0.03494010 -0.03307446
v 0.04668406 0.02924649 -0.03290157
v -0.03077083 0.03494009 -0.03307446
v -0.03082189 0.03508040 -0.03271398
v 0.03082189 0.03508041 -0.03271398
v -0.03080243 -0.02722693 -0.03290157
v -0.03077083 -0.02714010 -0.03307446
v 0.04670352 0.02929997 -0.03271398
v -0.03080243 0.03502692 -0.03290157
v -0.03082189 -0.02728041 -0.03271398
v -0.04777787 -0.02064297 -0.03320659
v -0.04992388 -0.01681956 -0.03290157
v 0.03077083 -0.02714010 -0.03307446
v 0.02930246 0.03197506 -0.03593310
v -0.02911837 0.03254135 -0.03576457
v -0.02911837 0.03236846 -0.03585698
v -0.02940453 0.03252782 -0.03576079
v -0.02979162 0.03224976 -0.03585698
v -0.02968559 0.03247068 -0.03576079
v -0.02948407 0.03194303 -0.03593310
v -0.04567326 0.02646931 -0.03585698
v 0.04710454 0.02914861 -0.03262701
v -0.04629900 0.02552913 -0.03593310
v -0.04658579 0.02461956 -0.03593310
v -0.04607055 0.02687569 -0.03133740
v -0.04750000 0.02456081 -0.03133740
v -0.04993466 -0.01717794 -0.03283819
v -0.04697607 -0.01834643 -0.03133740
v -0.04943521 -0.01901232 -0.03283819
v -0.04573239 0.02663177 -0.03576457
v -0.02985075 0.03241221 -0.03576457
v -0.02930246 0.03197506 -0.03593310
v -0.02300000 -0.02451480 -0.03133740
v -0.02000000 -0.02451480 -0.03133740
v 0.02000000 -0.02451479 -0.03133740
v -0.02000000 0.03100000 -0.03133740
v 0.02302485 -0.02451479 -0.03133740
v 0.02302485 0.03100000 -0.03133740
v -0.04682408 0.02632512 -0.03133740
v -0.04627756 0.02676526 -0.03133740
v -0.02300000 0.03100000 -0.03133740
v 0.02000000 0.03100000 -0.03133740
f 1 2 3
f 1 3 4
f 5 1 4
f 5 4 6
f 7 5 6
f 7 6 8
f 9 7 8
f 9 8 10
f 11 9 10
f 11 10 12
f 13 11 12
f 13 12 14
f 15 13 14
f 15 14 16
f 17 15 16
f 17 16 18
f 19 20 21
f 19 21 22
f 23 24 20
f 23 20 19
f 25 26 24
f 25 24 23
f 27 28 26
f 27 26 25
f 29 30 31
f 29 31 32
f 33 34 30
f 33 30 29
f 35 36 34
f 35 34 33
f 37 38 36
f 37 36 35
f 31 30 39
f 31 39 40
f 19 22 41
f 19 41 42
f 36 38 43
f 36 43 44
f 27 25 45
f 27 45 46
f 47 48 49
f 47 49 50
f 50 49 51
f 50 51 52
f 52 51 53
f 52 53 54
f 54 53 55
f 54 55 56
f 56 55 57
f 56 57 58
f 58 57 59
f 58 59 60
f 60 59 61
f 60 61 62
f 62 61 63
f 62 63 64
f 39 65 66
f 39 66 40
f 41 67 68
f 41 68 42
f 45 69 70
f 45 70 46
f 43 71 72
f 43 72 44
f 41 4 3
f 41 3 67
f 66 18 16
f 66 16 40
f 61 44 72
f 61 72 63
f 69 45 49
f 69 49 48
f 71 43 62
f 71 62 64
f 1 42 68
f 1 68 2
f 39 15 17
f 39 17 65
f 73 23 19
f 73 19 74
f 75 76 73
f 75 73 74
f 77 25 23
f 77 23 73
f 76 78 77
f 76 77 73
f 79 80 81
f 79 81 82
f 21 20 79
f 21 79 82
f 83 84 80
f 83 80 79
f 20 24 83
f 20 83 79
f 85 86 84
f 85 84 83
f 24 26 85
f 24 85 83
f 87 88 86
f 87 86 85
f 26 28 87
f 26 87 85
f 89 22 21
f 89 21 82
f 81 90 89
f 81 89 82
f 87 28 27
f 87 27 91
f 92 88 87
f 92 87 91
f 89 90 93
f 89 93 94
f 41 22 89
f 41 89 94
f 74 19 42
f 74 42 95
f 96 75 74
f 96 74 95
f 77 78 97
f 77 97 98
f 45 25 77
f 45 77 98
f 91 27 46
f 91 46 99
f 100 92 91
f 100 91 99
f 101 76 75
f 101 75 102
f 30 34 101
f 30 101 102
f 103 78 76
f 103 76 101
f 34 36 103
f 34 103 101
f 104 29 32
f 104 32 105
f 81 80 104
f 81 104 105
f 106 33 29
f 106 29 104
f 80 84 106
f 80 106 104
f 107 35 33
f 107 33 106
f 84 86 107
f 84 107 106
f 108 37 35
f 108 35 107
f 86 88 108
f 86 108 107
f 109 90 81
f 109 81 105
f 32 31 109
f 32 109 105
f 108 88 92
f 108 92 110
f 38 37 108
f 38 108 110
f 109 31 40
f 109 40 111
f 93 90 109
f 93 109 111
f 102 75 96
f 102 96 112
f 39 30 102
f 39 102 112
f 103 36 44
f 103 44 113
f 97 78 103
f 97 103 113
f 110 92 100
f 110 100 114
f 43 38 110
f 43 110 114
f 93 10 8
f 93 8 94
f 8 6 41
f 8 41 94
f 111 12 10
f 111 10 93
f 111 40 14
f 111 14 12
f 41 6 4
f 16 14 40
f 13 15 39
f 1 5 42
f 39 112 11
f 39 11 13
f 112 96 9
f 112 9 11
f 9 96 95
f 9 95 7
f 95 42 5
f 95 5 7
f 113 57 55
f 113 55 97
f 113 44 59
f 113 59 57
f 55 53 98
f 55 98 97
f 53 51 45
f 53 45 98
f 44 61 59
f 45 51 49
f 52 46 50
f 47 50 46
f 47 46 70
f 52 54 99
f 52 99 46
f 56 100 99
f 56 99 54
f 43 114 58
f 43 58 60
f 56 58 114
f 56 114 100
f 43 60 62
f 71 64 115
f 71 115 116
f 72 71 116
f 72 116 117
f 63 72 117
f 63 117 118
f 64 63 118
f 64 118 115
f 118 117 116
f 118 116 115
f 47 70 119
f 47 119 120
f 48 47 120
f 48 120 121
f 69 48 121
f 69 121 122
f 70 69 122
f 70 122 119
f 122 121 120
f 122 120 119
f 17 18 123
f 17 123 124
f 65 17 124
f 65 124 125
f 66 65 125
f 66 125 126
f 18 66 126
f 18 126 123
f 126 125 124
f 126 124 123
f 68 67 127
f 68 127 128
f 2 68 128
f 2 128 129
f 3 2 129
f 3 129 130
f 67 3 130
f 67 130 127
f 130 129 128
f 130 128 127
f 131 132 133
f 134 131 133
f 135 133 136
f 137 138 139
f 140 141 142
f 143 144 145
f 146 147 148
f 149 150 141
f 151 152 153
f 152 151 154
f 155 141 140
f 156 157 155
f 158 159 160
f 161 162 149
f 163 164 165
f 166 146 167
f 133 132 136
f 168 169 170
f 171 142 172
f 173 174 175
f 174 173 176
f 177 178 179
f 161 180 162
f 181 182 183
f 157 149 155
f 184 185 135
f 159 186 187
f 188 189 190
f 191 171 192
f 193 194 195
f 196 197 198
f 197 148 198
f 199 200 201
f 202 203 204
f 203 205 204
f 179 206 207
f 208 209 210
f 211 200 199
f 212 213 200
f 180 214 162
f 148 215 216
f 217 218 219
f 220 221 222
f 223 224 225
f 178 226 227
f 227 228 229
f 230 231 191
f 140 142 171
f 232 233 234
f 233 232 235
f 228 236 229
f 237 238 202
f 239 240 241
f 147 242 243
f 244 245 246
f 164 247 165
f 229 137 248
f 144 208 249
f 250 251 252
f 190 147 146
f 234 253 254
f 253 234 233
f 241 240 255
f 207 206 256
f 257 258 259
f 179 178 206
f 260 190 166
f 261 262 263
f 262 261 264
f 265 266 267
f 268 269 270
f 269 268 271
f 272 263 273
f 263 272 261
f 274 275 276
f 277 278 279
f 278 277 280
f 281 282 283
f 284 285 286
f 287 288 289
f 288 287 290
f 282 291 283
f 285 292 286
f 293 266 265
f 294 295 296
f 297 283 298
f 299 300 301
f 302 303 304
f 305 306 307
f 308 309 310
f 309 308 311
f 282 312 291
f 313 314 315
f 314 313 316
f 317 318 319
f 320 321 322
f 321 320 323
f 324 325 326
f 325 324 327
f 292 328 329
f 308 310 330
f 331 332 333
f 334 335 281
f 336 335 334
f 333 337 338
f 333 332 337
f 338 339 340
f 331 301 332
f 285 298 328
f 341 342 343
f 330 303 302
f 307 306 295
f 307 295 294
f 344 345 346
f 347 329 331
f 337 348 349
f 297 298 285
f 350 351 299
f 292 329 347
f 352 319 353
f 354 304 355
f 335 282 281
f 356 357 350
f 281 283 297
f 358 318 317
f 359 360 361
f 338 337 339
f 330 310 303
f 335 362 282
f 285 328 292
f 334 281 363
f 364 319 352
f 365 366 367
f 368 369 370
f 371 372 373
f 374 375 376
f 374 376 377
f 378 379 380
f 381 382 383
f 384 385 386
f 387 388 389
f 383 390 391
f 392 393 394
f 395 396 397
f 375 398 376
f 399 400 401
f 402 403 404
f 382 405 390
f 399 401 406
f 407 408 409
f 410 411 412
f 403 413 414
f 415 416 417
f 418 397 419
f 420 421 422
f 423 404 387
f 424 425 426
f 236 138 137
f 400 427 428
f 397 429 430
f 431 432 378
f 395 397 418
f 429 433 434
f 419 427 400
f 435 436 343
f 436 435 437
f 438 439 440
f 439 438 441
f 246 442 443
f 229 236 137
f 378 444 379
f 445 446 447
f 444 448 379
f 397 430 419
f 449 431 450
f 451 380 452
f 181 139 182
f 452 453 454
f 208 455 209
f 456 457 458
f 457 456 433
f 459 169 460
f 461 185 462
f 431 378 451
f 454 453 463
f 453 464 463
f 463 464 441
f 465 466 250
f 467 468 469
f 470 471 464
f 472 208 210
f 170 473 442
f 453 470 464
f 474 419 400
f 475 454 476
f 240 477 255
f 397 396 429
f 433 456 434
f 144 478 479
f 452 380 453
f 480 452 475
f 210 481 445
f 180 482 214
f 480 451 452
f 483 186 159
f 439 471 484
f 471 439 464
f 203 485 205
f 380 379 470
f 475 452 454
f 430 437 427
f 181 183 483
f 149 162 150
f 486 487 488
f 443 489 486
f 380 470 453
f 445 481 446
f 462 185 184
f 204 205 490
f 143 478 144
f 238 491 203
f 136 132 492
f 210 209 481
f 190 189 163
f 141 150 493
f 494 495 496
f 461 134 185
f 204 490 132
f 155 149 141
f 202 238 203
f 236 447 138
f 185 133 135
f 137 139 181
f 483 183 186
f 203 491 485
f 379 448 497
f 200 230 201
f 132 490 492
f 213 155 140
f 201 230 498
f 499 131 134
f 163 242 147
f 202 204 131
f 143 500 478
f 482 237 499
f 445 447 236
f 501 502 503
f 502 501 504
f 504 501 505
f 504 505 506
f 506 505 507
f 507 505 235
f 235 505 233
f 233 505 253
f 253 505 508
f 253 508 509
f 509 508 510
f 510 508 511
f 511 508 151
f 151 508 154
f 154 508 512
f 154 512 173
f 173 512 176
f 176 512 513
f 513 512 514
f 513 514 515
f 513 515 516
f 516 515 517
f 516 517 518
f 518 517 519
f 518 519 268
f 268 519 271
f 271 519 520
f 271 520 521
f 521 520 522
f 522 520 523
f 522 523 272
f 272 523 261
f 261 523 524
f 261 524 264
f 264 524 525
f 264 525 526
f 526 525 527
f 526 527 528
f 526 528 277
f 277 528 280
f 280 528 529
f 529 528 530
f 530 528 531
f 531 528 532
f 531 532 315
f 315 532 313
f 313 532 533
f 533 532 534
f 533 534 535
f 535 534 536
f 536 534 537
f 537 534 538
f 538 534 539
f 539 534 540
f 540 534 541
f 541 534 542
f 541 542 543
f 543 542 544
f 543 544 545
f 545 544 546
f 545 546 547
f 547 546 548
f 547 548 549
f 549 548 550
f 549 550 551
f 551 550 552
f 551 552 553
f 553 552 554
f 553 554 555
f 555 554 556
f 555 556 557
f 557 556 558
f 557 558 559
f 559 558 560
f 559 560 561
f 561 560 562
f 563 564 565
f 564 563 566
f 564 566 567
f 567 566 568
f 567 568 569
f 569 568 570
f 569 570 571
f 571 570 572
f 571 572 573
f 573 572 574
f 573 574 575
f 575 574 576
f 575 576 577
f 577 576 578
f 577 578 579
f 579 578 580
f 579 580 581
f 581 580 582
f 581 582 583
f 583 582 584
f 583 584 585
f 585 584 501
f 585 501 503
f 585 503 586
f 585 586 587
f 587 586 588
f 587 588 589
f 587 589 590
f 587 590 591
f 587 591 592
f 587 592 593
f 593 592 594
f 593 594 595
f 593 595 596
f 593 596 597
f 593 597 598
f 593 598 599
f 599 598 600
f 599 600 601
f 599 601 602
f 599 602 603
f 603 602 604
f 604 602 605
f 604 605 606
f 606 605 607
f 606 607 608
f 608 607 609
f 608 609 610
f 608 610 611
f 611 610 612
f 611 612 613
f 611 613 614
f 614 613 615
f 614 615 616
f 614 616 617
f 617 616 618
f 617 618 619
f 619 618 620
f 619 620 621
f 621 620 622
f 622 620 623
f 622 623 624
f 622 624 625
f 622 625 323
f 622 323 320
f 622 320 626
f 626 320 287
f 626 287 289
f 626 289 627
f 626 627 540
f 540 627 628
f 540 628 629
f 540 629 630
f 540 630 324
f 540 324 326
f 540 326 539
f 369 631 632
f 631 369 633
f 634 635 636
f 296 637 318
f 638 639 640
f 641 631 633
f 642 643 644
f 640 641 645
f 646 647 648
f 318 649 319
f 650 651 365
f 652 653 654
f 654 653 642
f 655 650 656
f 656 367 652
f 306 657 295
f 658 368 659
f 645 641 633
f 660 646 661
f 653 643 642
f 645 633 662
f 655 663 650
f 663 655 498
f 498 655 201
f 664 665 666
f 392 394 405
f 667 668 305
f 669 670 671
f 402 404 423
f 358 415 417
f 415 358 672
f 394 673 410
f 352 353 674
f 675 676 677
f 678 267 679
f 680 309 311
f 403 414 404
f 681 416 682
f 416 681 417
f 683 389 311
f 409 684 685
f 195 686 687
f 416 407 409
f 688 689 690
f 409 408 684
f 691 387 692
f 663 222 693
f 222 663 498
f 694 413 403
f 377 376 407
f 695 696 697
f 698 699 700
f 307 684 667
f 684 307 685
f 416 409 682
f 424 426 694
f 412 411 415
f 391 412 672
f 426 405 382
f 701 702 703
f 405 410 390
f 704 458 705
f 404 388 387
f 706 707 708
f 407 698 408
f 697 709 680
f 684 710 668
f 711 712 713
f 714 226 178
f 715 716 717
f 718 719 226
f 720 145 721
f 708 707 688
f 177 714 178
f 722 723 724
f 723 722 725
f 726 727 458
f 698 700 408
f 398 699 698
f 703 702 728
f 408 700 710
f 729 730 731
f 249 472 732
f 733 696 695
f 674 734 733
f 735 335 336
f 376 398 698
f 206 736 256
f 707 689 688
f 737 738 739
f 740 741 742
f 743 711 713
f 744 711 743
f 713 712 745
f 741 746 742
f 747 748 749
f 145 144 249
f 207 256 750
f 751 752 720
f 753 714 177
f 754 737 739
f 755 756 757
f 758 759 749
f 701 757 702
f 760 729 731
f 729 760 761
f 762 246 763
f 764 729 761
f 765 766 767
f 711 768 712
f 256 769 770
f 194 717 686
f 472 210 719
f 224 771 715
f 772 244 762
f 767 773 774
f 715 771 716
f 775 776 741
f 741 777 746
f 778 764 761
f 764 778 779
f 170 169 780
f 781 782 783
f 784 785 737
f 666 786 787
f 788 195 789
f 785 701 703
f 496 743 730
f 744 790 711
f 791 784 792
f 782 495 494
f 425 793 392
f 767 766 773
f 745 739 747
f 794 795 796
f 225 715 194
f 421 793 425
f 759 745 747
f 775 741 740
f 784 737 754
f 797 754 739
f 494 496 729
f 745 797 739
f 783 782 494
f 729 496 730
f 743 713 798
f 739 738 747
f 799 666 787
f 764 494 729
f 800 776 775
f 791 742 784
f 190 163 147
f 801 802 803
f 804 805 806
f 788 193 195
f 412 415 672
f 472 719 718
f 225 224 715
f 798 713 759
f 807 808 779
f 808 807 809
f 810 362 335
f 706 708 675
f 742 746 785
f 811 812 813
f 776 777 741
f 814 223 225
f 785 703 737
f 329 299 301
f 328 299 329
f 815 816 817
f 816 815 818
f 328 350 299
f 508 772 819
f 772 508 505
f 820 821 822
f 350 823 351
f 823 350 357
f 332 348 337
f 337 349 339
f 348 824 349
f 298 350 328
f 347 825 826
f 347 331 825
f 301 827 332
f 281 297 363
f 301 821 827
f 821 301 300
f 825 331 333
f 291 828 356
f 283 356 298
f 829 360 359
f 329 301 331
f 830 347 826
f 283 291 356
f 292 347 830
f 820 822 823
f 501 804 831
f 804 501 584
f 476 454 832
f 579 336 334
f 336 579 581
f 826 825 833
f 576 834 578
f 834 576 835
f 291 836 828
f 363 297 284
f 332 837 348
f 837 332 827
f 356 828 357
f 298 356 350
f 515 796 838
f 796 515 514
f 832 463 839
f 360 338 340
f 454 463 832
f 517 838 840
f 838 517 515
f 276 823 841
f 520 842 449
f 842 520 519
f 541 801 803
f 801 541 543
f 582 843 844
f 843 582 580
f 578 843 580
f 843 578 834
f 829 338 360
f 581 735 336
f 735 581 583
f 286 292 830
f 583 677 735
f 677 583 585
f 505 831 772
f 831 505 501
f 606 395 418
f 395 606 608
f 584 844 804
f 844 584 582
f 622 386 845
f 386 622 626
f 512 819 794
f 819 512 508
f 567 359 564
f 359 567 833
f 579 363 577
f 363 579 334
f 604 418 474
f 418 604 606
f 563 846 566
f 846 563 847
f 519 840 842
f 840 519 517
f 564 361 565
f 361 564 359
f 768 550 848
f 550 768 552
f 565 847 563
f 847 565 361
f 514 794 796
f 794 514 512
f 566 849 568
f 849 566 846
f 611 850 851
f 850 611 614
f 614 852 850
f 852 614 617
f 619 853 854
f 853 619 621
f 608 851 395
f 851 608 611
f 570 219 572
f 219 570 217
f 617 854 852
f 854 617 619
f 599 399 406
f 399 599 603
f 621 845 853
f 845 621 622
f 593 406 706
f 406 593 599
f 587 706 675
f 706 587 593
f 573 830 571
f 830 573 286
f 574 835 576
f 835 574 855
f 569 833 567
f 833 569 826
f 585 675 677
f 675 585 587
f 544 791 792
f 791 544 542
f 393 553 856
f 553 393 551
f 572 855 574
f 855 572 219
f 532 800 775
f 800 532 528
f 793 551 393
f 551 793 549
f 603 474 399
f 474 603 604
f 857 558 858
f 558 857 560
f 542 740 791
f 740 542 534
f 571 826 569
f 826 571 830
f 858 556 859
f 556 858 558
f 568 217 570
f 217 568 849
f 534 775 740
f 775 534 532
f 623 860 861
f 860 623 620
f 607 862 863
f 862 607 605
f 864 588 865
f 588 864 589
f 848 548 866
f 548 848 550
f 575 286 573
f 286 575 284
f 528 476 800
f 476 528 527
f 375 559 398
f 559 375 557
f 577 284 575
f 284 577 363
f 398 561 699
f 561 398 559
f 867 590 868
f 590 867 591
f 523 449 450
f 449 523 520
f 869 560 857
f 560 869 562
f 612 870 871
f 870 612 610
f 872 557 375
f 557 872 555
f 546 792 873
f 792 546 544
f 524 450 480
f 450 524 523
f 874 591 867
f 591 874 592
f 629 875 630
f 875 629 876
f 421 549 793
f 549 421 547
f 615 877 878
f 877 615 613
f 315 879 531
f 879 315 314
f 786 880 881
f 882 883 884
f 543 420 801
f 420 543 545
f 856 555 872
f 555 856 553
f 605 885 862
f 885 605 602
f 625 886 887
f 886 625 624
f 616 878 888
f 878 616 615
f 790 552 768
f 552 790 554
f 527 475 476
f 475 527 525
f 602 889 885
f 889 602 601
f 865 586 890
f 586 865 588
f 891 798 758
f 866 546 873
f 546 866 548
f 537 892 536
f 892 537 893
f 420 547 421
f 547 420 545
f 626 384 386
f 384 626 540
f 859 554 790
f 554 859 556
f 620 894 860
f 894 620 618
f 610 895 870
f 895 610 609
f 742 785 784
f 896 592 874
f 592 896 594
f 597 897 898
f 897 597 596
f 525 480 475
f 480 525 524
f 535 899 533
f 899 535 900
f 627 901 628
f 901 627 902
f 539 903 538
f 903 539 904
f 533 316 313
f 316 533 899
f 538 893 537
f 893 538 903
f 518 270 905
f 270 518 268
f 323 887 321
f 887 323 625
f 511 153 906
f 153 511 151
f 289 902 627
f 902 289 288
f 628 876 629
f 876 628 901
f 264 907 262
f 907 264 526
f 908 506 909
f 506 908 504
f 910 504 908
f 504 910 502
f 320 290 287
f 290 320 322
f 516 905 911
f 905 516 518
f 536 900 535
f 900 536 892
f 513 911 912
f 911 513 516
f 913 235 232
f 235 913 507
f 637 660 649
f 295 914 296
f 306 915 657
f 656 365 367
f 916 917 753
f 753 918 714
f 804 806 831
f 783 494 764
f 919 180 161
f 777 920 746
f 921 483 158
f 721 249 732
f 223 922 923
f 924 212 211
f 925 237 482
f 869 781 926
f 806 245 244
f 158 483 159
f 831 806 244
f 855 927 835
f 798 759 758
f 928 929 161
f 930 922 223
f 831 244 772
f 931 238 237
f 736 248 769
f 713 745 759
f 484 164 189
f 920 757 701
f 924 807 212
f 223 923 224
f 932 440 188
f 763 443 486
f 933 756 491
f 934 482 180
f 719 445 228
f 718 226 714
f 917 732 918
f 224 935 771
f 927 255 835
f 763 486 936
f 933 491 238
f 206 227 736
f 928 161 157
f 929 919 161
f 492 167 196
f 167 492 490
f 919 934 180
f 931 933 238
f 934 925 482
f 747 738 748
f 937 938 459
f 440 484 189
f 178 227 206
f 746 920 701
f 226 228 227
f 807 156 212
f 917 918 753
f 939 763 936
f 242 814 940
f 814 242 165
f 491 932 188
f 932 491 756
f 440 189 188
f 941 247 164
f 148 243 215
f 769 248 921
f 846 469 849
f 719 228 226
f 942 943 916
f 224 923 935
f 944 931 237
f 498 220 222
f 937 459 239
f 770 769 945
f 946 947 948
f 949 927 855
f 205 260 166
f 260 205 485
f 490 166 167
f 166 490 205
f 215 946 948
f 946 215 243
f 219 949 855
f 950 751 951
f 468 218 217
f 819 762 939
f 844 805 804
f 859 790 744
f 843 477 805
f 143 952 500
f 952 143 771
f 849 468 217
f 950 951 942
f 806 168 245
f 843 805 844
f 771 935 952
f 770 945 816
f 751 717 752
f 717 751 686
f 925 944 237
f 950 686 751
f 686 950 687
f 936 486 488
f 690 953 954
f 805 168 806
f 168 170 245
f 955 956 957
f 312 958 836
f 752 716 959
f 716 752 717
f 676 960 961
f 766 962 808
f 816 945 963
f 962 781 783
f 951 943 942
f 227 229 736
f 243 940 946
f 940 243 242
f 762 763 939
f 256 736 769
f 362 312 282
f 769 921 945
f 165 930 814
f 930 165 247
f 924 766 809
f 766 924 773
f 959 771 143
f 771 959 716
f 964 965 847
f 750 770 818
f 807 778 156
f 854 966 967
f 429 434 430
f 634 636 968
f 733 734 696
f 373 372 969
f 659 634 303
f 970 160 345
f 160 970 963
f 971 972 973
f 370 974 975
f 632 976 974
f 510 906 977
f 906 510 511
f 529 978 979
f 978 529 530
f 530 879 978
f 879 530 531
f 342 980 343
f 317 319 364
f 630 327 324
f 327 630 875
f 280 979 278
f 979 280 529
f 522 273 981
f 273 522 272
f 326 904 539
f 904 326 325
f 521 981 982
f 981 521 522
f 317 672 358
f 728 931 944
f 983 465 250
f 465 983 183
f 413 733 695
f 919 749 934
f 436 727 343
f 984 985 986
f 985 984 139
f 674 733 413
f 757 756 933
f 187 257 987
f 307 294 685
f 928 891 929
f 988 989 882
f 990 988 991
f 988 990 992
f 993 994 669
f 344 346 995
f 738 728 748
f 996 997 998
f 812 999 922
f 999 812 811
f 1000 1001 1002
f 1000 1003 1001
f 1004 274 1005
f 795 664 1006
f 1007 1008 1009
f 712 797 745
f 1006 666 799
f 495 744 496
f 1010 811 813
f 358 296 318
f 996 787 997
f 796 795 1006
f 840 996 842
f 857 858 782
f 1011 973 1005
f 989 293 883
f 768 848 712
f 760 928 157
f 808 783 764
f 796 1006 838
f 495 859 744
f 866 873 754
f 790 768 711
f 1008 1012 1009
f 838 1006 799
f 787 786 881
f 1013 1014 777
f 998 997 1010
f 921 181 483
f 665 1015 786
f 294 296 681
f 760 157 156
f 712 848 797
f 858 859 495
f 247 1016 930
f 1016 247 1017
f 703 728 738
f 484 941 164
f 774 924 211
f 782 858 495
f 778 760 156
f 766 808 809
f 777 1014 920
f 962 783 808
f 145 249 721
f 869 857 781
f 800 1013 776
f 746 701 785
f 918 718 714
f 848 866 797
f 1016 922 930
f 248 181 921
f 945 921 158
f 731 730 891
f 246 443 763
f 486 489 487
f 941 1017 247
f 792 784 873
f 1018 275 274
f 997 881 811
f 156 155 213
f 765 962 766
f 496 744 743
f 881 999 811
f 926 781 962
f 838 799 840
f 1014 755 920
f 805 460 168
f 231 140 171
f 134 133 185
f 220 191 221
f 230 220 498
f 200 231 230
f 248 137 181
f 142 1019 172
f 150 461 462
f 144 479 208
f 213 140 231
f 142 493 1019
f 493 462 184
f 493 184 1019
f 997 811 1010
f 188 190 260
f 214 499 134
f 808 764 779
f 157 161 149
f 214 134 461
f 852 967 1020
f 787 881 997
f 999 880 923
f 880 999 881
f 1021 955 1022
f 230 191 220
f 141 493 142
f 211 212 200
f 671 1023 1024
f 813 812 1016
f 302 304 354
f 131 204 132
f 1025 1022 1026
f 1027 955 957
f 499 202 131
f 312 836 291
f 237 202 499
f 740 742 791
f 162 461 150
f 212 156 213
f 166 190 146
f 689 953 690
f 1028 993 1029
f 880 1015 935
f 1015 880 786
f 967 1030 1021
f 1022 955 1027
f 1031 1032 1033
f 1020 1022 1025
f 966 1034 1030
f 276 820 823
f 1035 1036 330
f 1036 1035 1037
f 967 1021 1020
f 1038 1039 1040
f 1041 841 1032
f 1037 1035 1038
f 852 1020 850
f 676 961 810
f 850 1020 1025
f 1034 1038 1030
f 1029 671 1042
f 661 648 1043
f 1023 1031 1044
f 1028 1045 1046
f 1029 669 671
f 709 1047 309
f 649 660 661
f 680 709 309
f 640 639 641
f 1031 1041 1032
f 851 1025 1026
f 1047 662 1048
f 275 820 276
f 820 995 821
f 1043 648 1049
f 1020 1021 1022
f 670 1023 671
f 1030 1038 1040
f 995 346 837
f 915 201 655
f 201 915 199
f 1050 631 641
f 980 1028 1046
f 1028 980 342
f 638 1049 639
f 319 649 1051
f 1047 645 662
f 639 1050 641
f 353 1052 734
f 1053 1050 639
f 657 655 656
f 310 1048 658
f 1048 310 309
f 1043 1049 638
f 652 367 653
f 367 1054 653
f 1049 1053 639
f 914 654 637
f 649 661 1051
f 274 276 1041
f 1051 661 1043
f 1055 1047 709
f 1051 1043 1052
f 1047 1048 309
f 367 366 1054
f 318 637 649
f 648 647 1049
f 1028 1029 1045
f 346 187 824
f 187 346 159
f 296 914 637
f 915 655 657
f 647 1053 1049
f 319 1051 353
f 306 199 915
f 199 306 211
f 658 662 368
f 662 658 1048
f 1055 645 1047
f 1056 640 1055
f 1041 276 841
f 661 646 648
f 368 633 369
f 633 368 662
f 353 1051 1052
f 1055 640 645
f 1052 1043 638
f 1052 638 1056
f 637 654 660
f 646 644 647
f 965 469 846
f 422 424 402
f 1021 1040 955
f 847 965 846
f 471 497 941
f 497 471 470
f 708 960 676
f 1030 1040 1021
f 835 255 834
f 961 1057 362
f 802 423 1058
f 485 188 260
f 188 485 491
f 675 708 676
f 218 949 219
f 818 770 816
f 951 720 943
f 241 255 927
f 1057 958 312
f 474 400 399
f 418 419 474
f 420 422 802
f 434 436 437
f 400 428 401
f 1059 705 457
f 1060 1059 433
f 437 435 1061
f 694 381 413
f 436 456 727
f 456 436 434
f 938 169 459
f 384 1058 385
f 450 431 451
f 1005 274 1041
f 691 692 1062
f 1034 1037 1038
f 850 1025 851
f 1023 1044 1024
f 294 409 685
f 409 294 682
f 464 439 441
f 671 1063 1042
f 419 430 427
f 690 1064 1065
f 671 1024 1063
f 953 1046 954
f 432 444 378
f 690 954 1064
f 430 434 437
f 957 956 1066
f 385 691 1062
f 1067 1068 1057
f 853 966 854
f 961 1067 1057
f 1067 1069 1068
f 1039 1035 302
f 1035 1039 1038
f 1068 958 1057
f 346 824 837
f 833 829 359
f 1065 1064 1069
f 988 882 991
f 960 1065 1067
f 297 285 284
f 995 837 821
f 299 822 300
f 822 299 351
f 960 1067 961
f 1001 970 344
f 854 967 852
f 708 688 960
f 360 340 361
f 1029 1042 1045
f 1031 1033 1044
f 1065 1069 1067
f 1018 1002 275
f 362 1057 312
f 956 1039 354
f 1039 956 1040
f 829 333 338
f 1005 1041 1031
f 688 1065 960
f 825 829 833
f 1026 1022 1027
f 825 333 829
f 966 1030 967
f 1002 1070 275
f 1006 664 666
f 973 1004 1005
f 1009 1018 1004
f 1071 1000 1012
f 688 690 1065
f 1002 1001 1070
f 991 882 884
f 1040 956 955
f 1012 1002 1018
f 972 1004 973
f 883 265 994
f 972 1009 1004
f 797 866 754
f 666 665 786
f 994 265 678
f 970 345 344
f 191 192 221
f 1011 1005 1031
f 920 755 757
f 884 883 994
f 1007 1009 972
f 162 214 461
f 150 462 493
f 776 1013 777
f 208 479 455
f 1072 683 1073
f 683 1072 1074
f 391 364 383
f 352 674 381
f 388 680 389
f 414 697 388
f 697 680 388
f 1061 435 1075
f 307 667 305
f 1035 330 302
f 406 401 1076
f 1039 302 354
f 966 1077 1034
f 1078 1079 665
f 1072 1073 1037
f 478 489 479
f 500 487 478
f 354 1066 956
f 706 1076 707
f 1076 706 406
f 853 1080 1077
f 1080 853 845
f 381 674 413
f 1073 308 1036
f 836 1032 828
f 456 458 727
f 209 473 481
f 1076 428 1081
f 413 695 414
f 1079 500 952
f 500 1079 488
f 853 1077 966
f 1060 957 1059
f 957 1060 1027
f 396 1027 1060
f 1027 396 1026
f 186 183 983
f 938 937 447
f 1063 1068 1069
f 1064 1042 1069
f 1077 1072 1034
f 828 841 357
f 1063 1024 1068
f 1034 1072 1037
f 428 1061 1081
f 457 705 458
f 414 695 697
f 435 343 980
f 1032 841 828
f 954 1045 1064
f 823 822 351
f 361 964 847
f 964 361 340
f 953 980 1046
f 980 953 1075
f 794 1082 795
f 308 330 1036
f 1081 1061 1075
f 473 780 481
f 489 1083 479
f 958 1033 836
f 1075 435 980
f 707 1081 689
f 1081 707 1076
f 1033 1032 836
f 401 428 1076
f 183 182 465
f 1045 1042 1064
f 837 824 348
f 780 938 446
f 664 1078 665
f 182 139 984
f 689 1075 953
f 1075 689 1081
f 446 938 447
f 187 186 257
f 349 187 987
f 187 349 824
f 1024 1044 1068
f 479 1083 455
f 1042 1063 1069
f 795 1082 664
f 447 937 138
f 1068 1044 958
f 821 837 827
f 841 823 357
f 665 1079 1015
f 481 780 446
f 935 1015 952
f 487 489 478
f 1046 1045 954
f 455 473 209
f 1079 952 1015
f 812 922 1016
f 822 821 300
f 1082 1078 664
f 1037 1073 1036
f 1044 1033 958
f 946 788 947
f 497 1017 941
f 340 1084 964
f 1084 340 339
f 441 438 1085
f 1085 438 932
f 932 438 440
f 440 439 484
f 1078 488 1079
f 488 1078 936
f 985 138 937
f 732 472 718
f 463 441 839
f 455 1083 473
f 339 987 1084
f 987 339 349
f 839 441 1085
f 1082 936 1078
f 936 1082 939
f 794 939 1082
f 939 794 819
f 732 718 918
f 923 880 935
f 947 788 789
f 167 146 197
f 471 941 484
f 444 813 448
f 813 444 1010
f 193 225 194
f 449 998 432
f 998 449 842
f 959 143 145
f 999 923 922
f 432 1010 444
f 1010 432 998
f 789 195 687
f 814 225 940
f 448 1016 1017
f 1016 448 813
f 138 985 139
f 842 996 998
f 271 982 269
f 982 271 521
f 909 507 913
f 507 909 506
f 365 651 366
f 975 1086 725
f 355 1087 704
f 1087 355 968
f 295 657 914
f 1088 373 1089
f 659 370 635
f 310 658 659
f 968 1088 1087
f 1088 968 636
f 674 353 734
f 1012 1000 1002
f 969 1090 1091
f 341 1091 342
f 310 659 303
f 1089 969 1091
f 371 1092 372
f 345 159 346
f 159 345 160
f 373 969 1089
f 670 679 1011
f 1003 963 970
f 963 1003 816
f 816 1003 817
f 422 402 802
f 969 990 1090
f 991 884 1093
f 1087 1089 726
f 385 1062 1094
f 415 377 416
f 635 975 722
f 1093 884 993
f 1092 992 372
f 386 385 1094
f 976 1086 975
f 266 1095 971
f 993 669 1029
f 636 724 1088
f 724 636 722
f 369 632 974
f 1008 1071 1012
f 670 1011 1023
f 411 374 377
f 424 694 403
f 930 223 814
f 873 784 754
f 423 387 691
f 147 243 148
f 1094 1062 1080
f 737 703 738
f 249 208 472
f 420 802 801
f 1062 692 1074
f 673 374 411
f 394 856 673
f 405 394 410
f 872 375 374
f 167 197 196
f 940 225 193
f 752 959 145
f 404 414 388
f 1080 1062 1074
f 759 747 749
f 393 856 394
f 390 412 391
f 802 402 423
f 946 193 788
f 422 421 425
f 694 426 382
f 793 393 392
f 673 872 374
f 386 1094 845
f 189 164 163
f 810 961 362
f 146 148 197
f 411 377 415
f 845 1094 1080
f 856 872 673
f 427 437 1061
f 408 710 684
f 410 673 411
f 426 392 405
f 1058 423 691
f 396 1060 429
f 752 145 720
f 425 392 426
f 433 1059 457
f 442 473 1083
f 427 1061 428
f 451 378 380
f 1074 692 683
f 390 410 412
f 449 432 431
f 429 1060 433
f 803 1058 384
f 624 861 886
f 861 624 623
f 618 888 894
f 888 618 616
f 1011 1031 1023
f 613 871 877
f 871 613 612
f 275 1070 820
f 1070 995 820
f 883 293 265
f 1070 344 995
f 994 678 669
f 730 743 798
f 266 971 267
f 1001 344 1070
f 1071 1096 1000
f 354 355 1066
f 601 1097 889
f 1097 601 600
f 882 989 883
f 267 971 679
f 730 798 891
f 1098 502 910
f 502 1098 503
f 719 210 445
f 940 193 946
f 772 762 819
f 751 720 951
f 198 148 216
f 239 459 240
f 231 171 191
f 482 499 214
f 781 857 782
f 964 1099 965
f 194 715 717
f 171 172 192
f 195 194 686
f 163 165 242
f 200 213 231
f 251 949 218
f 963 158 160
f 154 175 152
f 175 154 173
f 720 721 943
f 945 158 963
f 469 468 849
f 255 477 834
f 890 503 1098
f 503 890 586
f 443 1083 489
f 750 256 770
f 465 984 466
f 984 465 182
f 254 509 1100
f 509 254 253
f 736 229 248
f 258 252 467
f 983 250 258
f 1101 241 927
f 1101 927 949
f 721 732 917
f 1100 510 977
f 510 1100 509
f 834 477 843
f 1013 839 1014
f 839 1013 832
f 702 933 931
f 442 1083 443
f 251 1101 949
f 257 983 258
f 983 257 186
f 477 460 805
f 176 912 174
f 912 176 513
f 773 924 774
f 1014 1085 755
f 1085 1014 839
f 228 445 236
f 748 728 944
f 1084 259 1099
f 985 937 239
f 987 257 259
f 460 169 168
f 749 748 934
f 728 702 931
f 258 250 252
f 305 211 306
f 211 305 774
f 778 761 760
f 459 460 240
f 731 891 928
f 450 451 480
f 702 757 933
f 986 239 241
f 800 832 1013
f 832 800 476
f 984 986 466
f 250 466 251
f 245 170 442
f 317 364 391
f 466 986 1101
f 985 239 986
f 943 721 917
f 240 460 477
f 1099 467 469
f 305 767 774
f 767 305 668
f 488 487 500
f 943 917 916
f 938 780 169
f 758 749 919
f 929 758 919
f 924 809 807
f 1099 469 965
f 364 352 383
f 1084 1099 964
f 259 467 1099
f 467 252 468
f 755 932 756
f 932 755 1085
f 466 1101 251
f 448 1017 497
f 987 259 1084
f 379 497 470
f 986 241 1101
f 252 218 468
f 473 170 780
f 891 758 929
f 391 672 317
f 680 311 389
f 681 682 294
f 934 748 925
f 1059 1066 705
f 1066 1059 957
f 700 869 926
f 869 700 699
f 358 417 681
f 383 352 381
f 710 926 765
f 926 710 700
f 668 765 767
f 765 668 710
f 1073 311 308
f 311 1073 683
f 1077 1074 1072
f 1074 1077 1080
f 975 725 722
f 342 1102 1028
f 1102 342 1103
f 724 373 1088
f 669 678 670
f 1103 1093 1102
f 1093 1103 1090
f 1089 1091 341
f 1087 726 704
f 1104 1092 371
f 726 341 727
f 884 994 993
f 1095 972 971
f 803 802 1058
f 704 726 458
f 723 1104 724
f 684 668 667
f 372 992 990
f 735 810 335
f 1091 1103 342
f 677 810 735
f 372 990 969
f 677 676 810
f 1088 1089 1087
f 387 389 692
f 1102 993 1028
f 424 403 402
f 692 389 683
f 678 679 670
f 724 371 373
f 679 973 1011
f 1093 993 1102
f 724 1104 371
f 1090 991 1093
f 991 1090 990
f 382 390 383
f 377 407 416
f 1009 1012 1018
f 1058 691 385
f 694 382 381
f 1066 704 705
f 704 1066 355
f 422 425 424
f 376 698 407
f 1096 817 1003
f 817 1096 815
f 650 693 651
f 693 650 663
f 982 1105 269
f 1105 982 1106
f 1106 982 1107
f 1106 1107 1108
f 1107 982 1109
f 1109 982 1110
f 1110 982 871
f 871 982 877
f 877 982 981
f 877 981 878
f 878 981 273
f 878 273 888
f 888 273 263
f 888 263 894
f 894 263 262
f 894 262 860
f 860 262 907
f 860 907 861
f 861 907 279
f 861 279 886
f 886 279 278
f 886 278 887
f 887 278 979
f 887 979 321
f 321 979 978
f 321 978 322
f 322 978 879
f 322 879 290
f 290 879 314
f 290 314 288
f 288 314 316
f 288 316 902
f 902 316 899
f 902 899 901
f 901 899 900
f 901 900 876
f 876 900 892
f 876 892 875
f 875 892 893
f 875 893 327
f 327 893 903
f 327 903 325
f 325 903 904
f 910 890 1098
f 890 910 908
f 890 908 865
f 865 908 909
f 865 909 864
f 864 909 913
f 864 913 868
f 868 913 232
f 868 232 867
f 867 232 234
f 867 234 874
f 874 234 254
f 874 254 896
f 896 254 1100
f 896 1100 1111
f 1111 1100 977
f 1111 977 897
f 897 977 906
f 897 906 898
f 898 906 153
f 898 153 1112
f 1112 153 152
f 1112 152 1097
f 1097 152 175
f 1097 175 889
f 889 175 174
f 889 174 885
f 885 174 912
f 885 912 862
f 862 912 911
f 862 911 863
f 863 911 905
f 863 905 895
f 895 905 270
f 895 270 870
f 870 270 269
f 870 269 1113
f 870 1113 871
f 1113 269 1105
f 871 1113 1108
f 871 1108 1114
f 1114 1108 1107
f 871 1114 1110
f 259 258 467
f 244 246 762
f 252 251 218
f 245 442 246
f 760 731 928
f 807 779 778
f 395 1026 396
f 1026 395 851
f 748 944 925
f 526 279 907
f 279 526 277
f 341 343 727
f 699 562 869
f 562 699 561
f 679 971 973
f 1095 1007 972
f 926 962 765
f 1096 1003 1000
f 1003 970 1001
f 598 898 1112
f 898 598 597
f 540 803 384
f 803 540 541
f 609 863 895
f 863 609 607
f 840 799 996
f 868 589 864
f 589 868 590
f 681 296 358
f 799 787 996
f 265 267 678
f 596 1111 897
f 1111 596 595
f 600 1112 1097
f 1112 600 598
f 1004 1018 274
f 1111 594 896
f 594 1111 595
f 368 370 659
f 369 974 370
f 1056 638 640
f 656 650 365
f 914 652 654
f 657 652 914
f 635 722 636
f 734 1052 1056
f 657 656 652
f 696 1056 1055
f 696 1055 709
f 304 968 355
f 303 634 304
f 660 642 646
f 370 975 635
f 659 635 634
f 974 976 975
f 697 696 709
f 654 642 660
f 653 1054 643
f 642 644 646
f 634 968 304
f 734 1056 696
f 726 1089 341
f 1091 1090 1103
f 1071 815 1096
f 815 1071 818
f 818 1071 750
f 750 1071 1008
f 750 1008 207
f 207 1008 1007
f 207 1007 179
f 179 1007 1095
f 179 1095 177
f 177 1095 266
f 177 266 753
f 753 266 293
f 753 293 916
f 916 293 989
f 916 989 942
f 942 989 988
f 942 988 950
f 950 988 992
f 950 992 687
f 687 992 1092
f 687 1092 789
f 789 1092 1104
f 789 1104 947
f 947 1104 723
f 947 723 948
f 948 723 725
f 948 725 215
f 215 725 1086
f 215 1086 216
f 216 1086 976
f 216 976 198
f 198 976 632
f 198 632 196
f 196 632 631
f 196 631 492
f 492 631 1050
f 492 1050 136
f 136 1050 1053
f 136 1053 135
f 135 1053 647
f 135 647 184
f 184 647 644
f 184 644 1019
f 1019 644 643
f 1019 643 172
f 172 643 1054
f 172 1054 192
f 192 1054 366
f 192 366 221
f 221 366 651
f 221 651 693
f 221 693 222

