# https://github.com/mikedh/trimesh
v -0.01760681 -0.01610766 0.00012459
v -0.01760681 -0.01760766 0.00012459
v -0.00010681 -0.01685765 0.00012459
v 0.01739319 -0.01760765 0.00012459
v 0.01739319 -0.01610766 0.00012459
v -0.01760682 0.01589235 0.00012459
v 0.01739318 0.01589235 0.00012459
v -0.00010681 0.01664234 0.00012459
v 0.01739318 0.01739234 0.00012459
v -0.01760682 0.01739234 0.00012459
v -0.01760682 0.01739234 -0.00837540
v 0.01739318 0.01739234 -0.00837540
v 0.01739318 0.01589235 -0.00687541
v -0.01760682 0.01589235 -0.00687541
v 0.01739319 -0.01760765 -0.00837542
v -0.01760681 -0.01760766 -0.00837540
v 0.01739319 -0.01610766 -0.00687541
v -0.01760681 -0.01610766 -0.00687541
v -0.01453957 0.01162880 -0.01217989
v -0.01583957 0.01292881 -0.01347989
v -0.01583957 0.00282931 -0.02135576
v -0.01583957 -0.01307443 -0.02135576
v -0.01453957 -0.01437443 -0.02135576
v 0.01389188 -0.01437443 -0.02107185
v 0.01389188 -0.01437443 -0.01347989
v -0.01323957 -0.01307443 -0.01217989
v 0.01389188 -0.01281443 -0.03725536
v 0.01519188 -0.01288435 -0.03902436
v 0.01519188 -0.01391524 -0.03799374
v 0.01389188 -0.01214603 -0.03792393
v 0.01519188 -0.00917418 -0.03948393
v 0.01389188 -0.01152217 -0.03818020
v 0.01389188 -0.00940492 -0.03815855
v 0.01259188 0.01162880 -0.01217989
v 0.01259188 0.01422881 -0.01347989
v 0.01129188 0.01292881 -0.01217989
v 0.01389188 0.01292881 -0.01347989
v 0.01389188 -0.00813394 -0.03725554
v 0.01519188 -0.00806452 -0.03902436
v 0.01389188 -0.00880251 -0.03792394
v 0.01519188 -0.00703362 -0.03799374
v 0.01259188 -0.00432145 -0.04823716
v -0.01453957 -0.00527243 -0.05053523
v 0.01259188 -0.00527243 -0.05053523
v -0.01453957 -0.00432145 -0.04823716
v 0.01389188 -0.01307444 -0.03184069
v 0.01389188 -0.01307444 -0.03662754
v 0.01389188 -0.00787394 -0.03184069
v 0.01389188 -0.00787394 -0.03662796
v 0.01519188 -0.01437443 -0.03688368
v 0.02039259 -0.01152217 -0.03818020
v 0.02039259 -0.01214603 -0.03792393
v 0.01909260 -0.01177468 -0.03948392
v 0.01259188 0.01032784 -0.04143373
v 0.01389188 0.00902783 -0.03302423
v 0.01389188 0.00902783 -0.04117529
v 0.01259188 0.01032784 -0.03363318
v 0.01259188 0.00152931 -0.02614770
v 0.00949891 -0.00657395 -0.02614770
v 0.00649015 0.00152931 -0.02614770
v 0.01779260 -0.00657395 -0.02614770
v 0.01909260 -0.01437443 -0.03688368
v 0.01909260 -0.01391524 -0.03799374
v -0.01453957 0.00287508 -0.04104022
v -0.01583957 -0.00321919 -0.04897336
v -0.01583957 0.00397723 -0.04177655
v -0.01583957 0.00827409 -0.04299630
v -0.01453957 0.00027531 -0.05283397
v -0.01583957 -0.00046093 -0.05173167
v -0.01453957 0.00937628 -0.04373254
v 0.02039259 -0.01307444 -0.03662754
v 0.01909260 -0.01437443 -0.02665911
v 0.02039259 -0.01307444 -0.02744773
v 0.01389188 0.00512718 -0.03013976
v 0.01259188 0.00382719 -0.03874088
v 0.01389188 0.00512718 -0.03899939
v 0.01259188 0.00382719 -0.03046424
v 0.01950687 -0.01307444 -0.02519615
v 0.01389188 -0.01307444 -0.01916380
v 0.01389188 -0.00321919 -0.04897336
v 0.01259188 0.00287508 -0.04104022
v 0.01389188 0.00397723 -0.04177655
v 0.01259188 0.00027531 -0.05283397
v 0.01259188 0.00937628 -0.04373254
v 0.01389188 0.01292881 -0.02977408
v 0.01259188 0.01422881 -0.03038306
v 0.01389188 0.00245465 -0.02511944
v 0.01389188 -0.00538819 -0.01994599
v 0.01876943 -0.00538819 -0.02518607
v -0.01453957 0.00152931 -0.02265577
v -0.01583957 0.00282931 -0.02614770
v -0.01453957 0.00152931 -0.02614770
v 0.01950687 -0.00787394 -0.02519615
v 0.01389188 -0.00787394 -0.01916380
v 0.01519188 -0.01177468 -0.03948392
v 0.01519188 -0.00657395 -0.03688417
v 0.01909260 -0.00703362 -0.03799374
v 0.01909260 -0.00657395 -0.03688417
v 0.01519188 -0.00657395 -0.03184069
v 0.01909260 -0.01288435 -0.03902436
v -0.01453957 0.01032784 -0.03363318
v -0.01453957 0.01032784 -0.04143373
v 0.01259188 -0.01307444 -0.01217989
v 0.01909260 -0.00806452 -0.03902436
v 0.01909260 -0.00917418 -0.03948393
v 0.02039259 -0.00787394 -0.02744773
v 0.01389188 -0.00373920 -0.05022999
v 0.02039259 -0.00787394 -0.03662796
v 0.02039259 -0.00813394 -0.03725554
v 0.01389188 0.00827409 -0.04299630
v 0.01389188 -0.00046093 -0.05173167
v 0.01389188 -0.00171751 -0.05225166
v 0.01259188 -0.00202277 -0.05378492
v -0.01453957 -0.00202277 -0.05378492
v -0.01453957 0.01422881 -0.03038306
v -0.01453957 0.01422881 -0.01347989
v -0.01323957 0.01292881 -0.01217989
v 0.00470695 -0.00787394 -0.02265577
v 0.00470695 -0.00657395 -0.02265577
v -0.01583957 0.00512718 -0.03046424
v -0.01583957 0.00902783 -0.03302423
v -0.01583957 0.00902783 -0.04117529
v -0.01583957 0.01292881 -0.02977408
v -0.01583957 -0.00171751 -0.05225166
v -0.01583957 -0.00373920 -0.05022999
v -0.01583957 0.00512718 -0.03899939
v -0.01453957 0.00382719 -0.03874088
v -0.01453957 0.00382719 -0.03046424
v 0.02039259 -0.01281443 -0.03725536
v 0.02039259 -0.00940492 -0.03815855
v 0.02039259 -0.00880251 -0.03792394
v 0.00169819 0.00152931 -0.02265577
v 0.00470695 -0.01437443 -0.02135576
v 0.01519188 -0.01437443 -0.03184069
v 0.00470695 -0.01307443 -0.02265577
v 0.01909260 -0.00657395 -0.02744773
v -0.01453957 -0.01307443 -0.02265577
f 1 2 3
f 3 2 4
f 3 4 5
f 5 1 3
f 6 7 8
f 8 7 9
f 8 9 10
f 10 6 8
f 11 10 9
f 11 9 12
f 13 7 6
f 13 6 14
f 15 4 2
f 15 2 16
f 16 11 12
f 16 12 15
f 17 13 14
f 17 14 18
f 5 4 17
f 17 4 15
f 17 15 12
f 17 12 13
f 13 12 9
f 13 9 7
f 6 10 14
f 14 10 11
f 14 11 16
f 14 16 18
f 18 16 2
f 18 2 1
f 17 18 1
f 17 1 5
f 19 20 21
f 21 22 23
f 23 24 25
f 26 19 21
f 23 25 26
f 21 23 26
f 27 28 29
f 28 27 30
f 31 32 33
f 34 35 36
f 35 34 37
f 38 39 40
f 39 38 41
f 42 43 44
f 43 42 45
f 46 27 47
f 27 46 48
f 27 48 30
f 30 48 32
f 32 48 33
f 33 48 40
f 40 48 38
f 38 48 49
f 47 29 50
f 29 47 27
f 51 52 53
f 54 55 56
f 55 54 57
f 58 59 60
f 59 58 61
f 62 29 63
f 29 62 50
f 64 65 45
f 65 64 66
f 67 68 69
f 68 67 70
f 71 72 62
f 72 71 73
f 74 75 76
f 75 74 77
f 78 24 72
f 24 78 79
f 80 81 42
f 81 80 82
f 70 83 68
f 83 70 84
f 35 85 86
f 85 35 37
f 87 88 89
f 90 91 92
f 91 90 21
f 93 79 78
f 79 93 94
f 82 75 81
f 75 82 76
f 95 28 30
f 32 95 30
f 96 97 41
f 97 96 98
f 48 96 49
f 96 48 99
f 53 28 95
f 28 53 100
f 101 54 102
f 54 101 57
f 25 34 103
f 34 25 37
f 104 31 39
f 31 104 105
f 81 45 42
f 45 81 64
f 106 78 73
f 78 106 93
f 107 42 44
f 42 107 80
f 53 52 100
f 97 108 109
f 108 97 98
f 83 110 111
f 110 83 84
f 89 94 93
f 94 89 88
f 83 112 113
f 112 83 111
f 78 72 73
f 84 56 110
f 56 84 54
f 83 114 68
f 114 83 113
f 31 95 32
f 86 101 115
f 101 86 57
f 49 41 38
f 41 49 96
f 19 116 20
f 116 19 117
f 102 84 70
f 84 102 54
f 59 118 119
f 21 20 120
f 120 20 121
f 120 121 67
f 67 121 122
f 121 20 123
f 65 124 125
f 124 65 66
f 124 66 69
f 69 66 67
f 67 66 126
f 67 126 120
f 120 91 21
f 127 120 126
f 120 127 128
f 57 85 55
f 85 57 86
f 39 31 40
f 97 39 41
f 39 97 104
f 129 73 71
f 73 129 106
f 106 129 52
f 106 52 51
f 106 51 130
f 106 130 131
f 106 131 109
f 106 109 108
f 40 31 33
f 132 92 60
f 92 132 90
f 75 64 81
f 64 75 127
f 26 25 103
f 112 80 107
f 80 112 82
f 82 112 111
f 82 111 110
f 82 110 76
f 76 110 74
f 79 25 24
f 25 79 37
f 37 79 94
f 37 94 88
f 37 88 87
f 37 87 74
f 37 74 55
f 55 74 110
f 55 110 56
f 37 55 85
f 118 99 48
f 99 118 59
f 122 70 67
f 70 122 102
f 127 66 64
f 66 127 126
f 105 130 51
f 105 51 53
f 105 95 31
f 95 105 53
f 19 26 117
f 117 26 103
f 117 103 36
f 36 103 34
f 133 46 134
f 46 133 135
f 77 87 58
f 87 77 74
f 60 119 132
f 119 60 59
f 98 106 108
f 106 98 136
f 135 48 46
f 48 135 118
f 92 120 128
f 120 92 91
f 77 127 75
f 127 77 128
f 90 22 21
f 22 90 137
f 132 137 90
f 137 132 135
f 135 132 119
f 135 119 118
f 22 137 23
f 123 116 115
f 116 123 20
f 117 35 116
f 35 117 36
f 122 101 102
f 101 122 121
f 58 128 77
f 128 58 92
f 92 58 60
f 104 109 131
f 109 104 97
f 45 125 43
f 125 45 65
f 63 71 62
f 71 63 129
f 124 68 114
f 68 124 69
f 123 101 121
f 101 123 115
f 134 47 50
f 47 134 46
f 116 25 35
f 35 25 37
f 100 29 28
f 29 100 63
f 100 129 63
f 129 100 52
f 125 114 43
f 114 125 124
f 113 107 44
f 107 113 112
f 133 137 135
f 137 133 23
f 99 98 96
f 98 99 136
f 136 99 59
f 136 59 61
f 104 131 105
f 131 130 105
f 72 50 62
f 50 72 134
f 134 72 133
f 133 72 24
f 133 24 23
f 44 114 113
f 114 44 43
f 116 86 115
f 86 116 35
f 87 61 58
f 61 87 89
f 89 136 61
f 89 93 106
f 89 106 136

