# https://github.com/mikedh/trimesh
v -0.00461940 0.01899931 -0.04108658
v -0.00500001 0.01899931 -0.04299998
v -0.00500001 0.02099932 -0.04299998
v -0.00461940 0.02099932 -0.04108658
v -0.00353550 0.01899931 -0.03946447
v -0.00353550 0.02099932 -0.03946447
v -0.00191340 0.01899931 -0.03838059
v -0.00191340 0.02099932 -0.03838059
v -0.00000000 0.01899931 -0.03799998
v -0.00000000 0.02099932 -0.03799998
v 0.00191340 0.01899931 -0.03838059
v 0.00191340 0.02099932 -0.03838059
v 0.00353550 0.01899931 -0.03946447
v 0.00353550 0.02099932 -0.03946447
v 0.00461940 0.01899931 -0.04108658
v 0.00461940 0.02099932 -0.04108658
v 0.00500000 0.01899931 -0.04299998
v 0.00500000 0.02099932 -0.04299998
v -0.01100001 0.01899931 -0.02399999
v -0.01100001 0.01899931 -0.02199998
v -0.01100001 0.02099932 -0.02199998
v -0.01100001 0.02099932 -0.02399999
v -0.01100000 -0.00000070 -0.02399999
v -0.01100000 -0.00000070 -0.02199998
v -0.01100000 -0.01900070 -0.02399999
v -0.01100000 -0.01900070 -0.02199998
v -0.01100000 -0.02100069 -0.02399999
v -0.01100000 -0.02100069 -0.02199998
v 0.01100000 0.01899931 -0.02199998
v 0.01100000 0.01899931 -0.02399999
v 0.01100000 0.02099932 -0.02399999
v 0.01100000 0.02099932 -0.02199998
v 0.01100000 -0.00000070 -0.02199998
v 0.01100000 -0.00000070 -0.02399999
v 0.01100000 -0.01900070 -0.02199998
v 0.01100000 -0.01900070 -0.02399999
v 0.01100000 -0.02100069 -0.02199998
v 0.01100000 -0.02100069 -0.02399999
v 0.01100000 0.01899931 -0.03399998
v 0.01100000 0.02099932 -0.03399998
v -0.01100001 0.02099932 -0.03399998
v -0.01100001 0.01899931 -0.03399998
v 0.01100000 -0.02100069 -0.03399998
v 0.01100000 -0.01900070 -0.03399998
v -0.01100000 -0.01900070 -0.03399998
v -0.01100000 -0.02100069 -0.03399998
v -0.00500000 -0.02100069 -0.04299998
v -0.00500000 -0.01900070 -0.04299998
v -0.00461940 -0.01900070 -0.04108658
v -0.00461940 -0.02100069 -0.04108658
v -0.00353550 -0.01900070 -0.03946447
v -0.00353550 -0.02100069 -0.03946447
v -0.00191340 -0.01900070 -0.03838059
v -0.00191340 -0.02100069 -0.03838059
v -0.00000000 -0.01900070 -0.03799998
v -0.00000000 -0.02100069 -0.03799998
v 0.00191340 -0.01900070 -0.03838059
v 0.00191340 -0.02100069 -0.03838059
v 0.00353550 -0.01900070 -0.03946447
v 0.00353550 -0.02100069 -0.03946447
v 0.00461940 -0.01900070 -0.04108658
v 0.00461940 -0.02100069 -0.04108658
v 0.00500000 -0.01900070 -0.04299998
v 0.00500000 -0.02100069 -0.04299998
v 0.01100000 0.01899931 -0.04299998
v 0.01100000 0.02099932 -0.04299998
v -0.01100001 0.02099932 -0.04299998
v -0.01100001 0.01899931 -0.04299998
v -0.01100000 -0.01900070 -0.04299998
v -0.01100000 -0.02100069 -0.04299998
v 0.01100000 -0.02100069 -0.04299998
v 0.01100000 -0.01900070 -0.04299998
v -0.00362920 -0.00000070 -0.02399999
v -0.00362920 0.01899931 -0.02399999
v -0.00000000 0.01899931 -0.02399999
v -0.00000000 -0.00000070 -0.02399999
v -0.00362920 -0.01900070 -0.02399999
v -0.00000000 -0.01900070 -0.02399999
v -0.00362920 0.01899931 -0.02199998
v -0.00000000 0.01899931 -0.02199998
v -0.00000000 0.02099932 -0.02199998
v -0.00362920 0.02099932 -0.02199998
v -0.00362920 -0.00000070 -0.02199998
v -0.00000000 -0.00000070 -0.02199998
v -0.00362920 -0.01900070 -0.02199998
v -0.00000000 -0.01900070 -0.02199998
v -0.00362920 -0.02100069 -0.02199998
v -0.00000000 -0.02100069 -0.02199998
v -0.00362920 0.02099932 -0.02399999
v -0.00000000 0.02099932 -0.02399999
v -0.00362920 -0.02100069 -0.02399999
v -0.00000000 -0.02100069 -0.02399999
v -0.00000000 0.02099932 -0.03399998
v -0.00362920 0.02099932 -0.03399998
v -0.00362920 0.01899931 -0.03399998
v -0.00000000 0.01899931 -0.03399998
v -0.00000000 -0.01900070 -0.03399998
v -0.00362920 -0.01900070 -0.03399998
v -0.00362920 -0.02100069 -0.03399998
v -0.00000000 -0.02100069 -0.03399998
v 0.00349320 -0.00000070 -0.02399999
v 0.00349320 0.01899931 -0.02399999
v 0.00349320 -0.01900070 -0.02399999
v 0.00349320 0.01899931 -0.02199998
v 0.00349320 0.02099932 -0.02199998
v 0.00349320 -0.00000070 -0.02199998
v 0.00349320 -0.01900070 -0.02199998
v 0.00349320 -0.02100069 -0.02199998
v 0.00349320 0.02099932 -0.02399999
v 0.00349320 -0.02100069 -0.02399999
v 0.00349320 0.02099932 -0.03399998
v 0.00349320 0.01899931 -0.03399998
v 0.00349320 -0.01900070 -0.03399998
v 0.00349320 -0.02100069 -0.03399998
v 0.00500000 -0.02100069 -0.04499998
v 0.01100000 -0.02100069 -0.04499998
v 0.01100000 -0.01900070 -0.04499998
v 0.00500000 -0.01900070 -0.04499998
v -0.01100000 -0.02100069 -0.04499998
v -0.00500000 -0.02100069 -0.04499998
v -0.00500000 -0.01900070 -0.04499998
v -0.01100000 -0.01900070 -0.04499998
v 0.00500000 0.02099932 -0.04499998
v 0.00500000 0.01899931 -0.04499998
v 0.01100000 0.01899931 -0.04499998
v 0.01100000 0.02099932 -0.04499998
v -0.01100001 0.02099932 -0.04499998
v -0.01100001 0.01899931 -0.04499998
v -0.00500001 0.01899931 -0.04499998
v -0.00500001 0.02099932 -0.04499998
v -0.01900000 0.00461870 -0.00191339
v -0.01900000 0.00499931 0.00000000
v -0.02100001 0.00499931 0.00000000
v -0.02100001 0.00461870 -0.00191339
v -0.01900000 0.00353481 -0.00353551
v -0.02100001 0.00353481 -0.00353551
v -0.01900000 0.00191270 -0.00461939
v -0.02100001 0.00191270 -0.00461939
v -0.01900000 -0.00000070 -0.00499999
v -0.02100000 -0.00000070 -0.00499999
v -0.01900000 -0.00191409 -0.00461939
v -0.02100000 -0.00191409 -0.00461939
v -0.01900000 -0.00353620 -0.00353551
v -0.02100000 -0.00353620 -0.00353551
v -0.01900000 -0.00462009 -0.00191339
v -0.02100000 -0.00462009 -0.00191339
v -0.01900000 -0.00500070 0.00000000
v -0.02100000 -0.00500070 0.00000000
v -0.01900000 0.01099930 -0.01899999
v -0.01900000 0.01099930 -0.02099999
v -0.02100001 0.01099930 -0.02099999
v -0.02100001 0.01099930 -0.01899999
v -0.00000000 0.01099930 -0.01899999
v -0.00000000 0.01099930 -0.02099999
v 0.01900000 0.01099930 -0.01899999
v 0.01900000 0.01099930 -0.02099999
v 0.02100000 0.01099930 -0.01899999
v 0.02100000 0.01099930 -0.02099999
v -0.01900000 -0.01100070 -0.02099999
v -0.01900000 -0.01100070 -0.01899999
v -0.02100000 -0.01100070 -0.01899999
v -0.02100000 -0.01100070 -0.02099999
v -0.00000000 -0.01100070 -0.02099999
v -0.00000000 -0.01100070 -0.01899999
v 0.01900000 -0.01100070 -0.02099999
v 0.01900000 -0.01100070 -0.01899999
v 0.02100000 -0.01100070 -0.02099999
v 0.02100000 -0.01100070 -0.01899999
v -0.01900000 -0.01100070 -0.00900000
v -0.02100000 -0.01100070 -0.00900000
v -0.02100001 0.01099930 -0.00900000
v -0.01900000 0.01099930 -0.00900000
v 0.02100000 -0.01100070 -0.00900000
v 0.01900000 -0.01100070 -0.00900000
v 0.01900000 0.01099930 -0.00900000
v 0.02100000 0.01099930 -0.00900000
v 0.02100000 0.00499931 0.00000000
v 0.01900000 0.00499931 0.00000000
v 0.01900000 0.00461870 -0.00191339
v 0.02100000 0.00461870 -0.00191339
v 0.01900000 0.00353481 -0.00353551
v 0.02100000 0.00353481 -0.00353551
v 0.01900000 0.00191270 -0.00461939
v 0.02100000 0.00191270 -0.00461939
v 0.01900000 -0.00000070 -0.00499999
v 0.02100000 -0.00000070 -0.00499999
v 0.01900000 -0.00191409 -0.00461939
v 0.02100000 -0.00191409 -0.00461939
v 0.01900000 -0.00353620 -0.00353551
v 0.02100000 -0.00353620 -0.00353551
v 0.01900000 -0.00462009 -0.00191339
v 0.02100000 -0.00462009 -0.00191339
v 0.01900000 -0.00500070 0.00000000
v 0.02100000 -0.00500070 0.00000000
v -0.01900000 -0.01100070 0.00000000
v -0.02100000 -0.01100070 0.00000000
v -0.02100001 0.01099930 0.00000000
v -0.01900000 0.01099930 0.00000000
v 0.01900000 0.01099930 0.00000000
v 0.02100000 0.01099930 0.00000000
v 0.02100000 -0.01100070 0.00000000
v 0.01900000 -0.01100070 0.00000000
v -0.00000000 0.00362850 -0.01899999
v -0.01900000 0.00362850 -0.01899999
v -0.01900000 -0.00000070 -0.01899999
v -0.00000000 -0.00000070 -0.01899999
v 0.01900000 0.00362850 -0.01899999
v 0.01900000 -0.00000070 -0.01899999
v -0.01900000 0.00362850 -0.02099999
v -0.01900000 -0.00000070 -0.02099999
v -0.02100000 -0.00000070 -0.02099999
v -0.02100001 0.00362850 -0.02099999
v -0.00000000 0.00362850 -0.02099999
v -0.00000000 -0.00000070 -0.02099999
v 0.01900000 0.00362850 -0.02099999
v 0.01900000 -0.00000070 -0.02099999
v 0.02100000 0.00362850 -0.02099999
v 0.02100000 -0.00000070 -0.02099999
v -0.02100001 0.00362850 -0.01899999
v -0.02100000 -0.00000070 -0.01899999
v 0.02100000 0.00362850 -0.01899999
v 0.02100000 -0.00000070 -0.01899999
v -0.02100000 -0.00000070 -0.00900000
v -0.02100001 0.00362850 -0.00900000
v -0.01900000 0.00362850 -0.00900000
v -0.01900000 -0.00000070 -0.00900000
v 0.01900000 -0.00000070 -0.00900000
v 0.01900000 0.00362850 -0.00900000
v 0.02100000 0.00362850 -0.00900000
v 0.02100000 -0.00000070 -0.00900000
v -0.00000000 -0.00349390 -0.01899999
v -0.01900000 -0.00349390 -0.01899999
v 0.01900000 -0.00349390 -0.01899999
v -0.01900000 -0.00349390 -0.02099999
v -0.02100000 -0.00349390 -0.02099999
v -0.00000000 -0.00349390 -0.02099999
v 0.01900000 -0.00349390 -0.02099999
v 0.02100000 -0.00349390 -0.02099999
v -0.02100000 -0.00349390 -0.01899999
v 0.02100000 -0.00349390 -0.01899999
v -0.02100000 -0.00349390 -0.00900000
v -0.01900000 -0.00349390 -0.00900000
v 0.01900000 -0.00349390 -0.00900000
v 0.02100000 -0.00349390 -0.00900000
v 0.02100000 -0.00500070 0.00200001
v 0.02100000 -0.01100070 0.00200001
v 0.01900000 -0.01100070 0.00200001
v 0.01900000 -0.00500070 0.00200001
v 0.02100000 0.01099930 0.00200001
v 0.02100000 0.00499931 0.00200001
v 0.01900000 0.00499931 0.00200001
v 0.01900000 0.01099930 0.00200001
v -0.02100000 -0.00500070 0.00200001
v -0.01900000 -0.00500070 0.00200001
v -0.01900000 -0.01100070 0.00200001
v -0.02100000 -0.01100070 0.00200001
v -0.02100001 0.01099930 0.00200001
v -0.01900000 0.01099930 0.00200001
v -0.01900000 0.00499931 0.00200001
v -0.02100001 0.00499931 0.00200001
f 1 2 3
f 1 3 4
f 5 1 4
f 5 4 6
f 7 5 6
f 7 6 8
f 9 7 8
f 9 8 10
f 11 9 10
f 11 10 12
f 13 11 12
f 13 12 14
f 15 13 14
f 15 14 16
f 17 15 16
f 17 16 18
f 19 20 21
f 19 21 22
f 23 24 20
f 23 20 19
f 25 26 24
f 25 24 23
f 27 28 26
f 27 26 25
f 29 30 31
f 29 31 32
f 33 34 30
f 33 30 29
f 35 36 34
f 35 34 33
f 37 38 36
f 37 36 35
f 31 30 39
f 31 39 40
f 19 22 41
f 19 41 42
f 36 38 43
f 36 43 44
f 27 25 45
f 27 45 46
f 47 48 49
f 47 49 50
f 50 49 51
f 50 51 52
f 52 51 53
f 52 53 54
f 54 53 55
f 54 55 56
f 56 55 57
f 56 57 58
f 58 57 59
f 58 59 60
f 60 59 61
f 60 61 62
f 62 61 63
f 62 63 64
f 39 65 66
f 39 66 40
f 41 67 68
f 41 68 42
f 45 69 70
f 45 70 46
f 43 71 72
f 43 72 44
f 41 4 3
f 41 3 67
f 66 18 16
f 66 16 40
f 61 44 72
f 61 72 63
f 69 45 49
f 69 49 48
f 71 43 62
f 71 62 64
f 1 42 68
f 1 68 2
f 39 15 17
f 39 17 65
f 73 23 19
f 73 19 74
f 75 76 73
f 75 73 74
f 77 25 23
f 77 23 73
f 76 78 77
f 76 77 73
f 79 80 81
f 79 81 82
f 21 20 79
f 21 79 82
f 83 84 80
f 83 80 79
f 20 24 83
f 20 83 79
f 85 86 84
f 85 84 83
f 24 26 85
f 24 85 83
f 87 88 86
f 87 86 85
f 26 28 87
f 26 87 85
f 89 22 21
f 89 21 82
f 81 90 89
f 81 89 82
f 87 28 27
f 87 27 91
f 92 88 87
f 92 87 91
f 89 90 93
f 89 93 94
f 41 22 89
f 41 89 94
f 74 19 42
f 74 42 95
f 96 75 74
f 96 74 95
f 77 78 97
f 77 97 98
f 45 25 77
f 45 77 98
f 91 27 46
f 91 46 99
f 100 92 91
f 100 91 99
f 101 76 75
f 101 75 102
f 30 34 101
f 30 101 102
f 103 78 76
f 103 76 101
f 34 36 103
f 34 103 101
f 104 29 32
f 104 32 105
f 81 80 104
f 81 104 105
f 106 33 29
f 106 29 104
f 80 84 106
f 80 106 104
f 107 35 33
f 107 33 106
f 84 86 107
f 84 107 106
f 108 37 35
f 108 35 107
f 86 88 108
f 86 108 107
f 109 90 81
f 109 81 105
f 32 31 109
f 32 109 105
f 108 88 92
f 108 92 110
f 38 37 108
f 38 108 110
f 109 31 40
f 109 40 111
f 93 90 109
f 93 109 111
f 102 75 96
f 102 96 112
f 39 30 102
f 39 102 112
f 103 36 44
f 103 44 113
f 97 78 103
f 97 103 113
f 110 92 100
f 110 100 114
f 43 38 110
f 43 110 114
f 93 10 8
f 93 8 94
f 8 6 41
f 8 41 94
f 111 12 10
f 111 10 93
f 111 40 14
f 111 14 12
f 41 6 4
f 16 14 40
f 13 15 39
f 1 5 42
f 39 112 11
f 39 11 13
f 112 96 9
f 112 9 11
f 9 96 95
f 9 95 7
f 95 42 5
f 95 5 7
f 113 57 55
f 113 55 97
f 113 44 59
f 113 59 57
f 55 53 98
f 55 98 97
f 53 51 45
f 53 45 98
f 44 61 59
f 45 51 49
f 52 46 50
f 47 50 46
f 47 46 70
f 52 54 99
f 52 99 46
f 56 100 99
f 56 99 54
f 43 114 58
f 43 58 60
f 56 58 114
f 56 114 100
f 43 60 62
f 71 64 115
f 71 115 116
f 72 71 116
f 72 116 117
f 63 72 117
f 63 117 118
f 64 63 118
f 64 118 115
f 118 117 116
f 118 116 115
f 47 70 119
f 47 119 120
f 48 47 120
f 48 120 121
f 69 48 121
f 69 121 122
f 70 69 122
f 70 122 119
f 122 121 120
f 122 120 119
f 17 18 123
f 17 123 124
f 65 17 124
f 65 124 125
f 66 65 125
f 66 125 126
f 18 66 126
f 18 126 123
f 126 125 124
f 126 124 123
f 68 67 127
f 68 127 128
f 2 68 128
f 2 128 129
f 3 2 129
f 3 129 130
f 67 3 130
f 67 130 127
f 130 129 128
f 130 128 127
f 131 132 133
f 131 133 134
f 135 131 134
f 135 134 136
f 137 135 136
f 137 136 138
f 139 137 138
f 139 138 140
f 141 139 140
f 141 140 142
f 143 141 142
f 143 142 144
f 145 143 144
f 145 144 146
f 147 145 146
f 147 146 148
f 149 150 151
f 149 151 152
f 153 154 150
f 153 150 149
f 155 156 154
f 155 154 153
f 157 158 156
f 157 156 155
f 159 160 161
f 159 161 162
f 163 164 160
f 163 160 159
f 165 166 164
f 165 164 163
f 167 168 166
f 167 166 165
f 161 160 169
f 161 169 170
f 149 152 171
f 149 171 172
f 166 168 173
f 166 173 174
f 157 155 175
f 157 175 176
f 177 178 179
f 177 179 180
f 180 179 181
f 180 181 182
f 182 181 183
f 182 183 184
f 184 183 185
f 184 185 186
f 186 185 187
f 186 187 188
f 188 187 189
f 188 189 190
f 190 189 191
f 190 191 192
f 192 191 193
f 192 193 194
f 169 195 196
f 169 196 170
f 171 197 198
f 171 198 172
f 175 199 200
f 175 200 176
f 173 201 202
f 173 202 174
f 171 134 133
f 171 133 197
f 196 148 146
f 196 146 170
f 191 174 202
f 191 202 193
f 199 175 179
f 199 179 178
f 201 173 192
f 201 192 194
f 131 172 198
f 131 198 132
f 169 145 147
f 169 147 195
f 203 153 149
f 203 149 204
f 205 206 203
f 205 203 204
f 207 155 153
f 207 153 203
f 206 208 207
f 206 207 203
f 209 210 211
f 209 211 212
f 151 150 209
f 151 209 212
f 213 214 210
f 213 210 209
f 150 154 213
f 150 213 209
f 215 216 214
f 215 214 213
f 154 156 215
f 154 215 213
f 217 218 216
f 217 216 215
f 156 158 217
f 156 217 215
f 219 152 151
f 219 151 212
f 211 220 219
f 211 219 212
f 217 158 157
f 217 157 221
f 222 218 217
f 222 217 221
f 219 220 223
f 219 223 224
f 171 152 219
f 171 219 224
f 204 149 172
f 204 172 225
f 226 205 204
f 226 204 225
f 207 208 227
f 207 227 228
f 175 155 207
f 175 207 228
f 221 157 176
f 221 176 229
f 230 222 221
f 230 221 229
f 231 206 205
f 231 205 232
f 160 164 231
f 160 231 232
f 233 208 206
f 233 206 231
f 164 166 233
f 164 233 231
f 234 159 162
f 234 162 235
f 211 210 234
f 211 234 235
f 236 163 159
f 236 159 234
f 210 214 236
f 210 236 234
f 237 165 163
f 237 163 236
f 214 216 237
f 214 237 236
f 238 167 165
f 238 165 237
f 216 218 238
f 216 238 237
f 239 220 211
f 239 211 235
f 162 161 239
f 162 239 235
f 238 218 222
f 238 222 240
f 168 167 238
f 168 238 240
f 239 161 170
f 239 170 241
f 223 220 239
f 223 239 241
f 232 205 226
f 232 226 242
f 169 160 232
f 169 232 242
f 233 166 174
f 233 174 243
f 227 208 233
f 227 233 243
f 240 222 230
f 240 230 244
f 173 168 240
f 173 240 244
f 223 140 138
f 223 138 224
f 138 136 171
f 138 171 224
f 241 142 140
f 241 140 223
f 241 170 144
f 241 144 142
f 171 136 134
f 146 144 170
f 143 145 169
f 131 135 172
f 169 242 141
f 169 141 143
f 242 226 139
f 242 139 141
f 139 226 225
f 139 225 137
f 225 172 135
f 225 135 137
f 243 187 185
f 243 185 227
f 243 174 189
f 243 189 187
f 185 183 228
f 185 228 227
f 183 181 175
f 183 175 228
f 174 191 189
f 175 181 179
f 182 176 180
f 177 180 176
f 177 176 200
f 182 184 229
f 182 229 176
f 186 230 229
f 186 229 184
f 173 244 188
f 173 188 190
f 186 188 244
f 186 244 230
f 173 190 192
f 201 194 245
f 201 245 246
f 202 201 246
f 202 246 247
f 193 202 247
f 193 247 248
f 194 193 248
f 194 248 245
f 248 247 246
f 248 246 245
f 177 200 249
f 177 249 250
f 178 177 250
f 178 250 251
f 199 178 251
f 199 251 252
f 200 199 252
f 200 252 249
f 252 251 250
f 252 250 249
f 147 148 253
f 147 253 254
f 195 147 254
f 195 254 255
f 196 195 255
f 196 255 256
f 148 196 256
f 148 256 253
f 256 255 254
f 256 254 253
f 198 197 257
f 198 257 258
f 132 198 258
f 132 258 259
f 133 132 259
f 133 259 260
f 197 133 260
f 197 260 257
f 260 259 258
f 260 258 257

