# https://github.com/mikedh/trimesh
v 0.01750006 0.01741460 -0.02659999
v 0.01750006 0.01591460 -0.02659999
v 0.01900006 0.01591460 -0.02659999
v 0.01900006 0.01741460 -0.02659999
v 0.01750006 -0.00008540 -0.02659999
v 0.01900006 -0.00008540 -0.02659999
v 0.01750006 -0.01608540 -0.02659999
v 0.01900006 -0.01608540 -0.02659999
v 0.01750006 -0.01758540 -0.02659999
v 0.01900006 -0.01758540 -0.02659999
v 0.01750006 -0.01758540 -0.03560000
v 0.01900006 -0.01758540 -0.03560000
v 0.01750006 -0.01758540 -0.04460000
v 0.01900006 -0.01758540 -0.04460000
v 0.01750006 -0.01758540 -0.05359999
v 0.01900006 -0.01758540 -0.05359999
v 0.01750006 -0.01758540 -0.06259999
v 0.01900006 -0.01758540 -0.06259999
v 0.01750006 -0.01608540 -0.06259999
v 0.01900006 -0.01608540 -0.06259999
v 0.01750006 -0.00008540 -0.06259999
v 0.01900006 -0.00008540 -0.06259999
v 0.01750006 0.01591460 -0.06259999
v 0.01900006 0.01591460 -0.06259999
v 0.01750006 0.01741460 -0.06259999
v 0.01900006 0.01741460 -0.06259999
v 0.01750006 0.01741460 -0.05359999
v 0.01900006 0.01741460 -0.05359999
v 0.01750006 0.01741460 -0.04460000
v 0.01900006 0.01741460 -0.04460000
v 0.01750006 0.01741460 -0.03560000
v 0.01900006 0.01741460 -0.03560000
v 0.01900006 0.01591460 -0.05359999
v 0.01900006 -0.00008540 -0.05359999
v 0.01900006 -0.01608540 -0.05359999
v 0.01900006 0.01591460 -0.04460000
v 0.01900006 -0.00008540 -0.04460000
v 0.01900006 -0.01608540 -0.04460000
v 0.01900006 0.01591460 -0.03560000
v 0.01900006 -0.00008540 -0.03560000
v 0.01900006 -0.01608540 -0.03560000
v 0.01750006 -0.00008540 -0.05359999
v 0.01750006 0.01591460 -0.05359999
v 0.01750006 -0.01608540 -0.05359999
v 0.01750006 -0.00008540 -0.04460000
v 0.01750006 0.01591460 -0.04460000
v 0.01750006 -0.01608540 -0.04460000
v 0.01750006 -0.00008540 -0.03560000
v 0.01750006 0.01591460 -0.03560000
v 0.01750006 -0.01608540 -0.03560000
v 0.01100006 -0.01758540 -0.05359999
v 0.01100006 -0.01758540 -0.06259999
v 0.01100006 -0.01608540 -0.06259999
v 0.01100006 -0.01608540 -0.05359999
v 0.01100006 -0.01758540 -0.04460000
v 0.01100006 -0.01608540 -0.04460000
v 0.01100006 -0.01758540 -0.03560000
v 0.01100006 -0.01608540 -0.03560000
v 0.01100006 -0.01608540 -0.02659999
v 0.01100006 -0.01758540 -0.02659999
v 0.01100006 0.01591460 -0.05359999
v 0.01100006 0.01591460 -0.06259999
v 0.01100006 0.01741460 -0.06259999
v 0.01100006 0.01741460 -0.05359999
v 0.01100006 0.01591460 -0.04460000
v 0.01100006 0.01741460 -0.04460000
v 0.01100006 0.01591460 -0.03560000
v 0.01100006 0.01741460 -0.03560000
v 0.01100006 0.01741460 -0.02659999
v 0.01100006 0.01591460 -0.02659999
v -0.01599994 -0.01758540 -0.03560000
v -0.01599994 -0.01758540 -0.04460000
v -0.01599994 -0.01608540 -0.04460000
v -0.01599994 -0.01608540 -0.03560000
v -0.01599994 -0.01608540 -0.02659999
v -0.01599994 -0.01758540 -0.02659999
v -0.01599994 0.01591460 -0.03560000
v -0.01599994 0.01591460 -0.04460000
v -0.01599994 0.01741460 -0.04460000
v -0.01599994 0.01741460 -0.03560000
v -0.01599994 0.01741460 -0.02659999
v -0.01599994 0.01591460 -0.02659999
f 1 2 3
f 1 3 4
f 2 5 6
f 2 6 3
f 5 7 8
f 5 8 6
f 7 9 10
f 7 10 8
f 9 11 12
f 9 12 10
f 11 13 14
f 11 14 12
f 13 15 16
f 13 16 14
f 15 17 18
f 15 18 16
f 17 19 20
f 17 20 18
f 19 21 22
f 19 22 20
f 21 23 24
f 21 24 22
f 23 25 26
f 23 26 24
f 25 27 28
f 25 28 26
f 27 29 30
f 27 30 28
f 29 31 32
f 29 32 30
f 31 1 4
f 31 4 32
f 28 33 24
f 28 24 26
f 33 34 22
f 33 22 24
f 34 35 20
f 34 20 22
f 35 16 18
f 35 18 20
f 30 36 33
f 30 33 28
f 36 37 34
f 36 34 33
f 37 38 35
f 37 35 34
f 38 14 16
f 38 16 35
f 32 39 36
f 32 36 30
f 39 40 37
f 39 37 36
f 40 41 38
f 40 38 37
f 41 12 14
f 41 14 38
f 4 3 39
f 4 39 32
f 3 6 40
f 3 40 39
f 6 8 41
f 6 41 40
f 8 10 12
f 8 12 41
f 23 21 42
f 23 42 43
f 21 19 44
f 21 44 42
f 43 42 45
f 43 45 46
f 42 44 47
f 42 47 45
f 46 45 48
f 46 48 49
f 45 47 50
f 45 50 48
f 49 48 5
f 49 5 2
f 48 50 7
f 48 7 5
f 17 15 51
f 17 51 52
f 19 17 52
f 19 52 53
f 44 19 53
f 44 53 54
f 53 52 51
f 53 51 54
f 15 13 55
f 15 55 51
f 47 44 54
f 47 54 56
f 13 11 57
f 13 57 55
f 50 47 56
f 50 56 58
f 9 7 59
f 9 59 60
f 11 9 60
f 11 60 57
f 7 50 58
f 7 58 59
f 23 43 61
f 23 61 62
f 25 23 62
f 25 62 63
f 27 25 63
f 27 63 64
f 43 46 65
f 43 65 61
f 29 27 64
f 29 64 66
f 46 49 67
f 46 67 65
f 31 29 66
f 31 66 68
f 2 1 69
f 2 69 70
f 49 2 70
f 49 70 67
f 1 31 68
f 1 68 69
f 55 57 71
f 55 71 72
f 58 56 73
f 58 73 74
f 73 72 71
f 73 71 74
f 60 59 75
f 60 75 76
f 57 60 76
f 57 76 71
f 59 58 74
f 59 74 75
f 74 71 76
f 74 76 75
f 65 67 77
f 65 77 78
f 68 66 79
f 68 79 80
f 79 78 77
f 79 77 80
f 70 69 81
f 70 81 82
f 67 70 82
f 67 82 77
f 69 68 80
f 69 80 81
f 80 77 82
f 80 82 81
f 64 79 66
f 63 79 64
f 54 73 56
f 53 73 54
f 78 61 65
f 62 61 78
f 72 51 55
f 72 52 51
f 63 62 78
f 63 78 79
f 53 52 72
f 53 72 73

