# https://github.com/mikedh/trimesh
v 0.01600007 0.01626105 -0.00001369
v 0.01478217 0.01626105 0.00610923
v 0.01478217 -0.01623895 0.00610923
v 0.01600007 -0.01623895 -0.00001369
v 0.01131377 0.01626105 0.01130002
v 0.01131377 -0.01623895 0.01130002
v -0.01131363 0.01626105 0.01130002
v -0.01478203 0.01626105 0.00610923
v -0.01478203 -0.01623895 0.00610923
v -0.01131363 -0.01623895 0.01130002
v -0.01599993 0.01626105 -0.00001369
v -0.01599993 -0.01623895 -0.00001369
v 0.00000007 -0.01623895 -0.00001369
v 0.00000007 0.01626105 -0.00001369
v 0.01600007 -0.01623895 -0.00951369
v 0.01600007 0.01626105 -0.00951369
v 0.00000007 0.01626105 -0.00951369
v 0.00000007 -0.01623895 -0.00951369
v -0.01599993 0.01626105 -0.00951369
v -0.01599993 -0.01623895 -0.00951369
v 0.01600007 -0.01623895 -0.03101370
v 0.01600007 0.01626105 -0.03101370
v 0.00000007 0.01626105 -0.03101370
v 0.00000007 -0.01623895 -0.03101370
v -0.01599993 0.01626105 -0.03101370
v -0.01599993 -0.01623895 -0.03101370
v -0.02352433 0.01626105 -0.04792199
v -0.02821803 0.01626105 -0.05203819
v -0.02821803 -0.01623895 -0.05203819
v -0.02352433 -0.01623895 -0.04792199
v -0.03097913 0.01626105 -0.05763729
v -0.03097913 -0.01623895 -0.05763729
v -0.01966543 0.01626105 -0.07723320
v -0.01343593 0.01626105 -0.07764160
v -0.01343593 -0.01623895 -0.07764160
v -0.01966543 -0.01623895 -0.07723320
v -0.00752433 0.01626105 -0.07563480
v -0.00752433 -0.01623895 -0.07563480
v -0.01552433 -0.01623895 -0.06177840
v -0.01552433 0.01626105 -0.06177840
v -0.01529713 -0.01623895 -0.04317199
v -0.01529713 0.01626105 -0.04317199
v -0.00729713 0.01626105 -0.05702840
v -0.00729713 -0.01623895 -0.05702840
v 0.00070287 0.01626105 -0.07088480
v 0.00070287 -0.01623895 -0.07088480
v 0.00332247 -0.01623895 -0.03242199
v 0.00332247 0.01626105 -0.03242199
v 0.01132247 0.01626105 -0.04627839
v 0.01132247 -0.01623895 -0.04627839
v 0.01932247 0.01626105 -0.06013480
v 0.01932247 -0.01623895 -0.06013480
v 0.00000007 -0.01623895 -0.00301371
v 0.00114817 -0.01623895 -0.00278527
v 0.00114817 -0.01973895 -0.00278527
v 0.00000007 -0.01973895 -0.00301371
v 0.00212137 -0.01623895 -0.00213499
v 0.00212137 -0.01973895 -0.00213499
v 0.00277167 -0.01623895 -0.00116179
v 0.00277167 -0.01973895 -0.00116179
v 0.00300007 -0.01623895 -0.00001369
v 0.00300007 -0.01973895 -0.00001369
v 0.00277167 -0.01623895 0.00113442
v 0.00277167 -0.01973895 0.00113442
v 0.00212137 -0.01623895 0.00210761
v 0.00212137 -0.01973895 0.00210761
v 0.00114817 -0.01623895 0.00275790
v 0.00114817 -0.01973895 0.00275790
v 0.00000007 -0.01623895 0.00298630
v 0.00000007 -0.01973895 0.00298630
v -0.00114793 -0.01623895 0.00275790
v -0.00114793 -0.01973895 0.00275790
v -0.00212123 -0.01623895 0.00210761
v -0.00212123 -0.01973895 0.00210761
v -0.00277153 -0.01623895 0.00113442
v -0.00277153 -0.01973895 0.00113442
v -0.00299993 -0.01623895 -0.00001369
v -0.00299993 -0.01973895 -0.00001369
v -0.00277153 -0.01623895 -0.00116179
v -0.00277153 -0.01973895 -0.00116179
v -0.00212123 -0.01623895 -0.00213499
v -0.00212123 -0.01973895 -0.00213499
v -0.00114793 -0.01623895 -0.00278527
v -0.00114793 -0.01973895 -0.00278527
v 0.00000007 -0.01973895 -0.00001369
v -0.01292623 -0.01623895 -0.06027840
v -0.01369813 -0.01623895 -0.05939840
v -0.01369813 -0.01973895 -0.05939840
v -0.01292623 -0.01973895 -0.06027840
v -0.01474793 -0.01623895 -0.05888069
v -0.01474793 -0.01973895 -0.05888069
v -0.01591583 -0.01623895 -0.05880409
v -0.01591583 -0.01973895 -0.05880409
v -0.01702433 -0.01623895 -0.05918039
v -0.01702433 -0.01973895 -0.05918039
v -0.01790443 -0.01623895 -0.05995220
v -0.01790443 -0.01973895 -0.05995220
v -0.01842213 -0.01623895 -0.06100200
v -0.01842213 -0.01973895 -0.06100200
v -0.01849873 -0.01623895 -0.06217000
v -0.01849873 -0.01973895 -0.06217000
v -0.01812243 -0.01623895 -0.06327840
v -0.01812243 -0.01973895 -0.06327840
v -0.01735063 -0.01623895 -0.06415839
v -0.01735063 -0.01973895 -0.06415839
v -0.01630083 -0.01623895 -0.06467620
v -0.01630083 -0.01973895 -0.06467620
v -0.01513283 -0.01623895 -0.06475280
v -0.01513283 -0.01973895 -0.06475280
v -0.01402433 -0.01623895 -0.06437650
v -0.01402433 -0.01973895 -0.06437650
v -0.01314423 -0.01623895 -0.06360470
v -0.01314423 -0.01973895 -0.06360470
v -0.01262663 -0.01623895 -0.06255490
v -0.01262663 -0.01973895 -0.06255490
v -0.01255013 -0.01623895 -0.06138679
v -0.01255013 -0.01973895 -0.06138679
v -0.01552433 -0.01973895 -0.06177840
f 1 2 3
f 1 3 4
f 2 5 6
f 2 6 3
f 7 8 9
f 7 9 10
f 8 11 12
f 8 12 9
f 4 3 13
f 3 6 13
f 10 9 13
f 9 12 13
f 2 1 14
f 5 2 14
f 8 7 14
f 11 8 14
f 1 4 15
f 1 15 16
f 14 1 16
f 14 16 17
f 4 13 18
f 4 18 15
f 11 14 17
f 11 17 19
f 12 11 19
f 12 19 20
f 13 12 20
f 13 20 18
f 16 15 21
f 16 21 22
f 17 16 22
f 17 22 23
f 15 18 24
f 15 24 21
f 24 23 22
f 24 22 21
f 19 17 23
f 19 23 25
f 20 19 25
f 20 25 26
f 18 20 26
f 18 26 24
f 26 25 23
f 26 23 24
f 5 7 10
f 5 10 6
f 13 6 10
f 7 5 14
f 27 28 29
f 27 29 30
f 28 31 32
f 28 32 29
f 33 34 35
f 33 35 36
f 34 37 38
f 34 38 35
f 30 29 39
f 29 32 39
f 36 35 39
f 35 38 39
f 28 27 40
f 31 28 40
f 34 33 40
f 37 34 40
f 27 30 41
f 27 41 42
f 40 27 42
f 40 42 43
f 30 39 44
f 30 44 41
f 37 40 43
f 37 43 45
f 38 37 45
f 38 45 46
f 39 38 46
f 39 46 44
f 42 41 47
f 42 47 48
f 43 42 48
f 43 48 49
f 41 44 50
f 41 50 47
f 50 49 48
f 50 48 47
f 45 43 49
f 45 49 51
f 46 45 51
f 46 51 52
f 44 46 52
f 44 52 50
f 52 51 49
f 52 49 50
f 31 33 36
f 31 36 32
f 39 32 36
f 33 31 40
f 53 54 55
f 53 55 56
f 54 57 58
f 54 58 55
f 57 59 60
f 57 60 58
f 59 61 62
f 59 62 60
f 61 63 64
f 61 64 62
f 63 65 66
f 63 66 64
f 65 67 68
f 65 68 66
f 67 69 70
f 67 70 68
f 69 71 72
f 69 72 70
f 71 73 74
f 71 74 72
f 73 75 76
f 73 76 74
f 75 77 78
f 75 78 76
f 77 79 80
f 77 80 78
f 79 81 82
f 79 82 80
f 81 83 84
f 81 84 82
f 83 53 56
f 83 56 84
f 56 55 85
f 55 58 85
f 58 60 85
f 60 62 85
f 62 64 85
f 64 66 85
f 66 68 85
f 68 70 85
f 70 72 85
f 72 74 85
f 74 76 85
f 76 78 85
f 78 80 85
f 80 82 85
f 82 84 85
f 84 56 85
f 54 53 13
f 57 54 13
f 59 57 13
f 61 59 13
f 63 61 13
f 65 63 13
f 67 65 13
f 69 67 13
f 71 69 13
f 73 71 13
f 75 73 13
f 77 75 13
f 79 77 13
f 81 79 13
f 83 81 13
f 53 83 13
f 86 87 88
f 86 88 89
f 87 90 91
f 87 91 88
f 90 92 93
f 90 93 91
f 92 94 95
f 92 95 93
f 94 96 97
f 94 97 95
f 96 98 99
f 96 99 97
f 98 100 101
f 98 101 99
f 100 102 103
f 100 103 101
f 102 104 105
f 102 105 103
f 104 106 107
f 104 107 105
f 106 108 109
f 106 109 107
f 108 110 111
f 108 111 109
f 110 112 113
f 110 113 111
f 112 114 115
f 112 115 113
f 114 116 117
f 114 117 115
f 116 86 89
f 116 89 117
f 89 88 118
f 88 91 118
f 91 93 118
f 93 95 118
f 95 97 118
f 97 99 118
f 99 101 118
f 101 103 118
f 103 105 118
f 105 107 118
f 107 109 118
f 109 111 118
f 111 113 118
f 113 115 118
f 115 117 118
f 117 89 118
f 87 86 39
f 90 87 39
f 92 90 39
f 94 92 39
f 96 94 39
f 98 96 39
f 100 98 39
f 102 100 39
f 104 102 39
f 106 104 39
f 108 106 39
f 110 108 39
f 112 110 39
f 114 112 39
f 116 114 39
f 86 116 39

