# https://github.com/mikedh/trimesh
v 0.02109995 -0.01702982 -0.04190001
v 0.01727316 -0.01702983 -0.04266120
v 0.01727316 -0.01902982 -0.04266120
v 0.02109995 -0.01902982 -0.04190001
v 0.01402886 -0.01702983 -0.04482890
v 0.01402886 -0.01902982 -0.04482890
v 0.01186116 -0.01702983 -0.04807321
v 0.01186116 -0.01902982 -0.04807321
v 0.01109996 -0.01702983 -0.05190000
v 0.01109996 -0.01902982 -0.05190000
v 0.01186116 -0.01702983 -0.05572680
v 0.01186116 -0.01902982 -0.05572680
v 0.01402886 -0.01702983 -0.05897110
v 0.01402886 -0.01902982 -0.05897110
v 0.01727316 -0.01702983 -0.06113880
v 0.01727316 -0.01902982 -0.06113880
v 0.02109995 -0.01702983 -0.06190000
v 0.02109995 -0.01902982 -0.06190000
v 0.02492676 -0.01702983 -0.06113880
v 0.02492676 -0.01902982 -0.06113880
v 0.02817106 -0.01702983 -0.05897110
v 0.02817106 -0.01902982 -0.05897110
v 0.03033876 -0.01702983 -0.05572680
v 0.03033876 -0.01902982 -0.05572680
v 0.03109996 -0.01702982 -0.05190000
v 0.03109996 -0.01902982 -0.05190000
v 0.03033876 -0.01702982 -0.04807321
v 0.03033876 -0.01902982 -0.04807321
v 0.02817106 -0.01702982 -0.04482890
v 0.02817106 -0.01902982 -0.04482890
v 0.02492676 -0.01702982 -0.04266120
v 0.02492676 -0.01902982 -0.04266120
v 0.02109995 -0.01902982 -0.05190000
v 0.02109995 -0.01702983 -0.05190000
v 0.02109995 -0.01602983 -0.04690000
v 0.01918656 -0.01602983 -0.04728060
v 0.01918656 -0.02002983 -0.04728060
v 0.02109995 -0.02002983 -0.04690000
v 0.01756446 -0.01602983 -0.04836450
v 0.01756446 -0.02002983 -0.04836450
v 0.01648056 -0.01602983 -0.04998660
v 0.01648056 -0.02002983 -0.04998660
v 0.01609996 -0.01602983 -0.05190000
v 0.01609996 -0.02002983 -0.05190000
v 0.01648056 -0.01602983 -0.05381340
v 0.01648056 -0.02002983 -0.05381340
v 0.01756446 -0.01602983 -0.05543550
v 0.01756446 -0.02002983 -0.05543550
v 0.01918656 -0.01602983 -0.05651940
v 0.01918656 -0.02002983 -0.05651940
v 0.02109995 -0.01602983 -0.05690001
v 0.02109995 -0.02002983 -0.05690001
v 0.02301336 -0.01602983 -0.05651940
v 0.02301336 -0.02002983 -0.05651940
v 0.02463546 -0.01602983 -0.05543550
v 0.02463546 -0.02002983 -0.05543550
v 0.02571936 -0.01602983 -0.05381340
v 0.02571936 -0.02002983 -0.05381340
v 0.02609996 -0.01602983 -0.05190000
v 0.02609996 -0.02002983 -0.05190000
v 0.02571936 -0.01602983 -0.04998660
v 0.02571936 -0.02002983 -0.04998660
v 0.02463546 -0.01602983 -0.04836450
v 0.02463546 -0.02002983 -0.04836450
v 0.02301336 -0.01602983 -0.04728060
v 0.02301336 -0.02002983 -0.04728060
v 0.02109995 -0.02002983 -0.05190000
v 0.02109995 -0.01602983 -0.05190000
v 0.02109995 0.01897018 -0.04190001
v 0.01727315 0.01897017 -0.04266120
v 0.01727315 0.01697017 -0.04266120
v 0.02109995 0.01697018 -0.04190001
v 0.01402885 0.01897017 -0.04482890
v 0.01402885 0.01697017 -0.04482890
v 0.01186115 0.01897017 -0.04807321
v 0.01186115 0.01697017 -0.04807321
v 0.01109995 0.01897017 -0.05190000
v 0.01109995 0.01697017 -0.05190000
v 0.01186115 0.01897017 -0.05572680
v 0.01186115 0.01697017 -0.05572680
v 0.01402885 0.01897017 -0.05897110
v 0.01402885 0.01697017 -0.05897110
v 0.01727315 0.01897017 -0.06113880
v 0.01727315 0.01697017 -0.06113880
v 0.02109995 0.01897017 -0.06190000
v 0.02109995 0.01697017 -0.06190000
v 0.02492676 0.01897017 -0.06113880
v 0.02492676 0.01697017 -0.06113880
v 0.02817106 0.01897017 -0.05897110
v 0.02817106 0.01697017 -0.05897110
v 0.03033875 0.01897017 -0.05572680
v 0.03033875 0.01697017 -0.05572680
v 0.03109995 0.01897018 -0.05190000
v 0.03109995 0.01697018 -0.05190000
v 0.03033875 0.01897018 -0.04807321
v 0.03033875 0.01697018 -0.04807321
v 0.02817106 0.01897018 -0.04482890
v 0.02817106 0.01697018 -0.04482890
v 0.02492676 0.01897018 -0.04266120
v 0.02492676 0.01697018 -0.04266120
v 0.02109995 0.01697017 -0.05190000
v 0.02109995 0.01897017 -0.05190000
v 0.02109995 0.01997018 -0.04690000
v 0.01918655 0.01997018 -0.04728060
v 0.01918655 0.01597017 -0.04728060
v 0.02109995 0.01597017 -0.04690000
v 0.01756446 0.01997018 -0.04836450
v 0.01756446 0.01597017 -0.04836450
v 0.01648055 0.01997018 -0.04998660
v 0.01648055 0.01597017 -0.04998660
v 0.01609995 0.01997018 -0.05190000
v 0.01609995 0.01597017 -0.05190000
v 0.01648055 0.01997018 -0.05381340
v 0.01648055 0.01597017 -0.05381340
v 0.01756446 0.01997018 -0.05543550
v 0.01756446 0.01597017 -0.05543550
v 0.01918655 0.01997018 -0.05651940
v 0.01918655 0.01597017 -0.05651940
v 0.02109995 0.01997018 -0.05690001
v 0.02109995 0.01597017 -0.05690001
v 0.02301335 0.01997018 -0.05651940
v 0.02301335 0.01597017 -0.05651940
v 0.02463545 0.01997018 -0.05543550
v 0.02463545 0.01597017 -0.05543550
v 0.02571935 0.01997018 -0.05381340
v 0.02571935 0.01597017 -0.05381340
v 0.02609995 0.01997018 -0.05190000
v 0.02609995 0.01597017 -0.05190000
v 0.02571935 0.01997018 -0.04998660
v 0.02571935 0.01597017 -0.04998660
v 0.02463545 0.01997018 -0.04836450
v 0.02463545 0.01597017 -0.04836450
v 0.02301335 0.01997018 -0.04728060
v 0.02301335 0.01597017 -0.04728060
v 0.02109995 0.01597017 -0.05190000
v 0.02109995 0.01997018 -0.05190000
v 0.02571936 -0.01902982 -0.04998660
v 0.02609996 -0.01902982 -0.05190000
v 0.02609996 -0.02102983 -0.05190000
v 0.02571936 -0.02102983 -0.04998660
v 0.02463546 -0.01902982 -0.04836450
v 0.02463546 -0.02102983 -0.04836449
v 0.02301336 -0.01902982 -0.04728060
v 0.02301336 -0.02102983 -0.04728059
v 0.02109995 -0.01902982 -0.04690000
v 0.02109995 -0.02102983 -0.04689999
v 0.01918656 -0.01902982 -0.04728060
v 0.01918656 -0.02102983 -0.04728059
v 0.01756446 -0.01902982 -0.04836450
v 0.01756446 -0.02102983 -0.04836449
v 0.01648056 -0.01902982 -0.04998660
v 0.01648056 -0.02102983 -0.04998660
v 0.01609996 -0.01902982 -0.05190000
v 0.01609996 -0.02102983 -0.05190000
v 0.01009996 -0.01902982 -0.04290000
v 0.01009996 -0.01902982 -0.05190000
v 0.01009996 -0.02102983 -0.05190000
v 0.01009996 -0.02102983 -0.04289999
v 0.03209996 -0.02102982 -0.04289999
v 0.03209996 -0.02102982 -0.05190000
v 0.03209996 -0.01902982 -0.05190000
v 0.03209996 -0.01902982 -0.04290000
v 0.02109995 -0.02102982 -0.04289999
v 0.02472916 -0.02102982 -0.04289999
v 0.01760676 -0.02102983 -0.04289999
v 0.01760676 -0.01902982 -0.04290000
v 0.02109995 -0.01902982 -0.04290000
v 0.02472916 -0.01902982 -0.04290000
v 0.01609996 -0.02102983 -0.05389999
v 0.01609996 -0.01902982 -0.05390000
v 0.01009996 -0.01902982 -0.05390000
v 0.01009996 -0.02102983 -0.05389999
v 0.03209996 -0.02102982 -0.05389999
v 0.03209996 -0.01902982 -0.05390000
v 0.02609996 -0.01902982 -0.05390000
v 0.02609996 -0.02102983 -0.05389999
v 0.02609995 0.02097017 -0.05190000
v 0.02609995 0.01897017 -0.05190000
v 0.02571935 0.01897017 -0.04998660
v 0.02571935 0.02097017 -0.04998660
v 0.02463545 0.01897017 -0.04836450
v 0.02463545 0.02097017 -0.04836450
v 0.02301335 0.01897017 -0.04728060
v 0.02301335 0.02097017 -0.04728060
v 0.02109995 0.01897017 -0.04690000
v 0.02109995 0.02097017 -0.04690000
v 0.01918655 0.01897017 -0.04728060
v 0.01918655 0.02097017 -0.04728060
v 0.01756446 0.01897017 -0.04836450
v 0.01756446 0.02097017 -0.04836450
v 0.01648055 0.01897017 -0.04998660
v 0.01648055 0.02097017 -0.04998660
v 0.01609995 0.01897017 -0.05190000
v 0.01609995 0.02097017 -0.05190000
v 0.01009995 0.02097017 -0.05190000
v 0.01009995 0.01897017 -0.05190000
v 0.01009995 0.01897017 -0.04290000
v 0.01009995 0.02097017 -0.04290000
v 0.03209995 0.01897018 -0.05190000
v 0.03209995 0.02097017 -0.05190000
v 0.03209995 0.02097017 -0.04290000
v 0.03209995 0.01897018 -0.04290000
v 0.02109995 0.02097017 -0.04290000
v 0.02472916 0.02097017 -0.04290000
v 0.01760675 0.02097017 -0.04290000
v 0.01760675 0.01897017 -0.04290000
v 0.02109995 0.01897018 -0.04290000
v 0.02472916 0.01897018 -0.04290000
v 0.01609995 0.02097017 -0.05390000
v 0.01609995 0.01897017 -0.05390000
v 0.01009995 0.01897017 -0.05390000
v 0.01009995 0.02097017 -0.05390000
v 0.03209995 0.02097017 -0.05390000
v 0.03209995 0.01897018 -0.05390000
v 0.02609995 0.01897017 -0.05390000
v 0.02609995 0.02097017 -0.05390000
v 0.02472916 -0.01902982 -0.02690001
v 0.03209996 -0.01902982 -0.02690001
v 0.03209996 -0.02102982 -0.02690000
v 0.02472916 -0.02102982 -0.02690000
v 0.02109995 -0.01902982 -0.02690001
v 0.02109995 -0.02102982 -0.02690000
v 0.01760676 -0.01902982 -0.02690001
v 0.01760676 -0.02102982 -0.02690000
v 0.01009996 -0.02102982 -0.02690000
v 0.01009996 -0.01902982 -0.02690001
v 0.02472916 0.02097017 -0.02690001
v 0.03209995 0.02097017 -0.02690001
v 0.03209995 0.01897018 -0.02690001
v 0.02472916 0.01897018 -0.02690001
v 0.02109995 0.02097017 -0.02690001
v 0.02109995 0.01897018 -0.02690001
v 0.01760675 0.02097017 -0.02690001
v 0.01760675 0.01897018 -0.02690001
v 0.01009995 0.01897018 -0.02690001
v 0.01009995 0.02097017 -0.02690001
v -0.00194525 -0.01902982 -0.00488770
v -0.00356734 -0.01902982 -0.00380380
v -0.00356734 -0.02102982 -0.00380379
v -0.00194525 -0.02102982 -0.00488770
v -0.00003174 -0.01902982 -0.00526821
v -0.00003174 -0.02102982 -0.00526820
v 0.00188166 -0.01902982 -0.00488770
v 0.00188166 -0.02102982 -0.00488770
v 0.00350376 -0.01902982 -0.00380380
v 0.00350376 -0.02102982 -0.00380379
v 0.00458766 -0.01902982 -0.00218170
v 0.00458766 -0.02102982 -0.00218169
v 0.00496816 -0.01902982 -0.00026830
v 0.00496816 -0.02102982 -0.00026829
v 0.00458766 -0.01902982 0.00164520
v 0.00458766 -0.02102982 0.00164520
v 0.00350376 -0.01902982 0.00326730
v 0.00350376 -0.02102982 0.00326730
v 0.01411036 -0.01902982 0.00114589
v 0.00774636 -0.01902982 0.00750990
v 0.00774636 -0.02102982 0.00750990
v 0.01411036 -0.02102982 0.00114590
v -0.00144594 -0.02102982 -0.01441040
v -0.00780995 -0.02102982 -0.00804639
v -0.00780995 -0.01902982 -0.00804640
v -0.00144594 -0.01902982 -0.01441040
v 0.00633216 -0.02102982 -0.00663219
v 0.00376596 -0.02102982 -0.00919849
v 0.00880226 -0.02102982 -0.00416219
v 0.00880226 -0.01902982 -0.00416220
v 0.00633216 -0.01902982 -0.00663220
v 0.00376596 -0.01902982 -0.00919850
v 0.00208956 -0.02102982 0.00468151
v 0.00208956 -0.01902982 0.00468151
v 0.00633216 -0.01902982 0.00892411
v 0.00633216 -0.02102982 0.00892411
v -0.00922415 -0.02102982 -0.00663219
v -0.00922415 -0.01902982 -0.00663220
v -0.00498154 -0.01902982 -0.00238960
v -0.00498154 -0.02102982 -0.00238959
v -0.00356734 0.02097017 -0.00380380
v -0.00356734 0.01897018 -0.00380380
v -0.00194525 0.01897018 -0.00488770
v -0.00194525 0.02097017 -0.00488770
v -0.00003175 0.01897018 -0.00526821
v -0.00003175 0.02097017 -0.00526821
v 0.00188165 0.01897018 -0.00488770
v 0.00188165 0.02097017 -0.00488770
v 0.00350375 0.01897018 -0.00380380
v 0.00350375 0.02097017 -0.00380380
v 0.00458765 0.01897018 -0.00218170
v 0.00458765 0.02097017 -0.00218170
v 0.00496815 0.01897018 -0.00026830
v 0.00496815 0.02097017 -0.00026830
v 0.00458765 0.01897018 0.00164520
v 0.00458765 0.02097017 0.00164520
v 0.00350375 0.01897018 0.00326730
v 0.00350375 0.02097017 0.00326730
v 0.00774635 0.02097017 0.00750990
v 0.00774635 0.01897018 0.00750990
v 0.01411035 0.01897018 0.00114589
v 0.01411035 0.02097017 0.00114589
v -0.00780995 0.01897018 -0.00804640
v -0.00780995 0.02097017 -0.00804640
v -0.00144595 0.02097017 -0.01441040
v -0.00144595 0.01897018 -0.01441040
v 0.00633215 0.02097017 -0.00663220
v 0.00376595 0.02097017 -0.00919850
v 0.00880225 0.02097017 -0.00416220
v 0.00880225 0.01897018 -0.00416220
v 0.00633215 0.01897018 -0.00663220
v 0.00376595 0.01897018 -0.00919850
v 0.00208955 0.02097017 0.00468151
v 0.00208955 0.01897018 0.00468151
v 0.00633215 0.01897018 0.00892411
v 0.00633215 0.02097017 0.00892411
v -0.00922415 0.02097017 -0.00663220
v -0.00922415 0.01897018 -0.00663220
v -0.00498155 0.01897018 -0.00238960
v -0.00498155 0.02097017 -0.00238960
v 0.01707966 -0.01902982 -0.02251220
v 0.00986776 -0.01902982 -0.02572410
v 0.00986776 -0.02102982 -0.02572409
v 0.01707966 -0.02102982 -0.02251220
v 0.01964586 -0.01902982 -0.01994590
v 0.01964586 -0.02102982 -0.01994590
v 0.02211596 -0.01902982 -0.01747590
v 0.02211596 -0.02102982 -0.01747589
v 0.03142406 -0.02102982 -0.01616780
v 0.03142406 -0.01902982 -0.01616780
v 0.01707966 0.02097017 -0.02251220
v 0.00986775 0.02097017 -0.02572410
v 0.00986775 0.01897018 -0.02572410
v 0.01707966 0.01897018 -0.02251220
v 0.01964585 0.02097017 -0.01994590
v 0.01964585 0.01897018 -0.01994590
v 0.02211595 0.02097017 -0.01747590
v 0.02211595 0.01897018 -0.01747590
v 0.03142406 0.01897018 -0.01616780
v 0.03142406 0.02097017 -0.01616780
v 0.01921086 -0.01852982 -0.00547540
v 0.02486776 -0.01852982 -0.01113220
v 0.02592836 -0.01852982 -0.01007160
v 0.02027156 -0.01852982 -0.00441470
v 0.03052456 -0.01852982 -0.01678910
v 0.03158526 -0.01852982 -0.01572840
v 0.03052456 -0.01702982 -0.01678910
v 0.03158526 -0.01702982 -0.01572840
v 0.03052456 -0.00002982 -0.01678910
v 0.03158526 -0.00002982 -0.01572840
v 0.03052456 0.01697018 -0.01678910
v 0.03158526 0.01697018 -0.01572840
v 0.03052456 0.01847018 -0.01678910
v 0.03158526 0.01847018 -0.01572840
v 0.02486775 0.01847018 -0.01113220
v 0.02592835 0.01847018 -0.01007160
v 0.01921085 0.01847018 -0.00547540
v 0.02027155 0.01847018 -0.00441470
v 0.02592835 0.01697018 -0.01007160
v 0.02592836 -0.00002982 -0.01007160
v 0.02592836 -0.01702982 -0.01007160
v 0.02027155 0.01697018 -0.00441470
v 0.02027155 -0.00002982 -0.00441470
v 0.02027156 -0.01702982 -0.00441470
v 0.02486775 -0.00002982 -0.01113220
v 0.02486775 0.01697018 -0.01113220
v 0.02486776 -0.01702982 -0.01113220
v 0.01921085 -0.00002982 -0.00547540
v 0.01921085 0.01697018 -0.00547540
v 0.01921086 -0.01702982 -0.00547540
v 0.02027156 -0.01852982 -0.01572840
v 0.02592836 -0.01852982 -0.02138530
v 0.02592836 -0.01702982 -0.02138530
v 0.02027156 -0.01702982 -0.01572840
v 0.01461466 -0.01852982 -0.01007160
v 0.01461466 -0.01702982 -0.01007160
v 0.02027155 0.01697018 -0.01572840
v 0.02592835 0.01697018 -0.02138530
v 0.02592835 0.01847018 -0.02138530
v 0.02027155 0.01847018 -0.01572840
v 0.01461465 0.01697018 -0.01007160
v 0.01461465 0.01847018 -0.01007160
f 1 2 3
f 1 3 4
f 2 5 6
f 2 6 3
f 5 7 8
f 5 8 6
f 7 9 10
f 7 10 8
f 9 11 12
f 9 12 10
f 11 13 14
f 11 14 12
f 13 15 16
f 13 16 14
f 15 17 18
f 15 18 16
f 17 19 20
f 17 20 18
f 19 21 22
f 19 22 20
f 21 23 24
f 21 24 22
f 23 25 26
f 23 26 24
f 25 27 28
f 25 28 26
f 27 29 30
f 27 30 28
f 29 31 32
f 29 32 30
f 31 1 4
f 31 4 32
f 4 3 33
f 3 6 33
f 6 8 33
f 8 10 33
f 10 12 33
f 12 14 33
f 14 16 33
f 16 18 33
f 18 20 33
f 20 22 33
f 22 24 33
f 24 26 33
f 26 28 33
f 28 30 33
f 30 32 33
f 32 4 33
f 2 1 34
f 5 2 34
f 7 5 34
f 9 7 34
f 11 9 34
f 13 11 34
f 15 13 34
f 17 15 34
f 19 17 34
f 21 19 34
f 23 21 34
f 25 23 34
f 27 25 34
f 29 27 34
f 31 29 34
f 1 31 34
f 35 36 37
f 35 37 38
f 36 39 40
f 36 40 37
f 39 41 42
f 39 42 40
f 41 43 44
f 41 44 42
f 43 45 46
f 43 46 44
f 45 47 48
f 45 48 46
f 47 49 50
f 47 50 48
f 49 51 52
f 49 52 50
f 51 53 54
f 51 54 52
f 53 55 56
f 53 56 54
f 55 57 58
f 55 58 56
f 57 59 60
f 57 60 58
f 59 61 62
f 59 62 60
f 61 63 64
f 61 64 62
f 63 65 66
f 63 66 64
f 65 35 38
f 65 38 66
f 38 37 67
f 37 40 67
f 40 42 67
f 42 44 67
f 44 46 67
f 46 48 67
f 48 50 67
f 50 52 67
f 52 54 67
f 54 56 67
f 56 58 67
f 58 60 67
f 60 62 67
f 62 64 67
f 64 66 67
f 66 38 67
f 36 35 68
f 39 36 68
f 41 39 68
f 43 41 68
f 45 43 68
f 47 45 68
f 49 47 68
f 51 49 68
f 53 51 68
f 55 53 68
f 57 55 68
f 59 57 68
f 61 59 68
f 63 61 68
f 65 63 68
f 35 65 68
f 69 70 71
f 69 71 72
f 70 73 74
f 70 74 71
f 73 75 76
f 73 76 74
f 75 77 78
f 75 78 76
f 77 79 80
f 77 80 78
f 79 81 82
f 79 82 80
f 81 83 84
f 81 84 82
f 83 85 86
f 83 86 84
f 85 87 88
f 85 88 86
f 87 89 90
f 87 90 88
f 89 91 92
f 89 92 90
f 91 93 94
f 91 94 92
f 93 95 96
f 93 96 94
f 95 97 98
f 95 98 96
f 97 99 100
f 97 100 98
f 99 69 72
f 99 72 100
f 72 71 101
f 71 74 101
f 74 76 101
f 76 78 101
f 78 80 101
f 80 82 101
f 82 84 101
f 84 86 101
f 86 88 101
f 88 90 101
f 90 92 101
f 92 94 101
f 94 96 101
f 96 98 101
f 98 100 101
f 100 72 101
f 70 69 102
f 73 70 102
f 75 73 102
f 77 75 102
f 79 77 102
f 81 79 102
f 83 81 102
f 85 83 102
f 87 85 102
f 89 87 102
f 91 89 102
f 93 91 102
f 95 93 102
f 97 95 102
f 99 97 102
f 69 99 102
f 103 104 105
f 103 105 106
f 104 107 108
f 104 108 105
f 107 109 110
f 107 110 108
f 109 111 112
f 109 112 110
f 111 113 114
f 111 114 112
f 113 115 116
f 113 116 114
f 115 117 118
f 115 118 116
f 117 119 120
f 117 120 118
f 119 121 122
f 119 122 120
f 121 123 124
f 121 124 122
f 123 125 126
f 123 126 124
f 125 127 128
f 125 128 126
f 127 129 130
f 127 130 128
f 129 131 132
f 129 132 130
f 131 133 134
f 131 134 132
f 133 103 106
f 133 106 134
f 106 105 135
f 105 108 135
f 108 110 135
f 110 112 135
f 112 114 135
f 114 116 135
f 116 118 135
f 118 120 135
f 120 122 135
f 122 124 135
f 124 126 135
f 126 128 135
f 128 130 135
f 130 132 135
f 132 134 135
f 134 106 135
f 104 103 136
f 107 104 136
f 109 107 136
f 111 109 136
f 113 111 136
f 115 113 136
f 117 115 136
f 119 117 136
f 121 119 136
f 123 121 136
f 125 123 136
f 127 125 136
f 129 127 136
f 131 129 136
f 133 131 136
f 103 133 136
f 137 138 139
f 137 139 140
f 141 137 140
f 141 140 142
f 143 141 142
f 143 142 144
f 145 143 144
f 145 144 146
f 147 145 146
f 147 146 148
f 149 147 148
f 149 148 150
f 151 149 150
f 151 150 152
f 153 151 152
f 153 152 154
f 155 156 157
f 155 157 158
f 159 160 161
f 159 161 162
f 159 140 139
f 159 139 160
f 157 154 152
f 157 152 158
f 137 162 161
f 137 161 138
f 155 151 153
f 155 153 156
f 163 146 144
f 163 144 164
f 144 142 159
f 144 159 164
f 165 148 146
f 165 146 163
f 165 158 150
f 165 150 148
f 159 142 140
f 152 150 158
f 149 151 155
f 137 141 162
f 155 166 147
f 155 147 149
f 166 167 145
f 166 145 147
f 145 167 168
f 145 168 143
f 168 162 141
f 168 141 143
f 153 154 169
f 153 169 170
f 156 153 170
f 156 170 171
f 157 156 171
f 157 171 172
f 154 157 172
f 154 172 169
f 172 171 170
f 172 170 169
f 161 160 173
f 161 173 174
f 138 161 174
f 138 174 175
f 139 138 175
f 139 175 176
f 160 139 176
f 160 176 173
f 176 175 174
f 176 174 173
f 177 178 179
f 177 179 180
f 180 179 181
f 180 181 182
f 182 181 183
f 182 183 184
f 184 183 185
f 184 185 186
f 186 185 187
f 186 187 188
f 188 187 189
f 188 189 190
f 190 189 191
f 190 191 192
f 192 191 193
f 192 193 194
f 195 196 197
f 195 197 198
f 199 200 201
f 199 201 202
f 177 180 201
f 177 201 200
f 192 194 195
f 192 195 198
f 199 202 179
f 199 179 178
f 193 191 197
f 193 197 196
f 184 186 203
f 184 203 204
f 201 182 184
f 201 184 204
f 186 188 205
f 186 205 203
f 190 198 205
f 190 205 188
f 182 201 180
f 190 192 198
f 191 189 197
f 181 179 202
f 187 206 197
f 187 197 189
f 185 207 206
f 185 206 187
f 208 207 185
f 208 185 183
f 181 202 208
f 181 208 183
f 209 194 193
f 209 193 210
f 210 193 196
f 210 196 211
f 211 196 195
f 211 195 212
f 212 195 194
f 212 194 209
f 210 211 212
f 210 212 209
f 213 200 199
f 213 199 214
f 214 199 178
f 214 178 215
f 215 178 177
f 215 177 216
f 216 177 200
f 216 200 213
f 214 215 216
f 214 216 213
f 162 168 217
f 162 217 218
f 159 162 218
f 159 218 219
f 164 159 219
f 164 219 220
f 168 167 221
f 168 221 217
f 163 164 220
f 163 220 222
f 167 166 223
f 167 223 221
f 165 163 222
f 165 222 224
f 155 158 225
f 155 225 226
f 166 155 226
f 166 226 223
f 158 165 224
f 158 224 225
f 201 204 227
f 201 227 228
f 202 201 228
f 202 228 229
f 208 202 229
f 208 229 230
f 204 203 231
f 204 231 227
f 207 208 230
f 207 230 232
f 203 205 233
f 203 233 231
f 206 207 232
f 206 232 234
f 198 197 235
f 198 235 236
f 205 198 236
f 205 236 233
f 197 206 234
f 197 234 235
f 237 238 239
f 237 239 240
f 241 237 240
f 241 240 242
f 243 241 242
f 243 242 244
f 245 243 244
f 245 244 246
f 247 245 246
f 247 246 248
f 249 247 248
f 249 248 250
f 251 249 250
f 251 250 252
f 253 251 252
f 253 252 254
f 255 256 257
f 255 257 258
f 259 260 261
f 259 261 262
f 259 240 239
f 259 239 260
f 257 254 252
f 257 252 258
f 237 262 261
f 237 261 238
f 255 251 253
f 255 253 256
f 263 246 244
f 263 244 264
f 244 242 259
f 244 259 264
f 265 248 246
f 265 246 263
f 265 258 250
f 265 250 248
f 259 242 240
f 252 250 258
f 249 251 255
f 237 241 262
f 255 266 247
f 255 247 249
f 266 267 245
f 266 245 247
f 245 267 268
f 245 268 243
f 268 262 241
f 268 241 243
f 253 254 269
f 253 269 270
f 256 253 270
f 256 270 271
f 257 256 271
f 257 271 272
f 254 257 272
f 254 272 269
f 272 271 270
f 272 270 269
f 261 260 273
f 261 273 274
f 238 261 274
f 238 274 275
f 239 238 275
f 239 275 276
f 260 239 276
f 260 276 273
f 276 275 274
f 276 274 273
f 277 278 279
f 277 279 280
f 280 279 281
f 280 281 282
f 282 281 283
f 282 283 284
f 284 283 285
f 284 285 286
f 286 285 287
f 286 287 288
f 288 287 289
f 288 289 290
f 290 289 291
f 290 291 292
f 292 291 293
f 292 293 294
f 295 296 297
f 295 297 298
f 299 300 301
f 299 301 302
f 277 280 301
f 277 301 300
f 292 294 295
f 292 295 298
f 299 302 279
f 299 279 278
f 293 291 297
f 293 297 296
f 284 286 303
f 284 303 304
f 301 282 284
f 301 284 304
f 286 288 305
f 286 305 303
f 290 298 305
f 290 305 288
f 282 301 280
f 290 292 298
f 291 289 297
f 281 279 302
f 287 306 297
f 287 297 289
f 285 307 306
f 285 306 287
f 308 307 285
f 308 285 283
f 281 302 308
f 281 308 283
f 309 294 293
f 309 293 310
f 310 293 296
f 310 296 311
f 311 296 295
f 311 295 312
f 312 295 294
f 312 294 309
f 310 311 312
f 310 312 309
f 313 300 299
f 313 299 314
f 314 299 278
f 314 278 315
f 315 278 277
f 315 277 316
f 316 277 300
f 316 300 313
f 314 315 316
f 314 316 313
f 262 268 317
f 262 317 318
f 259 262 318
f 259 318 319
f 264 259 319
f 264 319 320
f 268 267 321
f 268 321 317
f 263 264 320
f 263 320 322
f 267 266 323
f 267 323 321
f 265 263 322
f 265 322 324
f 255 258 325
f 255 325 326
f 266 255 326
f 266 326 323
f 258 265 324
f 258 324 325
f 301 304 327
f 301 327 328
f 302 301 328
f 302 328 329
f 308 302 329
f 308 329 330
f 304 303 331
f 304 331 327
f 307 308 330
f 307 330 332
f 303 305 333
f 303 333 331
f 306 307 332
f 306 332 334
f 298 297 335
f 298 335 336
f 305 298 336
f 305 336 333
f 297 306 334
f 297 334 335
f 327 233 236
f 327 236 328
f 331 231 233
f 331 233 327
f 333 227 231
f 333 231 331
f 336 228 227
f 336 227 333
f 317 223 226
f 317 226 318
f 321 221 223
f 321 223 317
f 323 217 221
f 323 221 321
f 326 218 217
f 326 217 323
f 326 325 219
f 326 219 218
f 335 229 228
f 335 228 336
f 319 225 224
f 319 224 320
f 320 224 222
f 320 222 322
f 322 222 220
f 322 220 324
f 324 220 219
f 324 219 325
f 329 235 234
f 329 234 330
f 330 234 232
f 330 232 332
f 332 232 230
f 332 230 334
f 334 230 229
f 334 229 335
f 328 236 235
f 328 235 329
f 318 226 225
f 318 225 319
f 337 338 339
f 337 339 340
f 338 341 342
f 338 342 339
f 341 343 344
f 341 344 342
f 343 345 346
f 343 346 344
f 345 347 348
f 345 348 346
f 347 349 350
f 347 350 348
f 349 351 352
f 349 352 350
f 351 353 354
f 351 354 352
f 352 355 348
f 352 348 350
f 355 356 346
f 355 346 348
f 356 357 344
f 356 344 346
f 357 339 342
f 357 342 344
f 354 358 355
f 354 355 352
f 358 359 356
f 358 356 355
f 359 360 357
f 359 357 356
f 360 340 339
f 360 339 357
f 347 345 361
f 347 361 362
f 345 343 363
f 345 363 361
f 362 361 364
f 362 364 365
f 361 363 366
f 361 366 364
f 341 338 367
f 341 367 368
f 343 341 368
f 343 368 369
f 363 343 369
f 363 369 370
f 369 368 367
f 369 367 370
f 338 337 371
f 338 371 367
f 366 363 370
f 366 370 372
f 370 367 371
f 370 371 372
f 347 362 373
f 347 373 374
f 349 347 374
f 349 374 375
f 351 349 375
f 351 375 376
f 375 374 373
f 375 373 376
f 362 365 377
f 362 377 373
f 353 351 376
f 353 376 378
f 376 373 377
f 376 377 378
f 366 360 359
f 366 359 364
f 340 360 366
f 340 366 337
f 337 366 372
f 337 372 371
f 365 353 378
f 365 378 377
f 358 354 353
f 358 353 365
f 364 359 358
f 364 358 365

