# https://github.com/mikedh/trimesh
v 0.02170242 0.00151098 0.01109600
v 0.01970242 -0.00048902 0.01109600
v 0.02170242 -0.00048902 0.01109600
v 0.01970242 0.00151098 0.00509599
v 0.02170242 -0.00048902 0.00509599
v 0.01970242 -0.00048902 0.00509599
v 0.01970242 -0.00240301 0.00471601
v 0.02170242 -0.00948902 0.01109600
v 0.02170242 0.00151098 0.00509599
v 0.02170242 0.00151098 -0.00490400
v 0.01970242 -0.00048902 -0.00490400
v 0.02170242 -0.00048902 -0.00490400
v 0.01970242 -0.00048902 -0.01090402
v 0.02170242 -0.00048902 -0.01090402
v 0.01970242 -0.00948902 -0.01090402
v 0.01970242 0.00151098 -0.01090402
v 0.01970242 0.00151098 -0.00490400
v 0.02170242 -0.00240301 -0.00452301
v 0.02170242 0.00151098 -0.01090402
v 0.01970242 -0.00240301 -0.00452301
v 0.01970242 0.00151098 0.01109600
v 0.02170242 -0.00948902 -0.01090402
v 0.02170242 -0.00240301 0.00471601
v 0.01970242 -0.00948902 0.01109600
v 0.01970242 -0.00402501 -0.00343901
v 0.02170242 -0.00402501 -0.00343901
v 0.01970242 -0.00510901 -0.00181702
v 0.02170242 -0.00510901 -0.00181702
v 0.01970242 -0.00548902 0.00009599
v 0.02170242 -0.00548902 0.00009599
v 0.01970242 -0.00510901 0.00200999
v 0.02170242 -0.00510901 0.00200999
v 0.01970242 -0.00402501 0.00363201
v 0.02170242 -0.00402501 0.00363201
v 0.02170242 -0.02148902 -0.01090402
v 0.01970242 -0.02148902 -0.01090402
v 0.01970242 -0.01948901 -0.01090402
v 0.02170242 -0.01948901 -0.01090300
v -0.01979758 -0.02148902 -0.01090300
v -0.02179758 -0.02148902 -0.01090300
v -0.02179758 -0.01948901 -0.01090402
v -0.01979758 -0.01948901 -0.01090402
v 0.02170242 -0.01948901 0.01109600
v 0.01970242 -0.01948901 0.01109600
v 0.01970242 -0.02148902 0.01109600
v 0.02170242 -0.02148902 0.01109600
v -0.01979758 -0.01948901 0.01109600
v -0.02179758 -0.01948901 0.01109600
v -0.02179758 -0.02148902 0.01109600
v -0.01979758 -0.02148902 0.01109600
v -0.02179758 -0.00948902 0.01109600
v -0.01979758 -0.00948902 0.01109600
v -0.01979758 -0.00948902 -0.01090402
v -0.02179758 -0.00948902 -0.01090402
v -0.01979758 -0.00240301 -0.00452301
v -0.01979758 -0.00048902 -0.00490400
v -0.02179758 -0.00048902 -0.00490400
v -0.02179758 -0.00240301 -0.00452301
v -0.01979758 -0.00402501 -0.00343901
v -0.02179758 -0.00402501 -0.00343901
v -0.01979758 -0.00510901 -0.00181702
v -0.02179758 -0.00510901 -0.00181702
v -0.01979758 -0.00548902 0.00009599
v -0.02179758 -0.00548902 0.00009599
v -0.01979758 -0.00510901 0.00200999
v -0.02179758 -0.00510901 0.00200999
v -0.01979758 -0.00402501 0.00363201
v -0.02179758 -0.00402501 0.00363201
v -0.01979758 -0.00240301 0.00471601
v -0.02179758 -0.00240301 0.00471601
v -0.01979758 -0.00048902 0.00509599
v -0.02179758 -0.00048902 0.00509599
v -0.02179758 -0.00048902 -0.01090402
v -0.01979758 -0.00048902 -0.01090402
v -0.01979758 -0.00048902 0.01109600
v -0.02179758 -0.00048902 0.01109600
v 0.02170242 -0.02148902 0.00009599
v 0.01970242 -0.02148902 0.00009599
v 0.01970242 -0.02148902 -0.00353301
v 0.02170242 -0.02148902 -0.00353301
v -0.01979758 -0.02148902 0.00009599
v -0.02179758 -0.02148902 0.00009599
v -0.02179758 -0.02148902 -0.00353301
v -0.01979758 -0.02148902 -0.00353301
v 0.02170242 -0.01948901 -0.00353301
v 0.02170242 -0.01948901 0.00009599
v -0.02179758 -0.01948901 -0.00353301
v -0.02179758 -0.01948901 0.00009599
v 0.02170242 -0.00948902 0.00009599
v 0.02170242 -0.00948902 -0.00353301
v 0.01970242 -0.01948901 -0.00353301
v 0.01970242 -0.00948902 -0.00353301
v 0.01970242 -0.01948901 0.00009599
v 0.01970242 -0.00948902 0.00009599
v -0.01979758 -0.00948902 0.00009599
v -0.01979758 -0.01948901 0.00009599
v -0.01979758 -0.01948901 -0.00353301
v -0.01979758 -0.00948902 -0.00353301
v -0.02179758 -0.00948902 -0.00353301
v -0.02179758 -0.00948902 0.00009599
v 0.01970242 -0.02148902 0.00358999
v 0.02170242 -0.02148902 0.00358999
v -0.02179758 -0.02148902 0.00358999
v -0.01979758 -0.02148902 0.00358999
v 0.02170242 -0.01948901 0.00358999
v -0.02179758 -0.01948901 0.00358999
v 0.02170242 -0.00948902 0.00358999
v 0.01970242 -0.01948901 0.00358999
v 0.01970242 -0.00948902 0.00358999
v -0.01979758 -0.01948901 0.00358999
v -0.01979758 -0.00948902 0.00358999
v -0.02179758 -0.00948902 0.00358999
v -0.02179758 0.00151098 0.00509599
v -0.02179758 0.00151098 0.01109600
v -0.01979758 0.00151098 0.01109600
v -0.01979758 0.00151098 0.00509599
v -0.02179758 0.00151098 -0.01090402
v -0.02179758 0.00151098 -0.00490400
v -0.01979758 0.00151098 -0.00490400
v -0.01979758 0.00151098 -0.01090402
v 0.00020242 -0.02148902 0.01109600
v 0.00020242 -0.01948901 0.01109600
v 0.00020242 -0.02148902 0.00358999
v 0.00020242 -0.01948901 0.00358999
v 0.00020242 -0.02148902 0.00009599
v 0.00020242 -0.01948901 0.00009599
v 0.00020242 -0.02148902 -0.00353301
v 0.00020242 -0.01948901 -0.00353301
v 0.00020242 -0.02148902 -0.01090402
v 0.00020242 -0.01948901 -0.01090402
f 1 2 3
f 4 5 6
f 6 5 7
f 3 2 8
f 1 3 9
f 5 3 8
f 10 11 12
f 13 14 15
f 16 13 17
f 16 14 13
f 12 18 14
f 12 19 10
f 15 11 13
f 20 11 15
f 12 14 19
f 19 14 16
f 17 11 10
f 9 3 5
f 21 2 1
f 2 6 7
f 6 2 21
f 9 5 4
f 13 11 17
f 18 11 20
f 12 11 18
f 4 6 21
f 22 14 18
f 23 5 8
f 24 2 7
f 8 2 24
f 7 5 23
f 15 14 22
f 18 20 25
f 18 25 26
f 26 25 27
f 26 27 28
f 28 27 29
f 28 29 30
f 30 29 31
f 30 31 32
f 32 31 33
f 32 33 34
f 34 33 7
f 34 7 23
f 35 36 37
f 35 37 38
f 39 40 41
f 39 41 42
f 43 44 45
f 43 45 46
f 47 48 49
f 47 49 50
f 24 44 43
f 24 43 8
f 22 38 37
f 22 37 15
f 51 48 47
f 51 47 52
f 53 42 41
f 53 41 54
f 55 56 57
f 55 57 58
f 59 55 58
f 59 58 60
f 61 59 60
f 61 60 62
f 63 61 62
f 63 62 64
f 65 63 64
f 65 64 66
f 67 65 66
f 67 66 68
f 69 67 68
f 69 68 70
f 71 69 70
f 71 70 72
f 73 74 53
f 73 53 54
f 75 76 51
f 75 51 52
f 75 52 69
f 75 69 71
f 55 53 74
f 55 74 56
f 70 51 76
f 70 76 72
f 77 78 79
f 77 79 80
f 79 36 35
f 79 35 80
f 81 82 83
f 81 83 84
f 83 40 39
f 83 39 84
f 35 38 85
f 35 85 80
f 85 86 77
f 85 77 80
f 41 40 83
f 41 83 87
f 83 82 88
f 83 88 87
f 89 86 85
f 89 85 90
f 85 38 22
f 85 22 90
f 15 37 91
f 15 91 92
f 91 93 94
f 91 94 92
f 95 96 97
f 95 97 98
f 97 42 53
f 97 53 98
f 54 41 87
f 54 87 99
f 87 88 100
f 87 100 99
f 46 45 101
f 46 101 102
f 101 78 77
f 101 77 102
f 50 49 103
f 50 103 104
f 103 82 81
f 103 81 104
f 77 86 105
f 77 105 102
f 105 43 46
f 105 46 102
f 88 82 103
f 88 103 106
f 103 49 48
f 103 48 106
f 8 43 105
f 8 105 107
f 105 86 89
f 105 89 107
f 94 93 108
f 94 108 109
f 108 44 24
f 108 24 109
f 52 47 110
f 52 110 111
f 110 96 95
f 110 95 111
f 100 88 106
f 100 106 112
f 106 48 51
f 106 51 112
f 28 30 89
f 28 89 90
f 22 26 28
f 22 28 90
f 30 32 107
f 30 107 89
f 34 8 107
f 34 107 32
f 18 26 22
f 8 34 23
f 24 7 33
f 15 25 20
f 31 109 24
f 31 24 33
f 29 94 109
f 29 109 31
f 92 94 29
f 92 29 27
f 25 15 92
f 25 92 27
f 63 65 111
f 63 111 95
f 67 52 111
f 67 111 65
f 98 61 63
f 98 63 95
f 53 59 61
f 53 61 98
f 67 69 52
f 55 59 53
f 58 54 60
f 54 58 57
f 54 57 73
f 99 62 60
f 99 60 54
f 99 100 64
f 99 64 62
f 66 112 51
f 66 51 68
f 112 66 64
f 112 64 100
f 70 68 51
f 113 72 76
f 113 76 114
f 114 76 75
f 114 75 115
f 115 75 71
f 115 71 116
f 116 71 72
f 116 72 113
f 114 115 116
f 114 116 113
f 117 73 57
f 117 57 118
f 118 57 56
f 118 56 119
f 119 56 74
f 119 74 120
f 120 74 73
f 120 73 117
f 118 119 120
f 118 120 117
f 4 21 1
f 4 1 9
f 16 17 10
f 16 10 19
f 121 45 44
f 121 44 122
f 121 122 47
f 121 47 50
f 121 50 104
f 121 104 123
f 121 123 101
f 121 101 45
f 122 44 108
f 122 108 124
f 122 124 110
f 122 110 47
f 123 104 81
f 123 81 125
f 123 125 78
f 123 78 101
f 124 108 93
f 124 93 126
f 124 126 96
f 124 96 110
f 125 81 84
f 125 84 127
f 125 127 79
f 125 79 78
f 126 93 91
f 126 91 128
f 126 128 97
f 126 97 96
f 127 84 39
f 127 39 129
f 127 129 36
f 127 36 79
f 128 91 37
f 128 37 130
f 128 130 42
f 128 42 97
f 129 39 42
f 129 42 130
f 129 130 37
f 129 37 36

