# https://github.com/mikedh/trimesh
v -0.01478175 0.01628577 -0.00602291
v -0.01478175 -0.01621423 -0.00602291
v -0.01599965 -0.01621423 0.00010000
v -0.01599965 0.01628577 0.00010000
v -0.01131335 0.01628577 -0.01121370
v -0.01131335 -0.01621423 -0.01121370
v 0.01478245 0.01628577 -0.00602291
v 0.01478245 -0.01621424 -0.00602291
v 0.01131405 -0.01621423 -0.01121370
v 0.01131405 0.01628577 -0.01121370
v 0.01600035 0.01628577 0.00010000
v 0.01600035 -0.01621424 0.00010000
v 0.00000035 0.01628577 0.00010000
v 0.00000035 -0.01621423 0.00010000
v -0.01599965 0.01628577 0.00960000
v -0.01599965 -0.01621423 0.00960000
v 0.00000035 -0.01621424 0.00960000
v 0.00000035 0.01628577 0.00960000
v 0.01600035 -0.01621424 0.00960000
v 0.01600035 0.01628577 0.00960000
v -0.01599965 0.01628577 0.03110000
v -0.01599965 -0.01621424 0.03110000
v 0.00000035 -0.01621424 0.03110000
v 0.00000035 0.01628577 0.03110000
v 0.01600035 -0.01621424 0.03110000
v 0.01600035 0.01628577 0.03110000
v -0.00114775 0.01978577 0.00287160
v -0.00114775 0.01628577 0.00287160
v 0.00000035 0.01628577 0.00309999
v 0.00000035 0.01978577 0.00309999
v -0.00212095 0.01978577 0.00222130
v -0.00212095 0.01628577 0.00222130
v -0.00277125 0.01978577 0.00124810
v -0.00277125 0.01628577 0.00124810
v -0.00299965 0.01978577 0.00010000
v -0.00299965 0.01628577 0.00010000
v -0.00277125 0.01978577 -0.00104810
v -0.00277125 0.01628577 -0.00104810
v -0.00212095 0.01978577 -0.00202130
v -0.00212095 0.01628577 -0.00202130
v -0.00114775 0.01978577 -0.00267161
v -0.00114775 0.01628577 -0.00267161
v 0.00000035 0.01978577 -0.00290000
v 0.00000035 0.01628577 -0.00290000
v 0.00114835 0.01978577 -0.00267161
v 0.00114835 0.01628577 -0.00267161
v 0.00212165 0.01978577 -0.00202130
v 0.00212165 0.01628577 -0.00202130
v 0.00277195 0.01978577 -0.00104810
v 0.00277195 0.01628577 -0.00104810
v 0.00300035 0.01978577 0.00010000
v 0.00300035 0.01628577 0.00010000
v 0.00277195 0.01978577 0.00124810
v 0.00277195 0.01628577 0.00124810
v 0.00212165 0.01978577 0.00222130
v 0.00212165 0.01628577 0.00222130
v 0.00114835 0.01978577 0.00287160
v 0.00114835 0.01628577 0.00287160
v 0.00000035 0.01978577 0.00010000
v -0.02499965 0.01481787 -0.00602291
v -0.05749965 0.01481787 -0.00602291
v -0.05749965 0.01603577 0.00010000
v -0.02499965 0.01603577 0.00010000
v -0.02499965 0.01134947 -0.01121370
v -0.05749965 0.01134947 -0.01121370
v -0.02499965 -0.01474633 -0.00602291
v -0.05749965 -0.01474633 -0.00602291
v -0.05749965 -0.01127792 -0.01121370
v -0.02499965 -0.01127792 -0.01121370
v -0.02499965 -0.01596423 0.00010000
v -0.05749965 -0.01596423 0.00010000
v -0.02499965 0.00003577 0.00010000
v -0.05749965 0.00003577 0.00010000
v -0.02499965 0.01603577 0.00960000
v -0.05749965 0.01603577 0.00960000
v -0.05749965 0.00003577 0.00960000
v -0.02499965 0.00003577 0.00960000
v -0.05749965 -0.01596423 0.00960000
v -0.02499965 -0.01596423 0.00960000
v -0.02499965 0.01603577 0.03110000
v -0.05749965 0.01603577 0.03110000
v -0.05749965 0.00003577 0.03110000
v -0.02499965 0.00003577 0.03110000
v -0.05749965 -0.01596423 0.03110000
v -0.02499965 -0.01596423 0.03110000
v -0.02149965 0.00118387 0.00287160
v -0.02499965 0.00118387 0.00287160
v -0.02499965 0.00003577 0.00309999
v -0.02149965 0.00003577 0.00309999
v -0.02149965 0.00215707 0.00222130
v -0.02499965 0.00215707 0.00222130
v -0.02149965 0.00280737 0.00124810
v -0.02499965 0.00280737 0.00124810
v -0.02149965 0.00303577 0.00010000
v -0.02499965 0.00303577 0.00010000
v -0.02149965 0.00280737 -0.00104810
v -0.02499965 0.00280737 -0.00104810
v -0.02149965 0.00215707 -0.00202130
v -0.02499965 0.00215707 -0.00202130
v -0.02149965 0.00118387 -0.00267161
v -0.02499965 0.00118387 -0.00267161
v -0.02149965 0.00003577 -0.00290000
v -0.02499965 0.00003577 -0.00290000
v -0.02149965 -0.00111223 -0.00267161
v -0.02499965 -0.00111223 -0.00267161
v -0.02149965 -0.00208553 -0.00202130
v -0.02499965 -0.00208553 -0.00202130
v -0.02149965 -0.00273583 -0.00104810
v -0.02499965 -0.00273583 -0.00104810
v -0.02149965 -0.00296423 0.00010000
v -0.02499965 -0.00296423 0.00010000
v -0.02149965 -0.00273583 0.00124810
v -0.02499965 -0.00273583 0.00124810
v -0.02149965 -0.00208553 0.00222130
v -0.02499965 -0.00208553 0.00222130
v -0.02149965 -0.00111223 0.00287160
v -0.02499965 -0.00111223 0.00287160
v -0.02149965 0.00003577 0.00010000
f 1 2 3
f 4 1 3
f 5 6 2
f 1 5 2
f 7 8 9
f 10 7 9
f 11 12 8
f 7 11 8
f 13 1 4
f 13 5 1
f 13 7 10
f 13 11 7
f 14 3 2
f 14 2 6
f 14 9 8
f 14 8 12
f 15 4 3
f 16 15 3
f 16 3 14
f 17 16 14
f 18 13 4
f 15 18 4
f 17 14 12
f 19 17 12
f 19 12 11
f 20 19 11
f 20 11 13
f 18 20 13
f 21 15 16
f 22 21 16
f 22 16 17
f 23 22 17
f 24 18 15
f 21 24 15
f 22 23 24
f 21 22 24
f 23 17 19
f 25 23 19
f 25 19 20
f 26 25 20
f 26 20 18
f 24 26 18
f 23 25 26
f 24 23 26
f 10 9 6
f 5 10 6
f 10 5 13
f 14 6 9
f 27 28 29
f 30 27 29
f 31 32 28
f 27 31 28
f 33 34 32
f 31 33 32
f 35 36 34
f 33 35 34
f 37 38 36
f 35 37 36
f 39 40 38
f 37 39 38
f 41 42 40
f 39 41 40
f 43 44 42
f 41 43 42
f 45 46 44
f 43 45 44
f 47 48 46
f 45 47 46
f 49 50 48
f 47 49 48
f 51 52 50
f 49 51 50
f 53 54 52
f 51 53 52
f 55 56 54
f 53 55 54
f 57 58 56
f 55 57 56
f 30 29 58
f 57 30 58
f 59 27 30
f 59 31 27
f 59 33 31
f 59 35 33
f 59 37 35
f 59 39 37
f 59 41 39
f 59 43 41
f 59 45 43
f 59 47 45
f 59 49 47
f 59 51 49
f 59 53 51
f 59 55 53
f 59 57 55
f 59 30 57
f 13 29 28
f 13 28 32
f 13 32 34
f 13 34 36
f 13 36 38
f 13 38 40
f 13 40 42
f 13 42 44
f 13 44 46
f 13 46 48
f 13 48 50
f 13 50 52
f 13 52 54
f 13 54 56
f 13 56 58
f 13 58 29
f 60 61 62
f 63 60 62
f 64 65 61
f 60 64 61
f 66 67 68
f 69 66 68
f 70 71 67
f 66 70 67
f 72 60 63
f 72 64 60
f 72 66 69
f 72 70 66
f 73 62 61
f 73 61 65
f 73 68 67
f 73 67 71
f 74 63 62
f 75 74 62
f 75 62 73
f 76 75 73
f 77 72 63
f 74 77 63
f 76 73 71
f 78 76 71
f 78 71 70
f 79 78 70
f 79 70 72
f 77 79 72
f 80 74 75
f 81 80 75
f 81 75 76
f 82 81 76
f 83 77 74
f 80 83 74
f 81 82 83
f 80 81 83
f 82 76 78
f 84 82 78
f 84 78 79
f 85 84 79
f 85 79 77
f 83 85 77
f 82 84 85
f 83 82 85
f 69 68 65
f 64 69 65
f 69 64 72
f 73 65 68
f 86 87 88
f 89 86 88
f 90 91 87
f 86 90 87
f 92 93 91
f 90 92 91
f 94 95 93
f 92 94 93
f 96 97 95
f 94 96 95
f 98 99 97
f 96 98 97
f 100 101 99
f 98 100 99
f 102 103 101
f 100 102 101
f 104 105 103
f 102 104 103
f 106 107 105
f 104 106 105
f 108 109 107
f 106 108 107
f 110 111 109
f 108 110 109
f 112 113 111
f 110 112 111
f 114 115 113
f 112 114 113
f 116 117 115
f 114 116 115
f 89 88 117
f 116 89 117
f 118 86 89
f 118 90 86
f 118 92 90
f 118 94 92
f 118 96 94
f 118 98 96
f 118 100 98
f 118 102 100
f 118 104 102
f 118 106 104
f 118 108 106
f 118 110 108
f 118 112 110
f 118 114 112
f 118 116 114
f 118 89 116
f 72 88 87
f 72 87 91
f 72 91 93
f 72 93 95
f 72 95 97
f 72 97 99
f 72 99 101
f 72 101 103
f 72 103 105
f 72 105 107
f 72 107 109
f 72 109 111
f 72 111 113
f 72 113 115
f 72 115 117
f 72 117 88

