# https://github.com/mikedh/trimesh
v 0.01900035 -0.01596424 0.03010000
v 0.01750035 -0.01596424 0.03010000
v 0.01750035 -0.01746424 0.03010000
v 0.01900035 -0.01746424 0.03010000
v 0.01900035 0.00003576 0.03010000
v 0.01750035 0.00003576 0.03010000
v 0.01900035 0.01603576 0.03010000
v 0.01750035 0.01603576 0.03010000
v 0.01900035 0.01753576 0.03010000
v 0.01750035 0.01753576 0.03010000
v 0.01900035 0.01753576 0.02210000
v 0.01750035 0.01753576 0.02210000
v 0.01900035 0.01753576 0.01409999
v 0.01750035 0.01753576 0.01409999
v 0.01900035 0.01753576 0.00610000
v 0.01750035 0.01753576 0.00610000
v 0.01900035 0.01753576 -0.00190000
v 0.01750035 0.01753576 -0.00190000
v 0.01900035 0.01603576 -0.00190000
v 0.01750035 0.01603576 -0.00190000
v 0.01900035 0.00003576 -0.00190000
v 0.01750035 0.00003576 -0.00190000
v 0.01900035 -0.01596424 -0.00190000
v 0.01750035 -0.01596424 -0.00190000
v 0.01900035 -0.01746424 -0.00190000
v 0.01750035 -0.01746424 -0.00190000
v 0.01900035 -0.01746424 0.00610000
v 0.01750035 -0.01746424 0.00610000
v 0.01900035 -0.01746424 0.01409999
v 0.01750035 -0.01746424 0.01409999
v 0.01900035 -0.01746424 0.02210000
v 0.01750035 -0.01746424 0.02210000
v 0.01900035 -0.01596424 0.00610000
v 0.01900035 0.00003576 0.00610000
v 0.01900035 0.01603576 0.00610000
v 0.01900035 -0.01596424 0.01409999
v 0.01900035 0.00003576 0.01409999
v 0.01900035 0.01603576 0.01409999
v 0.01900035 -0.01596424 0.02210000
v 0.01900035 0.00003576 0.02210000
v 0.01900035 0.01603576 0.02210000
v 0.01750035 0.00003576 0.00610000
v 0.01750035 -0.01596424 0.00610000
v 0.01750035 0.01603576 0.00610000
v 0.01750035 0.00003576 0.01409999
v 0.01750035 -0.01596424 0.01409999
v 0.01750035 0.01603576 0.01409999
v 0.01750035 0.00003576 0.02210000
v 0.01750035 -0.01596424 0.02210000
v 0.01750035 0.01603576 0.02210000
v 0.01100035 0.01753576 0.00610000
v 0.01100035 0.01753576 -0.00190000
v 0.01100035 0.01603576 -0.00190000
v 0.01100035 0.01603576 0.00610000
v 0.01100035 0.01753576 0.01409999
v 0.01100035 0.01603576 0.01409999
v 0.01100035 0.01753576 0.02210000
v 0.01100035 0.01603576 0.02210000
v 0.01100035 0.01603576 0.03010000
v 0.01100035 0.01753576 0.03010000
v 0.01100035 -0.01596424 0.00610000
v 0.01100035 -0.01596424 -0.00190000
v 0.01100035 -0.01746424 -0.00190000
v 0.01100035 -0.01746424 0.00610000
v 0.01100035 -0.01596424 0.01409999
v 0.01100035 -0.01746424 0.01409999
v 0.01100035 -0.01596424 0.02210000
v 0.01100035 -0.01746424 0.02210000
v 0.01100035 -0.01746424 0.03010000
v 0.01100035 -0.01596424 0.03010000
v -0.01749965 -0.01746424 0.03010000
v -0.01749965 -0.01596424 0.03010000
v -0.01899965 -0.01596424 0.03010000
v -0.01899965 -0.01746424 0.03010000
v -0.01899965 0.01753576 0.03010000
v -0.01749965 0.01753576 0.03010000
v -0.01749965 0.01603576 0.03010000
v -0.01899965 0.01603576 0.03010000
v -0.01899965 0.01753577 0.02210000
v -0.01749965 0.01753577 0.02210000
v -0.01899965 0.01753577 0.01409999
v -0.01749965 0.01753577 0.01409999
v -0.01749965 -0.01746423 0.01409999
v -0.01749965 -0.01746423 0.02210000
v -0.01899965 -0.01746423 0.02210000
v -0.01899965 -0.01746423 0.01409999
v -0.01099965 0.01753577 0.00610000
v -0.01749965 0.01753577 0.00610000
v -0.01749965 0.01753577 -0.00190000
v -0.01099965 0.01753577 -0.00190000
v -0.01749965 0.01603577 -0.00190000
v -0.01099965 0.01603577 -0.00190000
v -0.01749965 0.01603577 0.00610000
v -0.01099965 0.01603577 0.00610000
v -0.01099965 0.01753577 0.01409999
v -0.01749965 0.01603577 0.01409999
v -0.01099965 0.01603577 0.01409999
v -0.01099965 0.01753576 0.02210000
v -0.01749965 0.01603577 0.02210000
v -0.01099965 0.01603576 0.02210000
v -0.01099965 0.01603576 0.03010000
v -0.01099965 0.01753576 0.03010000
v -0.01099965 -0.01596423 0.00610000
v -0.01749965 -0.01596423 0.00610000
v -0.01749965 -0.01596423 -0.00190000
v -0.01099965 -0.01596423 -0.00190000
v -0.01749965 -0.01746423 -0.00190000
v -0.01099965 -0.01746423 -0.00190000
v -0.01749965 -0.01746423 0.00610000
v -0.01099965 -0.01746423 0.00610000
v -0.01099965 -0.01596423 0.01409999
v -0.01749965 -0.01596423 0.01409999
v -0.01099965 -0.01746423 0.01409999
v -0.01749965 -0.01596423 0.02210000
v -0.01099965 -0.01596424 0.02210000
v -0.01099965 -0.01746424 0.02210000
v -0.01099965 -0.01746424 0.03010000
v -0.01099965 -0.01596424 0.03010000
v -0.02299965 -0.01746423 0.01409999
v -0.02299965 -0.01746423 0.02210000
v -0.02299965 0.01753577 0.02210000
v -0.02299965 0.01753577 0.01409999
v -0.02299965 -0.01746423 0.03010000
v -0.02299965 -0.01596423 0.03010000
v -0.02299965 0.01603577 0.03010000
v -0.02299965 0.01753577 0.03010000
v -0.02499965 -0.01746423 -0.00190000
v -0.02299965 -0.01746423 -0.00190000
v -0.02299965 -0.01746423 0.00610000
v -0.02499965 -0.01746423 0.00610000
v -0.02499965 -0.01596423 -0.00190000
v -0.02299965 -0.01596423 -0.00190000
v -0.02499965 -0.01596423 0.00610000
v -0.02499965 0.00003577 -0.00190000
v -0.02299965 0.00003577 -0.00190000
v -0.02499965 0.00003577 0.00610000
v -0.02499965 0.01603577 -0.00190000
v -0.02299965 0.01603577 -0.00190000
v -0.02499965 0.01603577 0.00610000
v -0.02499965 0.01753577 0.00610000
v -0.02299965 0.01753577 0.00610000
v -0.02299965 0.01753577 -0.00190000
v -0.02499965 0.01753577 -0.00190000
v -0.02499965 -0.01746423 0.01409999
v -0.02499965 -0.01596423 0.01409999
v -0.02499965 0.00003577 0.01409999
v -0.02499965 0.01603577 0.01409999
v -0.02499965 0.01753577 0.01409999
v -0.02499965 -0.01746423 0.02210000
v -0.02499965 -0.01596423 0.02210000
v -0.02499965 0.00003577 0.02210000
v -0.02499965 0.01603577 0.02210000
v -0.02499965 0.01753577 0.02210000
v -0.02499965 -0.01746423 0.03010000
v -0.02499965 -0.01596423 0.03010000
v -0.02299965 0.00003577 0.03010000
v -0.02499965 0.00003577 0.03010000
v -0.02499965 0.01603577 0.03010000
v -0.02499965 0.01753577 0.03010000
f 1 2 3
f 4 1 3
f 5 6 2
f 1 5 2
f 7 8 6
f 5 7 6
f 9 10 8
f 7 9 8
f 11 12 10
f 9 11 10
f 13 14 12
f 11 13 12
f 15 16 14
f 13 15 14
f 17 18 16
f 15 17 16
f 19 20 18
f 17 19 18
f 21 22 20
f 19 21 20
f 23 24 22
f 21 23 22
f 25 26 24
f 23 25 24
f 27 28 26
f 25 27 26
f 29 30 28
f 27 29 28
f 31 32 30
f 29 31 30
f 4 3 32
f 31 4 32
f 23 33 27
f 25 23 27
f 21 34 33
f 23 21 33
f 19 35 34
f 21 19 34
f 17 15 35
f 19 17 35
f 33 36 29
f 27 33 29
f 34 37 36
f 33 34 36
f 35 38 37
f 34 35 37
f 15 13 38
f 35 15 38
f 36 39 31
f 29 36 31
f 37 40 39
f 36 37 39
f 38 41 40
f 37 38 40
f 13 11 41
f 38 13 41
f 39 1 4
f 31 39 4
f 40 5 1
f 39 40 1
f 41 7 5
f 40 41 5
f 11 9 7
f 41 11 7
f 42 22 24
f 43 42 24
f 44 20 22
f 42 44 22
f 45 42 43
f 46 45 43
f 47 44 42
f 45 47 42
f 48 45 46
f 49 48 46
f 50 47 45
f 48 50 45
f 6 48 49
f 2 6 49
f 8 50 48
f 6 8 48
f 51 16 18
f 52 51 18
f 52 18 20
f 53 52 20
f 53 20 44
f 54 53 44
f 51 52 53
f 54 51 53
f 55 14 16
f 51 55 16
f 54 44 47
f 56 54 47
f 55 51 54
f 56 55 54
f 57 12 14
f 55 57 14
f 56 47 50
f 58 56 50
f 57 55 56
f 58 57 56
f 59 8 10
f 60 59 10
f 60 10 12
f 57 60 12
f 58 50 8
f 59 58 8
f 60 57 58
f 59 60 58
f 61 43 24
f 62 61 24
f 62 24 26
f 63 62 26
f 63 26 28
f 64 63 28
f 61 62 63
f 64 61 63
f 65 46 43
f 61 65 43
f 64 28 30
f 66 64 30
f 65 61 64
f 66 65 64
f 67 49 46
f 65 67 46
f 66 30 32
f 68 66 32
f 67 65 66
f 68 67 66
f 69 3 2
f 70 69 2
f 70 2 49
f 67 70 49
f 68 32 3
f 69 68 3
f 70 67 68
f 69 70 68
f 71 72 73
f 74 71 73
f 75 76 77
f 75 77 78
f 79 80 76
f 79 76 75
f 81 82 80
f 81 80 79
f 83 84 85
f 86 83 85
f 84 71 74
f 85 84 74
f 87 88 89
f 87 89 90
f 90 89 91
f 90 91 92
f 92 91 93
f 92 93 94
f 87 90 92
f 87 92 94
f 95 82 88
f 95 88 87
f 94 93 96
f 94 96 97
f 95 87 94
f 95 94 97
f 98 80 82
f 98 82 95
f 97 96 99
f 97 99 100
f 98 95 97
f 98 97 100
f 101 77 76
f 101 76 102
f 102 76 80
f 102 80 98
f 77 99 100
f 101 77 100
f 102 98 100
f 102 100 101
f 103 104 105
f 103 105 106
f 106 105 107
f 106 107 108
f 108 107 109
f 108 109 110
f 103 106 108
f 103 108 110
f 111 112 104
f 111 104 103
f 110 109 83
f 110 83 113
f 111 103 110
f 111 110 113
f 112 114 115
f 111 112 115
f 84 83 113
f 116 84 113
f 113 111 115
f 116 113 115
f 72 71 117
f 118 72 117
f 114 72 118
f 115 114 118
f 71 84 116
f 117 71 116
f 116 115 118
f 117 116 118
f 119 86 85
f 120 119 85
f 81 79 121
f 81 121 122
f 120 85 74
f 123 120 74
f 123 74 73
f 124 123 73
f 75 78 125
f 75 125 126
f 79 75 126
f 79 126 121
f 127 128 129
f 130 127 129
f 131 132 128
f 127 131 128
f 130 133 131
f 127 130 131
f 134 135 132
f 131 134 132
f 133 136 134
f 131 133 134
f 137 138 135
f 134 137 135
f 136 139 137
f 134 136 137
f 140 141 142
f 143 140 142
f 143 142 138
f 137 143 138
f 139 140 143
f 137 139 143
f 130 129 119
f 144 130 119
f 144 145 133
f 130 144 133
f 145 146 136
f 133 145 136
f 146 147 139
f 136 146 139
f 148 122 141
f 140 148 141
f 147 148 140
f 139 147 140
f 144 119 120
f 149 144 120
f 149 150 145
f 144 149 145
f 150 151 146
f 145 150 146
f 151 152 147
f 146 151 147
f 153 121 122
f 148 153 122
f 152 153 148
f 147 152 148
f 149 120 123
f 154 149 123
f 154 123 124
f 155 154 124
f 154 155 150
f 149 154 150
f 155 124 156
f 157 155 156
f 155 157 151
f 150 155 151
f 157 156 125
f 158 157 125
f 157 158 152
f 151 157 152
f 158 125 126
f 159 158 126
f 159 126 121
f 153 159 121
f 158 159 153
f 152 158 153
f 119 129 141
f 122 119 141
f 132 138 141
f 129 132 141
f 141 138 142
f 129 128 132
f 88 93 91
f 88 91 89
f 82 96 93
f 82 93 88
f 104 109 107
f 104 107 105
f 112 83 109
f 112 109 104
f 114 150 155
f 72 114 155
f 112 145 150
f 114 112 150
f 158 152 99
f 77 158 99
f 120 121 126
f 123 120 126
f 119 122 121
f 120 119 121
f 145 144 83
f 145 83 112
f 99 152 147
f 147 99 96
f 148 147 96
f 148 96 82

