# https://github.com/mikedh/trimesh
v 0.01478217 0.01623895 0.00610923
v 0.01478217 -0.01626105 0.00610923
v 0.01600007 -0.01626105 -0.00001369
v 0.01600007 0.01623895 -0.00001369
v 0.01131377 0.01623895 0.01130002
v 0.01131377 -0.01626105 0.01130002
v -0.01478203 0.01623895 0.00610923
v -0.01478203 -0.01626105 0.00610923
v -0.01131363 -0.01626105 0.01130002
v -0.01131363 0.01623895 0.01130002
v -0.01599993 0.01623895 -0.00001369
v -0.01599993 -0.01626105 -0.00001369
v 0.00000007 0.01623895 -0.00001369
v 0.00000007 -0.01626105 -0.00001369
v 0.01600007 0.01623895 -0.00951369
v 0.01600007 -0.01626105 -0.00951369
v 0.00000007 -0.01626105 -0.00951369
v 0.00000007 0.01623895 -0.00951369
v -0.01599993 -0.01626105 -0.00951369
v -0.01599993 0.01623895 -0.00951369
v 0.01600007 0.01623895 -0.03101370
v 0.01600007 -0.01626105 -0.03101370
v 0.00000007 -0.01626105 -0.03101370
v 0.00000007 0.01623895 -0.03101370
v -0.01599993 -0.01626105 -0.03101370
v -0.01599993 0.01623895 -0.03101370
v 0.00114817 0.01973895 -0.00278527
v 0.00114817 0.01623895 -0.00278527
v 0.00000007 0.01623895 -0.00301371
v 0.00000007 0.01973895 -0.00301371
v 0.00212137 0.01973895 -0.00213499
v 0.00212137 0.01623895 -0.00213499
v 0.00277167 0.01973895 -0.00116179
v 0.00277167 0.01623895 -0.00116179
v 0.00300007 0.01973895 -0.00001369
v 0.00300007 0.01623895 -0.00001369
v 0.00277167 0.01973895 0.00113442
v 0.00277167 0.01623895 0.00113442
v 0.00212137 0.01973895 0.00210761
v 0.00212137 0.01623895 0.00210761
v 0.00114817 0.01973895 0.00275790
v 0.00114817 0.01623895 0.00275790
v 0.00000007 0.01973895 0.00298630
v 0.00000007 0.01623895 0.00298630
v -0.00114793 0.01973895 0.00275790
v -0.00114793 0.01623895 0.00275790
v -0.00212123 0.01973895 0.00210761
v -0.00212123 0.01623895 0.00210761
v -0.00277153 0.01973895 0.00113442
v -0.00277153 0.01623895 0.00113442
v -0.00299993 0.01973895 -0.00001369
v -0.00299993 0.01623895 -0.00001369
v -0.00277153 0.01973895 -0.00116179
v -0.00277153 0.01623895 -0.00116179
v -0.00212123 0.01973895 -0.00213499
v -0.00212123 0.01623895 -0.00213499
v -0.00114793 0.01973895 -0.00278527
v -0.00114793 0.01623895 -0.00278527
v 0.00000007 0.01973895 -0.00001369
f 1 2 3
f 4 1 3
f 5 6 2
f 1 5 2
f 7 8 9
f 10 7 9
f 11 12 8
f 7 11 8
f 13 1 4
f 13 5 1
f 13 7 10
f 13 11 7
f 14 3 2
f 14 2 6
f 14 9 8
f 14 8 12
f 15 4 3
f 16 15 3
f 16 3 14
f 17 16 14
f 18 13 4
f 15 18 4
f 17 14 12
f 19 17 12
f 19 12 11
f 20 19 11
f 20 11 13
f 18 20 13
f 21 15 16
f 22 21 16
f 22 16 17
f 23 22 17
f 24 18 15
f 21 24 15
f 22 23 24
f 21 22 24
f 23 17 19
f 25 23 19
f 25 19 20
f 26 25 20
f 26 20 18
f 24 26 18
f 23 25 26
f 24 23 26
f 10 9 6
f 5 10 6
f 10 5 13
f 14 6 9
f 27 28 29
f 30 27 29
f 31 32 28
f 27 31 28
f 33 34 32
f 31 33 32
f 35 36 34
f 33 35 34
f 37 38 36
f 35 37 36
f 39 40 38
f 37 39 38
f 41 42 40
f 39 41 40
f 43 44 42
f 41 43 42
f 45 46 44
f 43 45 44
f 47 48 46
f 45 47 46
f 49 50 48
f 47 49 48
f 51 52 50
f 49 51 50
f 53 54 52
f 51 53 52
f 55 56 54
f 53 55 54
f 57 58 56
f 55 57 56
f 30 29 58
f 57 30 58
f 59 27 30
f 59 31 27
f 59 33 31
f 59 35 33
f 59 37 35
f 59 39 37
f 59 41 39
f 59 43 41
f 59 45 43
f 59 47 45
f 59 49 47
f 59 51 49
f 59 53 51
f 59 55 53
f 59 57 55
f 59 30 57
f 13 29 28
f 13 28 32
f 13 32 34
f 13 34 36
f 13 36 38
f 13 38 40
f 13 40 42
f 13 42 44
f 13 44 46
f 13 46 48
f 13 48 50
f 13 50 52
f 13 52 54
f 13 54 56
f 13 56 58
f 13 58 29

