# https://github.com/mikedh/trimesh
v -0.01674926 0.01633746 -0.02499595
v -0.01824926 0.01633746 -0.02499595
v -0.01824926 0.00833745 -0.02499595
v -0.01674926 0.00833646 -0.02499595
v -0.01824926 0.01633645 -0.03149495
v -0.01824926 0.00833745 -0.03149495
v -0.01674926 0.00833745 -0.03149495
v -0.01674926 0.01633645 -0.03149495
v -0.01824926 0.00033746 -0.02499595
v -0.01674926 0.00033746 -0.02499595
v -0.01824926 0.00033746 -0.03149495
v -0.01674926 0.00033746 -0.03149495
v -0.01824926 -0.00766256 -0.02499595
v -0.01674926 -0.00766256 -0.02499595
v -0.01824926 -0.00766256 -0.03149595
v -0.01674926 -0.00766256 -0.03149595
v -0.01824926 -0.01566254 -0.02499595
v -0.01674926 -0.01566254 -0.02499595
v -0.01824926 -0.01566254 -0.03149495
v -0.01674926 -0.01566254 -0.03149495
v 0.01825074 0.01633645 -0.02499595
v 0.01675074 0.01633746 -0.02499595
v 0.01675074 0.00833745 -0.02499595
v 0.01825074 0.00833745 -0.02499595
v 0.01675074 0.01633746 -0.03149495
v 0.01675074 0.00833745 -0.03149495
v 0.01825074 0.00833745 -0.03149495
v 0.01825074 0.01633645 -0.03149495
v 0.01675074 0.00033746 -0.02499595
v 0.01825074 0.00033746 -0.02499595
v 0.01675074 0.00033746 -0.03149495
v 0.01825074 0.00033746 -0.03149495
v 0.01675074 -0.00766256 -0.02499595
v 0.01825074 -0.00766256 -0.02499595
v 0.01675074 -0.00766256 -0.03149595
v 0.01825074 -0.00766256 -0.03149495
v 0.01675074 -0.01566254 -0.02499595
v 0.01825074 -0.01566254 -0.02499595
v 0.01675074 -0.01566254 -0.03149495
v 0.01825074 -0.01566254 -0.03149495
v 0.01825074 0.00833745 -0.03299595
v 0.01675074 0.00833745 -0.03299595
v 0.01675074 0.01633746 -0.03299595
v 0.01825074 0.01633746 -0.03299595
v -0.01674926 0.00833745 -0.03299595
v -0.01824926 0.00833745 -0.03299595
v -0.01824926 0.01633746 -0.03299595
v -0.01674926 0.01633746 -0.03299595
v 0.01825074 0.00033746 -0.03299495
v 0.01675074 0.00033746 -0.03299495
v -0.01674926 0.00033746 -0.03299495
v -0.01824926 0.00033746 -0.03299495
v 0.01825074 -0.00766256 -0.03299595
v 0.01675074 -0.00766256 -0.03299595
v -0.01674926 -0.00766256 -0.03299595
v -0.01824926 -0.00766256 -0.03299595
v 0.01825074 -0.01566254 -0.03299595
v 0.01675074 -0.01566254 -0.03299595
v -0.01674926 -0.01566254 -0.03299595
v -0.01824926 -0.01566254 -0.03299595
v 0.00000074 -0.01566254 -0.03149495
v 0.00000074 -0.01566254 -0.03299595
v 0.00000074 -0.00766256 -0.03149595
v 0.00000074 -0.00766256 -0.03299595
v 0.00000074 0.00033746 -0.03149495
v 0.00000074 0.00033746 -0.03299495
v 0.00000074 0.00833745 -0.03149495
v 0.00000074 0.00833745 -0.03299595
v 0.00000074 0.01633645 -0.03149495
v 0.00000074 0.01633645 -0.03299595
f 1 2 3
f 4 1 3
f 3 2 5
f 6 3 5
f 1 4 7
f 8 1 7
f 2 1 8
f 5 2 8
f 4 3 9
f 10 4 9
f 9 3 6
f 11 9 6
f 4 10 12
f 7 4 12
f 10 9 13
f 14 10 13
f 13 9 11
f 15 13 11
f 10 14 16
f 12 10 16
f 14 13 17
f 18 14 17
f 17 13 15
f 19 17 15
f 18 17 19
f 20 18 19
f 14 18 20
f 16 14 20
f 21 22 23
f 24 21 23
f 23 22 25
f 26 23 25
f 21 24 27
f 28 21 27
f 22 21 28
f 25 22 28
f 24 23 29
f 30 24 29
f 29 23 26
f 31 29 26
f 24 30 32
f 27 24 32
f 30 29 33
f 34 30 33
f 33 29 31
f 35 33 31
f 30 34 36
f 32 30 36
f 34 33 37
f 38 34 37
f 37 33 35
f 39 37 35
f 38 37 39
f 40 38 39
f 34 38 40
f 36 34 40
f 41 42 43
f 44 41 43
f 45 46 47
f 48 45 47
f 49 50 42
f 41 49 42
f 51 52 46
f 45 51 46
f 53 54 50
f 49 53 50
f 55 56 52
f 51 55 52
f 57 58 54
f 53 57 54
f 59 60 56
f 55 59 56
f 47 46 6
f 5 47 6
f 46 52 11
f 6 46 11
f 52 56 15
f 11 52 15
f 56 60 19
f 15 56 19
f 60 59 20
f 19 60 20
f 58 57 40
f 39 58 40
f 57 53 36
f 40 57 36
f 53 49 32
f 36 53 32
f 49 41 27
f 32 49 27
f 41 44 28
f 27 41 28
f 44 43 25
f 28 44 25
f 48 47 5
f 8 48 5
f 58 39 61
f 62 58 61
f 59 62 61
f 20 59 61
f 16 20 61
f 63 16 61
f 35 63 61
f 39 35 61
f 54 58 62
f 64 54 62
f 55 64 62
f 59 55 62
f 12 16 63
f 65 12 63
f 31 65 63
f 35 31 63
f 50 54 64
f 66 50 64
f 51 66 64
f 55 51 64
f 7 12 65
f 67 7 65
f 26 67 65
f 31 26 65
f 42 50 66
f 68 42 66
f 45 68 66
f 51 45 66
f 8 7 67
f 69 8 67
f 25 69 67
f 26 25 67
f 43 42 68
f 70 43 68
f 48 70 68
f 45 48 68
f 48 8 69
f 70 48 69
f 43 70 69
f 25 43 69

