# https://github.com/mikedh/trimesh
v -0.02100001 -0.00515000 -0.00000001
v -0.01900000 -0.00515000 -0.00000001
v -0.01900000 -0.00476941 -0.00191340
v -0.02100001 -0.00476941 -0.00191340
v -0.01900000 -0.00368550 -0.00353551
v -0.02100001 -0.00368550 -0.00353551
v -0.01900000 -0.00206341 -0.00461940
v -0.02100001 -0.00206341 -0.00461940
v -0.01900000 -0.00015001 -0.00500001
v -0.02100001 -0.00015001 -0.00500001
v -0.01900000 0.00176340 -0.00461940
v -0.02100001 0.00176340 -0.00461940
v -0.01900000 0.00338549 -0.00353551
v -0.02100001 0.00338549 -0.00353551
v -0.01900000 0.00446940 -0.00191340
v -0.02100001 0.00446940 -0.00191340
v -0.01900000 0.00484999 -0.00000001
v -0.02100001 0.00484999 -0.00000001
v -0.02100001 -0.01115001 -0.03100000
v -0.01900000 -0.01115001 -0.03100000
v -0.01900000 -0.01115001 -0.02900000
v -0.02100001 -0.01115001 -0.02900000
v -0.00000000 -0.01115001 -0.03100000
v -0.00000000 -0.01115001 -0.02900000
v 0.01899999 -0.01115001 -0.03100000
v 0.01899999 -0.01115001 -0.02900000
v 0.02100000 -0.01115001 -0.03100000
v 0.02100000 -0.01115001 -0.02900000
v -0.02100000 0.01085000 -0.02900000
v -0.01900000 0.01085000 -0.02900000
v -0.01900000 0.01085000 -0.03100000
v -0.02100000 0.01085000 -0.03100000
v -0.00000000 0.01085000 -0.02900000
v -0.00000000 0.01085000 -0.03100000
v 0.01900000 0.01085000 -0.02900000
v 0.01900000 0.01085000 -0.03100000
v 0.02100000 0.01085000 -0.02900000
v 0.02100000 0.01085000 -0.03100000
v -0.01900000 0.01085000 -0.00900000
v -0.02100000 0.01085000 -0.00900000
v -0.02100001 -0.01115001 -0.00900000
v -0.01900000 -0.01115001 -0.00900000
v 0.02100000 0.01084999 -0.00900000
v 0.01900000 0.01084999 -0.00900000
v 0.01899999 -0.01115002 -0.00900000
v 0.02100000 -0.01115002 -0.00900000
v 0.01899999 -0.00476941 -0.00191340
v 0.01899999 -0.00515001 -0.00000001
v 0.02100000 -0.00515001 -0.00000001
v 0.02100000 -0.00476941 -0.00191340
v 0.01899999 -0.00368551 -0.00353551
v 0.02100000 -0.00368551 -0.00353551
v 0.01899999 -0.00206341 -0.00461940
v 0.02100000 -0.00206341 -0.00461940
v 0.01900000 -0.00015002 -0.00500001
v 0.02100000 -0.00015002 -0.00500001
v 0.01900000 0.00176339 -0.00461940
v 0.02100000 0.00176339 -0.00461940
v 0.01900000 0.00338549 -0.00353551
v 0.02100000 0.00338549 -0.00353551
v 0.01900000 0.00446939 -0.00191340
v 0.02100000 0.00446939 -0.00191340
v 0.01900000 0.00484999 -0.00000001
v 0.02100000 0.00484999 -0.00000001
v -0.02100000 0.01085000 -0.00000001
v -0.01900000 0.01085000 -0.00000001
v -0.01900000 -0.01115001 -0.00000001
v -0.02100001 -0.01115001 -0.00000001
v 0.02100000 -0.01115002 -0.00000001
v 0.01899999 -0.01115002 -0.00000001
v 0.01900000 0.01084999 -0.00000001
v 0.02100000 0.01084999 -0.00000001
v -0.00000000 -0.00377921 -0.02900000
v -0.01900000 -0.00377921 -0.02900000
v -0.00000000 -0.00015001 -0.02900000
v -0.01900000 -0.00015001 -0.02900000
v 0.01899999 -0.00377921 -0.02900000
v 0.01900000 -0.00015001 -0.02900000
v -0.02100001 -0.00015001 -0.03100000
v -0.01900000 -0.00015001 -0.03100000
v -0.01900000 -0.00377921 -0.03100000
v -0.02100001 -0.00377921 -0.03100000
v -0.00000000 -0.00015001 -0.03100000
v -0.00000000 -0.00377921 -0.03100000
v 0.01900000 -0.00015001 -0.03100000
v 0.01899999 -0.00377921 -0.03100000
v 0.02100000 -0.00015001 -0.03100000
v 0.02100000 -0.00377921 -0.03100000
v -0.02100001 -0.00377921 -0.02900000
v -0.02100001 -0.00015001 -0.02900000
v 0.02100000 -0.00377921 -0.02900000
v 0.02100000 -0.00015001 -0.02900000
v -0.02100001 -0.00015001 -0.00900000
v -0.02100001 -0.00377921 -0.00900000
v -0.01900000 -0.00377921 -0.00900000
v -0.01900000 -0.00015001 -0.00900000
v 0.01900000 -0.00015002 -0.00900000
v 0.01899999 -0.00377922 -0.00900000
v 0.02100000 -0.00377922 -0.00900000
v 0.02100000 -0.00015002 -0.00900000
v -0.00000000 0.00334320 -0.02900000
v -0.01900000 0.00334320 -0.02900000
v 0.01900000 0.00334320 -0.02900000
v -0.01900000 0.00334320 -0.03100000
v -0.02100001 0.00334320 -0.03100000
v -0.00000000 0.00334320 -0.03100000
v 0.01900000 0.00334320 -0.03100000
v 0.02100000 0.00334320 -0.03100000
v -0.02100001 0.00334320 -0.02900000
v 0.02100000 0.00334320 -0.02900000
v -0.02100001 0.00334320 -0.00900000
v -0.01900000 0.00334320 -0.00900000
v 0.01900000 0.00334319 -0.00900000
v 0.02100000 0.00334319 -0.00900000
v 0.02100000 0.00484999 0.00200000
v 0.02100000 0.01084999 0.00200000
v 0.01900000 0.01084999 0.00200000
v 0.01900000 0.00484999 0.00200000
v 0.02100000 -0.01115002 0.00200000
v 0.02100000 -0.00515001 0.00200000
v 0.01899999 -0.00515001 0.00200000
v 0.01899999 -0.01115002 0.00200000
v -0.02100001 0.00484999 0.00200000
v -0.01900000 0.00484999 0.00200000
v -0.01900000 0.01085000 0.00200000
v -0.02100000 0.01085000 0.00200000
v -0.02100001 -0.01115001 0.00200000
v -0.01900000 -0.01115001 0.00200000
v -0.01900000 -0.00515000 0.00200000
v -0.02100001 -0.00515000 0.00200000
v 0.04589059 0.01832317 -0.03591993
v 0.04568223 0.01842846 -0.03591993
v 0.04599677 0.01850244 -0.03586208
v 0.04621218 0.01835457 -0.03586208
v 0.04576275 0.01820986 -0.03593310
v 0.04596537 0.01807765 -0.03593310
v -0.04937842 0.01854766 -0.03322599
v -0.04919693 0.01895091 -0.03322599
v -0.04710537 0.01772773 -0.03564021
v 0.04653253 0.01765941 -0.03591993
v 0.04671525 0.01775954 -0.03586208
v 0.04682523 0.01752253 -0.03586208
v -0.04583816 0.01879617 -0.03576079
v -0.04606859 0.01884822 -0.03564021
v -0.04578422 0.01897417 -0.03564021
v 0.02935129 0.02433198 -0.03591993
v 0.02937906 0.02453847 -0.03586208
v 0.02963511 0.02448643 -0.03586208
v 0.04657466 0.01797977 -0.03586208
v 0.04688279 0.01785135 -0.03576079
v -0.04647325 0.01883593 -0.03133740
v -0.04627756 0.01896527 -0.03133740
v -0.04647325 0.01883593 -0.02593310
v -0.04627756 0.01896527 -0.02593310
v 0.04700352 0.01759120 -0.03576079
v 0.04710536 0.01772773 -0.03564021
v 0.04720891 0.01743445 -0.03564021
v -0.04714136 0.01681956 -0.03576457
v -0.04729289 0.01681956 -0.03564021
v -0.04713619 0.01703446 -0.03576079
v 0.04672845 0.01809310 -0.03576079
v 0.04696310 0.01800429 -0.03564021
v 0.02911837 0.02474136 -0.03576457
v 0.02938455 0.02487739 -0.03564021
v 0.02940453 0.02472782 -0.03576079
v 0.02972746 0.02427348 -0.03591389
v 0.02979162 0.02444976 -0.03585698
v -0.04822069 0.02045497 -0.03303444
v -0.04855652 0.02012715 -0.03303444
v -0.04828090 0.02052293 -0.03283819
v 0.04642225 0.01752093 -0.03593310
v 0.04663080 0.01744765 -0.03591993
v -0.04607055 0.01907569 -0.03133740
v -0.04579984 0.01918888 -0.03133740
v -0.04607055 0.01907569 -0.02593310
v -0.04579984 0.01918888 -0.02593310
v -0.04642225 0.01752093 -0.03593310
v -0.04653253 0.01765941 -0.03591993
v -0.04629900 0.01772913 -0.03593310
v 0.04678471 0.01825906 -0.03564021
v -0.04962420 0.01769910 -0.03322599
v -0.04952126 0.01812916 -0.03322599
v -0.04720891 0.01743445 -0.03564021
v 0.04608306 0.01819105 -0.03591993
v 0.04614551 0.01791615 -0.03593310
v -0.04970711 0.01681956 -0.03322599
v -0.04968634 0.01726128 -0.03322599
v 0.02968559 0.02467069 -0.03576079
v 0.02964714 0.02483109 -0.03564021
v 0.02990258 0.02475461 -0.03564021
v 0.04651239 0.01729641 -0.03593310
v 0.04669996 0.01722468 -0.03591993
v -0.02958006 0.02428548 -0.03591993
v -0.02963511 0.02448643 -0.03586208
v -0.02937906 0.02453847 -0.03586208
v 0.02948407 0.02414304 -0.03593310
v 0.02958006 0.02428548 -0.03591993
v 0.02966074 0.02409015 -0.03593310
v 0.04696847 0.01681956 -0.03585698
v 0.04713620 0.01703446 -0.03576079
v 0.04714136 0.01681956 -0.03576457
v 0.04576357 0.01862028 -0.03586208
v 0.04583815 0.01879617 -0.03576079
v 0.04609413 0.01866682 -0.03576079
v 0.04567326 0.01866931 -0.03585698
v -0.04651239 0.01729641 -0.03593310
v -0.04663080 0.01744765 -0.03591993
v -0.04657348 0.01848735 -0.03564021
v -0.04812139 0.02034288 -0.03322599
v -0.04633330 0.01868495 -0.03564021
v 0.04729289 0.01681956 -0.03564021
v 0.04708849 0.01731727 -0.03576079
v 0.04727180 0.01712986 -0.03564021
v 0.04654330 0.01831212 -0.03576079
v 0.02930246 0.02417506 -0.03593310
v 0.02911837 0.02418579 -0.03593310
v -0.04965086 0.01865519 -0.03251889
v -0.04966960 0.01859050 -0.03262701
v -0.04980259 0.01821064 -0.03251889
v 0.04658579 0.01681956 -0.03593310
v 0.04656733 0.01706079 -0.03593310
v 0.04673879 0.01699448 -0.03591993
v -0.02940453 0.02472782 -0.03576079
v -0.02964714 0.02483109 -0.03564021
v -0.02938455 0.02487739 -0.03564021
v -0.04671525 0.01775954 -0.03586208
v -0.04657466 0.01797977 -0.03586208
v -0.04688279 0.01785135 -0.03576079
v -0.04672846 0.01809310 -0.03576079
v 0.04690264 0.01727298 -0.03586208
v 0.04694610 0.01701534 -0.03586208
v -0.04722658 0.01795029 -0.03133740
v -0.04722658 0.01795029 -0.02593310
v -0.04732285 0.01773638 -0.03133740
v -0.04732285 0.01773638 -0.02593310
v -0.04696310 0.01800429 -0.03564021
v 0.04606859 0.01884822 -0.03564021
v 0.04633331 0.01868495 -0.03564021
v -0.04920287 0.01943014 -0.03283819
v -0.04893129 0.01982359 -0.03283819
v -0.04912574 0.01938223 -0.03303444
v 0.02911837 0.02438088 -0.03591389
v 0.02911837 0.02456847 -0.03585698
v -0.04750826 0.02108428 -0.03283819
v -0.04790816 0.02082229 -0.03283819
v -0.04753183 0.02112435 -0.03262701
v 0.02911837 0.02489289 -0.03564021
v -0.04700351 0.01759120 -0.03576079
v -0.04609413 0.01866682 -0.03576079
v -0.04977387 0.01811934 -0.03283819
v -0.04962614 0.01857402 -0.03283819
v -0.04968626 0.01809549 -0.03303444
v -0.04711065 0.01815424 -0.03133740
v -0.04711065 0.01815424 -0.02593310
v -0.04896823 0.01985181 -0.03262701
v -0.04669996 0.01722468 -0.03591993
v -0.04984410 0.01717136 -0.03303444
v -0.04978753 0.01763724 -0.03303444
v -0.04971358 0.01716188 -0.03320659
v 0.02985075 0.02461222 -0.03576457
v 0.02976479 0.02501252 -0.03133740
v 0.03002467 0.02493057 -0.03133740
v 0.02976479 0.02501252 -0.02593310
v 0.03002467 0.02493057 -0.02593310
v -0.04625619 -0.02583445 -0.03591993
v -0.04614551 -0.02571615 -0.03593310
v -0.04608306 -0.02599105 -0.03591993
v -0.02933605 0.02508811 -0.03133740
v -0.02906381 0.02510000 -0.03133740
v -0.02933605 0.02508811 -0.02593310
v -0.02906381 0.02510000 -0.02593310
v 0.02955209 0.02505967 -0.03133740
v 0.02955209 0.02505967 -0.02593310
v -0.04710537 -0.02552772 -0.03564021
v -0.04700352 -0.02539120 -0.03576079
v -0.04688279 -0.02565135 -0.03576079
v 0.04607055 0.01907568 -0.03133740
v 0.04627756 0.01896526 -0.03133740
v 0.04607055 0.01907568 -0.02593310
v 0.04627756 0.01896526 -0.02593310
v -0.04893129 -0.02762359 -0.03283819
v -0.04862301 -0.02798898 -0.03283819
v -0.04865705 -0.02802063 -0.03262701
v -0.04945808 -0.02688353 -0.03251889
v -0.04924236 -0.02725467 -0.03262701
v -0.04922595 -0.02729189 -0.03251889
v 0.04711065 -0.02595424 -0.02593310
v 0.04711065 -0.02595424 -0.03133740
v 0.04697607 -0.02614643 -0.02593310
v 0.04697607 -0.02614643 -0.03133740
v -0.04885915 -0.02756846 -0.03303444
v -0.04947688 -0.02683292 -0.03262701
v -0.04596537 -0.02587765 -0.03593310
v 0.04720891 -0.02523446 -0.03564021
v 0.04727180 -0.02492986 -0.03564021
v 0.04962420 -0.02549910 -0.03322599
v -0.04920287 -0.02723014 -0.03283819
v -0.04896823 -0.02765181 -0.03262701
v -0.04968626 -0.02589549 -0.03303444
v -0.04956000 -0.02586110 -0.03320659
v -0.04954124 -0.02634182 -0.03303444
v 0.02938455 -0.03267739 -0.03564021
v 0.02964713 -0.03263110 -0.03564021
v 0.02993575 -0.03503561 -0.03322599
v 0.04968634 -0.02506129 -0.03322599
v 0.04729288 -0.02461956 -0.03564021
v 0.04970711 -0.02461956 -0.03322599
v 0.02990258 -0.03255461 -0.03564021
v 0.04578421 -0.02677417 -0.03564021
v 0.03072829 -0.03482324 -0.03322599
v 0.04660993 -0.02904279 -0.03322599
v -0.04855653 -0.02792714 -0.03303444
v 0.04697607 0.01834642 -0.02593310
v 0.04697607 0.01834642 -0.03133740
v 0.04711065 0.01815424 -0.02593310
v 0.04711065 0.01815424 -0.03133740
v 0.04696310 -0.02580429 -0.03564021
v 0.04710536 -0.02552773 -0.03564021
v 0.04919692 -0.02675091 -0.03322599
v 0.04682408 -0.02632512 -0.03133740
v 0.04665598 -0.02648876 -0.03133740
v 0.04682408 -0.02632512 -0.02593310
v 0.04665598 -0.02648876 -0.02593310
v 0.04749999 -0.02456082 -0.02593310
v 0.04749999 -0.02456082 -0.03133740
v 0.04748622 -0.02485391 -0.02593310
v 0.04748622 -0.02485391 -0.03133740
v -0.04962615 -0.02637402 -0.03283819
v -0.04943521 -0.02681232 -0.03283819
v 0.03033665 -0.03494672 -0.03322599
v -0.04987703 -0.02545253 -0.03283819
v -0.04978753 -0.02543724 -0.03303444
v -0.04977387 -0.02591933 -0.03283819
v -0.04831173 -0.02835771 -0.03262701
v -0.04865219 -0.02803446 -0.03251889
v -0.04831561 -0.02836211 -0.03251889
v -0.04993466 -0.02497794 -0.03283819
v -0.04984410 -0.02497136 -0.03303444
v -0.04998079 -0.02461956 -0.03271398
v -0.04992388 -0.02461956 -0.03290157
v -0.03033665 -0.03494671 -0.03322599
v -0.02990258 -0.03255461 -0.03564021
v -0.02964714 -0.03263108 -0.03564021
v -0.04729289 -0.02461956 -0.03564021
v -0.04714136 -0.02461956 -0.03576457
v -0.04713620 -0.02483446 -0.03576079
v -0.04966960 -0.02639049 -0.03262701
v -0.04983147 -0.02461956 -0.03307446
v -0.04971359 -0.02496188 -0.03320659
v -0.04941889 -0.02629542 -0.03320659
v -0.04935382 -0.02677208 -0.03303444
v 0.04678471 -0.02605906 -0.03564021
v 0.04872476 -0.02749759 -0.03322599
v 0.02911837 -0.03269289 -0.03564021
v 0.02952862 -0.03508919 -0.03322599
v -0.04923651 -0.02671408 -0.03320659
v -0.04912574 -0.02718223 -0.03303444
v 0.04937842 -0.02634767 -0.03322599
v -0.05000000 -0.02461956 -0.03251889
v -0.04998102 -0.02498131 -0.03262701
v -0.04997794 -0.02508876 -0.03251889
v -0.04828090 -0.02832293 -0.03283819
v -0.04895653 -0.02767665 -0.03251889
v 0.04897840 -0.02713536 -0.03322599
v 0.04669996 -0.02502468 -0.03591993
v 0.04656733 -0.02486079 -0.03593310
v 0.04673878 -0.02479448 -0.03591993
v 0.02963511 -0.03228643 -0.03586208
v 0.02972746 -0.03207348 -0.03591389
v 0.02979162 -0.03224976 -0.03585698
v -0.02937906 -0.03233847 -0.03586208
v -0.02958006 -0.03208547 -0.03591993
v -0.02935129 -0.03213197 -0.03591993
v 0.04992285 -0.02546036 -0.03262701
v 0.04991194 -0.02555384 -0.03251889
v 0.04981872 -0.02593155 -0.03262701
v 0.04977386 -0.02591934 -0.03283819
v 0.02983325 0.02749573 -0.03283819
v 0.02935302 0.02745119 -0.03303444
v 0.02935740 0.02754188 -0.03283819
v 0.04875516 -0.02748900 -0.03320659
v 0.04885914 -0.02756847 -0.03303444
v 0.04846070 -0.02783805 -0.03320659
v 0.04714345 -0.02913681 -0.03251889
v 0.04753182 -0.02892436 -0.03262701
v 0.04755791 -0.02891573 -0.03251889
v 0.04699153 -0.02890545 -0.03320659
v 0.04739588 -0.02869323 -0.03320659
v 0.04746222 -0.02880603 -0.03303444
v 0.04901458 -0.02711318 -0.03320659
v 0.04912574 -0.02718223 -0.03303444
v 0.04947688 -0.02683293 -0.03262701
v 0.04945808 -0.02688353 -0.03251889
v 0.04924235 -0.02725467 -0.03262701
v -0.02935965 -0.03538830 -0.03262701
v -0.02911837 -0.03538078 -0.03271398
v -0.02911837 -0.03540000 -0.03251889
v 0.04997794 -0.02508876 -0.03251889
v -0.03077596 -0.03511102 -0.03262701
v -0.03031354 -0.03524901 -0.03262701
v -0.03041246 -0.03522962 -0.03251889
v 0.04785479 -0.02854884 -0.03303444
v 0.04822069 -0.02825497 -0.03303444
v 0.04828089 -0.02832293 -0.03283819
v 0.04920287 -0.02723015 -0.03283819
v -0.03082847 -0.03509846 -0.03251889
v 0.04978753 -0.02543725 -0.03303444
v 0.04993466 -0.02497794 -0.03283819
v 0.04987703 -0.02545253 -0.03283819
v 0.04935382 -0.02677208 -0.03303444
v 0.04962613 -0.02637403 -0.03283819
v 0.04943521 -0.02681232 -0.03283819
v 0.04777787 -0.02844298 -0.03320659
v 0.04813390 -0.02815702 -0.03320659
v 0.04941887 -0.02629543 -0.03320659
v 0.04968626 -0.02589549 -0.03303444
v 0.04954123 -0.02634182 -0.03303444
v -0.02983996 -0.03534172 -0.03262701
v -0.02955414 -0.03538096 -0.03251889
v 0.04865704 -0.02802065 -0.03262701
v 0.04895652 -0.02767666 -0.03251889
v 0.04865219 -0.02803446 -0.03251889
v 0.04790816 -0.02862230 -0.03283819
v 0.04893129 -0.02762359 -0.03283819
v 0.04896823 -0.02765181 -0.03262701
v 0.04862300 -0.02798900 -0.03283819
v -0.03076053 -0.03506717 -0.03283819
v -0.03030242 -0.03520387 -0.03283819
v -0.02983325 -0.03529572 -0.03283819
v -0.02935740 -0.03534187 -0.03283819
v 0.02911837 0.02758079 -0.03271398
v 0.02935965 0.02758831 -0.03262701
v -0.02982013 -0.03520588 -0.03303444
v -0.02935302 -0.03525118 -0.03303444
v -0.03024937 -0.03498867 -0.03320659
v -0.03068696 -0.03485809 -0.03320659
v -0.03028069 -0.03511573 -0.03303444
v 0.03033665 0.02714672 -0.03322599
v 0.03024937 0.02718867 -0.03320659
v 0.03068696 0.02705809 -0.03320659
v 0.03073039 0.02718153 -0.03303444
v -0.04746223 0.02100602 -0.03303444
v -0.04785479 0.02074884 -0.03303444
v 0.02911837 0.02752388 -0.03290157
v -0.04897840 0.01933535 -0.03322599
v -0.04872476 0.01969758 -0.03322599
v -0.04678471 0.01825906 -0.03564021
v 0.02911837 0.02743147 -0.03307446
v 0.02955414 0.02758097 -0.03251889
v 0.02911837 0.02760000 -0.03251889
v 0.03031354 0.02744902 -0.03262701
v 0.02983996 0.02754173 -0.03262701
v 0.03077596 0.02731103 -0.03262701
v 0.03030242 0.02740388 -0.03283819
v -0.04777698 0.02062024 -0.03322599
v -0.02952862 -0.03508918 -0.03322599
v -0.02934669 -0.03512048 -0.03320659
v -0.02980122 -0.03507639 -0.03320659
v -0.04862301 0.02018899 -0.03283819
v -0.04885915 0.01976846 -0.03303444
v 0.04625619 0.01803445 -0.03591993
v 0.04640596 0.01817930 -0.03586208
v 0.03076053 0.02726718 -0.03283819
v 0.03028069 0.02731573 -0.03303444
v -0.04954124 0.01854182 -0.03303444
v -0.04956000 0.01806111 -0.03320659
v -0.04992285 0.01766036 -0.03262701
v -0.04981872 0.01813155 -0.03262701
v -0.04987703 0.01765253 -0.03283819
v 0.02980122 0.02727640 -0.03320659
v 0.02982013 0.02740589 -0.03303444
v -0.04633059 0.01850450 -0.03576079
v -0.04813391 0.02035702 -0.03320659
v -0.02998661 -0.03532403 -0.03251889
v 0.03082847 0.02729846 -0.03251889
v 0.03041246 0.02742963 -0.03251889
v -0.04865705 0.02022064 -0.03262701
v -0.04740807 0.02086407 -0.03322599
v -0.04701790 0.02107220 -0.03322599
v 0.02998661 0.02752404 -0.03251889
v -0.04843825 0.02003442 -0.03322599
v 0.04657348 0.01848735 -0.03564021
v -0.04727180 0.01712986 -0.03564021
v 0.02993575 0.02723560 -0.03322599
v 0.04573239 0.01883177 -0.03576457
v -0.04665246 0.02135965 -0.03307446
v -0.04699154 0.02110544 -0.03320659
v -0.04704668 0.02122412 -0.03303444
v -0.04739589 0.02089322 -0.03320659
v 0.04560910 0.01849303 -0.03591389
v 0.04578422 0.01897417 -0.03564021
v 0.04554237 0.01830971 -0.03593310
v 0.04640692 0.01785618 -0.03591993
v 0.04962614 0.01857402 -0.03283819
v 0.04981872 0.01813155 -0.03262701
v 0.04977386 0.01811934 -0.03283819
v 0.02934669 0.02732048 -0.03320659
v 0.04678088 0.01681956 -0.03591389
v 0.04633059 0.01850450 -0.03576079
v -0.04660993 0.02124279 -0.03322599
v -0.04750000 -0.02456081 -0.02593310
v -0.04750000 0.01676083 -0.02593310
v -0.04755791 0.02111573 -0.02593310
v -0.04748622 0.01705391 -0.02593310
v -0.04714346 0.02133681 -0.02593310
v -0.04745326 0.01728617 -0.02593310
v -0.04739864 0.01751434 -0.02593310
v -0.04671010 0.02151802 -0.02593310
v -0.04697607 0.01834643 -0.02593310
v -0.04682408 0.01852512 -0.02593310
v -0.04665598 0.01868877 -0.02593310
v -0.03082847 0.02729846 -0.02593310
v -0.03002467 0.02493058 -0.02593310
v -0.03041246 0.02742963 -0.02593310
v -0.02998661 0.02752404 -0.02593310
v -0.02976479 0.02501252 -0.02593310
v -0.02955414 0.02758097 -0.02593310
v -0.02955209 0.02505967 -0.02593310
v -0.02911837 0.02760000 -0.02593310
v 0.02911837 0.02760000 -0.02593310
v 0.02906381 0.02510000 -0.02593310
v 0.02933605 0.02508811 -0.02593310
v 0.02955414 0.02758097 -0.02593310
v 0.02998661 0.02752404 -0.02593310
v 0.03041246 0.02742963 -0.02593310
v 0.04579984 0.01918888 -0.02593310
v 0.03082847 0.02729846 -0.02593310
v 0.04671010 0.02151802 -0.02593310
v 0.04647325 0.01883592 -0.02593310
v 0.04665598 0.01868876 -0.02593310
v 0.04682408 0.01852511 -0.02593310
v 0.04714346 0.02133681 -0.02593310
v 0.04722659 0.01795028 -0.02593310
v 0.04755791 0.02111573 -0.02593310
v 0.04732285 0.01773637 -0.02593310
v 0.04739864 0.01751433 -0.02593310
v 0.04745326 0.01728616 -0.02593310
v 0.04748622 0.01705390 -0.02593310
v 0.04750000 0.01676082 -0.02593310
v 0.04755791 -0.02891573 -0.02593310
v 0.04794978 -0.02865675 -0.02593310
v 0.04794978 0.02085674 -0.02593310
v 0.04831561 -0.02836212 -0.02593310
v 0.04831561 0.02056211 -0.02593310
v 0.04865219 -0.02803446 -0.02593310
v 0.04865219 0.02023446 -0.02593310
v 0.04895652 -0.02767666 -0.02593310
v 0.04895653 0.01987666 -0.02593310
v 0.04922595 -0.02729190 -0.02593310
v 0.04922595 0.01949189 -0.02593310
v 0.04945808 -0.02688353 -0.02593310
v 0.04945808 0.01908353 -0.02593310
v 0.04965086 -0.02645520 -0.02593310
v 0.04965086 0.01865519 -0.02593310
v 0.04980259 -0.02601065 -0.02593310
v 0.04980259 0.01821064 -0.02593310
v 0.04991194 -0.02555384 -0.02593310
v 0.04991194 0.01775383 -0.02593310
v 0.04997794 -0.02508876 -0.02593310
v 0.04997794 0.01728876 -0.02593310
v 0.05000000 -0.02461956 -0.02593310
v 0.05000000 0.01681956 -0.02593310
v -0.05000000 -0.02461956 -0.02593310
v -0.04997794 -0.02508876 -0.02593310
v -0.05000000 0.01681956 -0.02593310
v -0.04997794 0.01728876 -0.02593310
v -0.04991194 -0.02555383 -0.02593310
v -0.04991194 0.01775383 -0.02593310
v -0.04980259 -0.02601064 -0.02593310
v -0.04980259 0.01821064 -0.02593310
v -0.04965086 -0.02645519 -0.02593310
v -0.04965086 0.01865519 -0.02593310
v -0.04945808 -0.02688353 -0.02593310
v -0.04945808 0.01908353 -0.02593310
v -0.04922595 -0.02729189 -0.02593310
v -0.04922595 0.01949189 -0.02593310
v -0.04895653 -0.02767665 -0.02593310
v -0.04895653 0.01987666 -0.02593310
v -0.04865219 -0.02803446 -0.02593310
v -0.04865219 0.02023446 -0.02593310
v -0.04831561 -0.02836211 -0.02593310
v -0.04831561 0.02056211 -0.02593310
v -0.04794978 -0.02865673 -0.02593310
v -0.04794978 0.02085674 -0.02593310
v -0.04755791 -0.02891573 -0.02593310
v -0.04748622 -0.02485390 -0.02593310
v -0.04714346 -0.02913680 -0.02593310
v -0.04745326 -0.02508617 -0.02593310
v -0.04739865 -0.02531434 -0.02593310
v -0.04732285 -0.02553638 -0.02593310
v -0.04722659 -0.02575028 -0.02593310
v -0.04711065 -0.02595424 -0.02593310
v -0.04671010 -0.02931802 -0.02593310
v -0.04697607 -0.02614642 -0.02593310
v -0.04682408 -0.02632512 -0.02593310
v -0.04665598 -0.02648876 -0.02593310
v -0.04647325 -0.02663592 -0.02593310
v -0.04627756 -0.02676526 -0.02593310
v -0.03082847 -0.03509846 -0.02593310
v -0.04607055 -0.02687569 -0.02593310
v -0.04579984 -0.02698888 -0.02593310
v -0.03002467 -0.03273056 -0.02593310
v -0.03041246 -0.03522962 -0.02593310
v -0.02998661 -0.03532403 -0.02593310
v -0.02976479 -0.03281252 -0.02593310
v -0.02955414 -0.03538096 -0.02593310
v -0.02955209 -0.03285966 -0.02593310
v -0.02911837 -0.03540000 -0.02593310
v -0.02933605 -0.03288810 -0.02593310
v -0.02906381 -0.03289999 -0.02593310
v 0.02911837 -0.03540000 -0.02593310
v 0.02906381 -0.03290000 -0.02593310
v 0.02933605 -0.03288811 -0.02593310
v 0.02955414 -0.03538097 -0.02593310
v 0.02955209 -0.03285967 -0.02593310
v 0.02976479 -0.03281252 -0.02593310
v 0.02998661 -0.03532404 -0.02593310
v 0.03002467 -0.03273058 -0.02593310
v 0.03041246 -0.03522963 -0.02593310
v 0.04579984 -0.02698888 -0.02593310
v 0.03082847 -0.03509846 -0.02593310
v 0.04671010 -0.02931803 -0.02593310
v 0.04607055 -0.02687570 -0.02593310
v 0.04627756 -0.02676526 -0.02593310
v 0.04647324 -0.02663592 -0.02593310
v 0.04714345 -0.02913681 -0.02593310
v 0.04722658 -0.02575029 -0.02593310
v 0.04732285 -0.02553638 -0.02593310
v 0.04739863 -0.02531434 -0.02593310
v 0.04745325 -0.02508617 -0.02593310
v 0.02966074 -0.03189015 -0.03593310
v 0.04554237 -0.02610971 -0.03593310
v 0.04560909 -0.02629303 -0.03591389
v 0.02911837 -0.03236848 -0.03585698
v 0.02937905 -0.03233847 -0.03586208
v 0.02940453 -0.03252782 -0.03576079
v 0.04700351 -0.02539120 -0.03576079
v 0.04599676 -0.02630244 -0.03586208
v 0.04589058 -0.02612318 -0.03591993
v 0.04621217 -0.02615457 -0.03586208
v 0.04568223 -0.02622846 -0.03591993
v 0.04629900 -0.02552913 -0.03593310
v 0.04642225 -0.02532093 -0.03593310
v 0.04653253 -0.02545941 -0.03591993
v 0.04576357 -0.02642028 -0.03586208
v 0.04625618 -0.02583445 -0.03591993
v 0.04614551 -0.02571615 -0.03593310
v 0.04640692 -0.02565618 -0.03591993
v 0.04688279 -0.02565135 -0.03576079
v 0.04658579 -0.02461956 -0.03593310
v 0.04678088 -0.02461956 -0.03591389
v 0.04682522 -0.02532253 -0.03586208
v 0.04663079 -0.02524765 -0.03591993
v 0.04690263 -0.02507298 -0.03586208
v 0.04694610 -0.02481535 -0.03586208
v 0.04696847 -0.02461956 -0.03585698
v 0.04713619 -0.02483446 -0.03576079
v 0.02968559 -0.03247069 -0.03576079
v 0.02985074 -0.03241223 -0.03576457
v 0.04657466 -0.02577977 -0.03586208
v 0.04671524 -0.02555954 -0.03586208
v 0.04567326 -0.02646931 -0.03585698
v 0.04678088 -0.00390000 -0.03591389
v -0.03030242 0.02740388 -0.03283819
v -0.03073039 0.02718153 -0.03303444
v -0.03076053 0.02726718 -0.03283819
v 0.04983146 -0.02461956 -0.03307446
v 0.04971357 -0.02496188 -0.03320659
v -0.04633331 -0.02648495 -0.03564021
v -0.04633059 -0.02630450 -0.03576079
v -0.04609413 -0.02646681 -0.03576079
v 0.04923651 -0.02671408 -0.03320659
v 0.04966960 -0.02639050 -0.03262701
v 0.04843824 -0.02783443 -0.03322599
v -0.04755791 -0.02891573 -0.03251889
v -0.04753183 -0.02892434 -0.03262701
v -0.04714346 -0.02913680 -0.03251889
v -0.04640596 -0.02597930 -0.03586208
v -0.04621219 -0.02615456 -0.03586208
v 0.04701789 -0.02887220 -0.03322599
v 0.04956000 -0.02586111 -0.03320659
v 0.04952126 -0.02592916 -0.03322599
v 0.04665246 -0.02915966 -0.03307446
v 0.04965854 -0.02541521 -0.03320659
v 0.04984409 -0.02497136 -0.03303444
v -0.02966074 0.02409015 -0.03593310
v -0.02972746 0.02427348 -0.03591389
v -0.04704668 -0.02902411 -0.03303444
v -0.04668408 -0.02924648 -0.03290157
v -0.04708495 -0.02910645 -0.03283819
v 0.04704668 -0.02902412 -0.03303444
v 0.04750825 -0.02888428 -0.03283819
v 0.04658579 -0.00390000 -0.03592349
v 0.04855651 -0.02792716 -0.03303444
v 0.04740807 -0.02866407 -0.03322599
v 0.04633330 -0.02648495 -0.03564021
v 0.04777697 -0.02842025 -0.03322599
v 0.04998078 -0.02461956 -0.03271398
v 0.05000000 -0.02461956 -0.03251889
v 0.04998102 -0.02498131 -0.03262701
v 0.04785479 0.02074884 -0.03303444
v 0.04739589 0.02089322 -0.03320659
v 0.04746223 0.02100602 -0.03303444
v -0.02911837 -0.03510710 -0.03322599
v -0.02911837 -0.03269288 -0.03564021
v -0.04710454 -0.02914861 -0.03262701
v -0.04670353 -0.02929996 -0.03271398
v -0.04671010 -0.02931802 -0.03251889
v 0.04606859 -0.02664823 -0.03564021
v 0.04992387 -0.02461956 -0.03290157
v 0.04920287 0.01943014 -0.03283819
v 0.04924235 0.01945467 -0.03262701
v 0.04947688 0.01903292 -0.03262701
v -0.04640692 0.01785618 -0.03591993
v -0.02979162 0.02444976 -0.03585698
v -0.02985075 0.02461222 -0.03576457
v -0.02968559 0.02467069 -0.03576079
v -0.04654330 0.01831212 -0.03576079
v -0.04640596 0.01817930 -0.03586208
v -0.04599677 0.01850244 -0.03586208
v -0.04576357 0.01862028 -0.03586208
v -0.02911837 -0.03218087 -0.03591389
v -0.02911837 -0.03198579 -0.03593310
v 0.02911837 -0.03218089 -0.03591389
v 0.02911837 -0.03198579 -0.03593310
v -0.02993575 -0.03503559 -0.03322599
v -0.02938455 -0.03267739 -0.03564021
v 0.04777787 0.02064297 -0.03320659
v 0.04923651 0.01891408 -0.03320659
v 0.04935382 0.01897208 -0.03303444
v 0.04954124 0.01854182 -0.03303444
v -0.04621218 0.01835457 -0.03586208
v 0.04812139 -0.02814288 -0.03322599
v 0.04657348 -0.02628735 -0.03564021
v -0.04794978 -0.02865673 -0.03251889
v -0.04682523 0.01752253 -0.03586208
v 0.04862301 0.02018899 -0.03283819
v 0.04822069 0.02045497 -0.03303444
v 0.04828090 0.02052293 -0.03283819
v 0.04793548 0.02085990 -0.03262701
v 0.04753183 0.02112435 -0.03262701
v 0.04755791 0.02111573 -0.03251889
v 0.04943521 0.01901232 -0.03283819
v 0.04966960 0.01859050 -0.03262701
v 0.04893129 0.01982359 -0.03283819
v 0.04750826 0.02108428 -0.03283819
v 0.04846070 0.02003804 -0.03320659
v 0.04813391 0.02035702 -0.03320659
v 0.04855652 0.02012715 -0.03303444
v -0.04656733 0.01706079 -0.03593310
v -0.04567326 0.01866931 -0.03585698
v -0.04560910 0.01849303 -0.03591389
v -0.04614551 0.01791615 -0.03593310
v 0.04865705 0.02022064 -0.03262701
v 0.04699153 0.02110544 -0.03320659
v 0.04660993 0.02124279 -0.03322599
v 0.04665246 0.02135965 -0.03307446
v 0.04885915 0.01976846 -0.03303444
v 0.04875517 0.01968900 -0.03320659
v 0.04937842 0.01854766 -0.03322599
v 0.04941888 0.01849542 -0.03320659
v -0.04708495 0.02130646 -0.03283819
v -0.04710454 0.02134861 -0.03262701
v 0.04968626 0.01809549 -0.03303444
v 0.04983147 0.01681956 -0.03307446
v 0.04984410 0.01717136 -0.03303444
v 0.04992387 0.01681956 -0.03290157
v 0.04945808 0.01908353 -0.03251889
v -0.04673879 0.01699448 -0.03591993
v -0.04690264 0.01727298 -0.03586208
v -0.02990258 0.02475461 -0.03564021
v -0.04714346 0.02133681 -0.03251889
v 0.04970711 0.01681956 -0.03322599
v 0.04971358 0.01716188 -0.03320659
v 0.04710454 0.02134861 -0.03262701
v 0.04714346 0.02133681 -0.03251889
v 0.04708495 0.02130646 -0.03283819
v 0.04952126 0.01812916 -0.03322599
v 0.04956000 0.01806111 -0.03320659
v -0.04846070 0.02003804 -0.03320659
v 0.04987703 0.01765253 -0.03283819
v 0.04992285 0.01766036 -0.03262701
v 0.04998102 0.01718131 -0.03262701
v 0.04790816 0.02082229 -0.03283819
v 0.04831173 0.02055772 -0.03262701
v -0.02983325 0.02749573 -0.03283819
v -0.03028069 0.02731573 -0.03303444
v -0.02948407 0.02414304 -0.03593310
v -0.02935129 0.02433198 -0.03591993
v 0.04965086 0.01865519 -0.03251889
v 0.04831561 0.02056211 -0.03251889
v 0.04794978 0.02085674 -0.03251889
v 0.04922595 -0.02729190 -0.03251889
v -0.03041246 0.02742963 -0.03251889
v -0.03077596 0.02731103 -0.03262701
v -0.03082847 0.02729846 -0.03251889
v 0.04896823 0.01985181 -0.03262701
v 0.04912574 0.01938223 -0.03303444
v -0.02983996 0.02754173 -0.03262701
v 0.04671010 0.02151802 -0.03251889
v 0.04794978 -0.02865675 -0.03251889
v 0.04831173 -0.02835773 -0.03262701
v 0.04831561 -0.02836212 -0.03251889
v -0.04793548 0.02085990 -0.03262701
v -0.04831173 0.02055772 -0.03262701
v -0.04794978 0.02085674 -0.03251889
v 0.04978753 0.01763724 -0.03303444
v 0.04962420 0.01769910 -0.03322599
v 0.04965854 0.01761521 -0.03320659
v -0.04793548 -0.02865989 -0.03262701
v -0.02911837 0.02743147 -0.03307446
v -0.02934669 0.02732048 -0.03320659
v -0.02935302 0.02745119 -0.03303444
v -0.02911837 0.02474136 -0.03576457
v -0.04678088 -0.00390000 -0.03591389
v -0.04678088 0.01681956 -0.03591389
v -0.04658579 -0.00390000 -0.03592349
v -0.04658579 0.01681956 -0.03593310
v -0.04671010 0.02151802 -0.03251889
v -0.04952126 -0.02592915 -0.03322599
v -0.04962420 -0.02549910 -0.03322599
v -0.04720891 -0.02523445 -0.03564021
v -0.04937842 -0.02634766 -0.03322599
v -0.04970711 -0.02461956 -0.03322599
v -0.04980259 -0.02601064 -0.03251889
v -0.04981872 -0.02593155 -0.03262701
v -0.04965854 -0.02541521 -0.03320659
v -0.04901458 -0.02711318 -0.03320659
v -0.04992285 -0.02546036 -0.03262701
v -0.04965086 -0.02645519 -0.03251889
v -0.04755791 0.02111573 -0.03251889
v 0.03082189 0.02728041 -0.03271398
v -0.04991194 -0.02555383 -0.03251889
v -0.04895653 0.01987666 -0.03251889
v -0.04922595 0.01949189 -0.03251889
v -0.04875517 -0.02748900 -0.03320659
v -0.04968634 -0.02506128 -0.03322599
v -0.02998661 0.02752404 -0.03251889
v 0.03080243 0.02722693 -0.03290157
v -0.02955414 0.02758097 -0.03251889
v -0.04919693 -0.02675091 -0.03322599
v -0.02911837 0.02760000 -0.03251889
v -0.04831561 0.02056211 -0.03251889
v -0.04865219 0.02023446 -0.03251889
v 0.04671010 -0.02931803 -0.03251889
v -0.04997794 0.01728876 -0.03251889
v -0.05000000 0.01681956 -0.03251889
v 0.04922595 0.01949189 -0.03251889
v -0.04991194 0.01775383 -0.03251889
v 0.02911837 -0.03540000 -0.03251889
v 0.02955414 -0.03538097 -0.03251889
v 0.02998661 -0.03532404 -0.03251889
v 0.03041246 -0.03522963 -0.03251889
v 0.03082847 -0.03509846 -0.03251889
v -0.04945808 0.01908353 -0.03251889
v 0.04965086 -0.02645520 -0.03251889
v 0.04991194 0.01775383 -0.03251889
v 0.04997794 0.01728876 -0.03251889
v 0.04980259 0.01821064 -0.03251889
v 0.04607055 -0.02687570 -0.03133740
v 0.04579984 -0.02698888 -0.03133740
v -0.02955209 -0.03285966 -0.03133740
v -0.02976479 -0.03281252 -0.03133740
v -0.04745326 -0.02508617 -0.03133740
v -0.04739865 -0.02531434 -0.03133740
v 0.04895653 0.01987666 -0.03251889
v -0.04732285 -0.02553638 -0.03133740
v -0.04722659 -0.02575028 -0.03133740
v 0.05000000 0.01681956 -0.03251889
v 0.02906381 -0.03290000 -0.03133740
v -0.02906381 -0.03289999 -0.03133740
v 0.04980259 -0.02601065 -0.03251889
v 0.04865219 0.02023446 -0.03251889
v -0.04711065 -0.02595424 -0.03133740
v 0.04745325 -0.02508617 -0.03133740
v 0.04739863 -0.02531434 -0.03133740
v 0.02955209 -0.03285967 -0.03133740
v 0.02933605 -0.03288811 -0.03133740
v 0.04682408 0.01852511 -0.03133740
v -0.02982013 0.02740589 -0.03303444
v -0.03024937 0.02718867 -0.03320659
v -0.04576357 -0.02642027 -0.03586208
v -0.04589059 -0.02612317 -0.03591993
v -0.04568223 -0.02622846 -0.03591993
v -0.03002467 -0.03273056 -0.03133740
v 0.04647324 -0.02663592 -0.03133740
v 0.04627756 -0.02676526 -0.03133740
v 0.02976479 -0.03281252 -0.03133740
v -0.04579984 -0.02698888 -0.03133740
v -0.04748622 -0.02485390 -0.03133740
v 0.04901458 0.01931318 -0.03320659
v 0.04739864 0.01751433 -0.03133740
v 0.04745326 0.01728616 -0.03133740
v 0.03002467 -0.03273058 -0.03133740
v -0.02933605 -0.03288810 -0.03133740
v -0.04697607 -0.02614642 -0.03133740
v -0.04647325 -0.02663592 -0.03133740
v -0.04665598 -0.02648876 -0.03133740
v 0.04722659 0.01795028 -0.03133740
v 0.04732285 0.01773637 -0.03133740
v 0.04732285 -0.02553638 -0.03133740
v 0.04722658 -0.02575029 -0.03133740
v 0.04748622 0.01705390 -0.03133740
v 0.04750000 0.01676082 -0.03133740
v -0.02955209 0.02505967 -0.03133740
v -0.04665598 0.01868877 -0.03133740
v 0.04579984 0.01918888 -0.03133740
v -0.04745326 0.01728617 -0.03133740
v -0.04748622 0.01705391 -0.03133740
v -0.04750000 0.01676083 -0.03133740
v -0.02976479 0.02501252 -0.03133740
v -0.03002467 0.02493058 -0.03133740
v -0.04739864 0.01751434 -0.03133740
v 0.04708848 -0.02511727 -0.03576079
v 0.04714135 -0.02461956 -0.03576457
v -0.04608306 0.01819105 -0.03591993
v -0.04596537 0.01807765 -0.03593310
v -0.04625619 0.01803445 -0.03591993
v 0.04872476 0.01969758 -0.03322599
v 0.04704668 0.02122412 -0.03303444
v -0.04708849 0.01731727 -0.03576079
v -0.02993575 0.02723560 -0.03322599
v -0.02952862 0.02728919 -0.03322599
v 0.04968634 0.01726128 -0.03322599
v 0.04812139 0.02034288 -0.03322599
v 0.04998079 0.01681956 -0.03271398
v -0.04924236 0.01945467 -0.03262701
v 0.04897840 0.01933535 -0.03322599
v 0.04919693 0.01895091 -0.03322599
v -0.02911837 0.02489289 -0.03564021
v 0.04740807 0.02086407 -0.03322599
v 0.03072829 0.02702323 -0.03322599
v 0.04701789 0.02107220 -0.03322599
v 0.04843825 0.02003442 -0.03322599
v -0.03033665 0.02714672 -0.03322599
v -0.04668407 0.02144649 -0.03290157
v -0.04875517 0.01968900 -0.03320659
v -0.04901458 0.01931318 -0.03320659
v -0.04670353 0.02149996 -0.03271398
v -0.02911837 0.02456847 -0.03585698
v 0.02952862 0.02728919 -0.03322599
v -0.04589059 0.01832317 -0.03591993
v -0.04576275 0.01820986 -0.03593310
v 0.04777697 0.02062024 -0.03322599
v -0.04694610 0.01701534 -0.03586208
v -0.02911837 0.02418579 -0.03593310
v -0.02930246 0.02417506 -0.03593310
v -0.02911837 0.02438088 -0.03591389
v -0.04947688 0.01903292 -0.03262701
v -0.04568223 0.01842846 -0.03591993
v -0.04554237 0.01830971 -0.03593310
v -0.03072829 0.02702323 -0.03322599
v -0.04699154 -0.02890543 -0.03320659
v -0.04665246 -0.02915965 -0.03307446
v 0.02911837 -0.03523147 -0.03307446
v 0.02934669 -0.03512048 -0.03320659
v 0.02935302 -0.03525120 -0.03303444
v -0.04846070 -0.02783803 -0.03320659
v -0.04573239 0.01883177 -0.03576457
v -0.04790816 -0.02862228 -0.03283819
v -0.04750826 -0.02888427 -0.03283819
v 0.04993466 0.01717794 -0.03283819
v -0.04696847 0.01681956 -0.03585698
v -0.04998102 0.01718131 -0.03262701
v -0.04998079 0.01681956 -0.03271398
v 0.03031354 -0.03524902 -0.03262701
v 0.03077596 -0.03511104 -0.03262701
v 0.02911837 -0.03254136 -0.03576457
v -0.02963511 -0.03228642 -0.03586208
v -0.04696847 -0.02461956 -0.03585698
v -0.04657466 -0.02577977 -0.03586208
v -0.04653253 -0.02545941 -0.03591993
v -0.04640692 -0.02565618 -0.03591993
v 0.02935129 -0.03213198 -0.03591993
v 0.02958006 -0.03208548 -0.03591993
v 0.02948407 -0.03194304 -0.03593310
v -0.04682408 0.01852512 -0.03133740
v 0.04647325 0.01883592 -0.03133740
v 0.04665598 0.01868876 -0.03133740
v -0.03072829 -0.03482322 -0.03322599
v 0.02933605 0.02508811 -0.03133740
v 0.02906381 0.02510000 -0.03133740
v -0.04965854 0.01761521 -0.03320659
v -0.04935382 0.01897208 -0.03303444
v -0.04923651 0.01891408 -0.03320659
v -0.04941888 0.01849542 -0.03320659
v -0.04983147 0.01681956 -0.03307446
v -0.04576275 -0.02600986 -0.03593310
v -0.04554237 -0.02610970 -0.03593310
v -0.04560911 -0.02629303 -0.03591389
v -0.02972746 -0.03207348 -0.03591389
v -0.02966074 -0.03189015 -0.03593310
v -0.04599677 -0.02630244 -0.03586208
v -0.04583816 -0.02659617 -0.03576079
v -0.04727180 -0.02492986 -0.03564021
v -0.02911837 0.02758079 -0.03271398
v -0.02935740 0.02754188 -0.03283819
v -0.02935965 0.02758831 -0.03262701
v -0.02980122 0.02727640 -0.03320659
v -0.04690265 -0.02507298 -0.03586208
v -0.04694610 -0.02481534 -0.03586208
v -0.04673879 -0.02479448 -0.03591993
v -0.04678088 -0.02461956 -0.03591389
v -0.04672846 -0.02589310 -0.03576079
v -0.04671525 -0.02555954 -0.03586208
v -0.03031354 0.02744902 -0.03262701
v -0.04663080 -0.02524765 -0.03591993
v -0.04651240 -0.02509641 -0.03593310
v -0.04642225 -0.02532093 -0.03593310
v -0.02911837 0.02752388 -0.03290157
v -0.04654330 -0.02611212 -0.03576079
v -0.04669996 -0.02502468 -0.03591993
v 0.04668407 0.02144649 -0.03290157
v 0.04670352 0.02149996 -0.03271398
v -0.03068696 0.02705809 -0.03320659
v -0.02911837 0.02730711 -0.03322599
v 0.02911837 0.02730711 -0.03322599
v -0.04682523 -0.02532252 -0.03586208
v 0.04629900 0.01772913 -0.03593310
v 0.02983996 -0.03534174 -0.03262701
v 0.02935740 -0.03534188 -0.03283819
v 0.02983325 -0.03529574 -0.03283819
v -0.04812139 -0.02814288 -0.03322599
v -0.04657348 -0.02628735 -0.03564021
v 0.02911837 -0.03538079 -0.03271398
v 0.02935965 -0.03538832 -0.03262701
v 0.02911837 -0.03532388 -0.03290157
v -0.04606859 -0.02664822 -0.03564021
v -0.04578422 -0.02677417 -0.03564021
v 0.03030242 -0.03520389 -0.03283819
v -0.04872476 -0.02749757 -0.03322599
v -0.04897840 -0.02713535 -0.03322599
v -0.04678471 -0.02605906 -0.03564021
v 0.03076053 -0.03506718 -0.03283819
v 0.03068696 -0.03485809 -0.03320659
v 0.03024936 -0.03498867 -0.03320659
v 0.03073039 -0.03498153 -0.03303444
v 0.02982013 -0.03520590 -0.03303444
v 0.02980122 -0.03507641 -0.03320659
v 0.03028069 -0.03511573 -0.03303444
v -0.04696310 -0.02580429 -0.03564021
v -0.04740807 -0.02866407 -0.03322599
v 0.04640596 -0.02597930 -0.03586208
v -0.04843825 -0.02783441 -0.03322599
v -0.04660993 -0.02904279 -0.03322599
v -0.04701790 -0.02887220 -0.03322599
v 0.04583815 -0.02659618 -0.03576079
v 0.04573239 -0.02663177 -0.03576457
v 0.04608306 -0.02599105 -0.03591993
v 0.04576275 -0.02600986 -0.03593310
v 0.04672845 -0.02589311 -0.03576079
v 0.04654329 -0.02611212 -0.03576079
v 0.04596537 -0.02587765 -0.03593310
v 0.04651239 -0.02509641 -0.03593310
v 0.04609413 -0.02646682 -0.03576079
v 0.04633059 -0.02630450 -0.03576079
v -0.04822069 -0.02825497 -0.03303444
v 0.04793548 -0.02865991 -0.03262701
v -0.02911837 -0.03523147 -0.03307446
v -0.02911837 -0.03532387 -0.03290157
v -0.03073039 -0.03498153 -0.03303444
v 0.04708495 -0.02910647 -0.03283819
v -0.04777698 -0.02842024 -0.03322599
v -0.04746223 -0.02880601 -0.03303444
v -0.04739589 -0.02869321 -0.03320659
v 0.02911837 -0.03510712 -0.03322599
v -0.04813391 -0.02815702 -0.03320659
v -0.04785479 -0.02854883 -0.03303444
v -0.04777787 -0.02844296 -0.03320659
v -0.04708849 -0.02511727 -0.03576079
v -0.04656733 -0.02486079 -0.03593310
v 0.03077083 -0.03494010 -0.03307446
v 0.03080243 -0.03502693 -0.03290157
v 0.04668406 -0.02924649 -0.03290157
v -0.03077083 -0.03494009 -0.03307446
v -0.03082189 -0.03508040 -0.03271398
v 0.03082189 -0.03508041 -0.03271398
v -0.03077083 0.02714010 -0.03307446
v -0.03080243 0.02722693 -0.03290157
v 0.04670352 -0.02929997 -0.03271398
v -0.03080243 -0.03502692 -0.03290157
v -0.03082189 0.02728041 -0.03271398
v -0.04777787 0.02064297 -0.03320659
v -0.04992388 0.01681956 -0.03290157
v 0.03077083 0.02714010 -0.03307446
v 0.02930246 -0.03197506 -0.03593310
v -0.02911837 -0.03254135 -0.03576457
v -0.02940453 -0.03252782 -0.03576079
v -0.02911837 -0.03236846 -0.03585698
v -0.02968559 -0.03247068 -0.03576079
v -0.02979162 -0.03224976 -0.03585698
v -0.02948407 -0.03194303 -0.03593310
v -0.04567326 -0.02646931 -0.03585698
v 0.04710454 -0.02914861 -0.03262701
v -0.04629900 -0.02552913 -0.03593310
v -0.04658579 -0.02461956 -0.03593310
v -0.04607055 -0.02687569 -0.03133740
v -0.04750000 -0.02456081 -0.03133740
v -0.04993466 0.01717794 -0.03283819
v -0.04697607 0.01834643 -0.03133740
v -0.04943521 0.01901232 -0.03283819
v -0.04573239 -0.02663177 -0.03576457
v -0.02985075 -0.03241221 -0.03576457
v -0.02930246 -0.03197506 -0.03593310
v -0.02300000 0.02451480 -0.03133740
v -0.02000000 0.02451480 -0.03133740
v 0.02000000 0.02451479 -0.03133740
v -0.02000000 -0.03100000 -0.03133740
v 0.02302485 0.02451479 -0.03133740
v 0.02302485 -0.03100000 -0.03133740
v -0.04682408 -0.02632512 -0.03133740
v -0.04627756 -0.02676526 -0.03133740
v -0.02300000 -0.03100000 -0.03133740
v 0.02000000 -0.03100000 -0.03133740
f 1 2 3
f 4 1 3
f 4 3 5
f 6 4 5
f 6 5 7
f 8 6 7
f 8 7 9
f 10 8 9
f 10 9 11
f 12 10 11
f 12 11 13
f 14 12 13
f 14 13 15
f 16 14 15
f 16 15 17
f 18 16 17
f 19 20 21
f 22 19 21
f 20 23 24
f 21 20 24
f 23 25 26
f 24 23 26
f 25 27 28
f 26 25 28
f 29 30 31
f 32 29 31
f 30 33 34
f 31 30 34
f 33 35 36
f 34 33 36
f 35 37 38
f 36 35 38
f 39 30 29
f 40 39 29
f 41 22 21
f 42 41 21
f 43 37 35
f 44 43 35
f 45 26 28
f 46 45 28
f 47 48 49
f 50 47 49
f 51 47 50
f 52 51 50
f 53 51 52
f 54 53 52
f 55 53 54
f 56 55 54
f 57 55 56
f 58 57 56
f 59 57 58
f 60 59 58
f 61 59 60
f 62 61 60
f 63 61 62
f 64 63 62
f 65 66 39
f 40 65 39
f 67 68 41
f 42 67 41
f 69 70 45
f 46 69 45
f 71 72 43
f 44 71 43
f 1 4 41
f 68 1 41
f 16 18 65
f 40 16 65
f 71 44 61
f 63 71 61
f 47 45 70
f 48 47 70
f 62 43 72
f 64 62 72
f 67 42 3
f 2 67 3
f 17 15 39
f 66 17 39
f 21 24 73
f 74 21 73
f 73 75 76
f 74 73 76
f 24 26 77
f 73 24 77
f 77 78 75
f 73 77 75
f 79 80 81
f 82 79 81
f 81 20 19
f 82 81 19
f 80 83 84
f 81 80 84
f 84 23 20
f 81 84 20
f 83 85 86
f 84 83 86
f 86 25 23
f 84 86 23
f 85 87 88
f 86 85 88
f 88 27 25
f 86 88 25
f 19 22 89
f 82 19 89
f 89 90 79
f 82 89 79
f 28 27 88
f 91 28 88
f 88 87 92
f 91 88 92
f 93 90 89
f 94 93 89
f 89 22 41
f 94 89 41
f 42 21 74
f 95 42 74
f 74 76 96
f 95 74 96
f 97 78 77
f 98 97 77
f 77 26 45
f 98 77 45
f 46 28 91
f 99 46 91
f 91 92 100
f 99 91 100
f 76 75 101
f 102 76 101
f 101 33 30
f 102 101 30
f 75 78 103
f 101 75 103
f 103 35 33
f 101 103 33
f 32 31 104
f 105 32 104
f 104 80 79
f 105 104 79
f 31 34 106
f 104 31 106
f 106 83 80
f 104 106 80
f 34 36 107
f 106 34 107
f 107 85 83
f 106 107 83
f 36 38 108
f 107 36 108
f 108 87 85
f 107 108 85
f 79 90 109
f 105 79 109
f 109 29 32
f 105 109 32
f 92 87 108
f 110 92 108
f 108 38 37
f 110 108 37
f 40 29 109
f 111 40 109
f 109 90 93
f 111 109 93
f 96 76 102
f 112 96 102
f 102 30 39
f 112 102 39
f 44 35 103
f 113 44 103
f 103 78 97
f 113 103 97
f 100 92 110
f 114 100 110
f 110 37 43
f 114 110 43
f 8 10 93
f 94 8 93
f 41 6 8
f 94 41 8
f 10 12 111
f 93 10 111
f 14 40 111
f 12 14 111
f 4 6 41
f 40 14 16
f 39 15 13
f 42 5 3
f 11 112 39
f 13 11 39
f 9 96 112
f 11 9 112
f 95 96 9
f 7 95 9
f 5 42 95
f 7 5 95
f 55 57 113
f 97 55 113
f 59 44 113
f 57 59 113
f 98 53 55
f 97 98 55
f 45 51 53
f 98 45 53
f 59 61 44
f 47 51 45
f 50 46 52
f 46 50 49
f 69 46 49
f 99 54 52
f 46 99 52
f 99 100 56
f 54 99 56
f 58 114 43
f 60 58 43
f 114 58 56
f 100 114 56
f 62 60 43
f 115 64 72
f 116 115 72
f 116 72 71
f 117 116 71
f 117 71 63
f 118 117 63
f 118 63 64
f 115 118 64
f 116 117 118
f 115 116 118
f 119 69 49
f 120 119 49
f 120 49 48
f 121 120 48
f 121 48 70
f 122 121 70
f 122 70 69
f 119 122 69
f 120 121 122
f 119 120 122
f 123 18 17
f 124 123 17
f 124 17 66
f 125 124 66
f 125 66 65
f 126 125 65
f 126 65 18
f 123 126 18
f 124 125 126
f 123 124 126
f 127 68 67
f 128 127 67
f 128 67 2
f 129 128 2
f 129 2 1
f 130 129 1
f 130 1 68
f 127 130 68
f 128 129 130
f 127 128 130
f 131 132 133
f 131 133 134
f 135 131 136
f 137 138 139
f 140 141 142
f 143 144 145
f 146 147 148
f 141 149 150
f 151 152 153
f 154 153 152
f 142 141 155
f 155 156 157
f 158 159 160
f 150 161 162
f 163 164 165
f 166 148 167
f 135 132 131
f 168 169 170
f 171 140 172
f 173 174 175
f 176 175 174
f 177 178 179
f 161 180 162
f 181 182 183
f 155 150 156
f 136 184 185
f 186 187 159
f 188 189 190
f 191 172 192
f 193 194 195
f 196 197 198
f 196 146 197
f 199 200 201
f 202 203 204
f 202 205 203
f 206 207 177
f 208 209 210
f 201 200 211
f 200 212 213
f 161 214 180
f 215 216 146
f 217 218 219
f 220 221 222
f 223 224 225
f 226 227 178
f 228 229 226
f 192 230 231
f 172 140 142
f 232 233 234
f 235 234 233
f 228 236 229
f 204 237 238
f 239 240 241
f 242 243 147
f 244 245 246
f 163 247 164
f 248 139 228
f 249 210 144
f 250 251 252
f 148 147 188
f 253 254 232
f 233 232 254
f 255 240 239
f 256 207 206
f 257 258 259
f 207 178 177
f 167 188 260
f 261 262 263
f 264 263 262
f 265 266 267
f 268 269 270
f 271 270 269
f 272 261 273
f 263 273 261
f 274 275 276
f 277 278 279
f 280 279 278
f 281 282 283
f 284 285 286
f 287 288 289
f 290 289 288
f 281 291 282
f 284 292 285
f 267 266 293
f 294 295 296
f 297 281 298
f 299 300 301
f 302 303 304
f 305 306 307
f 308 309 310
f 311 310 309
f 291 312 282
f 313 314 315
f 316 315 314
f 317 318 319
f 320 321 322
f 323 322 321
f 324 325 326
f 327 326 325
f 328 329 292
f 330 308 310
f 331 332 333
f 283 334 335
f 335 334 336
f 337 338 331
f 338 332 331
f 339 340 337
f 332 299 333
f 329 297 285
f 341 342 343
f 304 303 330
f 295 306 305
f 296 295 305
f 344 345 346
f 333 328 347
f 348 349 338
f 285 297 298
f 301 350 351
f 347 328 292
f 352 317 353
f 354 302 355
f 283 282 334
f 351 356 357
f 298 281 283
f 319 318 358
f 359 360 361
f 340 338 337
f 303 308 330
f 282 362 334
f 292 329 285
f 363 283 335
f 353 317 364
f 365 366 367
f 368 369 370
f 371 372 373
f 374 375 376
f 377 374 376
f 378 379 380
f 381 382 383
f 384 385 386
f 387 388 389
f 390 391 381
f 392 393 394
f 395 396 397
f 374 398 375
f 399 400 401
f 402 403 404
f 391 405 382
f 406 399 401
f 407 408 409
f 410 411 412
f 413 414 403
f 415 416 417
f 418 395 419
f 420 421 422
f 389 402 423
f 424 425 426
f 139 138 236
f 427 428 400
f 429 430 395
f 380 431 432
f 419 395 397
f 433 434 430
f 400 428 418
f 341 435 436
f 437 436 435
f 438 439 440
f 441 440 439
f 442 443 244
f 139 236 228
f 379 444 380
f 445 446 447
f 379 448 444
f 418 429 395
f 449 432 450
f 451 378 452
f 182 137 183
f 453 454 451
f 209 455 210
f 456 457 458
f 434 458 457
f 459 169 460
f 461 184 462
f 452 380 432
f 463 454 453
f 463 464 454
f 441 464 463
f 252 465 466
f 467 468 469
f 464 470 471
f 208 210 472
f 443 473 168
f 464 471 454
f 400 418 474
f 475 453 476
f 255 477 240
f 430 396 395
f 433 458 434
f 478 479 144
f 454 378 451
f 476 451 480
f 447 481 208
f 214 482 180
f 451 452 480
f 159 187 483
f 484 470 439
f 464 439 470
f 205 485 203
f 471 379 378
f 453 451 476
f 428 437 429
f 483 181 183
f 149 161 150
f 486 487 488
f 488 489 442
f 454 471 378
f 446 481 447
f 185 184 461
f 490 205 202
f 144 479 145
f 203 491 237
f 492 132 135
f 481 209 208
f 165 189 188
f 493 149 141
f 494 495 496
f 184 134 462
f 132 490 202
f 141 150 155
f 203 237 204
f 138 445 236
f 136 131 184
f 183 137 139
f 187 181 483
f 485 491 203
f 497 448 379
f 199 231 200
f 492 490 132
f 142 155 212
f 498 231 199
f 134 133 499
f 147 243 165
f 133 202 204
f 479 500 145
f 499 238 482
f 236 445 447
f 501 502 503
f 504 503 502
f 505 503 504
f 506 505 504
f 507 505 506
f 235 505 507
f 233 505 235
f 254 505 233
f 508 505 254
f 509 508 254
f 510 508 509
f 511 508 510
f 153 508 511
f 154 508 153
f 512 508 154
f 175 512 154
f 176 512 175
f 513 512 176
f 514 512 513
f 515 514 513
f 516 515 513
f 517 515 516
f 518 517 516
f 519 517 518
f 270 519 518
f 271 519 270
f 520 519 271
f 521 520 271
f 522 520 521
f 523 520 522
f 273 523 522
f 263 523 273
f 524 523 263
f 264 524 263
f 525 524 264
f 526 525 264
f 527 525 526
f 528 527 526
f 279 528 526
f 280 528 279
f 529 528 280
f 530 528 529
f 531 528 530
f 532 528 531
f 313 532 531
f 315 532 313
f 533 532 315
f 534 532 533
f 535 534 533
f 536 534 535
f 537 534 536
f 538 534 537
f 539 534 538
f 540 534 539
f 541 534 540
f 542 534 541
f 543 542 541
f 544 542 543
f 545 544 543
f 546 544 545
f 547 546 545
f 548 546 547
f 549 548 547
f 550 548 549
f 551 550 549
f 552 550 551
f 553 552 551
f 554 552 553
f 555 554 553
f 556 554 555
f 557 556 555
f 558 556 557
f 559 558 557
f 560 558 559
f 561 560 559
f 562 560 561
f 563 564 565
f 566 565 564
f 567 566 564
f 568 566 567
f 569 568 567
f 570 568 569
f 571 570 569
f 572 570 571
f 573 572 571
f 574 572 573
f 575 574 573
f 576 574 575
f 577 576 575
f 578 576 577
f 579 578 577
f 580 578 579
f 581 580 579
f 582 580 581
f 583 582 581
f 584 582 583
f 585 584 583
f 503 584 585
f 501 503 585
f 586 501 585
f 587 586 585
f 588 586 587
f 589 588 587
f 590 589 587
f 591 590 587
f 592 591 587
f 593 592 587
f 594 592 593
f 595 594 593
f 596 595 593
f 597 596 593
f 598 597 593
f 599 598 593
f 600 598 599
f 601 600 599
f 602 601 599
f 603 602 599
f 604 602 603
f 605 602 604
f 606 605 604
f 607 605 606
f 608 607 606
f 609 607 608
f 610 609 608
f 611 610 608
f 612 610 611
f 613 612 611
f 614 613 611
f 615 613 614
f 616 615 614
f 617 616 614
f 618 616 617
f 619 618 617
f 620 618 619
f 621 620 619
f 622 620 621
f 623 620 622
f 624 623 622
f 625 624 622
f 323 625 622
f 322 323 622
f 626 322 622
f 289 322 626
f 287 289 626
f 627 287 626
f 540 627 626
f 628 627 540
f 629 628 540
f 630 629 540
f 326 630 540
f 324 326 540
f 539 324 540
f 631 632 369
f 633 369 632
f 634 635 636
f 318 637 294
f 638 639 640
f 633 632 641
f 642 643 644
f 645 641 638
f 646 647 648
f 317 649 318
f 367 650 651
f 652 653 654
f 644 653 652
f 655 651 656
f 654 365 655
f 295 657 306
f 658 370 659
f 633 641 645
f 660 648 661
f 644 643 653
f 662 633 645
f 651 663 656
f 498 656 663
f 199 656 498
f 664 665 666
f 405 392 394
f 307 667 668
f 669 670 671
f 423 402 404
f 415 417 358
f 672 358 417
f 412 673 392
f 674 352 353
f 675 676 677
f 678 265 679
f 311 309 680
f 402 413 403
f 681 416 682
f 415 682 416
f 311 387 683
f 684 685 407
f 686 687 193
f 407 409 416
f 688 689 690
f 685 408 407
f 691 389 692
f 693 220 663
f 498 663 220
f 403 414 694
f 409 374 377
f 695 696 697
f 698 699 700
f 668 685 305
f 684 305 685
f 681 407 416
f 694 424 426
f 417 411 410
f 672 410 390
f 382 405 424
f 701 702 703
f 391 412 405
f 704 456 705
f 389 388 402
f 706 707 708
f 408 700 409
f 680 709 695
f 667 710 685
f 711 712 713
f 178 227 714
f 715 716 717
f 227 718 719
f 720 143 721
f 690 707 706
f 178 714 179
f 722 723 724
f 725 724 723
f 456 726 727
f 408 698 700
f 700 699 398
f 728 702 701
f 710 698 408
f 729 730 731
f 732 472 249
f 697 696 733
f 733 734 674
f 336 334 735
f 700 398 374
f 256 736 207
f 690 689 707
f 737 738 739
f 740 741 742
f 711 713 743
f 743 713 744
f 745 712 711
f 740 746 741
f 747 748 749
f 249 144 143
f 750 256 206
f 721 751 752
f 179 714 753
f 737 739 754
f 755 756 757
f 747 758 759
f 702 755 703
f 729 731 760
f 761 760 731
f 762 244 763
f 761 731 764
f 765 766 767
f 712 768 713
f 769 770 256
f 687 715 194
f 718 208 472
f 717 771 224
f 763 246 772
f 773 774 765
f 716 771 717
f 741 775 776
f 746 777 741
f 761 764 778
f 779 778 764
f 780 169 168
f 781 782 783
f 739 784 785
f 786 787 664
f 788 193 789
f 701 703 784
f 730 743 494
f 713 790 744
f 791 785 792
f 496 495 782
f 394 793 425
f 774 766 765
f 749 737 745
f 794 795 796
f 194 717 223
f 425 793 421
f 749 745 758
f 742 741 776
f 754 739 785
f 737 754 797
f 731 494 496
f 737 797 745
f 496 782 781
f 730 494 731
f 798 711 743
f 749 738 737
f 786 664 799
f 731 496 764
f 776 775 800
f 785 740 792
f 147 165 188
f 801 802 803
f 804 805 806
f 193 195 789
f 672 417 410
f 719 718 472
f 717 224 223
f 758 711 798
f 779 807 808
f 809 808 807
f 334 362 810
f 677 706 708
f 784 746 740
f 811 812 813
f 741 777 775
f 223 225 814
f 739 701 784
f 299 301 328
f 328 301 329
f 815 816 817
f 818 817 816
f 301 351 329
f 819 772 508
f 505 508 772
f 820 821 822
f 350 823 351
f 356 351 823
f 338 349 332
f 340 348 338
f 348 824 349
f 329 351 297
f 825 826 347
f 826 333 347
f 332 827 299
f 363 298 283
f 827 821 299
f 300 299 821
f 331 333 826
f 357 828 291
f 297 357 281
f 361 360 829
f 333 299 328
f 825 347 830
f 357 291 281
f 830 347 292
f 823 820 822
f 831 806 503
f 584 503 806
f 832 453 475
f 335 336 579
f 581 579 336
f 833 826 825
f 578 834 576
f 835 576 834
f 828 836 291
f 286 298 363
f 349 837 332
f 827 332 837
f 356 828 357
f 351 357 297
f 838 794 515
f 514 515 794
f 839 463 832
f 339 337 360
f 832 463 453
f 840 838 517
f 515 517 838
f 841 823 274
f 450 842 520
f 519 520 842
f 801 803 541
f 543 541 803
f 843 844 582
f 580 582 844
f 580 844 578
f 834 578 844
f 360 337 829
f 336 735 581
f 583 581 735
f 830 292 284
f 735 675 583
f 585 583 675
f 772 831 505
f 503 505 831
f 419 397 606
f 608 606 397
f 806 843 584
f 582 584 843
f 845 384 622
f 626 622 384
f 796 819 512
f 508 512 819
f 564 361 567
f 833 567 361
f 577 363 579
f 335 579 363
f 474 419 604
f 606 604 419
f 566 846 565
f 847 565 846
f 842 840 519
f 517 519 840
f 563 359 564
f 361 564 359
f 848 550 768
f 552 768 550
f 565 847 563
f 359 563 847
f 794 796 514
f 512 514 796
f 568 849 566
f 846 566 849
f 850 851 611
f 614 611 851
f 851 852 614
f 617 614 852
f 853 854 619
f 621 619 854
f 397 850 608
f 611 608 850
f 572 217 570
f 219 570 217
f 852 853 617
f 619 617 853
f 406 401 599
f 603 599 401
f 854 845 621
f 622 621 845
f 708 406 593
f 599 593 406
f 677 708 587
f 593 587 708
f 571 830 573
f 284 573 830
f 576 835 574
f 855 574 835
f 567 833 569
f 825 569 833
f 675 677 585
f 587 585 677
f 791 792 544
f 542 544 792
f 856 553 393
f 551 393 553
f 574 855 572
f 217 572 855
f 776 800 532
f 528 532 800
f 393 551 793
f 549 793 551
f 401 474 603
f 604 603 474
f 857 558 858
f 560 858 558
f 792 742 542
f 534 542 742
f 569 825 571
f 830 571 825
f 859 556 857
f 558 857 556
f 570 219 568
f 849 568 219
f 742 776 534
f 532 534 776
f 860 861 623
f 620 623 861
f 862 863 607
f 605 607 863
f 864 588 865
f 589 865 588
f 866 548 848
f 550 848 548
f 573 284 575
f 286 575 284
f 800 475 528
f 527 528 475
f 398 559 375
f 557 375 559
f 575 286 577
f 363 577 286
f 699 561 398
f 559 398 561
f 867 590 868
f 591 868 590
f 449 450 523
f 520 523 450
f 858 560 869
f 562 869 560
f 870 871 612
f 610 612 871
f 375 557 872
f 555 872 557
f 873 791 546
f 544 546 791
f 480 449 524
f 523 524 449
f 868 591 874
f 592 874 591
f 630 875 629
f 876 629 875
f 793 549 421
f 547 421 549
f 877 878 615
f 613 615 878
f 531 879 313
f 314 313 879
f 880 881 787
f 882 883 884
f 803 422 543
f 545 543 422
f 872 555 856
f 553 856 555
f 863 885 605
f 602 605 885
f 886 887 625
f 624 625 887
f 888 877 616
f 615 616 877
f 768 552 790
f 554 790 552
f 475 476 527
f 525 527 476
f 885 889 602
f 601 602 889
f 890 586 864
f 588 864 586
f 759 798 891
f 873 546 866
f 548 866 546
f 536 892 537
f 893 537 892
f 421 547 422
f 545 422 547
f 384 386 626
f 540 626 386
f 790 554 859
f 556 859 554
f 861 894 620
f 618 620 894
f 871 895 610
f 609 610 895
f 785 784 740
f 874 592 896
f 594 896 592
f 897 898 597
f 596 597 898
f 476 480 525
f 524 525 480
f 533 899 535
f 900 535 899
f 628 901 627
f 902 627 901
f 538 903 539
f 904 539 903
f 315 316 533
f 899 533 316
f 537 893 538
f 903 538 893
f 905 268 518
f 270 518 268
f 321 886 323
f 625 323 886
f 906 151 511
f 153 511 151
f 627 902 287
f 288 287 902
f 629 876 628
f 901 628 876
f 262 907 264
f 526 264 907
f 908 506 909
f 504 909 506
f 909 504 910
f 502 910 504
f 289 290 322
f 320 322 290
f 911 905 516
f 518 516 905
f 535 900 536
f 892 536 900
f 912 911 513
f 516 513 911
f 234 235 913
f 507 913 235
f 649 661 637
f 294 914 295
f 657 915 306
f 365 367 655
f 753 916 917
f 714 918 753
f 831 804 806
f 764 496 781
f 162 180 919
f 746 920 777
f 160 483 921
f 732 249 720
f 922 923 225
f 211 213 924
f 482 238 925
f 926 783 869
f 246 245 804
f 159 483 160
f 246 804 831
f 835 927 855
f 759 758 798
f 162 928 929
f 225 923 930
f 772 246 831
f 238 237 931
f 770 248 736
f 758 745 711
f 189 164 484
f 703 755 920
f 213 808 924
f 224 922 225
f 190 438 932
f 488 442 762
f 491 756 933
f 180 482 934
f 229 447 718
f 714 227 719
f 918 732 916
f 771 935 224
f 835 255 927
f 936 488 762
f 237 491 933
f 736 226 207
f 156 162 929
f 162 919 928
f 198 166 492
f 490 492 166
f 180 934 919
f 237 933 931
f 482 925 934
f 748 738 749
f 460 937 938
f 189 484 438
f 207 226 178
f 703 920 746
f 226 229 227
f 213 157 808
f 753 918 916
f 936 762 939
f 940 814 243
f 163 243 814
f 190 932 491
f 756 491 932
f 190 189 438
f 164 247 941
f 216 242 146
f 921 248 770
f 849 467 846
f 227 229 718
f 917 942 943
f 935 922 224
f 238 931 944
f 220 222 498
f 241 460 938
f 945 770 769
f 946 947 948
f 855 927 949
f 167 260 205
f 485 205 260
f 166 167 490
f 205 490 167
f 946 948 216
f 242 216 948
f 855 949 217
f 950 752 951
f 219 218 468
f 939 763 819
f 806 805 843
f 744 790 859
f 805 477 844
f 500 952 145
f 771 145 952
f 219 468 849
f 943 950 951
f 245 170 804
f 843 805 844
f 952 935 771
f 816 945 769
f 751 715 752
f 687 752 715
f 238 944 925
f 752 687 951
f 686 951 687
f 486 488 936
f 953 954 688
f 804 170 805
f 245 168 170
f 955 956 957
f 836 958 312
f 959 716 751
f 715 751 716
f 960 961 676
f 807 962 766
f 963 945 816
f 781 783 962
f 943 942 950
f 736 228 226
f 948 940 242
f 243 242 940
f 939 762 763
f 770 736 256
f 282 312 362
f 945 921 770
f 814 930 163
f 247 163 930
f 809 766 924
f 774 924 766
f 145 771 959
f 716 959 771
f 847 964 965
f 818 769 750
f 157 778 808
f 966 967 853
f 429 433 430
f 968 634 636
f 696 734 733
f 969 372 371
f 303 636 658
f 345 158 970
f 963 970 158
f 971 972 973
f 974 975 368
f 975 976 631
f 977 906 510
f 511 510 906
f 978 979 529
f 530 529 979
f 979 879 530
f 531 530 879
f 341 980 342
f 364 317 319
f 326 327 630
f 875 630 327
f 278 978 280
f 529 280 978
f 981 272 522
f 273 522 272
f 539 904 324
f 325 324 904
f 982 981 521
f 522 521 981
f 358 672 319
f 944 931 728
f 252 466 983
f 181 983 466
f 697 733 414
f 934 747 919
f 341 726 435
f 984 985 986
f 137 986 985
f 414 733 674
f 933 756 755
f 987 259 186
f 684 296 305
f 928 891 929
f 884 988 989
f 990 989 991
f 992 991 989
f 671 993 994
f 995 344 346
f 748 728 738
f 996 997 998
f 923 999 812
f 813 812 999
f 1000 1001 1002
f 1001 1003 1002
f 1004 276 1005
f 1006 666 795
f 1007 1008 1009
f 745 797 712
f 799 664 1006
f 494 744 495
f 811 813 1010
f 318 294 358
f 997 786 998
f 1006 795 794
f 842 998 840
f 782 857 858
f 1004 971 1011
f 883 293 988
f 712 848 768
f 156 929 760
f 764 781 807
f 838 1006 794
f 744 859 495
f 754 873 866
f 713 768 790
f 1007 1012 1008
f 799 1006 838
f 880 787 786
f 777 1013 1014
f 1010 997 996
f 483 183 921
f 787 1015 665
f 682 294 296
f 157 156 760
f 797 848 712
f 495 859 857
f 930 1016 247
f 1017 247 1016
f 738 728 701
f 164 941 484
f 211 924 773
f 495 857 782
f 157 760 778
f 809 807 766
f 920 1013 777
f 807 781 962
f 720 249 143
f 783 858 869
f 775 1014 800
f 784 703 746
f 714 719 918
f 797 866 848
f 930 923 1016
f 921 183 248
f 160 921 945
f 891 730 729
f 762 442 244
f 487 489 488
f 247 1017 941
f 873 785 791
f 276 275 1018
f 813 880 997
f 212 155 157
f 766 962 767
f 743 744 494
f 813 999 880
f 962 783 926
f 840 799 838
f 920 757 1013
f 170 459 805
f 172 142 230
f 184 131 134
f 221 192 222
f 498 222 231
f 231 230 200
f 183 139 248
f 171 1019 140
f 461 462 149
f 210 478 144
f 230 142 212
f 1019 493 140
f 185 461 493
f 1019 185 493
f 1010 813 997
f 260 188 190
f 134 499 214
f 779 764 807
f 150 162 156
f 462 134 214
f 1020 966 852
f 997 880 786
f 922 881 999
f 880 999 881
f 1021 957 1022
f 222 192 231
f 140 493 141
f 200 213 211
f 1023 1024 669
f 1016 812 811
f 355 302 304
f 132 202 133
f 1025 1021 1026
f 955 957 1027
f 133 204 499
f 291 836 312
f 499 204 238
f 792 740 742
f 149 462 161
f 212 157 213
f 148 188 167
f 688 954 689
f 1028 994 1029
f 935 1015 881
f 787 881 1015
f 1022 1030 966
f 1027 957 1021
f 1031 1032 1033
f 1026 1021 1020
f 1030 1034 967
f 823 822 274
f 330 1035 1036
f 1037 1036 1035
f 1020 1022 966
f 1038 1039 1040
f 1032 841 1041
f 1040 1036 1037
f 851 1020 852
f 810 960 676
f 1026 1020 851
f 1030 1040 1034
f 1042 669 1028
f 1043 646 660
f 1044 1033 1024
f 1045 1046 1029
f 669 671 1028
f 309 1047 709
f 660 661 649
f 309 709 680
f 641 639 638
f 1032 1041 1033
f 1025 1026 850
f 1048 662 1047
f 274 822 275
f 821 995 822
f 1049 646 1043
f 1021 1022 1020
f 669 1024 670
f 1038 1040 1030
f 837 344 995
f 656 199 915
f 201 915 199
f 641 632 1050
f 1045 1029 980
f 342 980 1029
f 639 1049 640
f 1051 649 317
f 662 645 1047
f 641 1050 639
f 734 1052 352
f 639 1050 1053
f 655 656 657
f 659 1048 308
f 309 308 1048
f 640 1049 1043
f 653 365 654
f 653 1054 365
f 639 1053 1049
f 637 652 914
f 1051 660 649
f 1041 274 276
f 1043 660 1051
f 709 1047 1055
f 1052 1043 1051
f 309 1048 1047
f 1054 366 365
f 649 637 318
f 1049 647 646
f 1046 1028 1029
f 824 186 344
f 159 344 186
f 637 914 294
f 657 656 915
f 1049 1053 647
f 352 1051 317
f 915 201 306
f 211 306 201
f 370 662 659
f 1048 659 662
f 1047 645 1055
f 1055 638 1056
f 841 274 1041
f 646 648 660
f 369 633 370
f 662 370 633
f 1052 1051 352
f 645 638 1055
f 640 1043 1052
f 1056 640 1052
f 661 652 637
f 647 642 648
f 846 467 964
f 404 426 420
f 957 1038 1022
f 846 964 847
f 941 497 470
f 471 470 497
f 676 961 706
f 1022 1038 1030
f 834 255 835
f 362 1057 960
f 1058 423 802
f 260 190 485
f 491 485 190
f 676 706 677
f 217 949 218
f 816 769 818
f 942 721 950
f 927 255 239
f 312 958 1057
f 401 400 474
f 474 418 419
f 802 420 422
f 437 435 433
f 399 427 400
f 457 704 1059
f 434 1059 1060
f 1061 436 437
f 414 383 694
f 726 458 435
f 433 435 458
f 460 169 937
f 385 1058 386
f 452 432 449
f 1041 276 1004
f 1062 691 692
f 1040 1037 1034
f 850 1026 851
f 1023 1044 1024
f 684 407 296
f 681 296 407
f 441 439 464
f 1042 1063 669
f 428 429 418
f 1064 1065 688
f 1063 1023 669
f 953 1045 954
f 380 444 431
f 1065 953 688
f 437 433 429
f 1066 956 955
f 1062 692 385
f 1057 1067 1068
f 853 967 854
f 1057 1068 960
f 1067 1069 1068
f 304 1036 1039
f 1040 1039 1036
f 1057 958 1067
f 837 824 344
f 361 829 833
f 1069 1065 1064
f 990 884 989
f 1068 1064 961
f 286 285 298
f 821 837 995
f 300 820 301
f 350 301 820
f 960 1068 961
f 346 970 1001
f 852 966 853
f 961 690 706
f 359 339 360
f 1046 1042 1028
f 1044 1031 1033
f 1068 1069 1064
f 275 1000 1018
f 312 1057 362
f 355 1039 956
f 1038 956 1039
f 337 331 829
f 1033 1041 1004
f 961 1064 690
f 833 829 826
f 1027 1021 1025
f 829 331 826
f 966 1030 967
f 275 1070 1000
f 664 666 1006
f 1004 1005 971
f 1005 1018 1007
f 1012 1002 1071
f 1064 688 690
f 1070 1001 1000
f 882 884 990
f 957 956 1038
f 1018 1000 1012
f 971 1005 972
f 993 267 883
f 1005 1007 972
f 754 866 797
f 787 665 664
f 679 267 993
f 346 345 970
f 221 191 192
f 1033 1004 1011
f 755 757 920
f 993 883 882
f 972 1007 1009
f 462 214 161
f 493 461 149
f 777 1014 775
f 455 478 210
f 1072 683 1073
f 1074 1073 683
f 381 364 390
f 383 674 353
f 387 680 388
f 388 695 413
f 388 680 695
f 1075 436 1061
f 307 668 305
f 304 330 1036
f 1076 399 406
f 355 304 1039
f 1034 1077 967
f 665 1078 1079
f 1037 1072 1073
f 478 489 479
f 479 487 500
f 956 1066 355
f 707 1076 708
f 406 708 1076
f 1077 1080 854
f 845 854 1080
f 414 674 383
f 1035 310 1072
f 828 1032 836
f 726 456 458
f 481 473 209
f 1081 427 1076
f 413 697 414
f 952 500 1078
f 486 1078 500
f 967 1077 854
f 1059 955 1060
f 1027 1060 955
f 1060 1027 396
f 1025 396 1027
f 983 181 187
f 445 938 937
f 1069 1067 1063
f 1069 1042 1065
f 1034 1073 1077
f 356 841 828
f 1067 1023 1063
f 1037 1073 1034
f 1081 1061 427
f 456 704 457
f 695 697 413
f 980 341 436
f 828 841 1032
f 1065 1046 953
f 350 820 823
f 847 965 359
f 339 359 965
f 1045 980 954
f 1075 954 980
f 795 1082 796
f 1035 330 310
f 1075 1061 1081
f 481 780 473
f 478 1083 489
f 836 1031 958
f 980 436 1075
f 689 1081 707
f 1076 707 1081
f 836 1032 1031
f 1076 427 399
f 466 182 181
f 1065 1042 1046
f 349 824 837
f 446 937 780
f 665 1079 666
f 986 137 182
f 954 1075 689
f 1081 689 1075
f 445 937 446
f 259 187 186
f 987 186 348
f 824 348 186
f 1067 1044 1023
f 455 1083 478
f 1069 1063 1042
f 666 1082 795
f 138 938 445
f 958 1044 1067
f 827 837 821
f 356 823 841
f 1015 1078 665
f 446 780 481
f 952 1015 935
f 479 489 487
f 953 1046 1045
f 209 473 455
f 1015 952 1078
f 1016 923 812
f 300 821 820
f 666 1079 1082
f 1035 1072 1037
f 958 1031 1044
f 947 789 948
f 941 1017 497
f 965 1084 339
f 340 339 1084
f 1085 440 441
f 932 440 1085
f 438 440 932
f 484 439 438
f 1078 486 1079
f 936 1079 486
f 938 138 985
f 719 472 732
f 839 441 463
f 473 1083 455
f 1084 987 340
f 348 340 987
f 1085 441 839
f 1079 936 1082
f 939 1082 936
f 1082 939 796
f 819 796 939
f 918 719 732
f 935 881 922
f 788 789 947
f 197 148 166
f 484 941 470
f 448 811 444
f 1010 444 811
f 194 223 195
f 431 996 450
f 842 450 996
f 143 145 959
f 923 922 999
f 444 1010 431
f 996 431 1010
f 686 193 788
f 940 223 814
f 1017 1016 448
f 811 448 1016
f 137 985 138
f 996 998 842
f 269 982 271
f 521 271 982
f 913 507 908
f 506 908 507
f 366 650 367
f 725 1086 974
f 705 1087 354
f 968 354 1087
f 914 657 295
f 1088 371 1089
f 635 368 658
f 658 659 308
f 1087 1089 968
f 634 968 1089
f 734 352 674
f 1000 1002 1012
f 1090 1091 969
f 342 1090 343
f 303 658 308
f 1090 969 1088
f 372 1092 373
f 344 159 345
f 158 345 159
f 1088 969 371
f 1011 678 670
f 970 963 1003
f 816 1003 963
f 815 1003 816
f 802 404 420
f 1091 991 969
f 1093 882 990
f 727 1088 1087
f 1094 1062 385
f 416 377 417
f 724 974 635
f 994 882 1093
f 372 992 1092
f 1094 385 384
f 974 1086 976
f 973 1095 266
f 1028 671 994
f 1089 722 634
f 724 634 722
f 975 631 369
f 1012 1071 1008
f 1024 1011 670
f 377 376 411
f 403 694 426
f 814 225 930
f 754 785 873
f 692 389 423
f 146 242 147
f 1080 1062 1094
f 738 701 739
f 472 210 249
f 803 802 422
f 1074 691 1062
f 411 376 673
f 673 856 392
f 412 392 405
f 376 375 872
f 198 197 166
f 195 223 940
f 143 959 751
f 388 413 402
f 1074 1062 1080
f 747 749 758
f 392 856 393
f 390 410 391
f 423 404 802
f 789 195 948
f 425 421 420
f 382 424 694
f 394 393 793
f 376 872 673
f 845 1094 384
f 165 164 189
f 362 960 810
f 197 146 148
f 417 377 411
f 1080 1094 845
f 673 872 856
f 1061 437 428
f 685 710 408
f 411 673 412
f 405 394 424
f 692 423 1058
f 430 1060 396
f 721 143 751
f 424 394 425
f 457 1059 434
f 1083 473 443
f 427 1061 428
f 378 380 452
f 683 691 1074
f 410 412 391
f 432 431 450
f 434 1060 430
f 386 1058 801
f 887 860 624
f 623 624 860
f 894 888 618
f 616 618 888
f 1024 1033 1011
f 878 870 613
f 612 613 870
f 822 1070 275
f 822 995 1070
f 267 293 883
f 995 346 1070
f 671 679 993
f 798 743 730
f 265 973 266
f 1070 346 1001
f 1002 1096 1071
f 1066 354 355
f 889 1097 601
f 600 601 1097
f 883 988 884
f 678 973 265
f 891 798 730
f 910 502 1098
f 501 1098 502
f 447 208 718
f 948 195 940
f 819 763 772
f 950 721 752
f 215 146 196
f 240 460 241
f 192 172 230
f 214 499 482
f 782 858 783
f 964 1099 965
f 715 717 194
f 191 171 172
f 687 194 193
f 243 163 165
f 230 212 200
f 218 949 251
f 158 160 963
f 152 173 154
f 175 154 173
f 942 720 721
f 963 160 945
f 849 468 467
f 834 477 255
f 1098 501 890
f 586 890 501
f 489 1083 442
f 769 256 750
f 465 986 466
f 182 466 986
f 1100 509 253
f 254 253 509
f 248 228 736
f 469 250 258
f 258 252 983
f 927 239 1101
f 949 927 1101
f 916 732 720
f 977 510 1100
f 509 1100 510
f 844 477 834
f 1013 839 1014
f 832 1014 839
f 931 933 702
f 442 1083 443
f 949 1101 251
f 258 983 259
f 187 259 983
f 805 459 477
f 174 912 176
f 513 176 912
f 773 924 774
f 757 1085 1013
f 839 1013 1085
f 236 447 229
f 944 728 748
f 1099 257 1084
f 241 938 985
f 257 259 987
f 170 169 459
f 934 748 747
f 931 702 728
f 250 252 258
f 306 211 307
f 773 307 211
f 760 761 778
f 240 459 460
f 929 891 729
f 480 452 449
f 933 755 702
f 239 241 984
f 1014 832 800
f 475 800 832
f 465 984 986
f 251 465 252
f 443 168 245
f 390 364 319
f 1101 984 465
f 984 241 985
f 916 720 942
f 477 459 240
f 467 469 1099
f 773 765 307
f 667 307 765
f 500 487 486
f 917 916 942
f 169 780 937
f 919 747 759
f 919 759 928
f 808 809 924
f 964 467 1099
f 381 353 364
f 965 1099 1084
f 1099 469 257
f 468 250 469
f 756 932 757
f 1085 757 932
f 251 1101 465
f 497 1017 448
f 1084 257 987
f 471 497 379
f 1101 239 984
f 468 218 250
f 780 168 473
f 928 759 891
f 319 672 390
f 387 311 680
f 296 681 682
f 925 748 934
f 704 1066 1059
f 955 1059 1066
f 926 869 698
f 699 698 869
f 682 415 358
f 383 353 381
f 767 926 710
f 698 710 926
f 765 767 667
f 710 667 767
f 310 311 1072
f 683 1072 311
f 1073 1074 1077
f 1080 1077 1074
f 724 725 974
f 1029 1102 342
f 1103 342 1102
f 1089 371 722
f 670 679 671
f 1102 1093 1103
f 1091 1103 1093
f 343 1090 1088
f 705 727 1087
f 373 1092 1104
f 726 343 727
f 994 993 882
f 973 972 1095
f 1058 802 801
f 456 727 705
f 722 1104 723
f 668 667 685
f 991 992 372
f 334 810 735
f 342 1103 1090
f 735 810 675
f 969 991 372
f 810 676 675
f 1087 1088 1089
f 691 387 389
f 1029 994 1102
f 404 403 426
f 683 387 691
f 670 678 679
f 371 373 722
f 1011 971 678
f 1102 994 1093
f 373 1104 722
f 1093 990 1091
f 991 1091 990
f 381 391 382
f 416 409 377
f 1018 1012 1007
f 385 692 1058
f 383 382 694
f 704 705 1066
f 354 1066 705
f 426 425 420
f 409 700 374
f 1003 815 1096
f 817 1096 815
f 650 693 651
f 663 651 693
f 269 1105 982
f 1106 982 1105
f 1107 982 1106
f 1108 1107 1106
f 1109 982 1107
f 1110 982 1109
f 870 982 1110
f 878 982 870
f 981 982 878
f 877 981 878
f 272 981 877
f 888 272 877
f 261 272 888
f 894 261 888
f 262 261 894
f 861 262 894
f 907 262 861
f 860 907 861
f 277 907 860
f 887 277 860
f 278 277 887
f 886 278 887
f 978 278 886
f 321 978 886
f 979 978 321
f 320 979 321
f 879 979 320
f 290 879 320
f 314 879 290
f 288 314 290
f 316 314 288
f 902 316 288
f 899 316 902
f 901 899 902
f 900 899 901
f 876 900 901
f 892 900 876
f 875 892 876
f 893 892 875
f 327 893 875
f 903 893 327
f 325 903 327
f 904 903 325
f 1098 890 910
f 909 910 890
f 864 909 890
f 908 909 864
f 865 908 864
f 913 908 865
f 867 913 865
f 234 913 867
f 868 234 867
f 232 234 868
f 874 232 868
f 253 232 874
f 896 253 874
f 1100 253 896
f 1111 1100 896
f 977 1100 1111
f 898 977 1111
f 906 977 898
f 897 906 898
f 151 906 897
f 1112 151 897
f 152 151 1112
f 1097 152 1112
f 173 152 1097
f 889 173 1097
f 174 173 889
f 885 174 889
f 912 174 885
f 863 912 885
f 911 912 863
f 862 911 863
f 905 911 862
f 895 905 862
f 268 905 895
f 871 268 895
f 269 268 871
f 1113 269 871
f 870 1113 871
f 1105 269 1113
f 1108 1113 870
f 1114 1108 870
f 1107 1108 1114
f 1110 1114 870
f 469 258 257
f 763 244 246
f 218 251 250
f 244 443 245
f 929 729 760
f 778 779 808
f 396 1025 397
f 850 397 1025
f 925 944 748
f 907 277 526
f 279 526 277
f 726 341 343
f 869 562 699
f 561 699 562
f 971 973 678
f 972 1009 1095
f 767 962 926
f 1002 1003 1096
f 1001 970 1003
f 1112 897 598
f 597 598 897
f 386 801 540
f 541 540 801
f 895 862 609
f 607 609 862
f 998 799 840
f 865 589 867
f 590 867 589
f 358 294 682
f 998 786 799
f 679 265 267
f 898 1111 596
f 595 596 1111
f 1097 1112 600
f 598 600 1112
f 276 1018 1005
f 896 594 1111
f 595 1111 594
f 658 368 370
f 368 975 369
f 638 640 1056
f 367 651 655
f 652 654 914
f 914 654 657
f 634 724 635
f 1056 1052 734
f 654 655 657
f 1055 1056 696
f 709 1055 696
f 354 968 302
f 302 636 303
f 648 644 661
f 635 974 368
f 636 635 658
f 974 976 975
f 709 696 695
f 661 644 652
f 643 1054 653
f 648 642 644
f 302 968 636
f 696 1056 734
f 343 1088 727
f 1103 1091 1090
f 1096 817 1071
f 818 1071 817
f 750 1071 818
f 1008 1071 750
f 206 1008 750
f 1009 1008 206
f 177 1009 206
f 1095 1009 177
f 179 1095 177
f 266 1095 179
f 753 266 179
f 293 266 753
f 917 293 753
f 988 293 917
f 943 988 917
f 989 988 943
f 951 989 943
f 992 989 951
f 686 992 951
f 1092 992 686
f 788 1092 686
f 1104 1092 788
f 947 1104 788
f 723 1104 947
f 946 723 947
f 725 723 946
f 216 725 946
f 1086 725 216
f 215 1086 216
f 976 1086 215
f 196 976 215
f 631 976 196
f 198 631 196
f 632 631 198
f 492 632 198
f 1050 632 492
f 135 1050 492
f 1053 1050 135
f 136 1053 135
f 647 1053 136
f 185 647 136
f 642 647 185
f 1019 642 185
f 643 642 1019
f 171 643 1019
f 1054 643 171
f 191 1054 171
f 366 1054 191
f 221 366 191
f 650 366 221
f 693 650 221
f 220 693 221

