# https://github.com/mikedh/trimesh
v 0.01478217 0.01623895 0.00610923
v 0.01478217 -0.01626105 0.00610923
v 0.01600007 -0.01626105 -0.00001369
v 0.01600007 0.01623895 -0.00001369
v 0.01131377 0.01623895 0.01130002
v 0.01131377 -0.01626105 0.01130002
v -0.01478203 0.01623895 0.00610923
v -0.01478203 -0.01626105 0.00610923
v -0.01131363 -0.01626105 0.01130002
v -0.01131363 0.01623895 0.01130002
v -0.01599993 0.01623895 -0.00001369
v -0.01599993 -0.01626105 -0.00001369
v 0.00000007 0.01623895 -0.00001369
v 0.00000007 -0.01626105 -0.00001369
v 0.01600007 0.01623895 -0.00951369
v 0.01600007 -0.01626105 -0.00951369
v 0.00000007 -0.01626105 -0.00951369
v 0.00000007 0.01623895 -0.00951369
v -0.01599993 -0.01626105 -0.00951369
v -0.01599993 0.01623895 -0.00951369
v 0.01600007 0.01623895 -0.03101370
v 0.01600007 -0.01626105 -0.03101370
v 0.00000007 -0.01626105 -0.03101370
v 0.00000007 0.01623895 -0.03101370
v -0.01599993 -0.01626105 -0.03101370
v -0.01599993 0.01623895 -0.03101370
v -0.02821803 0.01623895 -0.05203819
v -0.02821803 -0.01626105 -0.05203819
v -0.02352433 -0.01626105 -0.04792199
v -0.02352433 0.01623895 -0.04792199
v -0.03097913 0.01623895 -0.05763729
v -0.03097913 -0.01626105 -0.05763729
v -0.01343593 0.01623895 -0.07764160
v -0.01343593 -0.01626105 -0.07764160
v -0.01966543 -0.01626105 -0.07723320
v -0.01966543 0.01623895 -0.07723320
v -0.00752433 0.01623895 -0.07563480
v -0.00752433 -0.01626105 -0.07563480
v -0.01552433 0.01623895 -0.06177840
v -0.01552433 -0.01626105 -0.06177840
v -0.01529713 0.01623895 -0.04317199
v -0.01529713 -0.01626105 -0.04317199
v -0.00729713 -0.01626105 -0.05702840
v -0.00729713 0.01623895 -0.05702840
v 0.00070287 -0.01626105 -0.07088480
v 0.00070287 0.01623895 -0.07088480
v 0.00332247 0.01623895 -0.03242199
v 0.00332247 -0.01626105 -0.03242199
v 0.01132247 -0.01626105 -0.04627839
v 0.01132247 0.01623895 -0.04627839
v 0.01932247 -0.01626105 -0.06013480
v 0.01932247 0.01623895 -0.06013480
v 0.00114817 0.01973895 -0.00278527
v 0.00114817 0.01623895 -0.00278527
v 0.00000007 0.01623895 -0.00301371
v 0.00000007 0.01973895 -0.00301371
v 0.00212137 0.01973895 -0.00213499
v 0.00212137 0.01623895 -0.00213499
v 0.00277167 0.01973895 -0.00116179
v 0.00277167 0.01623895 -0.00116179
v 0.00300007 0.01973895 -0.00001369
v 0.00300007 0.01623895 -0.00001369
v 0.00277167 0.01973895 0.00113442
v 0.00277167 0.01623895 0.00113442
v 0.00212137 0.01973895 0.00210761
v 0.00212137 0.01623895 0.00210761
v 0.00114817 0.01973895 0.00275790
v 0.00114817 0.01623895 0.00275790
v 0.00000007 0.01973895 0.00298630
v 0.00000007 0.01623895 0.00298630
v -0.00114793 0.01973895 0.00275790
v -0.00114793 0.01623895 0.00275790
v -0.00212123 0.01973895 0.00210761
v -0.00212123 0.01623895 0.00210761
v -0.00277153 0.01973895 0.00113442
v -0.00277153 0.01623895 0.00113442
v -0.00299993 0.01973895 -0.00001369
v -0.00299993 0.01623895 -0.00001369
v -0.00277153 0.01973895 -0.00116179
v -0.00277153 0.01623895 -0.00116179
v -0.00212123 0.01973895 -0.00213499
v -0.00212123 0.01623895 -0.00213499
v -0.00114793 0.01973895 -0.00278527
v -0.00114793 0.01623895 -0.00278527
v 0.00000007 0.01973895 -0.00001369
v -0.01369813 0.01973895 -0.05939840
v -0.01369813 0.01623895 -0.05939840
v -0.01292623 0.01623895 -0.06027840
v -0.01292623 0.01973895 -0.06027840
v -0.01474793 0.01973895 -0.05888069
v -0.01474793 0.01623895 -0.05888069
v -0.01591583 0.01973895 -0.05880409
v -0.01591583 0.01623895 -0.05880409
v -0.01702433 0.01973895 -0.05918039
v -0.01702433 0.01623895 -0.05918039
v -0.01790443 0.01973895 -0.05995220
v -0.01790443 0.01623895 -0.05995220
v -0.01842213 0.01973895 -0.06100200
v -0.01842213 0.01623895 -0.06100200
v -0.01849873 0.01973895 -0.06217000
v -0.01849873 0.01623895 -0.06217000
v -0.01812243 0.01973895 -0.06327840
v -0.01812243 0.01623895 -0.06327840
v -0.01735063 0.01973895 -0.06415839
v -0.01735063 0.01623895 -0.06415839
v -0.01630083 0.01973895 -0.06467620
v -0.01630083 0.01623895 -0.06467620
v -0.01513283 0.01973895 -0.06475280
v -0.01513283 0.01623895 -0.06475280
v -0.01402433 0.01973895 -0.06437650
v -0.01402433 0.01623895 -0.06437650
v -0.01314423 0.01973895 -0.06360470
v -0.01314423 0.01623895 -0.06360470
v -0.01262663 0.01973895 -0.06255490
v -0.01262663 0.01623895 -0.06255490
v -0.01255013 0.01973895 -0.06138679
v -0.01255013 0.01623895 -0.06138679
v -0.01552433 0.01973895 -0.06177840
f 1 2 3
f 4 1 3
f 5 6 2
f 1 5 2
f 7 8 9
f 10 7 9
f 11 12 8
f 7 11 8
f 13 1 4
f 13 5 1
f 13 7 10
f 13 11 7
f 14 3 2
f 14 2 6
f 14 9 8
f 14 8 12
f 15 4 3
f 16 15 3
f 16 3 14
f 17 16 14
f 18 13 4
f 15 18 4
f 17 14 12
f 19 17 12
f 19 12 11
f 20 19 11
f 20 11 13
f 18 20 13
f 21 15 16
f 22 21 16
f 22 16 17
f 23 22 17
f 24 18 15
f 21 24 15
f 22 23 24
f 21 22 24
f 23 17 19
f 25 23 19
f 25 19 20
f 26 25 20
f 26 20 18
f 24 26 18
f 23 25 26
f 24 23 26
f 10 9 6
f 5 10 6
f 10 5 13
f 14 6 9
f 27 28 29
f 30 27 29
f 31 32 28
f 27 31 28
f 33 34 35
f 36 33 35
f 37 38 34
f 33 37 34
f 39 27 30
f 39 31 27
f 39 33 36
f 39 37 33
f 40 29 28
f 40 28 32
f 40 35 34
f 40 34 38
f 41 30 29
f 42 41 29
f 42 29 40
f 43 42 40
f 44 39 30
f 41 44 30
f 43 40 38
f 45 43 38
f 45 38 37
f 46 45 37
f 46 37 39
f 44 46 39
f 47 41 42
f 48 47 42
f 48 42 43
f 49 48 43
f 50 44 41
f 47 50 41
f 48 49 50
f 47 48 50
f 49 43 45
f 51 49 45
f 51 45 46
f 52 51 46
f 52 46 44
f 50 52 44
f 49 51 52
f 50 49 52
f 36 35 32
f 31 36 32
f 36 31 39
f 40 32 35
f 53 54 55
f 56 53 55
f 57 58 54
f 53 57 54
f 59 60 58
f 57 59 58
f 61 62 60
f 59 61 60
f 63 64 62
f 61 63 62
f 65 66 64
f 63 65 64
f 67 68 66
f 65 67 66
f 69 70 68
f 67 69 68
f 71 72 70
f 69 71 70
f 73 74 72
f 71 73 72
f 75 76 74
f 73 75 74
f 77 78 76
f 75 77 76
f 79 80 78
f 77 79 78
f 81 82 80
f 79 81 80
f 83 84 82
f 81 83 82
f 56 55 84
f 83 56 84
f 85 53 56
f 85 57 53
f 85 59 57
f 85 61 59
f 85 63 61
f 85 65 63
f 85 67 65
f 85 69 67
f 85 71 69
f 85 73 71
f 85 75 73
f 85 77 75
f 85 79 77
f 85 81 79
f 85 83 81
f 85 56 83
f 13 55 54
f 13 54 58
f 13 58 60
f 13 60 62
f 13 62 64
f 13 64 66
f 13 66 68
f 13 68 70
f 13 70 72
f 13 72 74
f 13 74 76
f 13 76 78
f 13 78 80
f 13 80 82
f 13 82 84
f 13 84 55
f 86 87 88
f 89 86 88
f 90 91 87
f 86 90 87
f 92 93 91
f 90 92 91
f 94 95 93
f 92 94 93
f 96 97 95
f 94 96 95
f 98 99 97
f 96 98 97
f 100 101 99
f 98 100 99
f 102 103 101
f 100 102 101
f 104 105 103
f 102 104 103
f 106 107 105
f 104 106 105
f 108 109 107
f 106 108 107
f 110 111 109
f 108 110 109
f 112 113 111
f 110 112 111
f 114 115 113
f 112 114 113
f 116 117 115
f 114 116 115
f 89 88 117
f 116 89 117
f 118 86 89
f 118 90 86
f 118 92 90
f 118 94 92
f 118 96 94
f 118 98 96
f 118 100 98
f 118 102 100
f 118 104 102
f 118 106 104
f 118 108 106
f 118 110 108
f 118 112 110
f 118 114 112
f 118 116 114
f 118 89 116
f 39 88 87
f 39 87 91
f 39 91 93
f 39 93 95
f 39 95 97
f 39 97 99
f 39 99 101
f 39 101 103
f 39 103 105
f 39 105 107
f 39 107 109
f 39 109 111
f 39 111 113
f 39 113 115
f 39 115 117
f 39 117 88

