# https://github.com/mikedh/trimesh
v 0.01727316 0.01902982 -0.04266120
v 0.01727316 0.01702983 -0.04266120
v 0.02109995 0.01702982 -0.04190001
v 0.02109995 0.01902982 -0.04190001
v 0.01402886 0.01902982 -0.04482890
v 0.01402886 0.01702983 -0.04482890
v 0.01186116 0.01902982 -0.04807321
v 0.01186116 0.01702983 -0.04807321
v 0.01109996 0.01902982 -0.05190000
v 0.01109996 0.01702983 -0.05190000
v 0.01186116 0.01902982 -0.05572680
v 0.01186116 0.01702983 -0.05572680
v 0.01402886 0.01902982 -0.05897110
v 0.01402886 0.01702983 -0.05897110
v 0.01727316 0.01902982 -0.06113880
v 0.01727316 0.01702983 -0.06113880
v 0.02109995 0.01902982 -0.06190000
v 0.02109995 0.01702983 -0.06190000
v 0.02492676 0.01902982 -0.06113880
v 0.02492676 0.01702983 -0.06113880
v 0.02817106 0.01902982 -0.05897110
v 0.02817106 0.01702983 -0.05897110
v 0.03033876 0.01902982 -0.05572680
v 0.03033876 0.01702983 -0.05572680
v 0.03109996 0.01902982 -0.05190000
v 0.03109996 0.01702982 -0.05190000
v 0.03033876 0.01902982 -0.04807321
v 0.03033876 0.01702982 -0.04807321
v 0.02817106 0.01902982 -0.04482890
v 0.02817106 0.01702982 -0.04482890
v 0.02492676 0.01902982 -0.04266120
v 0.02492676 0.01702982 -0.04266120
v 0.02109995 0.01902982 -0.05190000
v 0.02109995 0.01702983 -0.05190000
v 0.01918656 0.02002983 -0.04728060
v 0.01918656 0.01602983 -0.04728060
v 0.02109995 0.01602983 -0.04690000
v 0.02109995 0.02002983 -0.04690000
v 0.01756446 0.02002983 -0.04836450
v 0.01756446 0.01602983 -0.04836450
v 0.01648056 0.02002983 -0.04998660
v 0.01648056 0.01602983 -0.04998660
v 0.01609996 0.02002983 -0.05190000
v 0.01609996 0.01602983 -0.05190000
v 0.01648056 0.02002983 -0.05381340
v 0.01648056 0.01602983 -0.05381340
v 0.01756446 0.02002983 -0.05543550
v 0.01756446 0.01602983 -0.05543550
v 0.01918656 0.02002983 -0.05651940
v 0.01918656 0.01602983 -0.05651940
v 0.02109995 0.02002983 -0.05690001
v 0.02109995 0.01602983 -0.05690001
v 0.02301336 0.02002983 -0.05651940
v 0.02301336 0.01602983 -0.05651940
v 0.02463546 0.02002983 -0.05543550
v 0.02463546 0.01602983 -0.05543550
v 0.02571936 0.02002983 -0.05381340
v 0.02571936 0.01602983 -0.05381340
v 0.02609996 0.02002983 -0.05190000
v 0.02609996 0.01602983 -0.05190000
v 0.02571936 0.02002983 -0.04998660
v 0.02571936 0.01602983 -0.04998660
v 0.02463546 0.02002983 -0.04836450
v 0.02463546 0.01602983 -0.04836450
v 0.02301336 0.02002983 -0.04728060
v 0.02301336 0.01602983 -0.04728060
v 0.02109995 0.02002983 -0.05190000
v 0.02109995 0.01602983 -0.05190000
v 0.01727315 -0.01697017 -0.04266120
v 0.01727315 -0.01897017 -0.04266120
v 0.02109995 -0.01897018 -0.04190001
v 0.02109995 -0.01697018 -0.04190001
v 0.01402885 -0.01697017 -0.04482890
v 0.01402885 -0.01897017 -0.04482890
v 0.01186115 -0.01697017 -0.04807321
v 0.01186115 -0.01897017 -0.04807321
v 0.01109995 -0.01697017 -0.05190000
v 0.01109995 -0.01897017 -0.05190000
v 0.01186115 -0.01697017 -0.05572680
v 0.01186115 -0.01897017 -0.05572680
v 0.01402885 -0.01697017 -0.05897110
v 0.01402885 -0.01897017 -0.05897110
v 0.01727315 -0.01697017 -0.06113880
v 0.01727315 -0.01897017 -0.06113880
v 0.02109995 -0.01697017 -0.06190000
v 0.02109995 -0.01897017 -0.06190000
v 0.02492676 -0.01697017 -0.06113880
v 0.02492676 -0.01897017 -0.06113880
v 0.02817106 -0.01697017 -0.05897110
v 0.02817106 -0.01897017 -0.05897110
v 0.03033875 -0.01697017 -0.05572680
v 0.03033875 -0.01897017 -0.05572680
v 0.03109995 -0.01697018 -0.05190000
v 0.03109995 -0.01897018 -0.05190000
v 0.03033875 -0.01697018 -0.04807321
v 0.03033875 -0.01897018 -0.04807321
v 0.02817106 -0.01697018 -0.04482890
v 0.02817106 -0.01897018 -0.04482890
v 0.02492676 -0.01697018 -0.04266120
v 0.02492676 -0.01897018 -0.04266120
v 0.02109995 -0.01697017 -0.05190000
v 0.02109995 -0.01897017 -0.05190000
v 0.01918655 -0.01597017 -0.04728060
v 0.01918655 -0.01997018 -0.04728060
v 0.02109995 -0.01997018 -0.04690000
v 0.02109995 -0.01597017 -0.04690000
v 0.01756446 -0.01597017 -0.04836450
v 0.01756446 -0.01997018 -0.04836450
v 0.01648055 -0.01597017 -0.04998660
v 0.01648055 -0.01997018 -0.04998660
v 0.01609995 -0.01597017 -0.05190000
v 0.01609995 -0.01997018 -0.05190000
v 0.01648055 -0.01597017 -0.05381340
v 0.01648055 -0.01997018 -0.05381340
v 0.01756446 -0.01597017 -0.05543550
v 0.01756446 -0.01997018 -0.05543550
v 0.01918655 -0.01597017 -0.05651940
v 0.01918655 -0.01997018 -0.05651940
v 0.02109995 -0.01597017 -0.05690001
v 0.02109995 -0.01997018 -0.05690001
v 0.02301335 -0.01597017 -0.05651940
v 0.02301335 -0.01997018 -0.05651940
v 0.02463545 -0.01597017 -0.05543550
v 0.02463545 -0.01997018 -0.05543550
v 0.02571935 -0.01597017 -0.05381340
v 0.02571935 -0.01997018 -0.05381340
v 0.02609995 -0.01597017 -0.05190000
v 0.02609995 -0.01997018 -0.05190000
v 0.02571935 -0.01597017 -0.04998660
v 0.02571935 -0.01997018 -0.04998660
v 0.02463545 -0.01597017 -0.04836450
v 0.02463545 -0.01997018 -0.04836450
v 0.02301335 -0.01597017 -0.04728060
v 0.02301335 -0.01997018 -0.04728060
v 0.02109995 -0.01597017 -0.05190000
v 0.02109995 -0.01997018 -0.05190000
v 0.02609996 0.02102983 -0.05190000
v 0.02609996 0.01902982 -0.05190000
v 0.02571936 0.01902982 -0.04998660
v 0.02571936 0.02102983 -0.04998660
v 0.02463546 0.01902982 -0.04836450
v 0.02463546 0.02102983 -0.04836449
v 0.02301336 0.01902982 -0.04728060
v 0.02301336 0.02102983 -0.04728059
v 0.02109995 0.01902982 -0.04690000
v 0.02109995 0.02102983 -0.04689999
v 0.01918656 0.01902982 -0.04728060
v 0.01918656 0.02102983 -0.04728059
v 0.01756446 0.01902982 -0.04836450
v 0.01756446 0.02102983 -0.04836449
v 0.01648056 0.01902982 -0.04998660
v 0.01648056 0.02102983 -0.04998660
v 0.01609996 0.01902982 -0.05190000
v 0.01609996 0.02102983 -0.05190000
v 0.01009996 0.02102983 -0.05190000
v 0.01009996 0.01902982 -0.05190000
v 0.01009996 0.01902982 -0.04290000
v 0.01009996 0.02102983 -0.04289999
v 0.03209996 0.01902982 -0.05190000
v 0.03209996 0.02102982 -0.05190000
v 0.03209996 0.02102982 -0.04289999
v 0.03209996 0.01902982 -0.04290000
v 0.02109995 0.02102982 -0.04289999
v 0.02472916 0.02102982 -0.04289999
v 0.01760676 0.02102983 -0.04289999
v 0.01760676 0.01902982 -0.04290000
v 0.02109995 0.01902982 -0.04290000
v 0.02472916 0.01902982 -0.04290000
v 0.01609996 0.02102983 -0.05389999
v 0.01609996 0.01902982 -0.05390000
v 0.01009996 0.01902982 -0.05390000
v 0.01009996 0.02102983 -0.05389999
v 0.03209996 0.02102982 -0.05389999
v 0.03209996 0.01902982 -0.05390000
v 0.02609996 0.01902982 -0.05390000
v 0.02609996 0.02102983 -0.05389999
v 0.02571935 -0.01897017 -0.04998660
v 0.02609995 -0.01897017 -0.05190000
v 0.02609995 -0.02097017 -0.05190000
v 0.02571935 -0.02097017 -0.04998660
v 0.02463545 -0.01897017 -0.04836450
v 0.02463545 -0.02097017 -0.04836450
v 0.02301335 -0.01897017 -0.04728060
v 0.02301335 -0.02097017 -0.04728060
v 0.02109995 -0.01897017 -0.04690000
v 0.02109995 -0.02097017 -0.04690000
v 0.01918655 -0.01897017 -0.04728060
v 0.01918655 -0.02097017 -0.04728060
v 0.01756446 -0.01897017 -0.04836450
v 0.01756446 -0.02097017 -0.04836450
v 0.01648055 -0.01897017 -0.04998660
v 0.01648055 -0.02097017 -0.04998660
v 0.01609995 -0.01897017 -0.05190000
v 0.01609995 -0.02097017 -0.05190000
v 0.01009995 -0.01897017 -0.04290000
v 0.01009995 -0.01897017 -0.05190000
v 0.01009995 -0.02097017 -0.05190000
v 0.01009995 -0.02097017 -0.04290000
v 0.03209995 -0.02097017 -0.04290000
v 0.03209995 -0.02097017 -0.05190000
v 0.03209995 -0.01897018 -0.05190000
v 0.03209995 -0.01897018 -0.04290000
v 0.02109995 -0.02097017 -0.04290000
v 0.02472916 -0.02097017 -0.04290000
v 0.01760675 -0.02097017 -0.04290000
v 0.01760675 -0.01897017 -0.04290000
v 0.02109995 -0.01897018 -0.04290000
v 0.02472916 -0.01897018 -0.04290000
v 0.01609995 -0.02097017 -0.05390000
v 0.01609995 -0.01897017 -0.05390000
v 0.01009995 -0.01897017 -0.05390000
v 0.01009995 -0.02097017 -0.05390000
v 0.03209995 -0.02097017 -0.05390000
v 0.03209995 -0.01897018 -0.05390000
v 0.02609995 -0.01897017 -0.05390000
v 0.02609995 -0.02097017 -0.05390000
v 0.02472916 0.01902982 -0.02690001
v 0.03209996 0.01902982 -0.02690001
v 0.03209996 0.02102982 -0.02690000
v 0.02472916 0.02102982 -0.02690000
v 0.02109995 0.01902982 -0.02690001
v 0.02109995 0.02102982 -0.02690000
v 0.01760676 0.01902982 -0.02690001
v 0.01760676 0.02102982 -0.02690000
v 0.01009996 0.02102982 -0.02690000
v 0.01009996 0.01902982 -0.02690001
v 0.02472916 -0.02097017 -0.02690001
v 0.03209995 -0.02097017 -0.02690001
v 0.03209995 -0.01897018 -0.02690001
v 0.02472916 -0.01897018 -0.02690001
v 0.02109995 -0.02097017 -0.02690001
v 0.02109995 -0.01897018 -0.02690001
v 0.01760675 -0.02097017 -0.02690001
v 0.01760675 -0.01897018 -0.02690001
v 0.01009995 -0.01897018 -0.02690001
v 0.01009995 -0.02097017 -0.02690001
v -0.00356734 0.02102982 -0.00380379
v -0.00356734 0.01902982 -0.00380380
v -0.00194525 0.01902982 -0.00488770
v -0.00194525 0.02102982 -0.00488770
v -0.00003174 0.01902982 -0.00526821
v -0.00003174 0.02102982 -0.00526820
v 0.00188166 0.01902982 -0.00488770
v 0.00188166 0.02102982 -0.00488770
v 0.00350376 0.01902982 -0.00380380
v 0.00350376 0.02102982 -0.00380379
v 0.00458766 0.01902982 -0.00218170
v 0.00458766 0.02102982 -0.00218169
v 0.00496816 0.01902982 -0.00026830
v 0.00496816 0.02102982 -0.00026829
v 0.00458766 0.01902982 0.00164520
v 0.00458766 0.02102982 0.00164520
v 0.00350376 0.01902982 0.00326730
v 0.00350376 0.02102982 0.00326730
v 0.00774636 0.02102982 0.00750990
v 0.00774636 0.01902982 0.00750990
v 0.01411036 0.01902982 0.00114589
v 0.01411036 0.02102982 0.00114590
v -0.00780995 0.01902982 -0.00804640
v -0.00780995 0.02102982 -0.00804639
v -0.00144594 0.02102982 -0.01441040
v -0.00144594 0.01902982 -0.01441040
v 0.00633216 0.02102982 -0.00663219
v 0.00376596 0.02102982 -0.00919849
v 0.00880226 0.02102982 -0.00416219
v 0.00880226 0.01902982 -0.00416220
v 0.00633216 0.01902982 -0.00663220
v 0.00376596 0.01902982 -0.00919850
v 0.00208956 0.02102982 0.00468151
v 0.00208956 0.01902982 0.00468151
v 0.00633216 0.01902982 0.00892411
v 0.00633216 0.02102982 0.00892411
v -0.00922415 0.02102982 -0.00663219
v -0.00922415 0.01902982 -0.00663220
v -0.00498154 0.01902982 -0.00238960
v -0.00498154 0.02102982 -0.00238959
v -0.00194525 -0.01897018 -0.00488770
v -0.00356734 -0.01897018 -0.00380380
v -0.00356734 -0.02097017 -0.00380380
v -0.00194525 -0.02097017 -0.00488770
v -0.00003175 -0.01897018 -0.00526821
v -0.00003175 -0.02097017 -0.00526821
v 0.00188165 -0.01897018 -0.00488770
v 0.00188165 -0.02097017 -0.00488770
v 0.00350375 -0.01897018 -0.00380380
v 0.00350375 -0.02097017 -0.00380380
v 0.00458765 -0.01897018 -0.00218170
v 0.00458765 -0.02097017 -0.00218170
v 0.00496815 -0.01897018 -0.00026830
v 0.00496815 -0.02097017 -0.00026830
v 0.00458765 -0.01897018 0.00164520
v 0.00458765 -0.02097017 0.00164520
v 0.00350375 -0.01897018 0.00326730
v 0.00350375 -0.02097017 0.00326730
v 0.01411035 -0.01897018 0.00114589
v 0.00774635 -0.01897018 0.00750990
v 0.00774635 -0.02097017 0.00750990
v 0.01411035 -0.02097017 0.00114589
v -0.00144595 -0.02097017 -0.01441040
v -0.00780995 -0.02097017 -0.00804640
v -0.00780995 -0.01897018 -0.00804640
v -0.00144595 -0.01897018 -0.01441040
v 0.00633215 -0.02097017 -0.00663220
v 0.00376595 -0.02097017 -0.00919850
v 0.00880225 -0.02097017 -0.00416220
v 0.00880225 -0.01897018 -0.00416220
v 0.00633215 -0.01897018 -0.00663220
v 0.00376595 -0.01897018 -0.00919850
v 0.00208955 -0.02097017 0.00468151
v 0.00208955 -0.01897018 0.00468151
v 0.00633215 -0.01897018 0.00892411
v 0.00633215 -0.02097017 0.00892411
v -0.00922415 -0.02097017 -0.00663220
v -0.00922415 -0.01897018 -0.00663220
v -0.00498155 -0.01897018 -0.00238960
v -0.00498155 -0.02097017 -0.00238960
v 0.01707966 0.01902982 -0.02251220
v 0.00986776 0.01902982 -0.02572410
v 0.00986776 0.02102982 -0.02572409
v 0.01707966 0.02102982 -0.02251220
v 0.01964586 0.01902982 -0.01994590
v 0.01964586 0.02102982 -0.01994590
v 0.02211596 0.01902982 -0.01747590
v 0.02211596 0.02102982 -0.01747589
v 0.03142406 0.02102982 -0.01616780
v 0.03142406 0.01902982 -0.01616780
v 0.01707966 -0.02097017 -0.02251220
v 0.00986775 -0.02097017 -0.02572410
v 0.00986775 -0.01897018 -0.02572410
v 0.01707966 -0.01897018 -0.02251220
v 0.01964585 -0.02097017 -0.01994590
v 0.01964585 -0.01897018 -0.01994590
v 0.02211595 -0.02097017 -0.01747590
v 0.02211595 -0.01897018 -0.01747590
v 0.03142406 -0.01897018 -0.01616780
v 0.03142406 -0.02097017 -0.01616780
v 0.02592836 0.01852982 -0.01007160
v 0.02486776 0.01852982 -0.01113220
v 0.01921086 0.01852982 -0.00547540
v 0.02027156 0.01852982 -0.00441470
v 0.03158526 0.01852982 -0.01572840
v 0.03052456 0.01852982 -0.01678910
v 0.03158526 0.01702982 -0.01572840
v 0.03052456 0.01702982 -0.01678910
v 0.03158526 0.00002982 -0.01572840
v 0.03052456 0.00002982 -0.01678910
v 0.03158526 -0.01697018 -0.01572840
v 0.03052456 -0.01697018 -0.01678910
v 0.03158526 -0.01847018 -0.01572840
v 0.03052456 -0.01847018 -0.01678910
v 0.02592835 -0.01847018 -0.01007160
v 0.02486775 -0.01847018 -0.01113220
v 0.02027155 -0.01847018 -0.00441470
v 0.01921085 -0.01847018 -0.00547540
v 0.02592835 -0.01697018 -0.01007160
v 0.02592836 0.00002982 -0.01007160
v 0.02592836 0.01702982 -0.01007160
v 0.02027155 -0.01697018 -0.00441470
v 0.02027155 0.00002982 -0.00441470
v 0.02027156 0.01702982 -0.00441470
v 0.02486775 0.00002982 -0.01113220
v 0.02486775 -0.01697018 -0.01113220
v 0.02486776 0.01702982 -0.01113220
v 0.01921085 0.00002982 -0.00547540
v 0.01921085 -0.01697018 -0.00547540
v 0.01921086 0.01702982 -0.00547540
v 0.02027156 0.01852982 -0.01572840
v 0.02592836 0.01852982 -0.02138530
v 0.02592836 0.01702982 -0.02138530
v 0.02027156 0.01702982 -0.01572840
v 0.01461466 0.01852982 -0.01007160
v 0.01461466 0.01702982 -0.01007160
v 0.02027155 -0.01697018 -0.01572840
v 0.02592835 -0.01697018 -0.02138530
v 0.02592835 -0.01847018 -0.02138530
v 0.02027155 -0.01847018 -0.01572840
v 0.01461465 -0.01697018 -0.01007160
v 0.01461465 -0.01847018 -0.01007160
f 1 2 3
f 4 1 3
f 5 6 2
f 1 5 2
f 7 8 6
f 5 7 6
f 9 10 8
f 7 9 8
f 11 12 10
f 9 11 10
f 13 14 12
f 11 13 12
f 15 16 14
f 13 15 14
f 17 18 16
f 15 17 16
f 19 20 18
f 17 19 18
f 21 22 20
f 19 21 20
f 23 24 22
f 21 23 22
f 25 26 24
f 23 25 24
f 27 28 26
f 25 27 26
f 29 30 28
f 27 29 28
f 31 32 30
f 29 31 30
f 4 3 32
f 31 4 32
f 33 1 4
f 33 5 1
f 33 7 5
f 33 9 7
f 33 11 9
f 33 13 11
f 33 15 13
f 33 17 15
f 33 19 17
f 33 21 19
f 33 23 21
f 33 25 23
f 33 27 25
f 33 29 27
f 33 31 29
f 33 4 31
f 34 3 2
f 34 2 6
f 34 6 8
f 34 8 10
f 34 10 12
f 34 12 14
f 34 14 16
f 34 16 18
f 34 18 20
f 34 20 22
f 34 22 24
f 34 24 26
f 34 26 28
f 34 28 30
f 34 30 32
f 34 32 3
f 35 36 37
f 38 35 37
f 39 40 36
f 35 39 36
f 41 42 40
f 39 41 40
f 43 44 42
f 41 43 42
f 45 46 44
f 43 45 44
f 47 48 46
f 45 47 46
f 49 50 48
f 47 49 48
f 51 52 50
f 49 51 50
f 53 54 52
f 51 53 52
f 55 56 54
f 53 55 54
f 57 58 56
f 55 57 56
f 59 60 58
f 57 59 58
f 61 62 60
f 59 61 60
f 63 64 62
f 61 63 62
f 65 66 64
f 63 65 64
f 38 37 66
f 65 38 66
f 67 35 38
f 67 39 35
f 67 41 39
f 67 43 41
f 67 45 43
f 67 47 45
f 67 49 47
f 67 51 49
f 67 53 51
f 67 55 53
f 67 57 55
f 67 59 57
f 67 61 59
f 67 63 61
f 67 65 63
f 67 38 65
f 68 37 36
f 68 36 40
f 68 40 42
f 68 42 44
f 68 44 46
f 68 46 48
f 68 48 50
f 68 50 52
f 68 52 54
f 68 54 56
f 68 56 58
f 68 58 60
f 68 60 62
f 68 62 64
f 68 64 66
f 68 66 37
f 69 70 71
f 72 69 71
f 73 74 70
f 69 73 70
f 75 76 74
f 73 75 74
f 77 78 76
f 75 77 76
f 79 80 78
f 77 79 78
f 81 82 80
f 79 81 80
f 83 84 82
f 81 83 82
f 85 86 84
f 83 85 84
f 87 88 86
f 85 87 86
f 89 90 88
f 87 89 88
f 91 92 90
f 89 91 90
f 93 94 92
f 91 93 92
f 95 96 94
f 93 95 94
f 97 98 96
f 95 97 96
f 99 100 98
f 97 99 98
f 72 71 100
f 99 72 100
f 101 69 72
f 101 73 69
f 101 75 73
f 101 77 75
f 101 79 77
f 101 81 79
f 101 83 81
f 101 85 83
f 101 87 85
f 101 89 87
f 101 91 89
f 101 93 91
f 101 95 93
f 101 97 95
f 101 99 97
f 101 72 99
f 102 71 70
f 102 70 74
f 102 74 76
f 102 76 78
f 102 78 80
f 102 80 82
f 102 82 84
f 102 84 86
f 102 86 88
f 102 88 90
f 102 90 92
f 102 92 94
f 102 94 96
f 102 96 98
f 102 98 100
f 102 100 71
f 103 104 105
f 106 103 105
f 107 108 104
f 103 107 104
f 109 110 108
f 107 109 108
f 111 112 110
f 109 111 110
f 113 114 112
f 111 113 112
f 115 116 114
f 113 115 114
f 117 118 116
f 115 117 116
f 119 120 118
f 117 119 118
f 121 122 120
f 119 121 120
f 123 124 122
f 121 123 122
f 125 126 124
f 123 125 124
f 127 128 126
f 125 127 126
f 129 130 128
f 127 129 128
f 131 132 130
f 129 131 130
f 133 134 132
f 131 133 132
f 106 105 134
f 133 106 134
f 135 103 106
f 135 107 103
f 135 109 107
f 135 111 109
f 135 113 111
f 135 115 113
f 135 117 115
f 135 119 117
f 135 121 119
f 135 123 121
f 135 125 123
f 135 127 125
f 135 129 127
f 135 131 129
f 135 133 131
f 135 106 133
f 136 105 104
f 136 104 108
f 136 108 110
f 136 110 112
f 136 112 114
f 136 114 116
f 136 116 118
f 136 118 120
f 136 120 122
f 136 122 124
f 136 124 126
f 136 126 128
f 136 128 130
f 136 130 132
f 136 132 134
f 136 134 105
f 137 138 139
f 140 137 139
f 140 139 141
f 142 140 141
f 142 141 143
f 144 142 143
f 144 143 145
f 146 144 145
f 146 145 147
f 148 146 147
f 148 147 149
f 150 148 149
f 150 149 151
f 152 150 151
f 152 151 153
f 154 152 153
f 155 156 157
f 158 155 157
f 159 160 161
f 162 159 161
f 137 140 161
f 160 137 161
f 152 154 155
f 158 152 155
f 159 162 139
f 138 159 139
f 153 151 157
f 156 153 157
f 144 146 163
f 164 144 163
f 161 142 144
f 164 161 144
f 146 148 165
f 163 146 165
f 150 158 165
f 148 150 165
f 140 142 161
f 158 150 152
f 157 151 149
f 162 141 139
f 147 166 157
f 149 147 157
f 145 167 166
f 147 145 166
f 168 167 145
f 143 168 145
f 141 162 168
f 143 141 168
f 169 154 153
f 170 169 153
f 170 153 156
f 171 170 156
f 171 156 155
f 172 171 155
f 172 155 154
f 169 172 154
f 170 171 172
f 169 170 172
f 173 160 159
f 174 173 159
f 174 159 138
f 175 174 138
f 175 138 137
f 176 175 137
f 176 137 160
f 173 176 160
f 174 175 176
f 173 174 176
f 177 178 179
f 180 177 179
f 181 177 180
f 182 181 180
f 183 181 182
f 184 183 182
f 185 183 184
f 186 185 184
f 187 185 186
f 188 187 186
f 189 187 188
f 190 189 188
f 191 189 190
f 192 191 190
f 193 191 192
f 194 193 192
f 195 196 197
f 198 195 197
f 199 200 201
f 202 199 201
f 199 180 179
f 200 199 179
f 197 194 192
f 198 197 192
f 177 202 201
f 178 177 201
f 195 191 193
f 196 195 193
f 203 186 184
f 204 203 184
f 184 182 199
f 204 184 199
f 205 188 186
f 203 205 186
f 205 198 190
f 188 205 190
f 180 199 182
f 198 192 190
f 195 189 191
f 202 177 181
f 195 206 187
f 189 195 187
f 206 207 185
f 187 206 185
f 185 207 208
f 183 185 208
f 208 202 181
f 183 208 181
f 193 194 209
f 210 193 209
f 196 193 210
f 211 196 210
f 197 196 211
f 212 197 211
f 194 197 212
f 209 194 212
f 212 211 210
f 209 212 210
f 201 200 213
f 214 201 213
f 178 201 214
f 215 178 214
f 179 178 215
f 216 179 215
f 200 179 216
f 213 200 216
f 216 215 214
f 213 216 214
f 217 168 162
f 218 217 162
f 218 162 161
f 219 218 161
f 219 161 164
f 220 219 164
f 221 167 168
f 217 221 168
f 220 164 163
f 222 220 163
f 223 166 167
f 221 223 167
f 222 163 165
f 224 222 165
f 225 158 157
f 226 225 157
f 226 157 166
f 223 226 166
f 224 165 158
f 225 224 158
f 227 204 199
f 228 227 199
f 228 199 202
f 229 228 202
f 229 202 208
f 230 229 208
f 231 203 204
f 227 231 204
f 230 208 207
f 232 230 207
f 233 205 203
f 231 233 203
f 232 207 206
f 234 232 206
f 235 195 198
f 236 235 198
f 236 198 205
f 233 236 205
f 234 206 195
f 235 234 195
f 237 238 239
f 240 237 239
f 240 239 241
f 242 240 241
f 242 241 243
f 244 242 243
f 244 243 245
f 246 244 245
f 246 245 247
f 248 246 247
f 248 247 249
f 250 248 249
f 250 249 251
f 252 250 251
f 252 251 253
f 254 252 253
f 255 256 257
f 258 255 257
f 259 260 261
f 262 259 261
f 237 240 261
f 260 237 261
f 252 254 255
f 258 252 255
f 259 262 239
f 238 259 239
f 253 251 257
f 256 253 257
f 244 246 263
f 264 244 263
f 261 242 244
f 264 261 244
f 246 248 265
f 263 246 265
f 250 258 265
f 248 250 265
f 240 242 261
f 258 250 252
f 257 251 249
f 262 241 239
f 247 266 257
f 249 247 257
f 245 267 266
f 247 245 266
f 268 267 245
f 243 268 245
f 241 262 268
f 243 241 268
f 269 254 253
f 270 269 253
f 270 253 256
f 271 270 256
f 271 256 255
f 272 271 255
f 272 255 254
f 269 272 254
f 270 271 272
f 269 270 272
f 273 260 259
f 274 273 259
f 274 259 238
f 275 274 238
f 275 238 237
f 276 275 237
f 276 237 260
f 273 276 260
f 274 275 276
f 273 274 276
f 277 278 279
f 280 277 279
f 281 277 280
f 282 281 280
f 283 281 282
f 284 283 282
f 285 283 284
f 286 285 284
f 287 285 286
f 288 287 286
f 289 287 288
f 290 289 288
f 291 289 290
f 292 291 290
f 293 291 292
f 294 293 292
f 295 296 297
f 298 295 297
f 299 300 301
f 302 299 301
f 299 280 279
f 300 299 279
f 297 294 292
f 298 297 292
f 277 302 301
f 278 277 301
f 295 291 293
f 296 295 293
f 303 286 284
f 304 303 284
f 284 282 299
f 304 284 299
f 305 288 286
f 303 305 286
f 305 298 290
f 288 305 290
f 280 299 282
f 298 292 290
f 295 289 291
f 302 277 281
f 295 306 287
f 289 295 287
f 306 307 285
f 287 306 285
f 285 307 308
f 283 285 308
f 308 302 281
f 283 308 281
f 293 294 309
f 310 293 309
f 296 293 310
f 311 296 310
f 297 296 311
f 312 297 311
f 294 297 312
f 309 294 312
f 312 311 310
f 309 312 310
f 301 300 313
f 314 301 313
f 278 301 314
f 315 278 314
f 279 278 315
f 316 279 315
f 300 279 316
f 313 300 316
f 316 315 314
f 313 316 314
f 317 268 262
f 318 317 262
f 318 262 261
f 319 318 261
f 319 261 264
f 320 319 264
f 321 267 268
f 317 321 268
f 320 264 263
f 322 320 263
f 323 266 267
f 321 323 267
f 322 263 265
f 324 322 265
f 325 258 257
f 326 325 257
f 326 257 266
f 323 326 266
f 324 265 258
f 325 324 258
f 327 304 299
f 328 327 299
f 328 299 302
f 329 328 302
f 329 302 308
f 330 329 308
f 331 303 304
f 327 331 304
f 330 308 307
f 332 330 307
f 333 305 303
f 331 333 303
f 332 307 306
f 334 332 306
f 335 295 298
f 336 335 298
f 336 298 305
f 333 336 305
f 334 306 295
f 335 334 295
f 236 233 327
f 328 236 327
f 233 231 331
f 327 233 331
f 231 227 333
f 331 231 333
f 227 228 336
f 333 227 336
f 226 223 317
f 318 226 317
f 223 221 321
f 317 223 321
f 221 217 323
f 321 221 323
f 217 218 326
f 323 217 326
f 219 325 326
f 218 219 326
f 228 229 335
f 336 228 335
f 224 225 319
f 320 224 319
f 222 224 320
f 322 222 320
f 220 222 322
f 324 220 322
f 219 220 324
f 325 219 324
f 234 235 329
f 330 234 329
f 232 234 330
f 332 232 330
f 230 232 332
f 334 230 332
f 229 230 334
f 335 229 334
f 235 236 328
f 329 235 328
f 225 226 318
f 319 225 318
f 337 338 339
f 340 337 339
f 341 342 338
f 337 341 338
f 343 344 342
f 341 343 342
f 345 346 344
f 343 345 344
f 347 348 346
f 345 347 346
f 349 350 348
f 347 349 348
f 351 352 350
f 349 351 350
f 353 354 352
f 351 353 352
f 347 355 351
f 349 347 351
f 345 356 355
f 347 345 355
f 343 357 356
f 345 343 356
f 341 337 357
f 343 341 357
f 355 358 353
f 351 355 353
f 356 359 358
f 355 356 358
f 357 360 359
f 356 357 359
f 337 340 360
f 357 337 360
f 361 346 348
f 362 361 348
f 363 344 346
f 361 363 346
f 364 361 362
f 365 364 362
f 366 363 361
f 364 366 361
f 367 338 342
f 368 367 342
f 368 342 344
f 369 368 344
f 369 344 363
f 370 369 363
f 367 368 369
f 370 367 369
f 371 339 338
f 367 371 338
f 370 363 366
f 372 370 366
f 371 367 370
f 372 371 370
f 373 362 348
f 374 373 348
f 374 348 350
f 375 374 350
f 375 350 352
f 376 375 352
f 373 374 375
f 376 373 375
f 377 365 362
f 373 377 362
f 376 352 354
f 378 376 354
f 377 373 376
f 378 377 376
f 359 360 366
f 364 359 366
f 366 360 340
f 339 366 340
f 372 366 339
f 371 372 339
f 378 354 365
f 377 378 365
f 354 353 358
f 365 354 358
f 358 359 364
f 365 358 364

