# https://github.com/mikedh/trimesh
v 0.01750006 0.01741460 -0.02659999
v 0.01750006 0.01591460 -0.02659999
v 0.01900006 0.01591460 -0.02659999
v 0.01900006 0.01741460 -0.02659999
v 0.01750006 -0.00008540 -0.02659999
v 0.01900006 -0.00008540 -0.02659999
v 0.01750006 -0.01608540 -0.02659999
v 0.01900006 -0.01608540 -0.02659999
v 0.01750006 -0.01758540 -0.02659999
v 0.01900006 -0.01758540 -0.02659999
v 0.01750006 -0.01758540 -0.03560000
v 0.01900006 -0.01758540 -0.03560000
v 0.01750006 -0.01758540 -0.04460000
v 0.01900006 -0.01758540 -0.04460000
v 0.01750006 -0.01758540 -0.05359999
v 0.01900006 -0.01758540 -0.05359999
v 0.01750006 -0.01758540 -0.06259999
v 0.01900006 -0.01758540 -0.06259999
v 0.01750006 -0.01608540 -0.06259999
v 0.01900006 -0.01608540 -0.06259999
v 0.01750006 -0.00008540 -0.06259999
v 0.01900006 -0.00008540 -0.06259999
v 0.01750006 0.01591460 -0.06259999
v 0.01900006 0.01591460 -0.06259999
v 0.01750006 0.01741460 -0.06259999
v 0.01900006 0.01741460 -0.06259999
v 0.01750006 0.01741460 -0.05359999
v 0.01900006 0.01741460 -0.05359999
v 0.01750006 0.01741460 -0.04460000
v 0.01900006 0.01741460 -0.04460000
v 0.01750006 0.01741460 -0.03560000
v 0.01900006 0.01741460 -0.03560000
v 0.01900006 0.01591460 -0.05359999
v 0.01900006 0.00000000 -0.06000000
v 0.01900006 -0.00008540 -0.05999159
v 0.01900006 0.01225339 -0.05359999
v 0.01900006 0.01060660 -0.05560660
v 0.01900006 0.00833355 -0.05747205
v 0.01900006 0.00292635 -0.05971178
v 0.01900006 0.00574025 -0.05885819
v 0.01900006 -0.01060660 -0.05560660
v 0.01900006 -0.01225339 -0.05359999
v 0.01900006 -0.01608540 -0.05359999
v 0.01900006 -0.00763390 -0.05784602
v 0.01900006 -0.00833355 -0.05747205
v 0.01900006 -0.00574025 -0.05885819
v 0.01900006 -0.00292635 -0.05971178
v 0.01900006 0.01591460 -0.04460000
v 0.01900006 0.01500000 -0.04500000
v 0.01900006 0.01498807 -0.04512117
v 0.01900006 0.01496060 -0.04460000
v 0.01900006 0.01247204 -0.05333355
v 0.01900006 0.01471178 -0.04792636
v 0.01900006 0.01385819 -0.05074025
v 0.01900006 -0.01500000 -0.04500000
v 0.01900006 -0.01496060 -0.04460000
v 0.01900006 -0.01608540 -0.04460000
v 0.01900006 -0.01319782 -0.05197573
v 0.01900006 -0.01385819 -0.05074025
v 0.01900006 -0.01471178 -0.04792636
v 0.01900006 -0.01247204 -0.05333355
v 0.01900006 0.01591460 -0.03560000
v 0.01900006 0.01282957 -0.03733533
v 0.01900006 0.01247204 -0.03666645
v 0.01900006 0.01159683 -0.03560000
v 0.01900006 0.01471178 -0.04207365
v 0.01900006 0.01385819 -0.03925975
v 0.01900006 -0.01247204 -0.03666645
v 0.01900006 -0.01159683 -0.03560000
v 0.01900006 -0.01608540 -0.03560000
v 0.01900006 -0.01489463 -0.04393019
v 0.01900006 -0.01471178 -0.04207365
v 0.01900006 -0.01385819 -0.03925975
v 0.01900006 0.00574025 -0.03114181
v 0.01900006 0.00681705 -0.03171737
v 0.01900006 -0.00008540 -0.03000841
v 0.01900006 0.00000000 -0.03000000
v 0.01900006 0.00292635 -0.03028822
v 0.01900006 0.01060660 -0.03439340
v 0.01900006 0.00833355 -0.03252796
v 0.01900006 -0.00292635 -0.03028822
v 0.01900006 -0.01060660 -0.03439340
v 0.01900006 -0.00833355 -0.03252796
v 0.01900006 -0.00574025 -0.03114181
v 0.01750006 0.00574025 -0.05885819
v 0.01750006 0.00754632 -0.05789283
v 0.01750006 -0.00008540 -0.05999159
v 0.01750006 0.00000000 -0.06000000
v 0.01750006 0.00292635 -0.05971178
v 0.01750006 0.01225339 -0.05359999
v 0.01750006 0.01591460 -0.05359999
v 0.01750006 0.00833355 -0.05747205
v 0.01750006 0.01060660 -0.05560660
v 0.01750006 -0.01608540 -0.05359999
v 0.01750006 -0.00292635 -0.05971178
v 0.01750006 -0.01225339 -0.05359999
v 0.01750006 -0.01060660 -0.05560660
v 0.01750006 -0.00833355 -0.05747205
v 0.01750006 -0.00574025 -0.05885819
v 0.01750006 0.01247204 -0.05333355
v 0.01750006 0.01315834 -0.05204959
v 0.01750006 0.01500000 -0.04500000
v 0.01750006 0.01496060 -0.04460000
v 0.01750006 0.01591460 -0.04460000
v 0.01750006 0.01385819 -0.05074025
v 0.01750006 0.01471178 -0.04792636
v 0.01750006 -0.01247204 -0.05333355
v 0.01750006 -0.01608540 -0.04460000
v 0.01750006 -0.01497805 -0.04522288
v 0.01750006 -0.01471178 -0.04792636
v 0.01750006 -0.01385819 -0.05074025
v 0.01750006 -0.01500000 -0.04500000
v 0.01750006 -0.01496060 -0.04460000
v 0.01750006 0.01490465 -0.04403190
v 0.01750006 0.01247204 -0.03666645
v 0.01750006 0.01159683 -0.03560000
v 0.01750006 0.01591460 -0.03560000
v 0.01750006 0.01471178 -0.04207365
v 0.01750006 0.01385819 -0.03925975
v 0.01750006 -0.01471178 -0.04207365
v 0.01750006 -0.01608540 -0.03560000
v 0.01750006 -0.01286905 -0.03740919
v 0.01750006 -0.01385819 -0.03925975
v 0.01750006 -0.01159683 -0.03560000
v 0.01750006 -0.01247204 -0.03666645
v 0.01750006 0.01060660 -0.03439340
v 0.01750006 0.00833355 -0.03252796
v 0.01750006 0.00000000 -0.03000000
v 0.01750006 -0.00008540 -0.03000841
v 0.01750006 0.00292635 -0.03028822
v 0.01750006 0.00574025 -0.03114181
v 0.01750006 -0.01060660 -0.03439340
v 0.01750006 -0.00690462 -0.03176418
v 0.01750006 -0.00833355 -0.03252796
v 0.01750006 -0.00292635 -0.03028822
v 0.01750006 -0.00574025 -0.03114181
v 0.01100006 -0.01758540 -0.05359999
v 0.01100006 -0.01758540 -0.06259999
v 0.01100006 -0.01608540 -0.06259999
v 0.01100006 -0.01608540 -0.05359999
v 0.01100006 -0.01758540 -0.04460000
v 0.01100006 -0.01608540 -0.04460000
v 0.01100006 -0.01758540 -0.03560000
v 0.01100006 -0.01608540 -0.03560000
v 0.01100006 -0.01608540 -0.02659999
v 0.01100006 -0.01758540 -0.02659999
v 0.01100006 0.01591460 -0.05359999
v 0.01100006 0.01591460 -0.06259999
v 0.01100006 0.01741460 -0.06259999
v 0.01100006 0.01741460 -0.05359999
v 0.01100006 0.01591460 -0.04460000
v 0.01100006 0.01741460 -0.04460000
v 0.01100006 0.01591460 -0.03560000
v 0.01100006 0.01741460 -0.03560000
v 0.01100006 0.01741460 -0.02659999
v 0.01100006 0.01591460 -0.02659999
v -0.01599994 -0.01758540 -0.03560000
v -0.01599994 -0.01758540 -0.04460000
v -0.01599994 -0.01608540 -0.04460000
v -0.01599994 -0.01608540 -0.03560000
v -0.01599994 -0.01608540 -0.02659999
v -0.01599994 -0.01758540 -0.02659999
v -0.01599994 0.01591460 -0.03560000
v -0.01599994 0.01591460 -0.04460000
v -0.01599994 0.01741460 -0.04460000
v -0.01599994 0.01741460 -0.03560000
v -0.01599994 0.01741460 -0.02659999
v -0.01599994 0.01591460 -0.02659999
f 1 2 3
f 1 3 4
f 2 5 6
f 2 6 3
f 5 7 8
f 5 8 6
f 7 9 10
f 7 10 8
f 9 11 12
f 9 12 10
f 11 13 14
f 11 14 12
f 13 15 16
f 13 16 14
f 15 17 18
f 15 18 16
f 17 19 20
f 17 20 18
f 19 21 22
f 19 22 20
f 21 23 24
f 21 24 22
f 23 25 26
f 23 26 24
f 25 27 28
f 25 28 26
f 27 29 30
f 27 30 28
f 29 31 32
f 29 32 30
f 31 1 4
f 31 4 32
f 28 33 24
f 28 24 26
f 34 35 22
f 33 36 37
f 33 37 38
f 39 34 22
f 33 38 40
f 40 39 22
f 22 33 40
f 22 24 33
f 41 42 43
f 43 20 44
f 45 41 43
f 43 44 45
f 46 44 20
f 20 22 35
f 47 46 20
f 20 35 47
f 43 16 18
f 43 18 20
f 30 48 33
f 30 33 28
f 49 50 48
f 49 48 51
f 52 36 33
f 33 48 50
f 33 50 53
f 54 52 33
f 33 53 54
f 55 56 57
f 43 58 59
f 60 55 57
f 43 59 60
f 57 43 60
f 58 43 61
f 43 42 61
f 57 14 16
f 57 16 43
f 32 62 48
f 32 48 30
f 63 62 64
f 62 65 64
f 66 51 48
f 62 63 67
f 67 66 48
f 48 62 67
f 68 69 70
f 70 57 71
f 70 71 72
f 73 68 70
f 70 72 73
f 57 56 71
f 70 12 14
f 70 14 57
f 4 3 62
f 4 62 32
f 74 75 3
f 3 6 76
f 3 76 77
f 78 74 3
f 3 77 78
f 79 65 62
f 62 3 75
f 80 79 62
f 62 75 80
f 8 70 6
f 81 76 6
f 70 69 82
f 70 82 83
f 84 81 6
f 70 83 84
f 6 70 84
f 8 10 12
f 8 12 70
f 85 86 23
f 23 21 87
f 23 87 88
f 89 85 23
f 23 88 89
f 90 91 23
f 23 86 92
f 93 90 23
f 23 92 93
f 94 21 19
f 95 87 21
f 94 96 97
f 94 97 98
f 99 95 21
f 94 98 99
f 21 94 99
f 91 90 100
f 91 100 101
f 102 103 104
f 91 101 105
f 106 102 104
f 91 105 106
f 104 91 106
f 107 96 94
f 94 108 109
f 94 109 110
f 111 107 94
f 94 110 111
f 112 109 108
f 112 108 113
f 114 104 103
f 115 116 117
f 117 104 114
f 117 114 118
f 119 115 117
f 117 118 119
f 120 113 108
f 121 122 123
f 123 120 108
f 108 121 123
f 121 124 125
f 121 125 122
f 117 116 126
f 117 126 127
f 128 129 5
f 130 128 5
f 5 117 127
f 131 130 5
f 5 127 131
f 5 2 117
f 132 124 121
f 121 7 133
f 134 132 121
f 121 133 134
f 133 7 5
f 5 129 135
f 136 133 5
f 5 135 136
f 17 15 137
f 17 137 138
f 19 17 138
f 19 138 139
f 94 19 139
f 94 139 140
f 139 138 137
f 139 137 140
f 15 13 141
f 15 141 137
f 108 94 140
f 108 140 142
f 13 11 143
f 13 143 141
f 121 108 142
f 121 142 144
f 9 7 145
f 9 145 146
f 11 9 146
f 11 146 143
f 7 121 144
f 7 144 145
f 23 91 147
f 23 147 148
f 25 23 148
f 25 148 149
f 27 25 149
f 27 149 150
f 91 104 151
f 91 151 147
f 29 27 150
f 29 150 152
f 104 117 153
f 104 153 151
f 31 29 152
f 31 152 154
f 2 1 155
f 2 155 156
f 117 2 156
f 117 156 153
f 1 31 154
f 1 154 155
f 141 143 157
f 141 157 158
f 144 142 159
f 144 159 160
f 159 158 157
f 159 157 160
f 146 145 161
f 146 161 162
f 143 146 162
f 143 162 157
f 145 144 160
f 145 160 161
f 160 157 162
f 160 162 161
f 151 153 163
f 151 163 164
f 154 152 165
f 154 165 166
f 165 164 163
f 165 163 166
f 156 155 167
f 156 167 168
f 153 156 168
f 153 168 163
f 155 154 166
f 155 166 167
f 166 163 168
f 166 168 167
f 150 165 152
f 149 165 150
f 140 159 142
f 139 159 140
f 164 147 151
f 148 147 164
f 158 137 141
f 158 138 137
f 149 148 164
f 149 164 165
f 139 138 158
f 139 158 159
f 50 49 102
f 102 106 53
f 50 102 53
f 53 106 105
f 53 105 54
f 52 54 105
f 101 100 52
f 105 101 52
f 36 52 100
f 90 93 37
f 36 100 90
f 36 90 37
f 37 93 92
f 37 92 38
f 40 38 92
f 86 85 40
f 92 86 40
f 40 85 89
f 40 89 39
f 39 89 88
f 39 88 34
f 95 47 35
f 35 34 88
f 87 95 35
f 35 88 87
f 46 47 95
f 46 95 99
f 98 45 44
f 44 46 99
f 44 99 98
f 41 45 98
f 41 98 97
f 42 41 97
f 96 107 61
f 42 97 96
f 42 96 61
f 107 111 59
f 58 61 107
f 59 58 107
f 110 60 59
f 110 59 111
f 112 55 60
f 60 110 109
f 60 109 112
f 113 120 72
f 113 72 71
f 55 112 113
f 113 71 56
f 56 55 113
f 123 73 72
f 123 72 120
f 125 68 73
f 73 123 122
f 73 122 125
f 124 132 82
f 69 68 125
f 124 82 69
f 69 125 124
f 134 83 82
f 134 82 132
f 133 136 84
f 84 83 134
f 84 134 133
f 135 81 84
f 135 84 136
f 129 128 77
f 76 81 135
f 129 77 76
f 129 76 135
f 77 128 130
f 77 130 78
f 78 130 131
f 78 131 74
f 80 75 74
f 74 131 127
f 74 127 80
f 80 127 126
f 80 126 79
f 115 64 65
f 65 79 126
f 116 115 65
f 65 126 116
f 119 67 63
f 63 64 115
f 63 115 119
f 66 67 119
f 66 119 118
f 103 102 49
f 51 66 118
f 103 49 51
f 51 118 114
f 103 51 114

