# https://github.com/mikedh/trimesh
v 0.02170242 0.00048902 0.01109600
v 0.01970242 0.00048902 0.01109600
v 0.02170242 -0.00151098 0.01109600
v 0.01970242 0.00048902 0.00509599
v 0.02170242 0.00048902 0.00509599
v 0.01970242 -0.00151098 0.00509599
v 0.01970242 0.00240301 0.00471601
v 0.02170242 0.00948902 0.01109600
v 0.02170242 -0.00151098 0.00509599
v 0.02170242 0.00048902 -0.00490400
v 0.01970242 0.00048902 -0.00490400
v 0.02170242 -0.00151098 -0.00490400
v 0.01970242 0.00948902 -0.01090402
v 0.02170242 0.00048902 -0.01090402
v 0.01970242 0.00048902 -0.01090402
v 0.01970242 -0.00151098 -0.00490400
v 0.01970242 -0.00151098 -0.01090402
v 0.02170242 0.00240301 -0.00452301
v 0.02170242 -0.00151098 -0.01090402
v 0.01970242 0.00240301 -0.00452301
v 0.01970242 -0.00151098 0.01109600
v 0.02170242 0.00948902 -0.01090402
v 0.02170242 0.00240301 0.00471601
v 0.01970242 0.00948902 0.01109600
v 0.01970242 0.00402501 -0.00343901
v 0.02170242 0.00402501 -0.00343901
v 0.01970242 0.00510901 -0.00181702
v 0.02170242 0.00510901 -0.00181702
v 0.01970242 0.00548902 0.00009599
v 0.02170242 0.00548902 0.00009599
v 0.01970242 0.00510901 0.00200999
v 0.02170242 0.00510901 0.00200999
v 0.01970242 0.00402501 0.00363201
v 0.02170242 0.00402501 0.00363201
v 0.01970242 0.01948901 -0.01090402
v 0.01970242 0.02148902 -0.01090402
v 0.02170242 0.02148902 -0.01090402
v 0.02170242 0.01948901 -0.01090300
v -0.02179758 0.01948901 -0.01090402
v -0.02179758 0.02148902 -0.01090300
v -0.01979758 0.02148902 -0.01090300
v -0.01979758 0.01948901 -0.01090402
v 0.01970242 0.02148902 0.01109600
v 0.01970242 0.01948901 0.01109600
v 0.02170242 0.01948901 0.01109600
v 0.02170242 0.02148902 0.01109600
v -0.02179758 0.02148902 0.01109600
v -0.02179758 0.01948901 0.01109600
v -0.01979758 0.01948901 0.01109600
v -0.01979758 0.02148902 0.01109600
v -0.02179758 0.00948902 0.01109600
v -0.01979758 0.00948902 0.01109600
v -0.01979758 0.00948902 -0.01090402
v -0.02179758 0.00948902 -0.01090402
v -0.02179758 0.00048902 -0.00490400
v -0.01979758 0.00048902 -0.00490400
v -0.01979758 0.00240301 -0.00452301
v -0.02179758 0.00240301 -0.00452301
v -0.01979758 0.00402501 -0.00343901
v -0.02179758 0.00402501 -0.00343901
v -0.01979758 0.00510901 -0.00181702
v -0.02179758 0.00510901 -0.00181702
v -0.01979758 0.00548902 0.00009599
v -0.02179758 0.00548902 0.00009599
v -0.01979758 0.00510901 0.00200999
v -0.02179758 0.00510901 0.00200999
v -0.01979758 0.00402501 0.00363201
v -0.02179758 0.00402501 0.00363201
v -0.01979758 0.00240301 0.00471601
v -0.02179758 0.00240301 0.00471601
v -0.01979758 0.00048902 0.00509599
v -0.02179758 0.00048902 0.00509599
v -0.01979758 0.00048902 -0.01090402
v -0.02179758 0.00048902 -0.01090402
v -0.02179758 0.00048902 0.01109600
v -0.01979758 0.00048902 0.01109600
v 0.01970242 0.02148902 -0.00353301
v 0.01970242 0.02148902 0.00009599
v 0.02170242 0.02148902 0.00009599
v 0.02170242 0.02148902 -0.00353301
v -0.02179758 0.02148902 -0.00353301
v -0.02179758 0.02148902 0.00009599
v -0.01979758 0.02148902 0.00009599
v -0.01979758 0.02148902 -0.00353301
v 0.02170242 0.01948901 -0.00353301
v 0.02170242 0.01948901 0.00009599
v -0.02179758 0.01948901 -0.00353301
v -0.02179758 0.01948901 0.00009599
v 0.02170242 0.00948902 0.00009599
v 0.02170242 0.00948902 -0.00353301
v 0.01970242 0.01948901 -0.00353301
v 0.01970242 0.00948902 -0.00353301
v 0.01970242 0.00948902 0.00009599
v 0.01970242 0.01948901 0.00009599
v -0.01979758 0.01948901 -0.00353301
v -0.01979758 0.01948901 0.00009599
v -0.01979758 0.00948902 0.00009599
v -0.01979758 0.00948902 -0.00353301
v -0.02179758 0.00948902 -0.00353301
v -0.02179758 0.00948902 0.00009599
v 0.01970242 0.02148902 0.00358999
v 0.02170242 0.02148902 0.00358999
v -0.02179758 0.02148902 0.00358999
v -0.01979758 0.02148902 0.00358999
v 0.02170242 0.01948901 0.00358999
v -0.02179758 0.01948901 0.00358999
v 0.02170242 0.00948902 0.00358999
v 0.01970242 0.01948901 0.00358999
v 0.01970242 0.00948902 0.00358999
v -0.01979758 0.01948901 0.00358999
v -0.01979758 0.00948902 0.00358999
v -0.02179758 0.00948902 0.00358999
v -0.02179758 -0.00151098 0.00509599
v -0.02179758 -0.00151098 0.01109600
v -0.01979758 -0.00151098 0.01109600
v -0.01979758 -0.00151098 0.00509599
v -0.02179758 -0.00151098 -0.01090402
v -0.02179758 -0.00151098 -0.00490400
v -0.01979758 -0.00151098 -0.00490400
v -0.01979758 -0.00151098 -0.01090402
v 0.00020242 0.02148902 0.01109600
v 0.00020242 0.01948901 0.01109600
v 0.00020242 0.02148902 0.00358999
v 0.00020242 0.01948901 0.00358999
v 0.00020242 0.02148902 0.00009599
v 0.00020242 0.01948901 0.00009599
v 0.00020242 0.02148902 -0.00353301
v 0.00020242 0.01948901 -0.00353301
v 0.00020242 0.02148902 -0.01090402
v 0.00020242 0.01948901 -0.01090402
f 1 2 3
f 4 5 6
f 7 5 4
f 8 2 1
f 9 1 3
f 8 1 5
f 10 11 12
f 13 14 15
f 16 15 17
f 15 14 17
f 14 18 10
f 12 19 10
f 15 11 13
f 13 11 20
f 19 14 10
f 17 14 19
f 12 11 16
f 5 1 9
f 3 2 21
f 7 4 2
f 21 2 4
f 6 5 9
f 16 11 15
f 20 11 18
f 18 11 10
f 21 4 6
f 18 14 22
f 8 5 23
f 7 2 24
f 24 2 8
f 23 5 7
f 22 14 13
f 25 20 18
f 26 25 18
f 27 25 26
f 28 27 26
f 29 27 28
f 30 29 28
f 31 29 30
f 32 31 30
f 33 31 32
f 34 33 32
f 7 33 34
f 23 7 34
f 35 36 37
f 38 35 37
f 39 40 41
f 42 39 41
f 43 44 45
f 46 43 45
f 47 48 49
f 50 47 49
f 45 44 24
f 8 45 24
f 35 38 22
f 13 35 22
f 49 48 51
f 52 49 51
f 39 42 53
f 54 39 53
f 55 56 57
f 58 55 57
f 58 57 59
f 60 58 59
f 60 59 61
f 62 60 61
f 62 61 63
f 64 62 63
f 64 63 65
f 66 64 65
f 66 65 67
f 68 66 67
f 68 67 69
f 70 68 69
f 70 69 71
f 72 70 71
f 53 73 74
f 54 53 74
f 51 75 76
f 52 51 76
f 69 52 76
f 71 69 76
f 73 53 57
f 56 73 57
f 75 51 70
f 72 75 70
f 77 78 79
f 80 77 79
f 37 36 77
f 80 37 77
f 81 82 83
f 84 81 83
f 41 40 81
f 84 41 81
f 85 38 37
f 80 85 37
f 79 86 85
f 80 79 85
f 81 40 39
f 87 81 39
f 88 82 81
f 87 88 81
f 85 86 89
f 90 85 89
f 22 38 85
f 90 22 85
f 91 35 13
f 92 91 13
f 93 94 91
f 92 93 91
f 95 96 97
f 98 95 97
f 53 42 95
f 98 53 95
f 87 39 54
f 99 87 54
f 100 88 87
f 99 100 87
f 101 43 46
f 102 101 46
f 79 78 101
f 102 79 101
f 103 47 50
f 104 103 50
f 83 82 103
f 104 83 103
f 105 86 79
f 102 105 79
f 46 45 105
f 102 46 105
f 103 82 88
f 106 103 88
f 48 47 103
f 106 48 103
f 105 45 8
f 107 105 8
f 89 86 105
f 107 89 105
f 108 94 93
f 109 108 93
f 24 44 108
f 109 24 108
f 110 49 52
f 111 110 52
f 97 96 110
f 111 97 110
f 106 88 100
f 112 106 100
f 51 48 106
f 112 51 106
f 89 30 28
f 90 89 28
f 28 26 22
f 90 28 22
f 107 32 30
f 89 107 30
f 107 8 34
f 32 107 34
f 22 26 18
f 23 34 8
f 33 7 24
f 20 25 13
f 24 109 31
f 33 24 31
f 109 93 29
f 31 109 29
f 29 93 92
f 27 29 92
f 92 13 25
f 27 92 25
f 111 65 63
f 97 111 63
f 111 52 67
f 65 111 67
f 63 61 98
f 97 63 98
f 61 59 53
f 98 61 53
f 52 69 67
f 53 59 57
f 60 54 58
f 55 58 54
f 74 55 54
f 60 62 99
f 54 60 99
f 64 100 99
f 62 64 99
f 51 112 66
f 68 51 66
f 64 66 112
f 100 64 112
f 51 68 70
f 75 72 113
f 114 75 113
f 76 75 114
f 115 76 114
f 71 76 115
f 116 71 115
f 72 71 116
f 113 72 116
f 116 115 114
f 113 116 114
f 55 74 117
f 118 55 117
f 56 55 118
f 119 56 118
f 73 56 119
f 120 73 119
f 74 73 120
f 117 74 120
f 120 119 118
f 117 120 118
f 3 21 6
f 9 3 6
f 12 16 17
f 19 12 17
f 44 43 121
f 122 44 121
f 49 122 121
f 50 49 121
f 104 50 121
f 123 104 121
f 101 123 121
f 43 101 121
f 108 44 122
f 124 108 122
f 110 124 122
f 49 110 122
f 83 104 123
f 125 83 123
f 78 125 123
f 101 78 123
f 94 108 124
f 126 94 124
f 96 126 124
f 110 96 124
f 84 83 125
f 127 84 125
f 77 127 125
f 78 77 125
f 91 94 126
f 128 91 126
f 95 128 126
f 96 95 126
f 41 84 127
f 129 41 127
f 36 129 127
f 77 36 127
f 35 91 128
f 130 35 128
f 42 130 128
f 95 42 128
f 42 41 129
f 130 42 129
f 35 130 129
f 36 35 129

