solid Visualization Toolkit generated SLA File
 facet normal -1 0 0
  outer loop
   vertex 0.042659103870391846 -0.0054656346328556538 0.018996765837073326
   vertex 0.042659103870391846 -0.0054574338719248772 0.018562955781817436
   vertex 0.042659103870391846 -0.0054992567747831345 0.018790105357766151
  endloop
 endfacet
 facet normal -1 0 0
  outer loop
   vertex 0.042659103870391846 -0.0054574338719248772 0.018562955781817436
   vertex 0.042659103870391846 -0.0054656346328556538 0.018996765837073326
   vertex 0.042659103870391846 -0.0053647677414119244 0.019144376739859581
  endloop
 endfacet
 facet normal -1 0 -0
  outer loop
   vertex 0.042659103870391846 -0.0054574338719248772 0.018562955781817436
   vertex 0.042659103870391846 -0.0053647677414119244 0.019144376739859581
   vertex 0.042659103870391846 -0.005331964697688818 0.018419446423649788
  endloop
 endfacet
 facet normal -1 0 0
  outer loop
   vertex 0.042659103870391846 -0.005331964697688818 0.018419446423649788
   vertex 0.042659103870391846 -0.0053647677414119244 0.019144376739859581
   vertex 0.042659103870391846 -0.0049744206480681896 0.019262466579675674
  endloop
 endfacet
 facet normal -1 0 0
  outer loop
   vertex 0.042659103870391846 -0.005331964697688818 0.018419446423649788
   vertex 0.042659103870391846 -0.0049744206480681896 0.019262466579675674
   vertex 0.042659103870391846 -0.0050638066604733467 0.018343176692724228
  endloop
 endfacet
 facet normal -1 0 -0
  outer loop
   vertex 0.042659103870391846 -0.0050638066604733467 0.018343176692724228
   vertex 0.042659103870391846 -0.0049744206480681896 0.019262466579675674
   vertex 0.042659103870391846 -0.0045939148403704166 0.018317755311727524
  endloop
 endfacet
 facet normal -1 0 0
  outer loop
   vertex 0.042659103870391846 -0.0045939148403704166 0.018317755311727524
   vertex 0.042659103870391846 -0.0049744206480681896 0.019262466579675674
   vertex 0.042659103870391846 -0.0036295277532190084 0.019262466579675674
  endloop
 endfacet
 facet normal -1 0 0
  outer loop
   vertex 0.042659103870391846 -0.0045939148403704166 0.018317755311727524
   vertex 0.042659103870391846 -0.0036295277532190084 0.019262466579675674
   vertex 0.042659103870391846 -0.0042462106794118881 0.018317755311727524
  endloop
 endfacet
 facet normal -1 0 0
  outer loop
   vertex 0.042659103870391846 -0.0042462106794118881 0.018317755311727524
   vertex 0.042659103870391846 -0.0036295277532190084 0.019262466579675674
   vertex 0.042659103870391846 -0.0042462106794118881 0.015805106610059738
  endloop
 endfacet
 facet normal -1 0 0
  outer loop
   vertex 0.042659103870391846 -0.0042462106794118881 0.015805106610059738
   vertex 0.042659103870391846 -0.0036295277532190084 0.019262466579675674
   vertex 0.042659103870391846 -0.004233089741319418 0.013686075806617737
  endloop
 endfacet
 facet normal -1 -0 0
  outer loop
   vertex 0.042659103870391846 -0.0054812147282063961 0.011710565537214279
   vertex 0.042659103870391846 -0.0032555817160755396 0.011599855497479439
   vertex 0.042659103870391846 -0.0058736116625368595 0.011598005890846252
  endloop
 endfacet
 facet normal -1 0 0
  outer loop
   vertex 0.042659103870391846 -0.0032555817160755396 0.011599855497479439
   vertex 0.042659103870391846 -0.0054812147282063961 0.011710565537214279
   vertex 0.042659103870391846 -0.0051290020346641541 0.011898146010935307
  endloop
 endfacet
 facet normal -1 0 0
  outer loop
   vertex 0.042659103870391846 -0.0032555817160755396 0.011599855497479439
   vertex 0.042659103870391846 -0.0051290020346641541 0.011898146010935307
   vertex 0.042659103870391846 -0.0048169698566198349 0.012160776183009148
  endloop
 endfacet
 facet normal -1 0 0
  outer loop
   vertex 0.042659103870391846 -0.0032555817160755396 0.011599855497479439
   vertex 0.042659103870391846 -0.0048169698566198349 0.012160776183009148
   vertex 0.042659103870391846 -0.0045615220442414284 0.012481216341257095
  endloop
 endfacet
 facet normal -1 0 0
  outer loop
   vertex 0.042659103870391846 -0.0032555817160755396 0.011599855497479439
   vertex 0.042659103870391846 -0.0045615220442414284 0.012481216341257095
   vertex 0.042659103870391846 -0.0043790587224066257 0.012842246331274509
  endloop
 endfacet
 facet normal -1 0 0
  outer loop
   vertex 0.042659103870391846 -0.0032555817160755396 0.011599855497479439
   vertex 0.042659103870391846 -0.0043790587224066257 0.012842246331274509
   vertex 0.042659103870391846 -0.0042695817537605762 0.01324386615306139
  endloop
 endfacet
 facet normal -1 0 0
  outer loop
   vertex 0.042659103870391846 -0.0032555817160755396 0.011599855497479439
   vertex 0.042659103870391846 -0.0042695817537605762 0.01324386615306139
   vertex 0.042659103870391846 -0.004233089741319418 0.013686075806617737
  endloop
 endfacet
 facet normal -1 0 0
  outer loop
   vertex 0.042659103870391846 -0.0032555817160755396 0.011599855497479439
   vertex 0.042659103870391846 -0.004233089741319418 0.013686075806617737
   vertex 0.042659103870391846 -0.0036295277532190084 0.019262466579675674
  endloop
 endfacet
 facet normal -1 0 0
  outer loop
   vertex 0.042659103870391846 -0.0032555817160755396 0.011599855497479439
   vertex 0.042659103870391846 -0.0036295277532190084 0.019262466579675674
   vertex 0.042659103870391846 -0.003344148863106966 0.019196856766939163
  endloop
 endfacet
 facet normal -1 0 0
  outer loop
   vertex 0.042659103870391846 -0.0032555817160755396 0.011599855497479439
   vertex 0.042659103870391846 -0.003344148863106966 0.019196856766939163
   vertex 0.042659103870391846 -0.0032555817160755396 0.01899348571896553
  endloop
 endfacet
 facet normal -1 0 0
  outer loop
   vertex 0.042659103870391846 -0.0094453692436218262 0.014238186180591583
   vertex 0.042659103870391846 -0.0094488542526960373 0.012958485633134842
   vertex 0.042659103870391846 -0.0095011321827769279 0.013587675988674164
  endloop
 endfacet
 facet normal -1 0 -0
  outer loop
   vertex 0.042659103870391846 -0.0094488542526960373 0.012958485633134842
   vertex 0.042659103870391846 -0.0094453692436218262 0.014238186180591583
   vertex 0.042659103870391846 -0.0092920185998082161 0.012383005581796169
  endloop
 endfacet
 facet normal -1 0 0
  outer loop
   vertex 0.042659103870391846 -0.0092920185998082161 0.012383005581796169
   vertex 0.042659103870391846 -0.0094453692436218262 0.014238186180591583
   vertex 0.042659103870391846 -0.009278077632188797 0.014831695705652237
  endloop
 endfacet
 facet normal -1 0 -0
  outer loop
   vertex 0.042659103870391846 -0.0092920185998082161 0.012383005581796169
   vertex 0.042659103870391846 -0.009278077632188797 0.014831695705652237
   vertex 0.042659103870391846 -0.009030626155436039 0.011861256323754787
  endloop
 endfacet
 facet normal -1 0 0
  outer loop
   vertex 0.042659103870391846 -0.009030626155436039 0.011861256323754787
   vertex 0.042659103870391846 -0.009278077632188797 0.014831695705652237
   vertex 0.042659103870391846 -0.0089992592111229897 0.01536821573972702
  endloop
 endfacet
 facet normal -1 0 -0
  outer loop
   vertex 0.042659103870391846 -0.009030626155436039 0.011861256323754787
   vertex 0.042659103870391846 -0.0089992592111229897 0.01536821573972702
   vertex 0.042659103870391846 -0.0086646750569343567 0.011393206194043159
  endloop
 endfacet
 facet normal -1 0 0
  outer loop
   vertex 0.042659103870391846 -0.0086646750569343567 0.011393206194043159
   vertex 0.042659103870391846 -0.0089992592111229897 0.01536821573972702
   vertex 0.042659103870391846 -0.0086089111864566803 0.015847746282815933
  endloop
 endfacet
 facet normal -1 0 -0
  outer loop
   vertex 0.042659103870391846 -0.0086646750569343567 0.011393206194043159
   vertex 0.042659103870391846 -0.0086089111864566803 0.015847746282815933
   vertex 0.042659103870391846 -0.0082212276756763458 0.011007156223058701
  endloop
 endfacet
 facet normal -1 0 0
  outer loop
   vertex 0.042659103870391846 -0.0082212276756763458 0.011007156223058701
   vertex 0.042659103870391846 -0.0086089111864566803 0.015847746282815933
   vertex 0.042659103870391846 -0.0083727352321147919 0.013620476238429546
  endloop
 endfacet
 facet normal -1 0 0
  outer loop
   vertex 0.042659103870391846 -0.0082212276756763458 0.011007156223058701
   vertex 0.042659103870391846 -0.0083727352321147919 0.013620476238429546
   vertex 0.042659103870391846 -0.0083362413570284843 0.013188306242227554
  endloop
 endfacet
 facet normal -1 0 0
  outer loop
   vertex 0.042659103870391846 -0.0082212276756763458 0.011007156223058701
   vertex 0.042659103870391846 -0.0083362413570284843 0.013188306242227554
   vertex 0.042659103870391846 -0.0082267643883824348 0.012797135859727859
  endloop
 endfacet
 facet normal -1 0 0
  outer loop
   vertex 0.042659103870391846 -0.0082212276756763458 0.011007156223058701
   vertex 0.042659103870391846 -0.0082267643883824348 0.012797135859727859
   vertex 0.042659103870391846 -0.0080443024635314941 0.012446976266801357
  endloop
 endfacet
 facet normal -1 0 -0
  outer loop
   vertex 0.042659103870391846 -0.0082212276756763458 0.011007156223058701
   vertex 0.042659103870391846 -0.0080443024635314941 0.012446976266801357
   vertex 0.042659103870391846 -0.007727351039648056 0.010731415823101997
  endloop
 endfacet
 facet normal -1 0 0
  outer loop
   vertex 0.042659103870391846 -0.007727351039648056 0.010731415823101997
   vertex 0.042659103870391846 -0.0080443024635314941 0.012446976266801357
   vertex 0.042659103870391846 -0.007788853719830513 0.012137816287577152
  endloop
 endfacet
 facet normal -1 0 0
  outer loop
   vertex 0.042659103870391846 -0.007727351039648056 0.010731415823101997
   vertex 0.042659103870391846 -0.007788853719830513 0.012137816287577152
   vertex 0.042659103870391846 -0.007477231789380312 0.011885236017405987
  endloop
 endfacet
 facet normal -1 0 -0
  outer loop
   vertex 0.042659103870391846 -0.007727351039648056 0.010731415823101997
   vertex 0.042659103870391846 -0.007477231789380312 0.011885236017405987
   vertex 0.042659103870391846 -0.007183038629591465 0.010565975680947304
  endloop
 endfacet
 facet normal -1 0 0
  outer loop
   vertex 0.042659103870391846 -0.007183038629591465 0.010565975680947304
   vertex 0.042659103870391846 -0.007477231789380312 0.011885236017405987
   vertex 0.042659103870391846 -0.0071262489072978497 0.011704825796186924
  endloop
 endfacet
 facet normal -1 0 -0
  outer loop
   vertex 0.042659103870391846 -0.007183038629591465 0.010565975680947304
   vertex 0.042659103870391846 -0.0071262489072978497 0.011704825796186924
   vertex 0.042659103870391846 -0.0065882918424904346 0.010510825552046299
  endloop
 endfacet
 facet normal -1 0 0
  outer loop
   vertex 0.042659103870391846 -0.0065882918424904346 0.010510825552046299
   vertex 0.042659103870391846 -0.0071262489072978497 0.011704825796186924
   vertex 0.042659103870391846 -0.0067359027452766895 0.011596576310694218
  endloop
 endfacet
 facet normal -1 0 0
  outer loop
   vertex 0.042659103870391846 -0.0065882918424904346 0.010510825552046299
   vertex 0.042659103870391846 -0.0067359027452766895 0.011596576310694218
   vertex 0.042659103870391846 -0.0063061928376555443 0.011560495942831039
  endloop
 endfacet
 facet normal -1 0 -0
  outer loop
   vertex 0.042659103870391846 -0.0065882918424904346 0.010510825552046299
   vertex 0.042659103870391846 -0.0063061928376555443 0.011560495942831039
   vertex 0.042659103870391846 -0.0059240460395812988 0.010578885674476624
  endloop
 endfacet
 facet normal -1 0 0
  outer loop
   vertex 0.042659103870391846 -0.0059240460395812988 0.010578885674476624
   vertex 0.042659103870391846 -0.0063061928376555443 0.011560495942831039
   vertex 0.042659103870391846 -0.0058736116625368595 0.011598005890846252
  endloop
 endfacet
 facet normal -1 0 -0
  outer loop
   vertex 0.042659103870391846 -0.0059240460395812988 0.010578885674476624
   vertex 0.042659103870391846 -0.0058736116625368595 0.011598005890846252
   vertex 0.042659103870391846 -0.005309003870934248 0.010783085599541664
  endloop
 endfacet
 facet normal -1 0 0
  outer loop
   vertex 0.042659103870391846 -0.005309003870934248 0.010783085599541664
   vertex 0.042659103870391846 -0.0058736116625368595 0.011598005890846252
   vertex 0.042659103870391846 -0.0043249358423054218 0.011547375470399857
  endloop
 endfacet
 facet normal -1 0 0
  outer loop
   vertex 0.042659103870391846 -0.0043249358423054218 0.011547375470399857
   vertex 0.042659103870391846 -0.0058736116625368595 0.011598005890846252
   vertex 0.042659103870391846 -0.0032555817160755396 0.011599855497479439
  endloop
 endfacet
 facet normal -1 0 0
  outer loop
   vertex 0.042659103870391846 -0.005309003870934248 0.010783085599541664
   vertex 0.042659103870391846 -0.0043249358423054218 0.011547375470399857
   vertex 0.042659103870391846 -0.0047677657566964626 0.011110286228358746
  endloop
 endfacet
 facet normal -1 0 0
  outer loop
   vertex 0.042659103870391846 -0.0043249358423054218 0.011547375470399857
   vertex 0.042659103870391846 -0.0032555817160755396 0.011599855497479439
   vertex 0.042659103870391846 -0.0043249358423054218 0.011009415611624718
  endloop
 endfacet
 facet normal -1 0 0
  outer loop
   vertex 0.042659103870391846 -0.0043249358423054218 0.011009415611624718
   vertex 0.042659103870391846 -0.0032555817160755396 0.011599855497479439
   vertex 0.042659103870391846 -0.0042691719718277454 0.010743715800344944
  endloop
 endfacet
 facet normal -1 0 0
  outer loop
   vertex 0.042659103870391846 -0.0042691719718277454 0.010743715800344944
   vertex 0.042659103870391846 -0.0032555817160755396 0.011599855497479439
   vertex 0.042659103870391846 -0.0040756389498710632 0.010674836114048958
  endloop
 endfacet
 facet normal -1 0 -0
  outer loop
   vertex 0.042659103870391846 -0.0040756389498710632 0.010674836114048958
   vertex 0.042659103870391846 -0.0032555817160755396 0.011599855497479439
   vertex 0.042659103870391846 -0.0028094719164073467 0.010674836114048958
  endloop
 endfacet
 facet normal -1 0 0
  outer loop
   vertex 0.042659103870391846 -0.0028094719164073467 0.010674836114048958
   vertex 0.042659103870391846 -0.0032555817160755396 0.011599855497479439
   vertex 0.042659103870391846 -0.0029603617731481791 0.011599855497479439
  endloop
 endfacet
 facet normal -1 0 0
  outer loop
   vertex 0.042659103870391846 -0.0028094719164073467 0.010674836114048958
   vertex 0.042659103870391846 -0.0029603617731481791 0.011599855497479439
   vertex 0.042659103870391846 -0.00249456986784935 0.011491606011986732
  endloop
 endfacet
 facet normal -1 0 -0
  outer loop
   vertex 0.042659103870391846 -0.0028094719164073467 0.010674836114048958
   vertex 0.042659103870391846 -0.00249456986784935 0.011491606011986732
   vertex 0.042659103870391846 -0.002474888926371932 0.010799475945532322
  endloop
 endfacet
 facet normal -1 0 0
  outer loop
   vertex 0.042659103870391846 -0.002474888926371932 0.010799475945532322
   vertex 0.042659103870391846 -0.00249456986784935 0.011491606011986732
   vertex 0.042659103870391846 -0.0023863217793405056 0.011351375840604305
  endloop
 endfacet
 facet normal -1 0 -0
  outer loop
   vertex 0.042659103870391846 -0.002474888926371932 0.010799475945532322
   vertex 0.042659103870391846 -0.0023863217793405056 0.011351375840604305
   vertex 0.042659103870391846 -0.0023502397816628218 0.011147186160087585
  endloop
 endfacet
 facet normal -1 -0 0
  outer loop
   vertex 0.042659103870391846 -0.0086089111864566803 0.015847746282815933
   vertex 0.042659103870391846 -0.0083370627835392952 0.014079705812036991
   vertex 0.042659103870391846 -0.0083727352321147919 0.013620476238429546
  endloop
 endfacet
 facet normal -1 0 0
  outer loop
   vertex 0.042659103870391846 -0.0083370627835392952 0.014079705812036991
   vertex 0.042659103870391846 -0.0086089111864566803 0.015847746282815933
   vertex 0.042659103870391846 -0.0081353280693292618 0.016242405399680138
  endloop
 endfacet
 facet normal -1 0 0
  outer loop
   vertex 0.042659103870391846 -0.0083370627835392952 0.014079705812036991
   vertex 0.042659103870391846 -0.0081353280693292618 0.016242405399680138
   vertex 0.042659103870391846 -0.0082300445064902306 0.014493015594780445
  endloop
 endfacet
 facet normal -1 0 -0
  outer loop
   vertex 0.042659103870391846 -0.0082300445064902306 0.014493015594780445
   vertex 0.042659103870391846 -0.0081353280693292618 0.016242405399680138
   vertex 0.042659103870391846 -0.0080516831949353218 0.014860396273434162
  endloop
 endfacet
 facet normal -1 0 0
  outer loop
   vertex 0.042659103870391846 -0.0080516831949353218 0.014860396273434162
   vertex 0.042659103870391846 -0.0081353280693292618 0.016242405399680138
   vertex 0.042659103870391846 -0.007606802973896265 0.016524296253919601
  endloop
 endfacet
 facet normal -1 0 0
  outer loop
   vertex 0.042659103870391846 -0.0080516831949353218 0.014860396273434162
   vertex 0.042659103870391846 -0.007606802973896265 0.016524296253919601
   vertex 0.042659103870391846 -0.0078019746579229832 0.01518186554312706
  endloop
 endfacet
 facet normal -1 0 -0
  outer loop
   vertex 0.042659103870391846 -0.0078019746579229832 0.01518186554312706
   vertex 0.042659103870391846 -0.007606802973896265 0.016524296253919601
   vertex 0.042659103870391846 -0.0074944538064301014 0.015443045645952225
  endloop
 endfacet
 facet normal -1 0 0
  outer loop
   vertex 0.042659103870391846 -0.0074944538064301014 0.015443045645952225
   vertex 0.042659103870391846 -0.007606802973896265 0.016524296253919601
   vertex 0.042659103870391846 -0.0070233326405286789 0.016693435609340668
  endloop
 endfacet
 facet normal -1 0 0
  outer loop
   vertex 0.042659103870391846 -0.0074944538064301014 0.015443045645952225
   vertex 0.042659103870391846 -0.0070233326405286789 0.016693435609340668
   vertex 0.042659103870391846 -0.0071426508948206902 0.015629615634679794
  endloop
 endfacet
 facet normal -1 0 -0
  outer loop
   vertex 0.042659103870391846 -0.0071426508948206902 0.015629615634679794
   vertex 0.042659103870391846 -0.0070233326405286789 0.016693435609340668
   vertex 0.042659103870391846 -0.0067465635947883129 0.015741545706987381
  endloop
 endfacet
 facet normal -1 0 0
  outer loop
   vertex 0.042659103870391846 -0.0067465635947883129 0.015741545706987381
   vertex 0.042659103870391846 -0.0070233326405286789 0.016693435609340668
   vertex 0.042659103870391846 -0.006384918000549078 0.016749806702136993
  endloop
 endfacet
 facet normal -1 0 -0
  outer loop
   vertex 0.042659103870391846 -0.0067465635947883129 0.015741545706987381
   vertex 0.042659103870391846 -0.006384918000549078 0.016749806702136993
   vertex 0.042659103870391846 -0.0063061928376555443 0.015778865665197372
  endloop
 endfacet
 facet normal -1 0 0
  outer loop
   vertex 0.042659103870391846 -0.0063061928376555443 0.015778865665197372
   vertex 0.042659103870391846 -0.006384918000549078 0.016749806702136993
   vertex 0.042659103870391846 -0.0057436339557170868 0.016689945012331009
  endloop
 endfacet
 facet normal -1 0 0
  outer loop
   vertex 0.042659103870391846 -0.0063061928376555443 0.015778865665197372
   vertex 0.042659103870391846 -0.0057436339557170868 0.016689945012331009
   vertex 0.042659103870391846 -0.0058709457516670227 0.015741966664791107
  endloop
 endfacet
 facet normal -1 0 -0
  outer loop
   vertex 0.042659103870391846 -0.0058709457516670227 0.015741966664791107
   vertex 0.042659103870391846 -0.0057436339557170868 0.016689945012331009
   vertex 0.042659103870391846 -0.0054771150462329388 0.015631256625056267
  endloop
 endfacet
 facet normal -1 0 0
  outer loop
   vertex 0.042659103870391846 -0.0054771150462329388 0.015631256625056267
   vertex 0.042659103870391846 -0.0057436339557170868 0.016689945012331009
   vertex 0.042659103870391846 -0.0051712337881326675 0.016510356217622757
  endloop
 endfacet
 facet normal -1 0 -0
  outer loop
   vertex 0.042659103870391846 -0.0054771150462329388 0.015631256625056267
   vertex 0.042659103870391846 -0.0051712337881326675 0.016510356217622757
   vertex 0.042659103870391846 -0.005124696996062994 0.015446745790541172
  endloop
 endfacet
 facet normal -1 0 0
  outer loop
   vertex 0.042659103870391846 -0.005124696996062994 0.015446745790541172
   vertex 0.042659103870391846 -0.0051712337881326675 0.016510356217622757
   vertex 0.042659103870391846 -0.0046709999442100525 0.016214316710829735
  endloop
 endfacet
 facet normal -1 0 0
  outer loop
   vertex 0.042659103870391846 -0.005124696996062994 0.015446745790541172
   vertex 0.042659103870391846 -0.0046709999442100525 0.016214316710829735
   vertex 0.042659103870391846 -0.0048136897385120392 0.015188425779342651
  endloop
 endfacet
 facet normal -1 0 -0
  outer loop
   vertex 0.042659103870391846 -0.0048136897385120392 0.015188425779342651
   vertex 0.042659103870391846 -0.0046709999442100525 0.016214316710829735
   vertex 0.042659103870391846 -0.0045596756972372532 0.01487311627715826
  endloop
 endfacet
 facet normal -1 0 0
  outer loop
   vertex 0.042659103870391846 -0.0045596756972372532 0.01487311627715826
   vertex 0.042659103870391846 -0.0046709999442100525 0.016214316710829735
   vertex 0.042659103870391846 -0.0042462106794118881 0.015805106610059738
  endloop
 endfacet
 facet normal -1 0 0
  outer loop
   vertex 0.042659103870391846 -0.0045596756972372532 0.01487311627715826
   vertex 0.042659103870391846 -0.0042462106794118881 0.015805106610059738
   vertex 0.042659103870391846 -0.0043782386928796768 0.014517615549266338
  endloop
 endfacet
 facet normal -1 0 0
  outer loop
   vertex 0.042659103870391846 -0.0043782386928796768 0.014517615549266338
   vertex 0.042659103870391846 -0.0042462106794118881 0.015805106610059738
   vertex 0.042659103870391846 -0.0042693768627941608 0.014121935702860355
  endloop
 endfacet
 facet normal -1 0 -0
  outer loop
   vertex 0.042659103870391846 -0.0042693768627941608 0.014121935702860355
   vertex 0.042659103870391846 -0.0042462106794118881 0.015805106610059738
   vertex 0.042659103870391846 -0.004233089741319418 0.013686075806617737
  endloop
 endfacet
 facet normal 0 0.26723130204713463 0.96363241498311647
  outer loop
   vertex 0.043131105601787567 -0.0071262489072978497 0.011704825796186924
   vertex 0.042659103870391846 -0.0067359027452766895 0.011596576310694218
   vertex 0.042659103870391846 -0.0071262489072978497 0.011704825796186924
  endloop
 endfacet
 facet normal 0 0.26723130204713463 0.96363241498311647
  outer loop
   vertex 0.042659103870391846 -0.0067359027452766895 0.011596576310694218
   vertex 0.043131105601787567 -0.0071262489072978497 0.011704825796186924
   vertex 0.043131105601787567 -0.0067359027452766895 0.011596576310694218
  endloop
 endfacet
 facet normal 0 0.083670057139081266 0.99649351304378442
  outer loop
   vertex 0.043131105601787567 -0.0067359027452766895 0.011596576310694218
   vertex 0.042659103870391846 -0.0063061928376555443 0.011560495942831039
   vertex 0.042659103870391846 -0.0067359027452766895 0.011596576310694218
  endloop
 endfacet
 facet normal 0 0.083670057139081266 0.99649351304378442
  outer loop
   vertex 0.042659103870391846 -0.0063061928376555443 0.011560495942831039
   vertex 0.043131105601787567 -0.0067359027452766895 0.011596576310694218
   vertex 0.043131105601787567 -0.0063061928376555443 0.011560495942831039
  endloop
 endfacet
 facet normal 0 -0.08638776389819354 0.99626158926693031
  outer loop
   vertex 0.043131105601787567 -0.0063061928376555443 0.011560495942831039
   vertex 0.042659103870391846 -0.0058736116625368595 0.011598005890846252
   vertex 0.042659103870391846 -0.0063061928376555443 0.011560495942831039
  endloop
 endfacet
 facet normal 0 -0.08638776389819354 0.99626158926693031
  outer loop
   vertex 0.042659103870391846 -0.0058736116625368595 0.011598005890846252
   vertex 0.043131105601787567 -0.0063061928376555443 0.011560495942831039
   vertex 0.043131105601787567 -0.0058736116625368595 0.011598005890846252
  endloop
 endfacet
 facet normal 0 -0.64394382529394556 0.76507277422857012
  outer loop
   vertex 0.043131105601787567 -0.0051290020346641541 0.011898146010935307
   vertex 0.042659103870391846 -0.0048169698566198349 0.012160776183009148
   vertex 0.042659103870391846 -0.0051290020346641541 0.011898146010935307
  endloop
 endfacet
 facet normal 0 -0.64394382529394556 0.76507277422857012
  outer loop
   vertex 0.042659103870391846 -0.0048169698566198349 0.012160776183009148
   vertex 0.043131105601787567 -0.0051290020346641541 0.011898146010935307
   vertex 0.043131105601787567 -0.0048169698566198349 0.012160776183009148
  endloop
 endfacet
 facet normal 0 -0.7819424395380985 0.6233506406904602
  outer loop
   vertex 0.043131105601787567 -0.0045615206472575665 0.012481216341257095
   vertex 0.042659103870391846 -0.0048169698566198349 0.012160776183009148
   vertex 0.043131105601787567 -0.0048169698566198349 0.012160776183009148
  endloop
 endfacet
 facet normal 2.3143205152737085e-06 -0.78194410113655843 0.62334855634097974
  outer loop
   vertex 0.042659103870391846 -0.0048169698566198349 0.012160776183009148
   vertex 0.043131105601787567 -0.0045615206472575665 0.012481216341257095
   vertex 0.042659103870391846 -0.0045615220442414284 0.012481216341257095
  endloop
 endfacet
 facet normal 2.6415143001420256e-06 -0.8924937196175865 0.45105981913288096
  outer loop
   vertex 0.043131105601787567 -0.0043790587224066257 0.012842246331274509
   vertex 0.042659103870391846 -0.0045615220442414284 0.012481216341257095
   vertex 0.043131105601787567 -0.0045615206472575665 0.012481216341257095
  endloop
 endfacet
 facet normal 0 -0.8924923293696353 0.45106256995716504
  outer loop
   vertex 0.042659103870391846 -0.0045615220442414284 0.012481216341257095
   vertex 0.043131105601787567 -0.0043790587224066257 0.012842246331274509
   vertex 0.042659103870391846 -0.0043790587224066257 0.012842246331274509
  endloop
 endfacet
 facet normal 0 -0.96479778550665429 0.26299283846039573
  outer loop
   vertex 0.043131105601787567 -0.0042695817537605762 0.01324386615306139
   vertex 0.042659103870391846 -0.0043790587224066257 0.012842246331274509
   vertex 0.043131105601787567 -0.0043790587224066257 0.012842246331274509
  endloop
 endfacet
 facet normal 0 -0.96479778550665429 0.26299283846039573
  outer loop
   vertex 0.042659103870391846 -0.0043790587224066257 0.012842246331274509
   vertex 0.043131105601787567 -0.0042695817537605762 0.01324386615306139
   vertex 0.042659103870391846 -0.0042695817537605762 0.01324386615306139
  endloop
 endfacet
 facet normal 0 -0.99661235440619467 0.08224241633695771
  outer loop
   vertex 0.043131094425916672 -0.004233089741319418 0.013686075806617737
   vertex 0.042659103870391846 -0.0042695817537605762 0.01324386615306139
   vertex 0.043131105601787567 -0.0042695817537605762 0.01324386615306139
  endloop
 endfacet
 facet normal 0 -0.99661235440619467 0.08224241633695771
  outer loop
   vertex 0.042659103870391846 -0.0042695817537605762 0.01324386615306139
   vertex 0.043131094425916672 -0.004233089741319418 0.013686075806617737
   vertex 0.042659103870391846 -0.004233089741319418 0.013686075806617737
  endloop
 endfacet
 facet normal 0 -0.9965522901552738 -0.082967059645855323
  outer loop
   vertex 0.043131094425916672 -0.0042693768627941608 0.014121935702860355
   vertex 0.042659103870391846 -0.004233089741319418 0.013686075806617737
   vertex 0.043131094425916672 -0.004233089741319418 0.013686075806617737
  endloop
 endfacet
 facet normal -0 -0.9965522901552738 -0.082967059645855323
  outer loop
   vertex 0.042659103870391846 -0.004233089741319418 0.013686075806617737
   vertex 0.043131094425916672 -0.0042693768627941608 0.014121935702860355
   vertex 0.042659103870391846 -0.0042693768627941608 0.014121935702860355
  endloop
 endfacet
 facet normal 0 -0.96417431605656734 -0.26526946348355007
  outer loop
   vertex 0.043131094425916672 -0.0043782386928796768 0.014517615549266338
   vertex 0.042659103870391846 -0.0042693768627941608 0.014121935702860355
   vertex 0.043131094425916672 -0.0042693768627941608 0.014121935702860355
  endloop
 endfacet
 facet normal -0 -0.96417431605656734 -0.26526946348355007
  outer loop
   vertex 0.042659103870391846 -0.0042693768627941608 0.014121935702860355
   vertex 0.043131094425916672 -0.0043782386928796768 0.014517615549266338
   vertex 0.042659103870391846 -0.0043782386928796768 0.014517615549266338
  endloop
 endfacet
 facet normal 0 -0.89070193614406634 -0.45458779234512176
  outer loop
   vertex 0.043131094425916672 -0.0045596756972372532 0.01487311627715826
   vertex 0.042659103870391846 -0.0043782386928796768 0.014517615549266338
   vertex 0.043131094425916672 -0.0043782386928796768 0.014517615549266338
  endloop
 endfacet
 facet normal -0 -0.89070193614406634 -0.45458779234512176
  outer loop
   vertex 0.042659103870391846 -0.0043782386928796768 0.014517615549266338
   vertex 0.043131094425916672 -0.0045596756972372532 0.01487311627715826
   vertex 0.042659103870391846 -0.0045596756972372532 0.01487311627715826
  endloop
 endfacet
 facet normal 0 -0.77873614810923675 -0.62735158533950408
  outer loop
   vertex 0.043131094425916672 -0.0048136897385120392 0.015188425779342651
   vertex 0.042659103870391846 -0.0045596756972372532 0.01487311627715826
   vertex 0.043131094425916672 -0.0045596756972372532 0.01487311627715826
  endloop
 endfacet
 facet normal -0 -0.77873614810923675 -0.62735158533950408
  outer loop
   vertex 0.042659103870391846 -0.0045596756972372532 0.01487311627715826
   vertex 0.043131094425916672 -0.0048136897385120392 0.015188425779342651
   vertex 0.042659103870391846 -0.0048136897385120392 0.015188425779342651
  endloop
 endfacet
 facet normal 0 -0.63893883864244794 -0.76925753845785594
  outer loop
   vertex 0.043131094425916672 -0.0048136897385120392 0.015188425779342651
   vertex 0.042659103870391846 -0.005124696996062994 0.015446745790541172
   vertex 0.042659103870391846 -0.0048136897385120392 0.015188425779342651
  endloop
 endfacet
 facet normal 0 -0.63893883864244794 -0.76925753845785594
  outer loop
   vertex 0.042659103870391846 -0.005124696996062994 0.015446745790541172
   vertex 0.043131094425916672 -0.0048136897385120392 0.015188425779342651
   vertex 0.043131094425916672 -0.005124696996062994 0.015446745790541172
  endloop
 endfacet
 facet normal 0 -0.46383123317917091 -0.88592357860454851
  outer loop
   vertex 0.043131094425916672 -0.005124696996062994 0.015446745790541172
   vertex 0.042659103870391846 -0.0054771150462329388 0.015631256625056267
   vertex 0.042659103870391846 -0.005124696996062994 0.015446745790541172
  endloop
 endfacet
 facet normal 0 -0.46383123317917091 -0.88592357860454851
  outer loop
   vertex 0.042659103870391846 -0.0054771150462329388 0.015631256625056267
   vertex 0.043131094425916672 -0.005124696996062994 0.015446745790541172
   vertex 0.043131094425916672 -0.0054771150462329388 0.015631256625056267
  endloop
 endfacet
 facet normal 0 -0.270621335362765 -0.96268587444008646
  outer loop
   vertex 0.043131094425916672 -0.0054771150462329388 0.015631256625056267
   vertex 0.042659103870391846 -0.0058709457516670227 0.015741966664791107
   vertex 0.042659103870391846 -0.0054771150462329388 0.015631256625056267
  endloop
 endfacet
 facet normal 0 -0.270621335362765 -0.96268587444008646
  outer loop
   vertex 0.042659103870391846 -0.0058709457516670227 0.015741966664791107
   vertex 0.043131094425916672 -0.0054771150462329388 0.015631256625056267
   vertex 0.043131094425916672 -0.0058709457516670227 0.015741966664791107
  endloop
 endfacet
 facet normal 0 -0.084474112618867989 -0.99642567424633077
  outer loop
   vertex 0.043131094425916672 -0.0058709457516670227 0.015741966664791107
   vertex 0.042659103870391846 -0.0063061928376555443 0.015778865665197372
   vertex 0.042659103870391846 -0.0058709457516670227 0.015741966664791107
  endloop
 endfacet
 facet normal 0 -0.084474112618867989 -0.99642567424633077
  outer loop
   vertex 0.042659103870391846 -0.0063061928376555443 0.015778865665197372
   vertex 0.043131094425916672 -0.0058709457516670227 0.015741966664791107
   vertex 0.043131094425916672 -0.0063061928376555443 0.015778865665197372
  endloop
 endfacet
 facet normal 0 0.084443980976630181 -0.99642822826173405
  outer loop
   vertex 0.043131094425916672 -0.0063061928376555443 0.015778865665197372
   vertex 0.042659103870391846 -0.0067465635947883129 0.015741545706987381
   vertex 0.042659103870391846 -0.0063061928376555443 0.015778865665197372
  endloop
 endfacet
 facet normal 0 0.084443980976630181 -0.99642822826173405
  outer loop
   vertex 0.042659103870391846 -0.0067465635947883129 0.015741545706987381
   vertex 0.043131094425916672 -0.0063061928376555443 0.015778865665197372
   vertex 0.043131094425916672 -0.0067465635947883129 0.015741545706987381
  endloop
 endfacet
 facet normal 0 0.2719398096861011 -0.96231426255038288
  outer loop
   vertex 0.043131094425916672 -0.0067465635947883129 0.015741545706987381
   vertex 0.042659103870391846 -0.0071426508948206902 0.015629615634679794
   vertex 0.042659103870391846 -0.0067465635947883129 0.015741545706987381
  endloop
 endfacet
 facet normal 0 0.2719398096861011 -0.96231426255038288
  outer loop
   vertex 0.042659103870391846 -0.0071426508948206902 0.015629615634679794
   vertex 0.043131094425916672 -0.0067465635947883129 0.015741545706987381
   vertex 0.043131094425916672 -0.0071426508948206902 0.015629615634679794
  endloop
 endfacet
 facet normal 0 0.46851799368291691 -0.88345395442848873
  outer loop
   vertex 0.043131094425916672 -0.0071426508948206902 0.015629615634679794
   vertex 0.042659103870391846 -0.0074944538064301014 0.015443045645952225
   vertex 0.042659103870391846 -0.0071426508948206902 0.015629615634679794
  endloop
 endfacet
 facet normal 0 0.46851799368291691 -0.88345395442848873
  outer loop
   vertex 0.042659103870391846 -0.0074944538064301014 0.015443045645952225
   vertex 0.043131094425916672 -0.0071426508948206902 0.015629615634679794
   vertex 0.043131094425916672 -0.0074944538064301014 0.015443045645952225
  endloop
 endfacet
 facet normal 0 0.64734242469456493 -0.76219930804912273
  outer loop
   vertex 0.043131094425916672 -0.0074944538064301014 0.015443045645952225
   vertex 0.042659103870391846 -0.0078019746579229832 0.01518186554312706
   vertex 0.042659103870391846 -0.0074944538064301014 0.015443045645952225
  endloop
 endfacet
 facet normal 0 0.64734242469456493 -0.76219930804912273
  outer loop
   vertex 0.042659103870391846 -0.0078019746579229832 0.01518186554312706
   vertex 0.043131094425916672 -0.0074944538064301014 0.015443045645952225
   vertex 0.043131094425916672 -0.0078019746579229832 0.01518186554312706
  endloop
 endfacet
 facet normal 0 0.7897367429040828 -0.61344590381487629
  outer loop
   vertex 0.042659103870391846 -0.0078019746579229832 0.01518186554312706
   vertex 0.043131094425916672 -0.0080516831949353218 0.014860396273434162
   vertex 0.042659103870391846 -0.0080516831949353218 0.014860396273434162
  endloop
 endfacet
 facet normal 0 0.7897367429040828 -0.61344590381487629
  outer loop
   vertex 0.043131094425916672 -0.0080516831949353218 0.014860396273434162
   vertex 0.042659103870391846 -0.0078019746579229832 0.01518186554312706
   vertex 0.043131094425916672 -0.0078019746579229832 0.01518186554312706
  endloop
 endfacet
 facet normal 0 0.89958583434188277 -0.43674400585631257
  outer loop
   vertex 0.042659103870391846 -0.0080516831949353218 0.014860396273434162
   vertex 0.043131105601787567 -0.0082300445064902306 0.014493015594780445
   vertex 0.042659103870391846 -0.0082300445064902306 0.014493015594780445
  endloop
 endfacet
 facet normal 0 0.89958583434188266 -0.43674400585631257
  outer loop
   vertex 0.043131105601787567 -0.0082300445064902306 0.014493015594780445
   vertex 0.042659103870391846 -0.0080516831949353218 0.014860396273434162
   vertex 0.043131094425916672 -0.0080516831949353218 0.014860396273434162
  endloop
 endfacet
 facet normal 0 0.96807429979584325 -0.25066341989765462
  outer loop
   vertex 0.042659103870391846 -0.0082300445064902306 0.014493015594780445
   vertex 0.043131105601787567 -0.0083370627835392952 0.014079705812036991
   vertex 0.042659103870391846 -0.0083370627835392952 0.014079705812036991
  endloop
 endfacet
 facet normal 0 0.96807429979584325 -0.25066341989765462
  outer loop
   vertex 0.043131105601787567 -0.0083370627835392952 0.014079705812036991
   vertex 0.042659103870391846 -0.0082300445064902306 0.014493015594780445
   vertex 0.043131105601787567 -0.0082300445064902306 0.014493015594780445
  endloop
 endfacet
 facet normal 0 0.99699657936360786 -0.077445598566123847
  outer loop
   vertex 0.042659103870391846 -0.0083370627835392952 0.014079705812036991
   vertex 0.043131105601787567 -0.0083727352321147919 0.013620476238429546
   vertex 0.042659103870391846 -0.0083727352321147919 0.013620476238429546
  endloop
 endfacet
 facet normal 0 0.99699657936360786 -0.077445598566123847
  outer loop
   vertex 0.043131105601787567 -0.0083727352321147919 0.013620476238429546
   vertex 0.042659103870391846 -0.0083370627835392952 0.014079705812036991
   vertex 0.043131105601787567 -0.0083370627835392952 0.014079705812036991
  endloop
 endfacet
 facet normal 0 -0.47006860866288391 0.88262987891286604
  outer loop
   vertex 0.043131105601787567 -0.0054812147282063961 0.011710565537214279
   vertex 0.042659103870391846 -0.0051290020346641541 0.011898146010935307
   vertex 0.042659103870391846 -0.0054812147282063961 0.011710565537214279
  endloop
 endfacet
 facet normal 0 -0.47006860866288391 0.88262987891286604
  outer loop
   vertex 0.042659103870391846 -0.0051290020346641541 0.011898146010935307
   vertex 0.043131105601787567 -0.0054812147282063961 0.011710565537214279
   vertex 0.043131105601787567 -0.0051290020346641541 0.011898146010935307
  endloop
 endfacet
 facet normal 0 -0.27573159915163559 0.96123466709710481
  outer loop
   vertex 0.043131105601787567 -0.0058736116625368595 0.011598005890846252
   vertex 0.042659103870391846 -0.0054812147282063961 0.011710565537214279
   vertex 0.042659103870391846 -0.0058736116625368595 0.011598005890846252
  endloop
 endfacet
 facet normal 0 -0.27573159915163559 0.96123466709710481
  outer loop
   vertex 0.042659103870391846 -0.0054812147282063961 0.011710565537214279
   vertex 0.043131105601787567 -0.0058736116625368595 0.011598005890846252
   vertex 0.043131105601787567 -0.0054812147282063961 0.011710565537214279
  endloop
 endfacet
 facet normal 0 0.4571571028798152 0.88938595856159885
  outer loop
   vertex 0.043131105601787567 -0.007477231789380312 0.011885236017405987
   vertex 0.042659103870391846 -0.0071262489072978497 0.011704825796186924
   vertex 0.042659103870391846 -0.007477231789380312 0.011885236017405987
  endloop
 endfacet
 facet normal 0 0.4571571028798152 0.88938595856159885
  outer loop
   vertex 0.042659103870391846 -0.0071262489072978497 0.011704825796186924
   vertex 0.043131105601787567 -0.007477231789380312 0.011885236017405987
   vertex 0.043131105601787567 -0.0071262489072978497 0.011704825796186924
  endloop
 endfacet
 facet normal 0 0.62967235429331436 0.77686081522928863
  outer loop
   vertex 0.043131105601787567 -0.007788853719830513 0.012137816287577152
   vertex 0.042659103870391846 -0.007477231789380312 0.011885236017405987
   vertex 0.042659103870391846 -0.007788853719830513 0.012137816287577152
  endloop
 endfacet
 facet normal 0 0.62967235429331436 0.77686081522928863
  outer loop
   vertex 0.042659103870391846 -0.007477231789380312 0.011885236017405987
   vertex 0.043131105601787567 -0.007788853719830513 0.012137816287577152
   vertex 0.043131105601787567 -0.007477231789380312 0.011885236017405987
  endloop
 endfacet
 facet normal 0 0.88682365330768997 0.46210800462013424
  outer loop
   vertex 0.042659103870391846 -0.0082267643883824348 0.012797135859727859
   vertex 0.043131105601787567 -0.0080443024635314941 0.012446976266801357
   vertex 0.042659103870391846 -0.0080443024635314941 0.012446976266801357
  endloop
 endfacet
 facet normal -0 0.88682365330768997 0.46210800462013424
  outer loop
   vertex 0.043131105601787567 -0.0080443024635314941 0.012446976266801357
   vertex 0.042659103870391846 -0.0082267643883824348 0.012797135859727859
   vertex 0.043131105601787567 -0.0082267643883824348 0.012797135859727859
  endloop
 endfacet
 facet normal 0 0.96299644477558888 0.26951409489964778
  outer loop
   vertex 0.042659103870391846 -0.0083362413570284843 0.013188306242227554
   vertex 0.043131105601787567 -0.0082267643883824348 0.012797135859727859
   vertex 0.042659103870391846 -0.0082267643883824348 0.012797135859727859
  endloop
 endfacet
 facet normal -0 0.96299644477558888 0.26951409489964778
  outer loop
   vertex 0.043131105601787567 -0.0082267643883824348 0.012797135859727859
   vertex 0.042659103870391846 -0.0083362413570284843 0.013188306242227554
   vertex 0.043131105601787567 -0.0083362413570284843 0.013188306242227554
  endloop
 endfacet
 facet normal 0 0 -1
  outer loop
   vertex 0.043131105601787567 -0.0028094719164073467 0.010674836114048958
   vertex 0.042659103870391846 -0.0040756389498710632 0.010674836114048958
   vertex 0.042659103870391846 -0.0028094719164073467 0.010674836114048958
  endloop
 endfacet
 facet normal 0 -0 -1
  outer loop
   vertex 0.042659103870391846 -0.0040756389498710632 0.010674836114048958
   vertex 0.043131105601787567 -0.0028094719164073467 0.010674836114048958
   vertex 0.043131105601787567 -0.0040756389498710632 0.010674836114048958
  endloop
 endfacet
 facet normal 0 0.34908754389962215 -0.93709011663453667
  outer loop
   vertex 0.043131105601787567 -0.002474888926371932 0.010799475945532322
   vertex 0.042659103870391846 -0.0028094719164073467 0.010674836114048958
   vertex 0.042659103870391846 -0.002474888926371932 0.010799475945532322
  endloop
 endfacet
 facet normal 0 0.34908754389962215 -0.93709011663453667
  outer loop
   vertex 0.042659103870391846 -0.0028094719164073467 0.010674836114048958
   vertex 0.043131105601787567 -0.002474888926371932 0.010799475945532322
   vertex 0.043131105601787567 -0.0028094719164073467 0.010674836114048958
  endloop
 endfacet
 facet normal 0 0.98474348238182985 0.17401228090714418
  outer loop
   vertex 0.042659103870391846 -0.0023863217793405056 0.011351375840604305
   vertex 0.043131105601787567 -0.0023502397816628218 0.011147186160087585
   vertex 0.042659103870391846 -0.0023502397816628218 0.011147186160087585
  endloop
 endfacet
 facet normal -0 0.98474348238182985 0.17401228090714418
  outer loop
   vertex 0.043131105601787567 -0.0023502397816628218 0.011147186160087585
   vertex 0.042659103870391846 -0.0023863217793405056 0.011351375840604305
   vertex 0.043131105601787567 -0.0023863217793405056 0.011351375840604305
  endloop
 endfacet
 facet normal 0 0.226366263078951 0.97404225521261212
  outer loop
   vertex 0.043131105601787567 -0.0029603617731481791 0.011599855497479439
   vertex 0.042659103870391846 -0.00249456986784935 0.011491606011986732
   vertex 0.042659103870391846 -0.0029603617731481791 0.011599855497479439
  endloop
 endfacet
 facet normal 0 0.226366263078951 0.97404225521261212
  outer loop
   vertex 0.042659103870391846 -0.00249456986784935 0.011491606011986732
   vertex 0.043131105601787567 -0.0029603617731481791 0.011599855497479439
   vertex 0.043131105601787567 -0.00249456986784935 0.011491606011986732
  endloop
 endfacet
 facet normal 0 0 1
  outer loop
   vertex 0.043131105601787567 -0.0032555817160755396 0.011599855497479439
   vertex 0.042659103870391846 -0.0029603617731481791 0.011599855497479439
   vertex 0.042659103870391846 -0.0032555817160755396 0.011599855497479439
  endloop
 endfacet
 facet normal 0 -0 1
  outer loop
   vertex 0.042659103870391846 -0.0029603617731481791 0.011599855497479439
   vertex 0.043131105601787567 -0.0032555817160755396 0.011599855497479439
   vertex 0.043131105601787567 -0.0029603617731481791 0.011599855497479439
  endloop
 endfacet
 facet normal 0 1 0
  outer loop
   vertex 0.042659103870391846 -0.0032555817160755396 0.01899348571896553
   vertex 0.043131105601787567 -0.0032555817160755396 0.011599855497479439
   vertex 0.042659103870391846 -0.0032555817160755396 0.011599855497479439
  endloop
 endfacet
 facet normal -0 1 0
  outer loop
   vertex 0.043131105601787567 -0.0032555817160755396 0.011599855497479439
   vertex 0.042659103870391846 -0.0032555817160755396 0.01899348571896553
   vertex 0.043131094425916672 -0.0032555817160755396 0.01899348571896553
  endloop
 endfacet
 facet normal 0 0.22405904218744416 0.97457557203843614
  outer loop
   vertex 0.043131094425916672 -0.0036295277532190084 0.019262466579675674
   vertex 0.042659103870391846 -0.003344148863106966 0.019196856766939163
   vertex 0.042659103870391846 -0.0036295277532190084 0.019262466579675674
  endloop
 endfacet
 facet normal 0 0.22405904218744416 0.97457557203843614
  outer loop
   vertex 0.042659103870391846 -0.003344148863106966 0.019196856766939163
   vertex 0.043131094425916672 -0.0036295277532190084 0.019262466579675674
   vertex 0.043131094425916672 -0.003344148863106966 0.019196856766939163
  endloop
 endfacet
 facet normal 0 0 1
  outer loop
   vertex 0.043131094425916672 -0.0049744206480681896 0.019262466579675674
   vertex 0.042659103870391846 -0.0036295277532190084 0.019262466579675674
   vertex 0.042659103870391846 -0.0049744206480681896 0.019262466579675674
  endloop
 endfacet
 facet normal 0 -0 1
  outer loop
   vertex 0.042659103870391846 -0.0036295277532190084 0.019262466579675674
   vertex 0.043131094425916672 -0.0049744206480681896 0.019262466579675674
   vertex 0.043131094425916672 -0.0036295277532190084 0.019262466579675674
  endloop
 endfacet
 facet normal 0 -0.28956457842947841 0.95715847952100308
  outer loop
   vertex 0.043131094425916672 -0.0053647677414119244 0.019144376739859581
   vertex 0.042659103870391846 -0.0049744206480681896 0.019262466579675674
   vertex 0.042659103870391846 -0.0053647677414119244 0.019144376739859581
  endloop
 endfacet
 facet normal 0 -0.28956457842947841 0.95715847952100308
  outer loop
   vertex 0.042659103870391846 -0.0049744206480681896 0.019262466579675674
   vertex 0.043131094425916672 -0.0053647677414119244 0.019144376739859581
   vertex 0.043131094425916672 -0.0049744206480681896 0.019262466579675674
  endloop
 endfacet
 facet normal 0 -0.82564609744590389 0.56418837436830349
  outer loop
   vertex 0.043131094425916672 -0.0053647677414119244 0.019144376739859581
   vertex 0.042659103870391846 -0.0054656346328556538 0.018996765837073326
   vertex 0.043131094425916672 -0.0054656346328556538 0.018996765837073326
  endloop
 endfacet
 facet normal 0 -0.82564609744590389 0.56418837436830349
  outer loop
   vertex 0.042659103870391846 -0.0054656346328556538 0.018996765837073326
   vertex 0.043131094425916672 -0.0053647677414119244 0.019144376739859581
   vertex 0.042659103870391846 -0.0053647677414119244 0.019144376739859581
  endloop
 endfacet
 facet normal 0 -0.98702261214319575 0.16058132867186833
  outer loop
   vertex 0.043131094425916672 -0.0054656346328556538 0.018996765837073326
   vertex 0.042659103870391846 -0.0054992567747831345 0.018790105357766151
   vertex 0.043131094425916672 -0.0054992567747831345 0.018790105357766151
  endloop
 endfacet
 facet normal 0 -0.98702261214319575 0.16058132867186833
  outer loop
   vertex 0.042659103870391846 -0.0054992567747831345 0.018790105357766151
   vertex 0.043131094425916672 -0.0054656346328556538 0.018996765837073326
   vertex 0.042659103870391846 -0.0054656346328556538 0.018996765837073326
  endloop
 endfacet
 facet normal 0 -0.98346895201207174 -0.18107683570318209
  outer loop
   vertex 0.043131094425916672 -0.0054992567747831345 0.018790105357766151
   vertex 0.042659103870391846 -0.0054574338719248772 0.018562955781817436
   vertex 0.043131094425916672 -0.0054574338719248772 0.018562955781817436
  endloop
 endfacet
 facet normal -0 -0.98346895201207174 -0.18107683570318209
  outer loop
   vertex 0.042659103870391846 -0.0054574338719248772 0.018562955781817436
   vertex 0.043131094425916672 -0.0054992567747831345 0.018790105357766151
   vertex 0.042659103870391846 -0.0054992567747831345 0.018790105357766151
  endloop
 endfacet
 facet normal 0 -0.75284054617779028 -0.65820294137198021
  outer loop
   vertex 0.043131094425916672 -0.0054574338719248772 0.018562955781817436
   vertex 0.042659103870391846 -0.005331964697688818 0.018419446423649788
   vertex 0.043131094425916672 -0.005331964697688818 0.018419446423649788
  endloop
 endfacet
 facet normal -0 -0.75284054617779028 -0.65820294137198021
  outer loop
   vertex 0.042659103870391846 -0.005331964697688818 0.018419446423649788
   vertex 0.043131094425916672 -0.0054574338719248772 0.018562955781817436
   vertex 0.042659103870391846 -0.0054574338719248772 0.018562955781817436
  endloop
 endfacet
 facet normal 0 -0.2735707118550943 -0.96185189380439273
  outer loop
   vertex 0.043131094425916672 -0.0050638066604733467 0.018343176692724228
   vertex 0.042659103870391846 -0.005331964697688818 0.018419446423649788
   vertex 0.042659103870391846 -0.0050638066604733467 0.018343176692724228
  endloop
 endfacet
 facet normal 0 -0.2735707118550943 -0.96185189380439273
  outer loop
   vertex 0.042659103870391846 -0.005331964697688818 0.018419446423649788
   vertex 0.043131094425916672 -0.0050638066604733467 0.018343176692724228
   vertex 0.043131094425916672 -0.005331964697688818 0.018419446423649788
  endloop
 endfacet
 facet normal 0 -0.054021497964794322 -0.99853977274700467
  outer loop
   vertex 0.043131094425916672 -0.0045939148403704166 0.018317755311727524
   vertex 0.042659103870391846 -0.0050638066604733467 0.018343176692724228
   vertex 0.042659103870391846 -0.0045939148403704166 0.018317755311727524
  endloop
 endfacet
 facet normal 0 -0.054021497964794322 -0.99853977274700467
  outer loop
   vertex 0.042659103870391846 -0.0050638066604733467 0.018343176692724228
   vertex 0.043131094425916672 -0.0045939148403704166 0.018317755311727524
   vertex 0.043131094425916672 -0.0050638066604733467 0.018343176692724228
  endloop
 endfacet
 facet normal 0 0 -1
  outer loop
   vertex 0.043131094425916672 -0.0042462106794118881 0.018317755311727524
   vertex 0.042659103870391846 -0.0045939148403704166 0.018317755311727524
   vertex 0.042659103870391846 -0.0042462106794118881 0.018317755311727524
  endloop
 endfacet
 facet normal 0 -0 -1
  outer loop
   vertex 0.042659103870391846 -0.0045939148403704166 0.018317755311727524
   vertex 0.043131094425916672 -0.0042462106794118881 0.018317755311727524
   vertex 0.043131094425916672 -0.0045939148403704166 0.018317755311727524
  endloop
 endfacet
 facet normal 0 -1 0
  outer loop
   vertex 0.043131094425916672 -0.0042462106794118881 0.018317755311727524
   vertex 0.042659103870391846 -0.0042462106794118881 0.015805106610059738
   vertex 0.043131094425916672 -0.0042462106794118881 0.015805106610059738
  endloop
 endfacet
 facet normal -0 -1 0
  outer loop
   vertex 0.042659103870391846 -0.0042462106794118881 0.015805106610059738
   vertex 0.043131094425916672 -0.0042462106794118881 0.018317755311727524
   vertex 0.042659103870391846 -0.0042462106794118881 0.018317755311727524
  endloop
 endfacet
 facet normal 0 0.69377694472990181 0.7201899408914586
  outer loop
   vertex 0.043131094425916672 -0.0046709999442100525 0.016214316710829735
   vertex 0.042659103870391846 -0.0042462106794118881 0.015805106610059738
   vertex 0.042659103870391846 -0.0046709999442100525 0.016214316710829735
  endloop
 endfacet
 facet normal 0 0.69377694472990181 0.7201899408914586
  outer loop
   vertex 0.042659103870391846 -0.0042462106794118881 0.015805106610059738
   vertex 0.043131094425916672 -0.0046709999442100525 0.016214316710829735
   vertex 0.043131094425916672 -0.0042462106794118881 0.015805106610059738
  endloop
 endfacet
 facet normal 0 0.5092989054264373 0.8605896960407049
  outer loop
   vertex 0.043131094425916672 -0.0051712337881326675 0.016510356217622757
   vertex 0.042659103870391846 -0.0046709999442100525 0.016214316710829735
   vertex 0.042659103870391846 -0.0051712337881326675 0.016510356217622757
  endloop
 endfacet
 facet normal 0 0.5092989054264373 0.8605896960407049
  outer loop
   vertex 0.042659103870391846 -0.0046709999442100525 0.016214316710829735
   vertex 0.043131094425916672 -0.0051712337881326675 0.016510356217622757
   vertex 0.043131094425916672 -0.0046709999442100525 0.016214316710829735
  endloop
 endfacet
 facet normal 0 0.29935869715183966 0.95414064499923346
  outer loop
   vertex 0.043131094425916672 -0.0057436339557170868 0.016689945012331009
   vertex 0.042659103870391846 -0.0051712337881326675 0.016510356217622757
   vertex 0.042659103870391846 -0.0057436339557170868 0.016689945012331009
  endloop
 endfacet
 facet normal 0 0.29935869715183966 0.95414064499923346
  outer loop
   vertex 0.042659103870391846 -0.0051712337881326675 0.016510356217622757
   vertex 0.043131094425916672 -0.0057436339557170868 0.016689945012331009
   vertex 0.043131094425916672 -0.0051712337881326675 0.016510356217622757
  endloop
 endfacet
 facet normal 0 0.092942553821490248 0.99567147277058177
  outer loop
   vertex 0.043131094425916672 -0.006384918000549078 0.016749806702136993
   vertex 0.042659103870391846 -0.0057436339557170868 0.016689945012331009
   vertex 0.042659103870391846 -0.006384918000549078 0.016749806702136993
  endloop
 endfacet
 facet normal 0 0.092942553821490248 0.99567147277058177
  outer loop
   vertex 0.042659103870391846 -0.0057436339557170868 0.016689945012331009
   vertex 0.043131094425916672 -0.006384918000549078 0.016749806702136993
   vertex 0.043131094425916672 -0.0057436339557170868 0.016689945012331009
  endloop
 endfacet
 facet normal 0 -0.08795634302880953 0.99612433045328141
  outer loop
   vertex 0.043131094425916672 -0.0070233326405286789 0.016693435609340668
   vertex 0.042659103870391846 -0.006384918000549078 0.016749806702136993
   vertex 0.042659103870391846 -0.0070233326405286789 0.016693435609340668
  endloop
 endfacet
 facet normal 0 -0.08795634302880953 0.99612433045328141
  outer loop
   vertex 0.042659103870391846 -0.006384918000549078 0.016749806702136993
   vertex 0.043131094425916672 -0.0070233326405286789 0.016693435609340668
   vertex 0.043131094425916672 -0.006384918000549078 0.016749806702136993
  endloop
 endfacet
 facet normal 0 -0.27842265221805657 0.96045865435835565
  outer loop
   vertex 0.043131094425916672 -0.007606802973896265 0.016524296253919601
   vertex 0.042659103870391846 -0.0070233326405286789 0.016693435609340668
   vertex 0.042659103870391846 -0.007606802973896265 0.016524296253919601
  endloop
 endfacet
 facet normal 0 -0.27842265221805657 0.96045865435835565
  outer loop
   vertex 0.042659103870391846 -0.0070233326405286789 0.016693435609340668
   vertex 0.043131094425916672 -0.007606802973896265 0.016524296253919601
   vertex 0.043131094425916672 -0.0070233326405286789 0.016693435609340668
  endloop
 endfacet
 facet normal 0 -0.47060227680981936 0.88234545222458882
  outer loop
   vertex 0.043131094425916672 -0.0081353280693292618 0.016242405399680138
   vertex 0.042659103870391846 -0.007606802973896265 0.016524296253919601
   vertex 0.042659103870391846 -0.0081353280693292618 0.016242405399680138
  endloop
 endfacet
 facet normal 0 -0.47060227680981936 0.88234545222458882
  outer loop
   vertex 0.042659103870391846 -0.007606802973896265 0.016524296253919601
   vertex 0.043131094425916672 -0.0081353280693292618 0.016242405399680138
   vertex 0.043131094425916672 -0.007606802973896265 0.016524296253919601
  endloop
 endfacet
 facet normal 0 -0.64019064069845333 0.76821607869277497
  outer loop
   vertex 0.043131094425916672 -0.0086089111864566803 0.015847746282815933
   vertex 0.042659103870391846 -0.0081353280693292618 0.016242405399680138
   vertex 0.042659103870391846 -0.0086089111864566803 0.015847746282815933
  endloop
 endfacet
 facet normal 0 -0.64019064069845333 0.76821607869277497
  outer loop
   vertex 0.042659103870391846 -0.0081353280693292618 0.016242405399680138
   vertex 0.043131094425916672 -0.0086089111864566803 0.015847746282815933
   vertex 0.043131094425916672 -0.0081353280693292618 0.016242405399680138
  endloop
 endfacet
 facet normal 0 -0.77553629604441809 0.63130298076098501
  outer loop
   vertex 0.043131094425916672 -0.0086089111864566803 0.015847746282815933
   vertex 0.042659103870391846 -0.0089992592111229897 0.01536821573972702
   vertex 0.043131094425916672 -0.0089992592111229897 0.01536821573972702
  endloop
 endfacet
 facet normal 0 -0.77553629604441809 0.63130298076098501
  outer loop
   vertex 0.042659103870391846 -0.0089992592111229897 0.01536821573972702
   vertex 0.043131094425916672 -0.0086089111864566803 0.015847746282815933
   vertex 0.042659103870391846 -0.0086089111864566803 0.015847746282815933
  endloop
 endfacet
 facet normal 0 -0.8873332080056634 0.46112880843683818
  outer loop
   vertex 0.043131094425916672 -0.0089992592111229897 0.01536821573972702
   vertex 0.042659103870391846 -0.009278077632188797 0.014831695705652237
   vertex 0.043131105601787567 -0.009278077632188797 0.014831695705652237
  endloop
 endfacet
 facet normal 0 -0.88733320800566329 0.46112880843683818
  outer loop
   vertex 0.042659103870391846 -0.009278077632188797 0.014831695705652237
   vertex 0.043131094425916672 -0.0089992592111229897 0.01536821573972702
   vertex 0.042659103870391846 -0.0089992592111229897 0.01536821573972702
  endloop
 endfacet
 facet normal 0 -0.96249563795808801 0.27129715610682881
  outer loop
   vertex 0.043131105601787567 -0.009278077632188797 0.014831695705652237
   vertex 0.042659103870391846 -0.0094453692436218262 0.014238186180591583
   vertex 0.043131105601787567 -0.0094453692436218262 0.014238186180591583
  endloop
 endfacet
 facet normal 0 -0.96249563795808801 0.27129715610682881
  outer loop
   vertex 0.042659103870391846 -0.0094453692436218262 0.014238186180591583
   vertex 0.043131105601787567 -0.009278077632188797 0.014831695705652237
   vertex 0.042659103870391846 -0.009278077632188797 0.014831695705652237
  endloop
 endfacet
 facet normal 0 -0.99634600745843171 0.085408626154755474
  outer loop
   vertex 0.043131105601787567 -0.0094453692436218262 0.014238186180591583
   vertex 0.042659103870391846 -0.0095011321827769279 0.013587675988674164
   vertex 0.043131105601787567 -0.0095011321827769279 0.013587675988674164
  endloop
 endfacet
 facet normal 0 -0.99634600745843171 0.085408626154755474
  outer loop
   vertex 0.042659103870391846 -0.0095011321827769279 0.013587675988674164
   vertex 0.043131105601787567 -0.0094453692436218262 0.014238186180591583
   vertex 0.042659103870391846 -0.0094453692436218262 0.014238186180591583
  endloop
 endfacet
 facet normal 0 -0.99656599352110586 -0.082802298019384948
  outer loop
   vertex 0.043131105601787567 -0.0095011321827769279 0.013587675988674164
   vertex 0.042659103870391846 -0.0094488542526960373 0.012958485633134842
   vertex 0.043131105601787567 -0.0094488542526960373 0.012958485633134842
  endloop
 endfacet
 facet normal -0 -0.99656599352110586 -0.082802298019384948
  outer loop
   vertex 0.042659103870391846 -0.0094488542526960373 0.012958485633134842
   vertex 0.043131105601787567 -0.0095011321827769279 0.013587675988674164
   vertex 0.042659103870391846 -0.0095011321827769279 0.013587675988674164
  endloop
 endfacet
 facet normal 0 -0.96481208811049435 -0.26294036326868392
  outer loop
   vertex 0.043131105601787567 -0.0094488542526960373 0.012958485633134842
   vertex 0.042659103870391846 -0.0092920185998082161 0.012383005581796169
   vertex 0.043131105601787567 -0.0092920185998082161 0.012383005581796169
  endloop
 endfacet
 facet normal -0 -0.96481208811049435 -0.26294036326868392
  outer loop
   vertex 0.042659103870391846 -0.0092920185998082161 0.012383005581796169
   vertex 0.043131105601787567 -0.0094488542526960373 0.012958485633134842
   vertex 0.042659103870391846 -0.0094488542526960373 0.012958485633134842
  endloop
 endfacet
 facet normal 0 -0.8940719769803348 -0.44792331930641421
  outer loop
   vertex 0.043131105601787567 -0.0092920185998082161 0.012383005581796169
   vertex 0.042659103870391846 -0.009030626155436039 0.011861256323754787
   vertex 0.043131105601787567 -0.009030626155436039 0.011861256323754787
  endloop
 endfacet
 facet normal -0 -0.8940719769803348 -0.44792331930641421
  outer loop
   vertex 0.042659103870391846 -0.009030626155436039 0.011861256323754787
   vertex 0.043131105601787567 -0.0092920185998082161 0.012383005581796169
   vertex 0.042659103870391846 -0.0092920185998082161 0.012383005581796169
  endloop
 endfacet
 facet normal 0 -0.78779001764693768 -0.61594390012065048
  outer loop
   vertex 0.043131105601787567 -0.009030626155436039 0.011861256323754787
   vertex 0.042659103870391846 -0.0086646750569343567 0.011393206194043159
   vertex 0.043131105601787567 -0.0086646750569343567 0.011393206194043159
  endloop
 endfacet
 facet normal -0 -0.78779001764693768 -0.61594390012065048
  outer loop
   vertex 0.042659103870391846 -0.0086646750569343567 0.011393206194043159
   vertex 0.043131105601787567 -0.009030626155436039 0.011861256323754787
   vertex 0.042659103870391846 -0.009030626155436039 0.011861256323754787
  endloop
 endfacet
 facet normal 0 -0.65660819226437006 -0.75423184887096639
  outer loop
   vertex 0.043131105601787567 -0.0082212276756763458 0.011007156223058701
   vertex 0.042659103870391846 -0.0086646750569343567 0.011393206194043159
   vertex 0.042659103870391846 -0.0082212276756763458 0.011007156223058701
  endloop
 endfacet
 facet normal 0 -0.65660819226437006 -0.75423184887096639
  outer loop
   vertex 0.042659103870391846 -0.0086646750569343567 0.011393206194043159
   vertex 0.043131105601787567 -0.0082212276756763458 0.011007156223058701
   vertex 0.043131105601787567 -0.0086646750569343567 0.011393206194043159
  endloop
 endfacet
 facet normal 0 -0.48748521452347537 -0.87313124192242786
  outer loop
   vertex 0.043131105601787567 -0.007727351039648056 0.010731415823101997
   vertex 0.042659103870391846 -0.0082212276756763458 0.011007156223058701
   vertex 0.042659103870391846 -0.007727351039648056 0.010731415823101997
  endloop
 endfacet
 facet normal 0 -0.48748521452347537 -0.87313124192242786
  outer loop
   vertex 0.042659103870391846 -0.0082212276756763458 0.011007156223058701
   vertex 0.043131105601787567 -0.007727351039648056 0.010731415823101997
   vertex 0.043131105601787567 -0.0082212276756763458 0.011007156223058701
  endloop
 endfacet
 facet normal 0 0.77089353009879735 0.63696402194457946
  outer loop
   vertex 0.042659103870391846 -0.0080443024635314941 0.012446976266801357
   vertex 0.043131105601787567 -0.007788853719830513 0.012137816287577152
   vertex 0.042659103870391846 -0.007788853719830513 0.012137816287577152
  endloop
 endfacet
 facet normal -0 0.77089353009879735 0.63696402194457946
  outer loop
   vertex 0.043131105601787567 -0.007788853719830513 0.012137816287577152
   vertex 0.042659103870391846 -0.0080443024635314941 0.012446976266801357
   vertex 0.043131105601787567 -0.0080443024635314941 0.012446976266801357
  endloop
 endfacet
 facet normal 0 0.99645361657468434 0.084143864988673378
  outer loop
   vertex 0.042659103870391846 -0.0083727352321147919 0.013620476238429546
   vertex 0.043131105601787567 -0.0083362413570284843 0.013188306242227554
   vertex 0.042659103870391846 -0.0083362413570284843 0.013188306242227554
  endloop
 endfacet
 facet normal -0 0.99645361657468434 0.084143864988673378
  outer loop
   vertex 0.043131105601787567 -0.0083362413570284843 0.013188306242227554
   vertex 0.042659103870391846 -0.0083727352321147919 0.013620476238429546
   vertex 0.043131105601787567 -0.0083727352321147919 0.013620476238429546
  endloop
 endfacet
 facet normal 0 0.94134085490606356 -0.33745724897343909
  outer loop
   vertex 0.042659103870391846 -0.0023502397816628218 0.011147186160087585
   vertex 0.043131105601787567 -0.002474888926371932 0.010799475945532322
   vertex 0.042659103870391846 -0.002474888926371932 0.010799475945532322
  endloop
 endfacet
 facet normal 0 0.94134085490606356 -0.33745724897343909
  outer loop
   vertex 0.043131105601787567 -0.002474888926371932 0.010799475945532322
   vertex 0.042659103870391846 -0.0023502397816628218 0.011147186160087585
   vertex 0.043131105601787567 -0.0023502397816628218 0.011147186160087585
  endloop
 endfacet
 facet normal 0 0.79158967408235004 0.6110530156101015
  outer loop
   vertex 0.042659103870391846 -0.00249456986784935 0.011491606011986732
   vertex 0.043131105601787567 -0.0023863217793405056 0.011351375840604305
   vertex 0.042659103870391846 -0.0023863217793405056 0.011351375840604305
  endloop
 endfacet
 facet normal -0 0.79158967408235004 0.6110530156101015
  outer loop
   vertex 0.043131105601787567 -0.0023863217793405056 0.011351375840604305
   vertex 0.042659103870391846 -0.00249456986784935 0.011491606011986732
   vertex 0.043131105601787567 -0.00249456986784935 0.011491606011986732
  endloop
 endfacet
 facet normal 0 0.91683094417301225 0.39927561884846297
  outer loop
   vertex 0.042659103870391846 -0.003344148863106966 0.019196856766939163
   vertex 0.043131094425916672 -0.0032555817160755396 0.01899348571896553
   vertex 0.042659103870391846 -0.0032555817160755396 0.01899348571896553
  endloop
 endfacet
 facet normal -0 0.91683094417301225 0.39927561884846297
  outer loop
   vertex 0.043131094425916672 -0.0032555817160755396 0.01899348571896553
   vertex 0.042659103870391846 -0.003344148863106966 0.019196856766939163
   vertex 0.043131094425916672 -0.003344148863106966 0.019196856766939163
  endloop
 endfacet
 facet normal 0 -0.29080741582106095 -0.95678160878200236
  outer loop
   vertex 0.043131105601787567 -0.007183038629591465 0.010565975680947304
   vertex 0.042659103870391846 -0.007727351039648056 0.010731415823101997
   vertex 0.042659103870391846 -0.007183038629591465 0.010565975680947304
  endloop
 endfacet
 facet normal 0 -0.29080741582106095 -0.95678160878200236
  outer loop
   vertex 0.042659103870391846 -0.007727351039648056 0.010731415823101997
   vertex 0.043131105601787567 -0.007183038629591465 0.010565975680947304
   vertex 0.043131105601787567 -0.007727351039648056 0.010731415823101997
  endloop
 endfacet
 facet normal 0 -0.092332637622467337 -0.99572821795391431
  outer loop
   vertex 0.043131105601787567 -0.0065882918424904346 0.010510825552046299
   vertex 0.042659103870391846 -0.007183038629591465 0.010565975680947304
   vertex 0.042659103870391846 -0.0065882918424904346 0.010510825552046299
  endloop
 endfacet
 facet normal 0 -0.092332637622467337 -0.99572821795391431
  outer loop
   vertex 0.042659103870391846 -0.007183038629591465 0.010565975680947304
   vertex 0.043131105601787567 -0.0065882918424904346 0.010510825552046299
   vertex 0.043131105601787567 -0.007183038629591465 0.010565975680947304
  endloop
 endfacet
 facet normal 0 0.1019286019594442 -0.9947917169451066
  outer loop
   vertex 0.043131105601787567 -0.0059240460395812988 0.010578885674476624
   vertex 0.042659103870391846 -0.0065882918424904346 0.010510825552046299
   vertex 0.042659103870391846 -0.0059240460395812988 0.010578885674476624
  endloop
 endfacet
 facet normal 0 0.1019286019594442 -0.9947917169451066
  outer loop
   vertex 0.042659103870391846 -0.0065882918424904346 0.010510825552046299
   vertex 0.043131105601787567 -0.0059240460395812988 0.010578885674476624
   vertex 0.043131105601787567 -0.0065882918424904346 0.010510825552046299
  endloop
 endfacet
 facet normal 0 0.31509689860592077 -0.94905950524133642
  outer loop
   vertex 0.043131105601787567 -0.005309003870934248 0.010783085599541664
   vertex 0.042659103870391846 -0.0059240460395812988 0.010578885674476624
   vertex 0.042659103870391846 -0.005309003870934248 0.010783085599541664
  endloop
 endfacet
 facet normal 0 0.31509689860592077 -0.94905950524133642
  outer loop
   vertex 0.042659103870391846 -0.0059240460395812988 0.010578885674476624
   vertex 0.043131105601787567 -0.005309003870934248 0.010783085599541664
   vertex 0.043131105601787567 -0.0059240460395812988 0.010578885674476624
  endloop
 endfacet
 facet normal 0 0.51735029989480841 -0.8557737242979313
  outer loop
   vertex 0.043131105601787567 -0.0047677657566964626 0.011110286228358746
   vertex 0.042659103870391846 -0.005309003870934248 0.010783085599541664
   vertex 0.042659103870391846 -0.0047677657566964626 0.011110286228358746
  endloop
 endfacet
 facet normal 0 0.51735029989480841 -0.8557737242979313
  outer loop
   vertex 0.042659103870391846 -0.005309003870934248 0.010783085599541664
   vertex 0.043131105601787567 -0.0047677657566964626 0.011110286228358746
   vertex 0.043131105601787567 -0.005309003870934248 0.010783085599541664
  endloop
 endfacet
 facet normal 0 0.70247860253400007 -0.71170486367726782
  outer loop
   vertex 0.043131105601787567 -0.0043249358423054218 0.011547375470399857
   vertex 0.042659103870391846 -0.0047677657566964626 0.011110286228358746
   vertex 0.042659103870391846 -0.0043249358423054218 0.011547375470399857
  endloop
 endfacet
 facet normal 0 0.70247860253400007 -0.71170486367726782
  outer loop
   vertex 0.042659103870391846 -0.0047677657566964626 0.011110286228358746
   vertex 0.043131105601787567 -0.0043249358423054218 0.011547375470399857
   vertex 0.043131105601787567 -0.0047677657566964626 0.011110286228358746
  endloop
 endfacet
 facet normal 0 -1 0
  outer loop
   vertex 0.043131105601787567 -0.0043249358423054218 0.011547375470399857
   vertex 0.042659103870391846 -0.0043249358423054218 0.011009415611624718
   vertex 0.043131105601787567 -0.0043249358423054218 0.011009415611624718
  endloop
 endfacet
 facet normal -0 -1 0
  outer loop
   vertex 0.042659103870391846 -0.0043249358423054218 0.011009415611624718
   vertex 0.043131105601787567 -0.0043249358423054218 0.011547375470399857
   vertex 0.042659103870391846 -0.0043249358423054218 0.011547375470399857
  endloop
 endfacet
 facet normal 0 -0.97867800403133254 -0.20540049762658064
  outer loop
   vertex 0.043131105601787567 -0.0043249358423054218 0.011009415611624718
   vertex 0.042659103870391846 -0.0042691719718277454 0.010743715800344944
   vertex 0.043131105601787567 -0.0042691719718277454 0.010743715800344944
  endloop
 endfacet
 facet normal -0 -0.97867800403133254 -0.20540049762658064
  outer loop
   vertex 0.042659103870391846 -0.0042691719718277454 0.010743715800344944
   vertex 0.043131105601787567 -0.0043249358423054218 0.011009415611624718
   vertex 0.042659103870391846 -0.0043249358423054218 0.011009415611624718
  endloop
 endfacet
 facet normal 0 -0.3353032844042973 -0.94211024167434387
  outer loop
   vertex 0.043131105601787567 -0.0040756389498710632 0.010674836114048958
   vertex 0.042659103870391846 -0.0042691719718277454 0.010743715800344944
   vertex 0.042659103870391846 -0.0040756389498710632 0.010674836114048958
  endloop
 endfacet
 facet normal 0 -0.3353032844042973 -0.94211024167434387
  outer loop
   vertex 0.042659103870391846 -0.0042691719718277454 0.010743715800344944
   vertex 0.043131105601787567 -0.0040756389498710632 0.010674836114048958
   vertex 0.043131105601787567 -0.0042691719718277454 0.010743715800344944
  endloop
 endfacet
 facet normal 1 0 0
  outer loop
   vertex 0.043131105601787567 -0.0042691719718277454 0.010743715800344944
   vertex 0.043131105601787567 -0.0043249358423054218 0.011547375470399857
   vertex 0.043131105601787567 -0.0043249358423054218 0.011009415611624718
  endloop
 endfacet
 facet normal 0.99999999997340128 -4.6693330682250139e-06 5.6031071242603845e-06
  outer loop
   vertex 0.043131094425916672 -0.0086089111864566803 0.015847746282815933
   vertex 0.043131105601787567 -0.0083370627835392952 0.014079705812036991
   vertex 0.043131094425916672 -0.0081353280693292618 0.016242405399680138
  endloop
 endfacet
 facet normal 0.99999999962476782 -2.7312323830337442e-05 2.1215912983597753e-06
  outer loop
   vertex 0.043131105601787567 -0.0083370627835392952 0.014079705812036991
   vertex 0.043131094425916672 -0.0086089111864566803 0.015847746282815933
   vertex 0.043131105601787567 -0.0083727352321147919 0.013620476238429546
  endloop
 endfacet
 facet normal 0.99999999948079876 -3.1195474041365273e-05 8.0774422068494046e-06
  outer loop
   vertex 0.043131094425916672 -0.0081353280693292618 0.016242405399680138
   vertex 0.043131105601787567 -0.0083370627835392952 0.014079705812036991
   vertex 0.043131105601787567 -0.0082300445064902306 0.014493015594780445
  endloop
 endfacet
 facet normal 0.99999999844233822 5.5713134060107836e-05 3.3719879355710078e-06
  outer loop
   vertex 0.043131094425916672 -0.0081353280693292618 0.016242405399680138
   vertex 0.043131105601787567 -0.0082300445064902306 0.014493015594780445
   vertex 0.043131094425916672 -0.0080516831949353218 0.014860396273434162
  endloop
 endfacet
 facet normal 1 0 -0
  outer loop
   vertex 0.043131094425916672 -0.0081353280693292618 0.016242405399680138
   vertex 0.043131094425916672 -0.0080516831949353218 0.014860396273434162
   vertex 0.043131094425916672 -0.007606802973896265 0.016524296253919601
  endloop
 endfacet
 facet normal 1 0 0
  outer loop
   vertex 0.043131094425916672 -0.007606802973896265 0.016524296253919601
   vertex 0.043131094425916672 -0.0080516831949353218 0.014860396273434162
   vertex 0.043131094425916672 -0.0078019746579229832 0.01518186554312706
  endloop
 endfacet
 facet normal 1 0 0
  outer loop
   vertex 0.043131094425916672 -0.007606802973896265 0.016524296253919601
   vertex 0.043131094425916672 -0.0078019746579229832 0.01518186554312706
   vertex 0.043131094425916672 -0.0074944538064301014 0.015443045645952225
  endloop
 endfacet
 facet normal 1 0 -0
  outer loop
   vertex 0.043131094425916672 -0.007606802973896265 0.016524296253919601
   vertex 0.043131094425916672 -0.0074944538064301014 0.015443045645952225
   vertex 0.043131094425916672 -0.0070233326405286789 0.016693435609340668
  endloop
 endfacet
 facet normal 1 0 0
  outer loop
   vertex 0.043131094425916672 -0.0070233326405286789 0.016693435609340668
   vertex 0.043131094425916672 -0.0074944538064301014 0.015443045645952225
   vertex 0.043131094425916672 -0.0071426508948206902 0.015629615634679794
  endloop
 endfacet
 facet normal 1 0 0
  outer loop
   vertex 0.043131094425916672 -0.0070233326405286789 0.016693435609340668
   vertex 0.043131094425916672 -0.0071426508948206902 0.015629615634679794
   vertex 0.043131094425916672 -0.0067465635947883129 0.015741545706987381
  endloop
 endfacet
 facet normal 1 0 -0
  outer loop
   vertex 0.043131094425916672 -0.0070233326405286789 0.016693435609340668
   vertex 0.043131094425916672 -0.0067465635947883129 0.015741545706987381
   vertex 0.043131094425916672 -0.006384918000549078 0.016749806702136993
  endloop
 endfacet
 facet normal 1 0 0
  outer loop
   vertex 0.043131094425916672 -0.006384918000549078 0.016749806702136993
   vertex 0.043131094425916672 -0.0067465635947883129 0.015741545706987381
   vertex 0.043131094425916672 -0.0063061928376555443 0.015778865665197372
  endloop
 endfacet
 facet normal 1 0 -0
  outer loop
   vertex 0.043131094425916672 -0.006384918000549078 0.016749806702136993
   vertex 0.043131094425916672 -0.0063061928376555443 0.015778865665197372
   vertex 0.043131094425916672 -0.0057436339557170868 0.016689945012331009
  endloop
 endfacet
 facet normal 1 -0 0
  outer loop
   vertex 0.043131094425916672 -0.0057436339557170868 0.016689945012331009
   vertex 0.043131094425916672 -0.0063061928376555443 0.015778865665197372
   vertex 0.043131094425916672 -0.0058709457516670227 0.015741966664791107
  endloop
 endfacet
 facet normal 1 -0 0
  outer loop
   vertex 0.043131094425916672 -0.0057436339557170868 0.016689945012331009
   vertex 0.043131094425916672 -0.0058709457516670227 0.015741966664791107
   vertex 0.043131094425916672 -0.0054771150462329388 0.015631256625056267
  endloop
 endfacet
 facet normal 1 0 -0
  outer loop
   vertex 0.043131094425916672 -0.0057436339557170868 0.016689945012331009
   vertex 0.043131094425916672 -0.0054771150462329388 0.015631256625056267
   vertex 0.043131094425916672 -0.0051712337881326675 0.016510356217622757
  endloop
 endfacet
 facet normal 1 -0 0
  outer loop
   vertex 0.043131094425916672 -0.0051712337881326675 0.016510356217622757
   vertex 0.043131094425916672 -0.0054771150462329388 0.015631256625056267
   vertex 0.043131094425916672 -0.005124696996062994 0.015446745790541172
  endloop
 endfacet
 facet normal 1 0 -0
  outer loop
   vertex 0.043131094425916672 -0.0051712337881326675 0.016510356217622757
   vertex 0.043131094425916672 -0.005124696996062994 0.015446745790541172
   vertex 0.043131094425916672 -0.0046709999442100525 0.016214316710829735
  endloop
 endfacet
 facet normal 1 -0 0
  outer loop
   vertex 0.043131094425916672 -0.0046709999442100525 0.016214316710829735
   vertex 0.043131094425916672 -0.005124696996062994 0.015446745790541172
   vertex 0.043131094425916672 -0.0048136897385120392 0.015188425779342651
  endloop
 endfacet
 facet normal 1 -0 0
  outer loop
   vertex 0.043131094425916672 -0.0046709999442100525 0.016214316710829735
   vertex 0.043131094425916672 -0.0048136897385120392 0.015188425779342651
   vertex 0.043131094425916672 -0.0045596756972372532 0.01487311627715826
  endloop
 endfacet
 facet normal 1 0 -0
  outer loop
   vertex 0.043131094425916672 -0.0046709999442100525 0.016214316710829735
   vertex 0.043131094425916672 -0.0045596756972372532 0.01487311627715826
   vertex 0.043131094425916672 -0.0042462106794118881 0.015805106610059738
  endloop
 endfacet
 facet normal 1 -0 0
  outer loop
   vertex 0.043131094425916672 -0.0042462106794118881 0.015805106610059738
   vertex 0.043131094425916672 -0.0045596756972372532 0.01487311627715826
   vertex 0.043131094425916672 -0.0043782386928796768 0.014517615549266338
  endloop
 endfacet
 facet normal 1 -0 0
  outer loop
   vertex 0.043131094425916672 -0.0042462106794118881 0.015805106610059738
   vertex 0.043131094425916672 -0.0043782386928796768 0.014517615549266338
   vertex 0.043131094425916672 -0.0042693768627941608 0.014121935702860355
  endloop
 endfacet
 facet normal 1 -0 0
  outer loop
   vertex 0.043131094425916672 -0.0042462106794118881 0.015805106610059738
   vertex 0.043131094425916672 -0.0042693768627941608 0.014121935702860355
   vertex 0.043131094425916672 -0.004233089741319418 0.013686075806617737
  endloop
 endfacet
 facet normal 1 0 0
  outer loop
   vertex 0.043131094425916672 -0.0042462106794118881 0.015805106610059738
   vertex 0.043131094425916672 -0.004233089741319418 0.013686075806617737
   vertex 0.043131094425916672 -0.0042462106794118881 0.018317755311727524
  endloop
 endfacet
 facet normal 1 0 0
  outer loop
   vertex 0.043131105601787567 -0.0094488542526960373 0.012958485633134842
   vertex 0.043131105601787567 -0.0094453692436218262 0.014238186180591583
   vertex 0.043131105601787567 -0.0095011321827769279 0.013587675988674164
  endloop
 endfacet
 facet normal 1 -0 0
  outer loop
   vertex 0.043131105601787567 -0.0094453692436218262 0.014238186180591583
   vertex 0.043131105601787567 -0.0094488542526960373 0.012958485633134842
   vertex 0.043131105601787567 -0.0092920185998082161 0.012383005581796169
  endloop
 endfacet
 facet normal 1 0 -0
  outer loop
   vertex 0.043131105601787567 -0.0094453692436218262 0.014238186180591583
   vertex 0.043131105601787567 -0.0092920185998082161 0.012383005581796169
   vertex 0.043131105601787567 -0.009278077632188797 0.014831695705652237
  endloop
 endfacet
 facet normal 1 -0 0
  outer loop
   vertex 0.043131105601787567 -0.009278077632188797 0.014831695705652237
   vertex 0.043131105601787567 -0.0092920185998082161 0.012383005581796169
   vertex 0.043131105601787567 -0.009030626155436039 0.011861256323754787
  endloop
 endfacet
 facet normal 0.99999999939916862 3.4545348383922936e-05 2.8777888970350825e-06
  outer loop
   vertex 0.043131105601787567 -0.009278077632188797 0.014831695705652237
   vertex 0.043131105601787567 -0.009030626155436039 0.011861256323754787
   vertex 0.043131094425916672 -0.0089992592111229897 0.01536821573972702
  endloop
 endfacet
 facet normal 0.99999999998691691 4.0297675767970877e-06 3.1507263385311695e-06
  outer loop
   vertex 0.043131094425916672 -0.0089992592111229897 0.01536821573972702
   vertex 0.043131105601787567 -0.009030626155436039 0.011861256323754787
   vertex 0.043131105601787567 -0.0086646750569343567 0.011393206194043159
  endloop
 endfacet
 facet normal 0.99999999999185463 -3.1302100636998871e-06 2.5480573297482286e-06
  outer loop
   vertex 0.043131094425916672 -0.0089992592111229897 0.01536821573972702
   vertex 0.043131105601787567 -0.0086646750569343567 0.011393206194043159
   vertex 0.043131094425916672 -0.0086089111864566803 0.015847746282815933
  endloop
 endfacet
 facet normal 0.99999999999458622 2.1605909188739999e-06 2.4818247816500547e-06
  outer loop
   vertex 0.043131094425916672 -0.0086089111864566803 0.015847746282815933
   vertex 0.043131105601787567 -0.0086646750569343567 0.011393206194043159
   vertex 0.043131105601787567 -0.0082212276756763458 0.011007156223058701
  endloop
 endfacet
 facet normal 0.99999999453211763 -0.000104398905483043 -6.0525396704389352e-06
  outer loop
   vertex 0.043131094425916672 -0.0086089111864566803 0.015847746282815933
   vertex 0.043131105601787567 -0.0082212276756763458 0.011007156223058701
   vertex 0.043131105601787567 -0.0083727352321147919 0.013620476238429546
  endloop
 endfacet
 facet normal 1 0 0
  outer loop
   vertex 0.043131105601787567 -0.0083727352321147919 0.013620476238429546
   vertex 0.043131105601787567 -0.0082212276756763458 0.011007156223058701
   vertex 0.043131105601787567 -0.0083362413570284843 0.013188306242227554
  endloop
 endfacet
 facet normal 1 0 0
  outer loop
   vertex 0.043131105601787567 -0.0083362413570284843 0.013188306242227554
   vertex 0.043131105601787567 -0.0082212276756763458 0.011007156223058701
   vertex 0.043131105601787567 -0.0082267643883824348 0.012797135859727859
  endloop
 endfacet
 facet normal 1 0 -0
  outer loop
   vertex 0.043131105601787567 -0.0082267643883824348 0.012797135859727859
   vertex 0.043131105601787567 -0.0082212276756763458 0.011007156223058701
   vertex 0.043131105601787567 -0.0080443024635314941 0.012446976266801357
  endloop
 endfacet
 facet normal 1 -0 0
  outer loop
   vertex 0.043131105601787567 -0.0080443024635314941 0.012446976266801357
   vertex 0.043131105601787567 -0.0082212276756763458 0.011007156223058701
   vertex 0.043131105601787567 -0.007727351039648056 0.010731415823101997
  endloop
 endfacet
 facet normal 1 0 0
  outer loop
   vertex 0.043131105601787567 -0.0080443024635314941 0.012446976266801357
   vertex 0.043131105601787567 -0.007727351039648056 0.010731415823101997
   vertex 0.043131105601787567 -0.007788853719830513 0.012137816287577152
  endloop
 endfacet
 facet normal 1 0 -0
  outer loop
   vertex 0.043131105601787567 -0.007788853719830513 0.012137816287577152
   vertex 0.043131105601787567 -0.007727351039648056 0.010731415823101997
   vertex 0.043131105601787567 -0.007477231789380312 0.011885236017405987
  endloop
 endfacet
 facet normal 1 -0 0
  outer loop
   vertex 0.043131105601787567 -0.007477231789380312 0.011885236017405987
   vertex 0.043131105601787567 -0.007727351039648056 0.010731415823101997
   vertex 0.043131105601787567 -0.007183038629591465 0.010565975680947304
  endloop
 endfacet
 facet normal 1 0 -0
  outer loop
   vertex 0.043131105601787567 -0.007477231789380312 0.011885236017405987
   vertex 0.043131105601787567 -0.007183038629591465 0.010565975680947304
   vertex 0.043131105601787567 -0.0071262489072978497 0.011704825796186924
  endloop
 endfacet
 facet normal 1 -0 0
  outer loop
   vertex 0.043131105601787567 -0.0071262489072978497 0.011704825796186924
   vertex 0.043131105601787567 -0.007183038629591465 0.010565975680947304
   vertex 0.043131105601787567 -0.0065882918424904346 0.010510825552046299
  endloop
 endfacet
 facet normal 1 0 0
  outer loop
   vertex 0.043131105601787567 -0.0071262489072978497 0.011704825796186924
   vertex 0.043131105601787567 -0.0065882918424904346 0.010510825552046299
   vertex 0.043131105601787567 -0.0067359027452766895 0.011596576310694218
  endloop
 endfacet
 facet normal 1 0 -0
  outer loop
   vertex 0.043131105601787567 -0.0067359027452766895 0.011596576310694218
   vertex 0.043131105601787567 -0.0065882918424904346 0.010510825552046299
   vertex 0.043131105601787567 -0.0063061928376555443 0.011560495942831039
  endloop
 endfacet
 facet normal 1 0 0
  outer loop
   vertex 0.043131105601787567 -0.0063061928376555443 0.011560495942831039
   vertex 0.043131105601787567 -0.0065882918424904346 0.010510825552046299
   vertex 0.043131105601787567 -0.0059240460395812988 0.010578885674476624
  endloop
 endfacet
 facet normal 1 0 -0
  outer loop
   vertex 0.043131105601787567 -0.0063061928376555443 0.011560495942831039
   vertex 0.043131105601787567 -0.0059240460395812988 0.010578885674476624
   vertex 0.043131105601787567 -0.0058736116625368595 0.011598005890846252
  endloop
 endfacet
 facet normal 1 0 0
  outer loop
   vertex 0.043131105601787567 -0.0058736116625368595 0.011598005890846252
   vertex 0.043131105601787567 -0.0059240460395812988 0.010578885674476624
   vertex 0.043131105601787567 -0.005309003870934248 0.010783085599541664
  endloop
 endfacet
 facet normal 1 0 -0
  outer loop
   vertex 0.043131105601787567 -0.0058736116625368595 0.011598005890846252
   vertex 0.043131105601787567 -0.005309003870934248 0.010783085599541664
   vertex 0.043131105601787567 -0.0043249358423054218 0.011547375470399857
  endloop
 endfacet
 facet normal 1 0 -0
  outer loop
   vertex 0.043131105601787567 -0.0058736116625368595 0.011598005890846252
   vertex 0.043131105601787567 -0.0043249358423054218 0.011547375470399857
   vertex 0.043131105601787567 -0.0032555817160755396 0.011599855497479439
  endloop
 endfacet
 facet normal 1 0 0
  outer loop
   vertex 0.043131105601787567 -0.0043249358423054218 0.011547375470399857
   vertex 0.043131105601787567 -0.005309003870934248 0.010783085599541664
   vertex 0.043131105601787567 -0.0047677657566964626 0.011110286228358746
  endloop
 endfacet
 facet normal 1 -0 0
  outer loop
   vertex 0.043131105601787567 -0.0032555817160755396 0.011599855497479439
   vertex 0.043131105601787567 -0.0043249358423054218 0.011547375470399857
   vertex 0.043131105601787567 -0.0042691719718277454 0.010743715800344944
  endloop
 endfacet
 facet normal 1 -0 0
  outer loop
   vertex 0.043131105601787567 -0.0032555817160755396 0.011599855497479439
   vertex 0.043131105601787567 -0.0042691719718277454 0.010743715800344944
   vertex 0.043131105601787567 -0.0040756389498710632 0.010674836114048958
  endloop
 endfacet
 facet normal 1 0 0
  outer loop
   vertex 0.043131105601787567 -0.0032555817160755396 0.011599855497479439
   vertex 0.043131105601787567 -0.0040756389498710632 0.010674836114048958
   vertex 0.043131105601787567 -0.0028094719164073467 0.010674836114048958
  endloop
 endfacet
 facet normal 1 0 0
  outer loop
   vertex 0.043131105601787567 -0.0032555817160755396 0.011599855497479439
   vertex 0.043131105601787567 -0.0028094719164073467 0.010674836114048958
   vertex 0.043131105601787567 -0.0029603617731481791 0.011599855497479439
  endloop
 endfacet
 facet normal 1 0 -0
  outer loop
   vertex 0.043131105601787567 -0.0029603617731481791 0.011599855497479439
   vertex 0.043131105601787567 -0.0028094719164073467 0.010674836114048958
   vertex 0.043131105601787567 -0.00249456986784935 0.011491606011986732
  endloop
 endfacet
 facet normal 1 0 0
  outer loop
   vertex 0.043131105601787567 -0.00249456986784935 0.011491606011986732
   vertex 0.043131105601787567 -0.0028094719164073467 0.010674836114048958
   vertex 0.043131105601787567 -0.002474888926371932 0.010799475945532322
  endloop
 endfacet
 facet normal 1 0 -0
  outer loop
   vertex 0.043131105601787567 -0.00249456986784935 0.011491606011986732
   vertex 0.043131105601787567 -0.002474888926371932 0.010799475945532322
   vertex 0.043131105601787567 -0.0023863217793405056 0.011351375840604305
  endloop
 endfacet
 facet normal 1 0 0
  outer loop
   vertex 0.043131105601787567 -0.0023863217793405056 0.011351375840604305
   vertex 0.043131105601787567 -0.002474888926371932 0.010799475945532322
   vertex 0.043131105601787567 -0.0023502397816628218 0.011147186160087585
  endloop
 endfacet
 facet normal 1 0 0
  outer loop
   vertex 0.043131105601787567 -0.0032555817160755396 0.011599855497479439
   vertex 0.043131105601787567 -0.0054812147282063961 0.011710565537214279
   vertex 0.043131105601787567 -0.0058736116625368595 0.011598005890846252
  endloop
 endfacet
 facet normal 1 0 0
  outer loop
   vertex 0.043131105601787567 -0.0054812147282063961 0.011710565537214279
   vertex 0.043131105601787567 -0.0032555817160755396 0.011599855497479439
   vertex 0.043131105601787567 -0.0051290020346641541 0.011898146010935307
  endloop
 endfacet
 facet normal 1 0 0
  outer loop
   vertex 0.043131105601787567 -0.0051290020346641541 0.011898146010935307
   vertex 0.043131105601787567 -0.0032555817160755396 0.011599855497479439
   vertex 0.043131105601787567 -0.0048169698566198349 0.012160776183009148
  endloop
 endfacet
 facet normal 1 0 0
  outer loop
   vertex 0.043131105601787567 -0.0048169698566198349 0.012160776183009148
   vertex 0.043131105601787567 -0.0032555817160755396 0.011599855497479439
   vertex 0.043131105601787567 -0.0045615206472575665 0.012481216341257095
  endloop
 endfacet
 facet normal 1 0 0
  outer loop
   vertex 0.043131105601787567 -0.0045615206472575665 0.012481216341257095
   vertex 0.043131105601787567 -0.0032555817160755396 0.011599855497479439
   vertex 0.043131105601787567 -0.0043790587224066257 0.012842246331274509
  endloop
 endfacet
 facet normal 1 0 0
  outer loop
   vertex 0.043131105601787567 -0.0043790587224066257 0.012842246331274509
   vertex 0.043131105601787567 -0.0032555817160755396 0.011599855497479439
   vertex 0.043131105601787567 -0.0042695817537605762 0.01324386615306139
  endloop
 endfacet
 facet normal 0.99999999909852522 3.6139796661683956e-05 2.2290460863165838e-05
  outer loop
   vertex 0.043131105601787567 -0.0042695817537605762 0.01324386615306139
   vertex 0.043131105601787567 -0.0032555817160755396 0.011599855497479439
   vertex 0.043131094425916672 -0.004233089741319418 0.013686075806617737
  endloop
 endfacet
 facet normal 0.9999999999563649 -9.287602959510633e-06 1.0052459260948646e-06
  outer loop
   vertex 0.043131094425916672 -0.004233089741319418 0.013686075806617737
   vertex 0.043131105601787567 -0.0032555817160755396 0.011599855497479439
   vertex 0.043131094425916672 -0.0036295277532190084 0.019262466579675674
  endloop
 endfacet
 facet normal 0.99999999999885458 3.3911868299753442e-07 1.4750432798635054e-06
  outer loop
   vertex 0.043131094425916672 -0.0036295277532190084 0.019262466579675674
   vertex 0.043131105601787567 -0.0032555817160755396 0.011599855497479439
   vertex 0.043131094425916672 -0.003344148863106966 0.019196856766939163
  endloop
 endfacet
 facet normal 0.99999999999283407 3.4708841735986589e-06 1.5115539404213469e-06
  outer loop
   vertex 0.043131094425916672 -0.003344148863106966 0.019196856766939163
   vertex 0.043131105601787567 -0.0032555817160755396 0.011599855497479439
   vertex 0.043131094425916672 -0.0032555817160755396 0.01899348571896553
  endloop
 endfacet
 facet normal 1 0 0
  outer loop
   vertex 0.043131094425916672 -0.0054574338719248772 0.018562955781817436
   vertex 0.043131094425916672 -0.0054656346328556538 0.018996765837073326
   vertex 0.043131094425916672 -0.0054992567747831345 0.018790105357766151
  endloop
 endfacet
 facet normal 1 0 -0
  outer loop
   vertex 0.043131094425916672 -0.0054656346328556538 0.018996765837073326
   vertex 0.043131094425916672 -0.0054574338719248772 0.018562955781817436
   vertex 0.043131094425916672 -0.0053647677414119244 0.019144376739859581
  endloop
 endfacet
 facet normal 1 -0 0
  outer loop
   vertex 0.043131094425916672 -0.0053647677414119244 0.019144376739859581
   vertex 0.043131094425916672 -0.0054574338719248772 0.018562955781817436
   vertex 0.043131094425916672 -0.005331964697688818 0.018419446423649788
  endloop
 endfacet
 facet normal 1 0 -0
  outer loop
   vertex 0.043131094425916672 -0.0053647677414119244 0.019144376739859581
   vertex 0.043131094425916672 -0.005331964697688818 0.018419446423649788
   vertex 0.043131094425916672 -0.0049744206480681896 0.019262466579675674
  endloop
 endfacet
 facet normal 1 -0 0
  outer loop
   vertex 0.043131094425916672 -0.0049744206480681896 0.019262466579675674
   vertex 0.043131094425916672 -0.005331964697688818 0.018419446423649788
   vertex 0.043131094425916672 -0.0050638066604733467 0.018343176692724228
  endloop
 endfacet
 facet normal 1 -0 0
  outer loop
   vertex 0.043131094425916672 -0.0049744206480681896 0.019262466579675674
   vertex 0.043131094425916672 -0.0050638066604733467 0.018343176692724228
   vertex 0.043131094425916672 -0.0045939148403704166 0.018317755311727524
  endloop
 endfacet
 facet normal 1 0 -0
  outer loop
   vertex 0.043131094425916672 -0.0049744206480681896 0.019262466579675674
   vertex 0.043131094425916672 -0.0045939148403704166 0.018317755311727524
   vertex 0.043131094425916672 -0.0036295277532190084 0.019262466579675674
  endloop
 endfacet
 facet normal 1 0 0
  outer loop
   vertex 0.043131094425916672 -0.0036295277532190084 0.019262466579675674
   vertex 0.043131094425916672 -0.0045939148403704166 0.018317755311727524
   vertex 0.043131094425916672 -0.0042462106794118881 0.018317755311727524
  endloop
 endfacet
 facet normal 1 -0 0
  outer loop
   vertex 0.043131094425916672 -0.0036295277532190084 0.019262466579675674
   vertex 0.043131094425916672 -0.0042462106794118881 0.018317755311727524
   vertex 0.043131094425916672 -0.004233089741319418 0.013686075806617737
  endloop
 endfacet
endsolid
