solid Visualization Toolkit generated SLA File
 facet normal -1.5329335442631878e-06 0.99999999999882505 0
  outer loop
   vertex 0.025103507563471794 0.036500010639429092 -0.042510911822319031
   vertex 0.027533678337931633 0.036500014364719391 -0.0073702968657016754
   vertex 0.027533678337931633 0.036500014364719391 -0.023434653878211975
  endloop
 endfacet
 facet normal -6.304838607082386e-07 0.99999999999979927 -6.2409461220496127e-08
  outer loop
   vertex 0.027533678337931633 0.036500014364719391 -0.0073702968657016754
   vertex 0.025103507563471794 0.036500010639429092 -0.042510911822319031
   vertex 0.01976964995265007 0.036500010639429092 0.011373724788427353
  endloop
 endfacet
 facet normal 0 1 0
  outer loop
   vertex 0.01976964995265007 0.036500010639429092 0.011373724788427353
   vertex 0.025103507563471794 0.036500010639429092 -0.042510911822319031
   vertex 0.021818764507770538 0.036500010639429092 -0.048199735581874847
  endloop
 endfacet
 facet normal 0 1 0
  outer loop
   vertex 0.01976964995265007 0.036500010639429092 0.011373724788427353
   vertex 0.021818764507770538 0.036500010639429092 -0.048199735581874847
   vertex 0.018594985827803612 0.036500010639429092 -0.049337055534124374
  endloop
 endfacet
 facet normal 0 1 -0
  outer loop
   vertex 0.01976964995265007 0.036500010639429092 0.011373724788427353
   vertex 0.018594985827803612 0.036500010639429092 -0.049337055534124374
   vertex 0.016154661774635315 0.036500010639429092 0.016084868460893631
  endloop
 endfacet
 facet normal 2.9185603073969986e-07 0.99999999999995737 1.0886614889689769e-08
  outer loop
   vertex 0.016154661774635315 0.036500010639429092 0.016084868460893631
   vertex 0.018594985827803612 0.036500010639429092 -0.049337055534124374
   vertex 0.0056441230699419975 0.036500014364719391 -0.044331174343824387
  endloop
 endfacet
 facet normal 4.1741715879643831e-08 0.99999999999999756 5.4398835566435714e-08
  outer loop
   vertex 0.016154661774635315 0.036500010639429092 0.016084868460893631
   vertex 0.0056441230699419975 0.036500014364719391 -0.044331174343824387
   vertex 0.014619399793446064 0.036500010639429092 0.017262917011976242
  endloop
 endfacet
 facet normal 8.1050357366955702e-09 0.99999999999999833 5.9300255584129121e-08
  outer loop
   vertex 0.014619399793446064 0.036500010639429092 0.017262917011976242
   vertex 0.0056441230699419975 0.036500014364719391 -0.044331174343824387
   vertex 0.011289060115814209 0.036500010639429092 0.017718100920319557
  endloop
 endfacet
 facet normal 3.2123704880907973e-06 0.99999999999481337 -2.3220801231781364e-07
  outer loop
   vertex 0.011289060115814209 0.036500010639429092 0.017718100920319557
   vertex 0.0056441230699419975 0.036500014364719391 -0.044331174343824387
   vertex 0.0074984342791140079 0.036500014364719391 -0.018678594380617142
  endloop
 endfacet
 facet normal 2.5073933627541716e-07 0.99999999999996825 -1.8124834324762605e-08
  outer loop
   vertex 0.0074984342791140079 0.036500014364719391 -0.018678594380617142
   vertex 0.0056441230699419975 0.036500014364719391 -0.044331174343824387
   vertex -0.0073587889783084393 0.036500018090009689 -0.018678594380617142
  endloop
 endfacet
 facet normal 9.8989842852030212e-07 0.99999999999944644 3.5654393894918923e-07
  outer loop
   vertex -0.0073587889783084393 0.036500018090009689 -0.018678594380617142
   vertex 0.0056441230699419975 0.036500014364719391 -0.044331174343824387
   vertex 0.0020979610271751881 0.036500018090009689 -0.044934045523405075
  endloop
 endfacet
 facet normal 0 1 0
  outer loop
   vertex -0.0073587889783084393 0.036500018090009689 -0.018678594380617142
   vertex 0.0020979610271751881 0.036500018090009689 -0.044934045523405075
   vertex -0.0022425584029406309 0.036500018090009689 -0.052451364696025848
  endloop
 endfacet
 facet normal -4.6779492941846908e-07 0.99999999999988809 -7.0866165213602317e-08
  outer loop
   vertex -0.0073587889783084393 0.036500018090009689 -0.018678594380617142
   vertex -0.0022425584029406309 0.036500018090009689 -0.052451364696025848
   vertex -0.0076231113635003567 0.036500014364719391 -0.069501742720603943
  endloop
 endfacet
 facet normal -1.4093737446365341e-05 0.99999999990068322 0
  outer loop
   vertex -0.0073587889783084393 0.036500018090009689 -0.018678594380617142
   vertex -0.0076231113635003567 0.036500014364719391 -0.069501742720603943
   vertex -0.0073587889783084393 0.036500018090009689 -0.010321370325982571
  endloop
 endfacet
 facet normal 3.0737917279413982e-07 0.9999999999999486 9.1304534308661519e-08
  outer loop
   vertex 0.011289060115814209 0.036500010639429092 0.017718100920319557
   vertex 0.0074984342791140079 0.036500014364719391 -0.010321370325982571
   vertex -0.010360357351601124 0.036500018090009689 0.0090000173076987267
  endloop
 endfacet
 facet normal 9.8276391787141883e-07 0.99999999999951705 0
  outer loop
   vertex 0.0074984342791140079 0.036500014364719391 -0.010321370325982571
   vertex 0.011289060115814209 0.036500010639429092 0.017718100920319557
   vertex 0.0074984342791140079 0.036500014364719391 -0.018678594380617142
  endloop
 endfacet
 facet normal 2.5073933627541706e-07 0.99999999999996791 3.8952236556381135e-08
  outer loop
   vertex -0.010360357351601124 0.036500018090009689 0.0090000173076987267
   vertex 0.0074984342791140079 0.036500014364719391 -0.010321370325982571
   vertex -0.0073587889783084393 0.036500018090009689 -0.010321370325982571
  endloop
 endfacet
 facet normal -3.9387862721730119e-07 0.99999999999992051 -6.118885728012984e-08
  outer loop
   vertex -0.010360357351601124 0.036500018090009689 0.0090000173076987267
   vertex -0.0073587889783084393 0.036500018090009689 -0.010321370325982571
   vertex -0.0076231113635003567 0.036500014364719391 -0.069501742720603943
  endloop
 endfacet
 facet normal 2.4561576841718407e-06 0.99999999999698297 3.8187901361838859e-08
  outer loop
   vertex -0.010360357351601124 0.036500018090009689 0.0090000173076987267
   vertex -0.0076231113635003567 0.036500014364719391 -0.069501742720603943
   vertex -0.0091307144612073898 0.036500018090009689 -0.070087775588035583
  endloop
 endfacet
 facet normal 0 1 0
  outer loop
   vertex -0.010360357351601124 0.036500018090009689 0.0090000173076987267
   vertex -0.0091307144612073898 0.036500018090009689 -0.070087775588035583
   vertex -0.013523545116186142 0.036500018090009689 -0.067551344633102417
  endloop
 endfacet
 facet normal 0 1 -0
  outer loop
   vertex -0.010360357351601124 0.036500018090009689 0.0090000173076987267
   vertex -0.013523545116186142 0.036500018090009689 -0.067551344633102417
   vertex -0.015556666068732738 0.036500018090009689 0.0092147346585988998
  endloop
 endfacet
 facet normal 0 1 0
  outer loop
   vertex -0.015556666068732738 0.036500018090009689 0.0092147346585988998
   vertex -0.013523545116186142 0.036500018090009689 -0.067551344633102417
   vertex -0.022441927343606949 0.036500018090009689 -0.031444381922483444
  endloop
 endfacet
 facet normal 0 1 0
  outer loop
   vertex -0.015556666068732738 0.036500018090009689 0.0092147346585988998
   vertex -0.022441927343606949 0.036500018090009689 -0.031444381922483444
   vertex -0.020967692136764526 0.036500018090009689 0.004233142826706171
  endloop
 endfacet
 facet normal -0.97082413848432669 -0 -0.23979260233828131
  outer loop
   vertex -0.022441929206252098 0.035000018775463104 -0.031444381922483444
   vertex -0.013523545116186142 0.036500018090009689 -0.067551344633102417
   vertex -0.013523545116186142 0.035000018775463104 -0.067551344633102417
  endloop
 endfacet
 facet normal -0.97082415014247991 1.2055344802379219e-06 -0.23979255513605557
  outer loop
   vertex -0.013523545116186142 0.036500018090009689 -0.067551344633102417
   vertex -0.022441929206252098 0.035000018775463104 -0.031444381922483444
   vertex -0.022441927343606949 0.036500018090009689 -0.031444381922483444
  endloop
 endfacet
 facet normal -0.99914737215171245 1.2407052377005914e-06 0.04128593853587352
  outer loop
   vertex -0.020967692136764526 0.035000018775463104 0.004233142826706171
   vertex -0.022441927343606949 0.036500018090009689 -0.031444381922483444
   vertex -0.022441929206252098 0.035000018775463104 -0.031444381922483444
  endloop
 endfacet
 facet normal -0.99914737430425427 0 0.041285886461530745
  outer loop
   vertex -0.022441927343606949 0.036500018090009689 -0.031444381922483444
   vertex -0.020967692136764526 0.035000018775463104 0.004233142826706171
   vertex -0.020967692136764526 0.036500018090009689 0.004233142826706171
  endloop
 endfacet
 facet normal -0.67731037847143205 0 0.73569739106162768
  outer loop
   vertex -0.015556666068732738 0.036500018090009689 0.0092147346585988998
   vertex -0.020967692136764526 0.035000018775463104 0.004233142826706171
   vertex -0.015556666068732738 0.035000018775463104 0.0092147346585988998
  endloop
 endfacet
 facet normal -0.67731037847143205 0 0.73569739106162768
  outer loop
   vertex -0.020967692136764526 0.035000018775463104 0.004233142826706171
   vertex -0.015556666068732738 0.036500018090009689 0.0092147346585988998
   vertex -0.020967692136764526 0.036500018090009689 0.004233142826706171
  endloop
 endfacet
 facet normal 0.041285899074908441 0 0.9991473737830554
  outer loop
   vertex -0.010360357351601124 0.036500018090009689 0.0090000173076987267
   vertex -0.015556666068732738 0.035000018775463104 0.0092147346585988998
   vertex -0.010360357351601124 0.035000018775463104 0.0090000173076987267
  endloop
 endfacet
 facet normal 0.041285899074908441 0 0.9991473737830554
  outer loop
   vertex -0.015556666068732738 0.035000018775463104 0.0092147346585988998
   vertex -0.010360357351601124 0.036500018090009689 0.0090000173076987267
   vertex -0.015556666068732738 0.036500018090009689 0.0092147346585988998
  endloop
 endfacet
 facet normal -0.37354372207170089 0 0.92761257413902043
  outer loop
   vertex 0.011289060115814209 0.036500010639429092 0.017718100920319557
   vertex -0.010360357351601124 0.035000018775463104 0.0090000173076987267
   vertex 0.011289060115814209 0.035000011324882507 0.017718100920319557
  endloop
 endfacet
 facet normal -0.37354372207170089 0 0.92761257413902043
  outer loop
   vertex -0.010360357351601124 0.035000018775463104 0.0090000173076987267
   vertex 0.011289060115814209 0.036500010639429092 0.017718100920319557
   vertex -0.010360357351601124 0.036500018090009689 0.0090000173076987267
  endloop
 endfacet
 facet normal 0.13541894191796297 -8.4079183514069785e-08 0.99078842856071569
  outer loop
   vertex 0.014619399793446064 0.036500010639429092 0.017262917011976242
   vertex 0.011289060115814209 0.035000011324882507 0.017718100920319557
   vertex 0.014619398862123489 0.035000011324882507 0.017262917011976242
  endloop
 endfacet
 facet normal 0.13541890474280147 0 0.99078843364174385
  outer loop
   vertex 0.011289060115814209 0.035000011324882507 0.017718100920319557
   vertex 0.014619399793446064 0.036500010639429092 0.017262917011976242
   vertex 0.011289060115814209 0.036500010639429092 0.017718100920319557
  endloop
 endfacet
 facet normal 0.60876139149731034 -3.779689903572744e-07 0.79335336907466103
  outer loop
   vertex 0.016154661774635315 0.035000011324882507 0.016084868460893631
   vertex 0.014619399793446064 0.036500010639429092 0.017262917011976242
   vertex 0.014619398862123489 0.035000011324882507 0.017262917011976242
  endloop
 endfacet
 facet normal 0.60876162393043021 -0 0.79335319072250887
  outer loop
   vertex 0.014619399793446064 0.036500010639429092 0.017262917011976242
   vertex 0.016154661774635315 0.035000011324882507 0.016084868460893631
   vertex 0.016154661774635315 0.036500010639429092 0.016084868460893631
  endloop
 endfacet
 facet normal 0.92387952549321806 0 0.38268344930820625
  outer loop
   vertex 0.027533678337931633 0.036500014364719391 -0.0073702968657016754
   vertex 0.01976964995265007 0.035000011324882507 0.011373724788427353
   vertex 0.027533678337931633 0.035000015050172806 -0.0073702968657016754
  endloop
 endfacet
 facet normal 0.92387952549321806 0 0.38268344930820625
  outer loop
   vertex 0.01976964995265007 0.035000011324882507 0.011373724788427353
   vertex 0.027533678337931633 0.036500014364719391 -0.0073702968657016754
   vertex 0.01976964995265007 0.036500010639429092 0.011373724788427353
  endloop
 endfacet
 facet normal -0.50003385761862562 -0 -0.86600585519673945
  outer loop
   vertex -0.013523545116186142 0.035000018775463104 -0.067551344633102417
   vertex -0.0091307144612073898 0.036500018090009689 -0.070087775588035583
   vertex -0.0091307144612073898 0.035000015050172806 -0.070087775588035583
  endloop
 endfacet
 facet normal -0.50003385761862562 0 -0.86600585519673945
  outer loop
   vertex -0.0091307144612073898 0.036500018090009689 -0.070087775588035583
   vertex -0.013523545116186142 0.035000018775463104 -0.067551344633102417
   vertex -0.013523545116186142 0.036500018090009689 -0.067551344633102417
  endloop
 endfacet
 facet normal 0.79335330012325611 0 0.60876148135664643
  outer loop
   vertex 0.01976964995265007 0.036500010639429092 0.011373724788427353
   vertex 0.016154661774635315 0.035000011324882507 0.016084868460893631
   vertex 0.01976964995265007 0.035000011324882507 0.011373724788427353
  endloop
 endfacet
 facet normal 0.79335330012325611 0 0.60876148135664643
  outer loop
   vertex 0.016154661774635315 0.035000011324882507 0.016084868460893631
   vertex 0.01976964995265007 0.036500010639429092 0.011373724788427353
   vertex 0.016154661774635315 0.036500010639429092 0.016084868460893631
  endloop
 endfacet
 facet normal 0 -1 0
  outer loop
   vertex 0.011289060115814209 0.035000011324882507 0.017718100920319557
   vertex 0.0074984342791140079 0.035000011324882507 -0.010321370325982571
   vertex 0.0074984342791140079 0.035000011324882507 -0.018678594380617142
  endloop
 endfacet
 facet normal -3.639608605542373e-07 -0.99999999999993261 4.920347568060789e-08
  outer loop
   vertex 0.0074984342791140079 0.035000011324882507 -0.010321370325982571
   vertex 0.011289060115814209 0.035000011324882507 0.017718100920319557
   vertex -0.010360357351601124 0.035000018775463104 0.0090000173076987267
  endloop
 endfacet
 facet normal -2.507393284166377e-07 -0.9999999999999567 1.53854331452018e-07
  outer loop
   vertex 0.0074984342791140079 0.035000011324882507 -0.010321370325982571
   vertex -0.010360357351601124 0.035000018775463104 0.0090000173076987267
   vertex -0.0073587894439697266 0.035000015050172806 -0.010321370325982571
  endloop
 endfacet
 facet normal -1.2064293176969952e-06 -0.99999999999927214 5.3883694902311933e-09
  outer loop
   vertex -0.0073587894439697266 0.035000015050172806 -0.010321370325982571
   vertex -0.010360357351601124 0.035000018775463104 0.0090000173076987267
   vertex -0.0076231113635003567 0.035000015050172806 -0.069501742720603943
  endloop
 endfacet
 facet normal -1.8199889993408296e-08 -0.99999999999999878 4.6820258823094401e-08
  outer loop
   vertex -0.0076231113635003567 0.035000015050172806 -0.069501742720603943
   vertex -0.010360357351601124 0.035000018775463104 0.0090000173076987267
   vertex -0.0091307144612073898 0.035000015050172806 -0.070087775588035583
  endloop
 endfacet
 facet normal -8.2827689194576067e-07 -0.9999999999996565 3.4225326158369825e-08
  outer loop
   vertex -0.0091307144612073898 0.035000015050172806 -0.070087775588035583
   vertex -0.010360357351601124 0.035000018775463104 0.0090000173076987267
   vertex -0.013523545116186142 0.035000018775463104 -0.067551344633102417
  endloop
 endfacet
 facet normal -0 -1 0
  outer loop
   vertex -0.013523545116186142 0.035000018775463104 -0.067551344633102417
   vertex -0.010360357351601124 0.035000018775463104 0.0090000173076987267
   vertex -0.015556666068732738 0.035000018775463104 0.0092147346585988998
  endloop
 endfacet
 facet normal 0 -1 -0
  outer loop
   vertex -0.013523545116186142 0.035000018775463104 -0.067551344633102417
   vertex -0.015556666068732738 0.035000018775463104 0.0092147346585988998
   vertex -0.022441929206252098 0.035000018775463104 -0.031444381922483444
  endloop
 endfacet
 facet normal 0 -1 0
  outer loop
   vertex -0.022441929206252098 0.035000018775463104 -0.031444381922483444
   vertex -0.015556666068732738 0.035000018775463104 0.0092147346585988998
   vertex -0.020967692136764526 0.035000018775463104 0.004233142826706171
  endloop
 endfacet
 facet normal -1.8203427425542717e-06 -0.99999999999831635 2.3189787773980184e-07
  outer loop
   vertex 0.027533678337931633 0.035000015050172806 -0.0073702968657016754
   vertex 0.025103507563471794 0.035000011324882507 -0.042510911822319031
   vertex 0.027533678337931633 0.035000011324882507 -0.023434653878211975
  endloop
 endfacet
 facet normal 6.304838607082386e-07 -0.99999999999979927 6.2409461220496127e-08
  outer loop
   vertex 0.025103507563471794 0.035000011324882507 -0.042510911822319031
   vertex 0.027533678337931633 0.035000015050172806 -0.0073702968657016754
   vertex 0.01976964995265007 0.035000011324882507 0.011373724788427353
  endloop
 endfacet
 facet normal 0 -1 0
  outer loop
   vertex 0.025103507563471794 0.035000011324882507 -0.042510911822319031
   vertex 0.01976964995265007 0.035000011324882507 0.011373724788427353
   vertex 0.021818764507770538 0.035000011324882507 -0.048199735581874847
  endloop
 endfacet
 facet normal 0 -1 -0
  outer loop
   vertex 0.021818764507770538 0.035000011324882507 -0.048199735581874847
   vertex 0.01976964995265007 0.035000011324882507 0.011373724788427353
   vertex 0.018594985827803612 0.035000011324882507 -0.049337055534124374
  endloop
 endfacet
 facet normal -0 -1 0
  outer loop
   vertex 0.018594985827803612 0.035000011324882507 -0.049337055534124374
   vertex 0.01976964995265007 0.035000011324882507 0.011373724788427353
   vertex 0.016154661774635315 0.035000011324882507 0.016084868460893631
  endloop
 endfacet
 facet normal -2.9185603073969986e-07 -0.99999999999995737 -1.0886614889689769e-08
  outer loop
   vertex 0.018594985827803612 0.035000011324882507 -0.049337055534124374
   vertex 0.016154661774635315 0.035000011324882507 0.016084868460893631
   vertex 0.0056441230699419975 0.035000015050172806 -0.044331174343824387
  endloop
 endfacet
 facet normal -4.1741693540349093e-08 -0.99999999999999767 -5.4398839452787935e-08
  outer loop
   vertex 0.0056441230699419975 0.035000015050172806 -0.044331174343824387
   vertex 0.016154661774635315 0.035000011324882507 0.016084868460893631
   vertex 0.014619398862123489 0.035000011324882507 0.017262917011976242
  endloop
 endfacet
 facet normal -8.1050379754157283e-09 -0.99999999999999833 -5.9300255380461399e-08
  outer loop
   vertex 0.0056441230699419975 0.035000015050172806 -0.044331174343824387
   vertex 0.014619398862123489 0.035000011324882507 0.017262917011976242
   vertex 0.011289060115814209 0.035000011324882507 0.017718100920319557
  endloop
 endfacet
 facet normal 4.5578132887933833e-06 -0.99999999998950051 -4.7468498632926923e-07
  outer loop
   vertex 0.0056441230699419975 0.035000015050172806 -0.044331174343824387
   vertex 0.011289060115814209 0.035000011324882507 0.017718100920319557
   vertex 0.0074984342791140079 0.035000011324882507 -0.018678594380617142
  endloop
 endfacet
 facet normal -5.0147865683323103e-07 -0.99999999999986833 -1.0897121490097255e-07
  outer loop
   vertex 0.0056441230699419975 0.035000015050172806 -0.044331174343824387
   vertex 0.0074984342791140079 0.035000011324882507 -0.018678594380617142
   vertex -0.0073587894439697266 0.035000018775463104 -0.018678594380617142
  endloop
 endfacet
 facet normal -2.2729801603942927e-08 -0.99999999999999079 1.3369948292399485e-07
  outer loop
   vertex 0.0056441230699419975 0.035000015050172806 -0.044331174343824387
   vertex -0.0073587894439697266 0.035000018775463104 -0.018678594380617142
   vertex 0.0020979607943445444 0.035000015050172806 -0.044934045523405075
  endloop
 endfacet
 facet normal -6.7988226926188374e-07 -0.99999999999976363 -1.0299524082448461e-07
  outer loop
   vertex 0.0020979607943445444 0.035000015050172806 -0.044934045523405075
   vertex -0.0073587894439697266 0.035000018775463104 -0.018678594380617142
   vertex -0.0022425586357712746 0.035000018775463104 -0.052451364696025848
  endloop
 endfacet
 facet normal 4.6779493619055975e-07 -0.99999999999988809 7.0866169464499473e-08
  outer loop
   vertex -0.0022425586357712746 0.035000018775463104 -0.052451364696025848
   vertex -0.0073587894439697266 0.035000018775463104 -0.018678594380617142
   vertex -0.0076231113635003567 0.035000015050172806 -0.069501742720603943
  endloop
 endfacet
 facet normal 9.9802768286063665e-05 -0.99999999501960435 -4.4575689912759997e-07
  outer loop
   vertex -0.0076231113635003567 0.035000015050172806 -0.069501742720603943
   vertex -0.0073587894439697266 0.035000018775463104 -0.018678594380617142
   vertex -0.0073587894439697266 0.035000015050172806 -0.010321370325982571
  endloop
 endfacet
 facet normal -0 0 1
  outer loop
   vertex 0.0074984342791140079 0.036500014364719391 -0.018678594380617142
   vertex -0.0073587894439697266 0.035000018775463104 -0.018678594380617142
   vertex 0.0074984342791140079 0.035000011324882507 -0.018678594380617142
  endloop
 endfacet
 facet normal 0 0 1
  outer loop
   vertex -0.0073587894439697266 0.035000018775463104 -0.018678594380617142
   vertex 0.0074984342791140079 0.036500014364719391 -0.018678594380617142
   vertex -0.0073587889783084393 0.036500018090009689 -0.018678594380617142
  endloop
 endfacet
 facet normal 0.99999999999995193 -3.1044100006704032e-07 -1.3838121824114817e-13
  outer loop
   vertex -0.0073587889783084393 0.036500018090009689 -0.018678594380617142
   vertex -0.0073587894439697266 0.035000015050172806 -0.010321370325982571
   vertex -0.0073587894439697266 0.035000018775463104 -0.018678594380617142
  endloop
 endfacet
 facet normal 0.99999999999995171 -3.1044022908003885e-07 0
  outer loop
   vertex -0.0073587894439697266 0.035000015050172806 -0.010321370325982571
   vertex -0.0073587889783084393 0.036500018090009689 -0.018678594380617142
   vertex -0.0073587889783084393 0.036500018090009689 -0.010321370325982571
  endloop
 endfacet
 facet normal 0 -0 -1
  outer loop
   vertex -0.0073587894439697266 0.035000015050172806 -0.010321370325982571
   vertex 0.0074984342791140079 0.036500014364719391 -0.010321370325982571
   vertex 0.0074984342791140079 0.035000011324882507 -0.010321370325982571
  endloop
 endfacet
 facet normal 0 0 -1
  outer loop
   vertex 0.0074984342791140079 0.036500014364719391 -0.010321370325982571
   vertex -0.0073587894439697266 0.035000015050172806 -0.010321370325982571
   vertex -0.0073587889783084393 0.036500018090009689 -0.010321370325982571
  endloop
 endfacet
 facet normal -1 0 0
  outer loop
   vertex 0.0074984342791140079 0.035000011324882507 -0.010321370325982571
   vertex 0.0074984342791140079 0.036500014364719391 -0.018678594380617142
   vertex 0.0074984342791140079 0.035000011324882507 -0.018678594380617142
  endloop
 endfacet
 facet normal -1 0 0
  outer loop
   vertex 0.0074984342791140079 0.036500014364719391 -0.018678594380617142
   vertex 0.0074984342791140079 0.035000011324882507 -0.010321370325982571
   vertex 0.0074984342791140079 0.036500014364719391 -0.010321370325982571
  endloop
 endfacet
 facet normal 0.36230812102575843 0 -0.93205838091762494
  outer loop
   vertex -0.0091307144612073898 0.035000015050172806 -0.070087775588035583
   vertex -0.0076231113635003567 0.036500014364719391 -0.069501742720603943
   vertex -0.0076231113635003567 0.035000015050172806 -0.069501742720603943
  endloop
 endfacet
 facet normal 0.36230812102575843 0 -0.93205838091762494
  outer loop
   vertex -0.0076231113635003567 0.036500014364719391 -0.069501742720603943
   vertex -0.0091307144612073898 0.035000015050172806 -0.070087775588035583
   vertex -0.0091307144612073898 0.036500018090009689 -0.070087775588035583
  endloop
 endfacet
 facet normal 0.95364331011033976 0 -0.30093925812660965
  outer loop
   vertex -0.0076231113635003567 0.036500014364719391 -0.069501742720603943
   vertex -0.0022425586357712746 0.035000018775463104 -0.052451364696025848
   vertex -0.0076231113635003567 0.035000015050172806 -0.069501742720603943
  endloop
 endfacet
 facet normal 0.95364330637304773 -1.4802499086885105e-07 -0.30093926996963949
  outer loop
   vertex -0.0022425586357712746 0.035000018775463104 -0.052451364696025848
   vertex -0.0076231113635003567 0.036500014364719391 -0.069501742720603943
   vertex -0.0022425584029406309 0.036500018090009689 -0.052451364696025848
  endloop
 endfacet
 facet normal 0.86600578974406606 -1.3442185171600391e-07 -0.50003397097571134
  outer loop
   vertex -0.0022425584029406309 0.036500018090009689 -0.052451364696025848
   vertex 0.0020979607943445444 0.035000015050172806 -0.044934045523405075
   vertex -0.0022425586357712746 0.035000018775463104 -0.052451364696025848
  endloop
 endfacet
 facet normal 0.86600578974409481 -1.3442151787640485e-07 -0.50003397097566127
  outer loop
   vertex 0.0020979607943445444 0.035000015050172806 -0.044934045523405075
   vertex -0.0022425584029406309 0.036500018090009689 -0.052451364696025848
   vertex 0.0020979610271751881 0.036500018090009689 -0.044934045523405075
  endloop
 endfacet
 facet normal 0.16760186862444257 0 -0.98585476295121433
  outer loop
   vertex 0.0020979607943445444 0.035000015050172806 -0.044934045523405075
   vertex 0.0056441230699419975 0.036500014364719391 -0.044331174343824387
   vertex 0.0056441230699419975 0.035000015050172806 -0.044331174343824387
  endloop
 endfacet
 facet normal 0.16760187931955156 -2.6015182905104563e-08 -0.98585476113297443
  outer loop
   vertex 0.0056441230699419975 0.036500014364719391 -0.044331174343824387
   vertex 0.0020979607943445444 0.035000015050172806 -0.044934045523405075
   vertex 0.0020979610271751881 0.036500018090009689 -0.044934045523405075
  endloop
 endfacet
 facet normal -0.36053330562209546 -0 -0.93274634040408033
  outer loop
   vertex 0.0056441230699419975 0.035000015050172806 -0.044331174343824387
   vertex 0.018594985827803612 0.036500010639429092 -0.049337055534124374
   vertex 0.018594985827803612 0.035000011324882507 -0.049337055534124374
  endloop
 endfacet
 facet normal -0.36053330562209546 0 -0.93274634040408033
  outer loop
   vertex 0.018594985827803612 0.036500010639429092 -0.049337055534124374
   vertex 0.0056441230699419975 0.035000015050172806 -0.044331174343824387
   vertex 0.0056441230699419975 0.036500014364719391 -0.044331174343824387
  endloop
 endfacet
 facet normal 0.33269414090157301 0 -0.94303478653216399
  outer loop
   vertex 0.018594985827803612 0.035000011324882507 -0.049337055534124374
   vertex 0.021818764507770538 0.036500010639429092 -0.048199735581874847
   vertex 0.021818764507770538 0.035000011324882507 -0.048199735581874847
  endloop
 endfacet
 facet normal 0.33269414090157301 0 -0.94303478653216399
  outer loop
   vertex 0.021818764507770538 0.036500010639429092 -0.048199735581874847
   vertex 0.018594985827803612 0.035000011324882507 -0.049337055534124374
   vertex 0.018594985827803612 0.036500010639429092 -0.049337055534124374
  endloop
 endfacet
 facet normal 0.86600568550654022 0 -0.50003415150402208
  outer loop
   vertex 0.021818764507770538 0.036500010639429092 -0.048199735581874847
   vertex 0.025103507563471794 0.035000011324882507 -0.042510911822319031
   vertex 0.021818764507770538 0.035000011324882507 -0.048199735581874847
  endloop
 endfacet
 facet normal 0.86600568550654022 0 -0.50003415150402208
  outer loop
   vertex 0.025103507563471794 0.035000011324882507 -0.042510911822319031
   vertex 0.021818764507770538 0.036500010639429092 -0.048199735581874847
   vertex 0.025103507563471794 0.036500010639429092 -0.042510911822319031
  endloop
 endfacet
 facet normal 0.9919830335098575 0 -0.12637112497948627
  outer loop
   vertex 0.025103507563471794 0.036500010639429092 -0.042510911822319031
   vertex 0.027533678337931633 0.035000011324882507 -0.023434653878211975
   vertex 0.025103507563471794 0.035000011324882507 -0.042510911822319031
  endloop
 endfacet
 facet normal 0.9919830335098575 0 -0.12637112497948627
  outer loop
   vertex 0.027533678337931633 0.035000011324882507 -0.023434653878211975
   vertex 0.025103507563471794 0.036500010639429092 -0.042510911822319031
   vertex 0.027533678337931633 0.036500014364719391 -0.023434653878211975
  endloop
 endfacet
 facet normal 1 0 0
  outer loop
   vertex 0.027533678337931633 0.036500014364719391 -0.023434653878211975
   vertex 0.027533678337931633 0.035000015050172806 -0.0073702968657016754
   vertex 0.027533678337931633 0.035000011324882507 -0.023434653878211975
  endloop
 endfacet
 facet normal 1 0 -0
  outer loop
   vertex 0.027533678337931633 0.035000015050172806 -0.0073702968657016754
   vertex 0.027533678337931633 0.036500014364719391 -0.023434653878211975
   vertex 0.027533678337931633 0.036500014364719391 -0.0073702968657016754
  endloop
 endfacet
endsolid
